<svg width="90" height="29" viewBox="0 0 90 29" fill="none" xmlns="http://www.w3.org/2000/svg">
<path d="M5.405 7.082H5.378C5.3 7.376 5.108 7.622 4.802 7.82C4.502 8.012 4.112 8.108 3.632 8.108C3.248 8.108 2.894 8.039 2.57 7.901C2.252 7.757 1.979 7.55 1.751 7.28C1.523 7.004 1.343 6.665 1.211 6.263C1.085 5.855 1.022 5.387 1.022 4.859C1.022 4.337 1.085 3.875 1.211 3.473C1.337 3.065 1.517 2.726 1.751 2.456C1.985 2.18 2.267 1.97 2.597 1.826C2.927 1.682 3.293 1.61 3.695 1.61C4.259 1.61 4.73 1.736 5.108 1.988C5.486 2.24 5.777 2.573 5.981 2.987L5.36 3.365C5.216 3.029 5 2.765 4.712 2.573C4.43 2.381 4.091 2.285 3.695 2.285C3.419 2.285 3.167 2.336 2.939 2.438C2.711 2.534 2.513 2.672 2.345 2.852C2.183 3.032 2.057 3.248 1.967 3.5C1.877 3.752 1.832 4.034 1.832 4.346V5.363C1.832 5.675 1.877 5.96 1.967 6.218C2.057 6.47 2.183 6.686 2.345 6.866C2.513 7.046 2.717 7.187 2.957 7.289C3.197 7.385 3.467 7.433 3.767 7.433C3.983 7.433 4.187 7.406 4.379 7.352C4.577 7.292 4.748 7.205 4.892 7.091C5.042 6.977 5.159 6.836 5.243 6.668C5.327 6.494 5.369 6.29 5.369 6.056V5.435H3.983V4.769H6.107V8H5.405V7.082ZM7.59481 8V1.718H11.4288V2.384H8.35081V4.49H11.2488V5.156H8.35081V7.334H11.4288V8H7.59481ZM14.9569 2.384V8H14.2009V2.384H12.2029V1.718H16.9549V2.384H14.9569ZM19.8222 8V7.37H20.7042V2.348H19.8222V1.718H22.3422V2.348H21.4602V7.37H22.3422V8H19.8222ZM25.7762 2.384V8H25.0202V2.384H23.0222V1.718H27.7742V2.384H25.7762ZM33.2876 8.108C32.8796 8.108 32.5106 8.039 32.1806 7.901C31.8566 7.757 31.5776 7.55 31.3436 7.28C31.1156 7.004 30.9386 6.665 30.8126 6.263C30.6866 5.855 30.6236 5.387 30.6236 4.859C30.6236 4.331 30.6866 3.866 30.8126 3.464C30.9386 3.062 31.1156 2.723 31.3436 2.447C31.5776 2.171 31.8566 1.964 32.1806 1.826C32.5106 1.682 32.8796 1.61 33.2876 1.61C33.6896 1.61 34.0556 1.682 34.3856 1.826C34.7156 1.964 34.9946 2.171 35.2226 2.447C35.4566 2.723 35.6366 3.062 35.7626 3.464C35.8886 3.866 35.9516 4.331 35.9516 4.859C35.9516 5.387 35.8886 5.855 35.7626 6.263C35.6366 6.665 35.4566 7.004 35.2226 7.28C34.9946 7.55 34.7156 7.757 34.3856 7.901C34.0556 8.039 33.6896 8.108 33.2876 8.108ZM33.2876 7.433C33.5576 7.433 33.8066 7.385 34.0346 7.289C34.2626 7.193 34.4576 7.055 34.6196 6.875C34.7876 6.695 34.9166 6.479 35.0066 6.227C35.0966 5.975 35.1416 5.693 35.1416 5.381V4.337C35.1416 4.025 35.0966 3.743 35.0066 3.491C34.9166 3.239 34.7876 3.023 34.6196 2.843C34.4576 2.663 34.2626 2.525 34.0346 2.429C33.8066 2.333 33.5576 2.285 33.2876 2.285C33.0176 2.285 32.7686 2.333 32.5406 2.429C32.3126 2.525 32.1146 2.663 31.9466 2.843C31.7846 3.023 31.6586 3.239 31.5686 3.491C31.4786 3.743 31.4336 4.025 31.4336 4.337V5.381C31.4336 5.693 31.4786 5.975 31.5686 6.227C31.6586 6.479 31.7846 6.695 31.9466 6.875C32.1146 7.055 32.3126 7.193 32.5406 7.289C32.7686 7.385 33.0176 7.433 33.2876 7.433ZM38.8316 4.166L38.0756 2.771H38.0486V8H37.3106V1.718H38.1836L40.4786 5.552L41.2346 6.947H41.2616V1.718H41.9996V8H41.1266L38.8316 4.166Z" fill="black" fill-opacity="0.72"/>
<path d="M12.808 18.851C12.808 20.551 12.3037 21.9053 11.295 22.914C10.1617 24.1153 8.67133 24.716 6.824 24.716C5.056 24.716 3.56 24.104 2.336 22.88C1.112 21.656 0.5 20.1487 0.5 18.358C0.5 16.5673 1.112 15.06 2.336 13.836C3.56 12.612 5.056 12 6.824 12C7.71933 12 8.56367 12.1587 9.357 12.476C10.1503 12.7933 10.802 13.241 11.312 13.819L10.19 14.941C9.816 14.4877 9.32867 14.1363 8.728 13.887C8.13867 13.6263 7.504 13.496 6.824 13.496C5.498 13.496 4.376 13.955 3.458 14.873C2.55133 15.8023 2.098 16.964 2.098 18.358C2.098 19.752 2.55133 20.9137 3.458 21.843C4.376 22.761 5.498 23.22 6.824 23.22C8.03667 23.22 9.04533 22.88 9.85 22.2C10.6547 21.52 11.1193 20.585 11.244 19.395H6.824V17.933H12.723C12.7797 18.2503 12.808 18.5563 12.808 18.851Z" fill="black" fill-opacity="0.72"/>
<path d="M13.8773 20.279C13.8773 18.9983 14.2796 17.9387 15.0843 17.1C15.9003 16.2613 16.9259 15.842 18.1613 15.842C19.3966 15.842 20.4166 16.2613 21.2213 17.1C22.0373 17.9387 22.4453 18.9983 22.4453 20.279C22.4453 21.571 22.0373 22.6307 21.2213 23.458C20.4166 24.2967 19.3966 24.716 18.1613 24.716C16.9259 24.716 15.9003 24.2967 15.0843 23.458C14.2796 22.6193 13.8773 21.5597 13.8773 20.279ZM15.4413 20.279C15.4413 21.1743 15.7019 21.8997 16.2233 22.455C16.7446 23.0103 17.3906 23.288 18.1613 23.288C18.9319 23.288 19.5779 23.0103 20.0993 22.455C20.6206 21.8997 20.8813 21.1743 20.8813 20.279C20.8813 19.395 20.6206 18.6753 20.0993 18.12C19.5666 17.5533 18.9206 17.27 18.1613 17.27C17.4019 17.27 16.7559 17.5533 16.2233 18.12C15.7019 18.6753 15.4413 19.395 15.4413 20.279Z" fill="black" fill-opacity="0.72"/>
<path d="M23.39 20.279C23.39 18.9983 23.7923 17.9387 24.597 17.1C25.413 16.2613 26.4386 15.842 27.674 15.842C28.9093 15.842 29.9293 16.2613 30.734 17.1C31.55 17.9387 31.958 18.9983 31.958 20.279C31.958 21.571 31.55 22.6307 30.734 23.458C29.9293 24.2967 28.9093 24.716 27.674 24.716C26.4386 24.716 25.413 24.2967 24.597 23.458C23.7923 22.6193 23.39 21.5597 23.39 20.279ZM24.954 20.279C24.954 21.1743 25.2146 21.8997 25.736 22.455C26.2573 23.0103 26.9033 23.288 27.674 23.288C28.4446 23.288 29.0906 23.0103 29.612 22.455C30.1333 21.8997 30.394 21.1743 30.394 20.279C30.394 19.395 30.1333 18.6753 29.612 18.12C29.0793 17.5533 28.4333 17.27 27.674 17.27C26.9146 17.27 26.2686 17.5533 25.736 18.12C25.2146 18.6753 24.954 19.395 24.954 20.279Z" fill="black" fill-opacity="0.72"/>
<path d="M37.1187 23.288C37.8893 23.288 38.5183 23.0103 39.0057 22.455C39.5157 21.8997 39.7707 21.1743 39.7707 20.279C39.7707 19.4063 39.5157 18.6867 39.0057 18.12C38.507 17.5533 37.878 17.27 37.1187 17.27C36.3707 17.27 35.7417 17.5533 35.2317 18.12C34.7217 18.6867 34.4667 19.4063 34.4667 20.279C34.4667 21.163 34.7217 21.8827 35.2317 22.438C35.7417 23.0047 36.3707 23.288 37.1187 23.288ZM37.0677 28.388C36.603 28.388 36.1667 28.3257 35.7587 28.201C35.3507 28.0877 34.9767 27.9233 34.6367 27.708C34.308 27.4927 34.0247 27.2377 33.7867 26.943C33.5487 26.6483 33.3673 26.3197 33.2427 25.957L34.7217 25.345C34.8917 25.8323 35.1863 26.2233 35.6057 26.518C36.025 26.8127 36.5123 26.96 37.0677 26.96C37.9177 26.96 38.5807 26.705 39.0567 26.195C39.5327 25.685 39.7707 24.9823 39.7707 24.087V23.288H39.7027C39.408 23.73 39.0057 24.0813 38.4957 24.342C37.997 24.5913 37.453 24.716 36.8637 24.716C35.7757 24.716 34.8407 24.291 34.0587 23.441C33.288 22.5683 32.9027 21.5143 32.9027 20.279C32.9027 19.0437 33.288 17.9953 34.0587 17.134C34.8407 16.2727 35.7757 15.842 36.8637 15.842C37.453 15.842 37.997 15.9723 38.4957 16.233C39.0057 16.4823 39.408 16.828 39.7027 17.27H39.7707V16.114H41.2667V24.087C41.2667 25.4243 40.887 26.4727 40.1277 27.232C39.357 28.0027 38.337 28.388 37.0677 28.388Z" fill="black" fill-opacity="0.72"/>
<path d="M44.7376 12.272V24.444H43.1736V12.272H44.7376Z" fill="black" fill-opacity="0.72"/>
<path d="M50.3003 24.716C49.0763 24.716 48.0676 24.2967 47.2743 23.458C46.481 22.6193 46.0843 21.5597 46.0843 20.279C46.0843 19.0097 46.4696 17.9557 47.2403 17.117C48.011 16.267 48.997 15.842 50.1983 15.842C51.4336 15.842 52.414 16.2443 53.1393 17.049C53.876 17.8423 54.2443 18.9587 54.2443 20.398L54.2273 20.568H47.6823C47.705 21.384 47.977 22.0413 48.4983 22.54C49.0196 23.0387 49.643 23.288 50.3683 23.288C51.3656 23.288 52.1476 22.7893 52.7143 21.792L54.1083 22.472C53.7343 23.1747 53.213 23.7243 52.5443 24.121C51.887 24.5177 51.139 24.716 50.3003 24.716ZM47.8013 19.276H52.5783C52.533 18.698 52.295 18.222 51.8643 17.848C51.445 17.4627 50.8783 17.27 50.1643 17.27C49.575 17.27 49.065 17.4513 48.6343 17.814C48.215 18.1767 47.9373 18.664 47.8013 19.276Z" fill="black" fill-opacity="0.72"/>
<path d="M61.2459 19.514V24.444H59.6819V12.272H63.8299C64.8839 12.272 65.7793 12.6233 66.5159 13.326C67.2639 14.0287 67.6379 14.8843 67.6379 15.893C67.6379 16.9243 67.2639 17.7857 66.5159 18.477C65.7906 19.1683 64.8952 19.514 63.8299 19.514H61.2459ZM61.2459 13.768V18.018H63.8639C64.4872 18.018 65.0029 17.8083 65.4109 17.389C65.8302 16.9697 66.0399 16.471 66.0399 15.893C66.0399 15.3263 65.8302 14.8333 65.4109 14.414C65.0029 13.9833 64.4872 13.768 63.8639 13.768H61.2459Z" fill="black" fill-opacity="0.72"/>
<path d="M70.6526 12.272V24.444H69.0886V12.272H70.6526Z" fill="black" fill-opacity="0.72"/>
<path d="M73.6143 21.894C73.6143 22.302 73.7843 22.642 74.1243 22.914C74.4757 23.186 74.8837 23.322 75.3483 23.322C76.0057 23.322 76.5893 23.0783 77.0993 22.591C77.6207 22.1037 77.8813 21.5313 77.8813 20.874C77.394 20.4887 76.714 20.296 75.8413 20.296C75.2067 20.296 74.674 20.449 74.2433 20.755C73.824 21.061 73.6143 21.4407 73.6143 21.894ZM75.6373 15.842C76.7933 15.842 77.7057 16.1537 78.3743 16.777C79.043 17.389 79.3773 18.2333 79.3773 19.31V24.444H77.8813V23.288H77.8133C77.1674 24.24 76.306 24.716 75.2293 24.716C74.3113 24.716 73.5407 24.444 72.9173 23.9C72.3053 23.356 71.9993 22.676 71.9993 21.86C71.9993 20.9987 72.3223 20.313 72.9683 19.803C73.6257 19.293 74.4983 19.038 75.5863 19.038C76.5157 19.038 77.2807 19.208 77.8813 19.548V19.191C77.8813 18.647 77.666 18.188 77.2353 17.814C76.8047 17.4287 76.3003 17.236 75.7223 17.236C74.8497 17.236 74.1583 17.6043 73.6483 18.341L72.2713 17.474C73.0307 16.386 74.1527 15.842 75.6373 15.842Z" fill="black" fill-opacity="0.72"/>
<path d="M88.4213 16.114L83.2023 28.116H81.5873L83.5253 23.917L80.0913 16.114H81.7913L84.2733 22.098H84.3073L86.7213 16.114H88.4213Z" fill="black" fill-opacity="0.72"/>
</svg>
