<svg fill="none" height="80" viewBox="0 0 128 80" width="128" xmlns="http://www.w3.org/2000/svg"><g fill="#ee3023"><path d="m29.257 50.462c2.7747-2.7746 4.3334-6.5379 4.3334-10.4618 0-3.924-1.5587-7.6873-4.3334-10.4619-1.2128-1.2128-2.6145-2.1934-4.1359-2.9129-1.3454.3-2.551 1.0434-3.4233 2.1111-.8755 1.0716-1.3639 2.4072-1.3862 3.7908 0 .1002 0 .2004.0143.2434 4.5094 1.0951 6.5494 3.8151 6.5637 7.5802-.0028 1.0426-.2115 2.0745-.6142 3.0362-.4027.9618-.9914 1.8345-1.7323 2.5681s-1.6194 1.3136-2.5851 1.7067c-.9657.3932-1.9996.5917-3.0422.5841-4.0656.0143-8.2959-3.4501-8.3174-9.0261-.0071-3.6863 1.9827-7.2294 4.5166-9.3338 2.4838-2.0543 5.8766-3.3642 8.9544-3.3786.3432-.0129.6864.0218 1.02.1029-1.9509-.917-4.0973-1.4056-6.2942-1.4056-3.9239 0-7.6871 1.5588-10.46178 4.3335-2.77464 2.7746-4.33342 6.5379-4.33342 10.4619 0 3.9239 1.55878 7.6872 4.33342 10.4618 2.77468 2.7747 6.53788 4.3335 10.46178 4.3335 3.924 0 7.6872-1.5588 10.4618-4.3335z"/><path d="m43.1452 46.1269-4.5166-10.8012h2.9562l2.8274 7.1722 2.7342-7.1722h2.8202l-4.3949 10.8012zm14.6879-5.4543c.0032-.4345-.0497-.8675-.1575-1.2884-.0911-.3725-.2514-.7246-.4724-1.0379-.1992-.2841-.4582-.521-.7587-.6943-.3207-.181-.6841-.2725-1.0522-.2649-.3682-.0079-.7317.0836-1.0522.2649-.3038.1716-.5654.4088-.7659.6943-.2194.316-.3772.6706-.4653 1.045-.1072.4186-.1601.8492-.1575 1.2813-.0036.4345.0494.8676.1575 1.2884.0901.3714.2426.7247.451 1.0451.198.3019.4692.5489.7883.7179.3191.1689.6758.2544 1.0369.2484.3609.011.7184-.0724 1.0373-.2419.3188-.1694.588-.4191.7808-.7244.2179-.3151.3779-.6666.4724-1.0379.1088-.4232.1617-.8587.1575-1.2956zm2.7271.0072c.0001.7043-.1085 1.4045-.3221 2.0757-.2082.6623-.5357 1.2808-.9663 1.8253-.4618.5808-1.0533 1.0452-1.727 1.356-.6738.3108-1.411.4592-2.1525.4335-.7424.0241-1.4801-.1251-2.1547-.4357-.6747-.3106-1.2677-.7741-1.732-1.3538-.4297-.5451-.7571-1.1635-.9664-1.8253-.4253-1.3438-.4253-2.7862 0-4.13.2095-.6552.537-1.2665.9664-1.8038.4369-.5377.9867-.9727 1.6105-1.2741.7106-.3369 1.4899-.5036 2.2762-.4868.7368-.0203 1.4686.1277 2.1397.4328.671.3051 1.2636.7594 1.7326 1.3281.4295.5296.7588 1.1309.9735 1.8038.2147.6728.3221 1.3599.3221 2.0543zm8.346-2.9706c-.4742-.1997-.9816-.309-1.496-.3221-.4021-.0194-.8027.0621-1.1653.2371s-.6755.438-.9104.765c-.2261.3142-.3957.6655-.5011 1.0379-.111.3838-.1664.7816-.1646 1.1811-.0025.4336.0456.8659.1432 1.2884.086.3816.2387.7451.4509 1.0737.1933.3024.4527.5569.7587.7444.3007.1861.6657.2863 1.0737.2863.3688-.0082.7301-.1065 1.0522-.2863.3087-.1455.5713-.3734.7587-.6585zm.2219 8.4177-.1074-.8303c-.2851.3098-.6248.5646-1.002.7516-.5471.234-1.1396.3426-1.7342.3179-.5945-.0248-1.1759-.1823-1.7016-.4611-.5636-.3101-1.0523-.7401-1.4316-1.2598-.4005-.5464-.701-1.1596-.8875-1.8109-.2011-.698-.3023-1.421-.3007-2.1474 0-.7086.1002-1.3958.3078-2.0686.2019-.6533.5249-1.2627.952-1.7966.4614-.5721 1.0495-1.0289 1.7178-1.3345.6684-.3056 1.3987-.4516 2.1331-.4264.5727 0 1.1811.1074 1.8324.315v-4.1874h2.7773v14.9385zm10.3717-5.0678c-.6123.041-1.2218.1175-1.8252.2291-.6013.1217-1.0165.3221-1.2527.6156-.2211.268-.3425.6044-.3435.952 0 .3578.1288.6442.3936.8589.3207.2348.7127.3511 1.1095.3293.3579 0 .7158-.0716 1.0522-.2219.3182-.1389.611-.33.8661-.5655zm.2219 5.0535-.1074-.8017c-.3174.3437-.7091.6106-1.1452.7802-.9172.363-1.9355.3783-2.8632.043-.666-.2221-1.2432-.6521-1.6465-1.2268s-.6115-1.2638-.5939-1.9656c-.0092-.4728.0914-.9412.2938-1.3684.2025-.4273.5013-.8017.873-1.094.3756-.2922.793-.5262 1.2383-.6943.8525-.3023 1.7401-.4947 2.6412-.5726l1.0737-.1002v-.1575c0-.5941-.1575-1.0164-.4653-1.2741-.3667-.2726-.8179-.4069-1.2741-.3794-.8112.0041-1.6013.2591-2.2618.7301-.1444.0917-.283.1921-.4152.3007l-.9233-1.947c.4429-.336.9292-.6105 1.4458-.816 1.3455-.5592 2.8388-.6549 4.2446-.272.4834.1511.9257.411 1.293.7597.3673.3486.6497.7768.8257 1.2517.2152.5987.3171 1.2322.3007 1.8682v6.9431zm11.1161-12.4619c-.4947-.2215-1.0329-.3291-1.5747-.3149-.3794 0-.7086.1145-.9663.3507-.2649.2291-.3937.6084-.3937 1.131v.5082h2.3334v2.2404h-2.3119v8.5608h-2.7773v-8.5608h-1.4315v-2.2404h1.4315v-.5727c0-.7086.0931-1.3027.272-1.7894.1461-.436.3925-.8316.7195-1.1549.327-.3232.7254-.5651 1.163-.7062 1.2754-.3406 2.6268-.2577 3.8509.2362zm7.573 7.0219c.0019-.4344-.051-.8673-.1575-1.2884-.0911-.3725-.2514-.7246-.4724-1.0379-.1992-.2841-.4582-.521-.7587-.6943-.3207-.181-.6841-.2725-1.0522-.2649-.3682-.0079-.7317.0836-1.0522.2649-.3029.1728-.5643.4098-.7659.6943-.2197.3167-.3798.6709-.4724 1.045-.2179.8452-.2179 1.7318 0 2.5769.0943.3689.2491.7196.4581 1.0379.1957.2953.458.5404.7658.7158.3274.1765.6948.2652 1.0666.2576.3604.009.7169-.076 1.0344-.2467.3176-.1707.5852-.4212.7765-.7267.2179-.3151.3779-.6666.4724-1.0379.1074-.4234.1603-.8588.1575-1.2956zm2.7272.0072c.001.7044-.107 1.4048-.322 2.0757-.207.6628-.535 1.2815-.9665 1.8253-.4618.5808-1.0533 1.0452-1.727 1.356-.6738.3108-1.411.4592-2.1525.4335-.7424.0241-1.4801-.1251-2.1547-.4357-.6747-.3106-1.2677-.7741-1.732-1.3538-.4297-.5451-.7571-1.1635-.9663-1.8253-.4311-1.3429-.4311-2.7871 0-4.13.2072-.6547.5323-1.266.9591-1.8038.439-.5385.9913-.9735 1.6177-1.2741.7106-.3369 1.4899-.5036 2.2762-.4868.7368-.0203 1.4687.1277 2.1397.4328s1.2636.7594 1.7326 1.3281c.4297.5296.7587 1.1309.9737 1.8038.215.6728.322 1.3599.322 2.0543zm8.625 5.4471v-6.1558c.043-.6763-.138-1.348-.515-1.9111-.168-.2187-.385-.3939-.634-.511s-.523-.1726-.798-.1619c-.425-.0048-.842.1119-1.202.3365-.346.2091-.666.459-.952.7444v7.6589h-2.778v-10.8012h2.534l.129.8589c.874-.7285 1.976-1.1263 3.114-1.1238.572 0 1.095.0859 1.575.2577.467.1691.887.4491 1.224.816.35.3722.615.859.801 1.4531.186.6012.279 1.317.279 2.1473v6.392zm11.417-6.6998c-.021-.3359-.101-.6655-.236-.9734-.111-.2538-.272-.4826-.473-.6729-.347-.321-.801-.4998-1.274-.501-.507.0091-.995.1995-1.374.5368-.229.2039-.414.4514-.546.7279-.131.2766-.206.5767-.22.8826zm-4.188 1.9971c.058.909.344 1.5676.859 1.9684.568.4219 1.262.6366 1.969.6084.66-.0008 1.315-.1221 1.932-.3579.227-.0897.447-.1949.659-.3149.144-.0822.279-.1807.401-.2935l.744 2.2619c-.421.2849-.882.5068-1.367.6585-.886.2718-1.807.4117-2.734.4152-.683.0024-1.36-.1114-2.004-.3364-.626-.2184-1.196-.5729-1.668-1.0379-.5-.501-.89-1.1007-1.145-1.7609-.303-.7997-.449-1.6503-.43-2.5052 0-.9162.136-1.7179.394-2.4194.32-.9616.94-1.7957 1.768-2.3803.828-.5847 1.821-.8893 2.834-.8694.653-.0065 1.301.1076 1.911.3365.58.2218 1.081.5726 1.504 1.0378.429.4725.765 1.0809 1.009 1.8325.25.7444.372 1.632.372 2.6627v.4939z"/></g></svg>