<svg width="80" height="29" viewBox="0 0 80 29" fill="none" xmlns="http://www.w3.org/2000/svg">
<path d="M2.057 7.28H3.479C3.575 7.28 3.695 7.274 3.839 7.262C3.983 7.244 4.136 7.208 4.298 7.154C4.46 7.094 4.619 7.01 4.775 6.902C4.937 6.794 5.081 6.647 5.207 6.461C5.333 6.275 5.435 6.044 5.513 5.768C5.597 5.486 5.639 5.147 5.639 4.751C5.639 4.367 5.6 4.025 5.522 3.725C5.45 3.419 5.327 3.161 5.153 2.951C4.985 2.735 4.766 2.573 4.496 2.465C4.226 2.351 3.893 2.294 3.497 2.294H2.057V7.28ZM1.202 1.574H3.407C4.397 1.574 5.159 1.826 5.693 2.33C6.227 2.834 6.494 3.602 6.494 4.634C6.494 5.174 6.434 5.654 6.314 6.074C6.194 6.488 6.008 6.839 5.756 7.127C5.504 7.409 5.183 7.625 4.793 7.775C4.403 7.925 3.941 8 3.407 8H1.202V1.574ZM8.24091 5.678C8.24091 5.96 8.27691 6.212 8.34891 6.434C8.42691 6.65 8.53191 6.833 8.66391 6.983C8.79591 7.127 8.94891 7.238 9.12291 7.316C9.30291 7.394 9.49191 7.433 9.68991 7.433C9.88791 7.433 10.0739 7.394 10.2479 7.316C10.4279 7.238 10.5839 7.127 10.7159 6.983C10.8479 6.833 10.9499 6.65 11.0219 6.434C11.0999 6.212 11.1389 5.96 11.1389 5.678C11.1389 5.396 11.0999 5.147 11.0219 4.931C10.9499 4.709 10.8479 4.523 10.7159 4.373C10.5839 4.223 10.4279 4.109 10.2479 4.031C10.0739 3.953 9.88791 3.914 9.68991 3.914C9.49191 3.914 9.30291 3.953 9.12291 4.031C8.94891 4.109 8.79591 4.223 8.66391 4.373C8.53191 4.523 8.42691 4.709 8.34891 4.931C8.27691 5.147 8.24091 5.396 8.24091 5.678ZM7.43091 5.678C7.43091 5.336 7.47891 5.018 7.57491 4.724C7.67091 4.424 7.81491 4.166 8.00691 3.95C8.19891 3.728 8.43591 3.554 8.71791 3.428C8.99991 3.302 9.32391 3.239 9.68991 3.239C10.0619 3.239 10.3859 3.302 10.6619 3.428C10.9439 3.554 11.1809 3.728 11.3729 3.95C11.5649 4.166 11.7089 4.424 11.8049 4.724C11.9009 5.018 11.9489 5.336 11.9489 5.678C11.9489 6.02 11.9009 6.338 11.8049 6.632C11.7089 6.926 11.5649 7.184 11.3729 7.406C11.1809 7.622 10.9439 7.793 10.6619 7.919C10.3859 8.039 10.0619 8.099 9.68991 8.099C9.32391 8.099 8.99991 8.039 8.71791 7.919C8.43591 7.793 8.19891 7.622 8.00691 7.406C7.81491 7.184 7.67091 6.926 7.57491 6.632C7.47891 6.338 7.43091 6.02 7.43091 5.678ZM17.7289 8H16.9189L15.9739 4.301H15.9559L15.0199 8H14.1919L12.6979 3.347H13.5439L14.5969 7.154H14.6149L15.5509 3.347H16.3879L17.3599 7.154H17.3779L18.4219 3.347H19.2139L17.7289 8ZM20.2112 3.347H20.9312V4.085H20.9492C21.2672 3.521 21.7712 3.239 22.4612 3.239C22.7672 3.239 23.0222 3.281 23.2262 3.365C23.4302 3.449 23.5952 3.566 23.7212 3.716C23.8472 3.866 23.9342 4.046 23.9822 4.256C24.0362 4.46 24.0632 4.688 24.0632 4.94V8H23.2982V4.85C23.2982 4.562 23.2142 4.334 23.0462 4.166C22.8782 3.998 22.6472 3.914 22.3532 3.914C22.1192 3.914 21.9152 3.95 21.7412 4.022C21.5732 4.094 21.4322 4.196 21.3182 4.328C21.2042 4.46 21.1172 4.616 21.0572 4.796C21.0032 4.97 20.9762 5.162 20.9762 5.372V8H20.2112V3.347ZM25.5272 1.574H26.2922V8H25.5272V1.574ZM28.3053 5.678C28.3053 5.96 28.3413 6.212 28.4133 6.434C28.4913 6.65 28.5963 6.833 28.7283 6.983C28.8603 7.127 29.0133 7.238 29.1873 7.316C29.3673 7.394 29.5563 7.433 29.7543 7.433C29.9523 7.433 30.1383 7.394 30.3123 7.316C30.4923 7.238 30.6483 7.127 30.7803 6.983C30.9123 6.833 31.0143 6.65 31.0863 6.434C31.1643 6.212 31.2033 5.96 31.2033 5.678C31.2033 5.396 31.1643 5.147 31.0863 4.931C31.0143 4.709 30.9123 4.523 30.7803 4.373C30.6483 4.223 30.4923 4.109 30.3123 4.031C30.1383 3.953 29.9523 3.914 29.7543 3.914C29.5563 3.914 29.3673 3.953 29.1873 4.031C29.0133 4.109 28.8603 4.223 28.7283 4.373C28.5963 4.523 28.4913 4.709 28.4133 4.931C28.3413 5.147 28.3053 5.396 28.3053 5.678ZM27.4953 5.678C27.4953 5.336 27.5433 5.018 27.6393 4.724C27.7353 4.424 27.8793 4.166 28.0713 3.95C28.2633 3.728 28.5003 3.554 28.7823 3.428C29.0643 3.302 29.3883 3.239 29.7543 3.239C30.1263 3.239 30.4503 3.302 30.7263 3.428C31.0083 3.554 31.2453 3.728 31.4373 3.95C31.6293 4.166 31.7733 4.424 31.8693 4.724C31.9653 5.018 32.0133 5.336 32.0133 5.678C32.0133 6.02 31.9653 6.338 31.8693 6.632C31.7733 6.926 31.6293 7.184 31.4373 7.406C31.2453 7.622 31.0083 7.793 30.7263 7.919C30.4503 8.039 30.1263 8.099 29.7543 8.099C29.3883 8.099 29.0643 8.039 28.7823 7.919C28.5003 7.793 28.2633 7.622 28.0713 7.406C27.8793 7.184 27.7353 6.926 27.6393 6.632C27.5433 6.338 27.4953 6.02 27.4953 5.678ZM37.3073 7.982C37.1753 8.06 36.9923 8.099 36.7583 8.099C36.5603 8.099 36.4013 8.045 36.2813 7.937C36.1673 7.823 36.1103 7.64 36.1103 7.388C35.9003 7.64 35.6543 7.823 35.3723 7.937C35.0963 8.045 34.7963 8.099 34.4723 8.099C34.2623 8.099 34.0613 8.075 33.8693 8.027C33.6833 7.979 33.5213 7.904 33.3833 7.802C33.2453 7.7 33.1343 7.568 33.0503 7.406C32.9723 7.238 32.9333 7.037 32.9333 6.803C32.9333 6.539 32.9783 6.323 33.0683 6.155C33.1583 5.987 33.2753 5.852 33.4193 5.75C33.5693 5.642 33.7373 5.561 33.9233 5.507C34.1153 5.453 34.3103 5.408 34.5083 5.372C34.7183 5.33 34.9163 5.3 35.1023 5.282C35.2943 5.258 35.4623 5.228 35.6063 5.192C35.7503 5.15 35.8643 5.093 35.9483 5.021C36.0323 4.943 36.0743 4.832 36.0743 4.688C36.0743 4.52 36.0413 4.385 35.9753 4.283C35.9153 4.181 35.8343 4.103 35.7323 4.049C35.6363 3.995 35.5253 3.959 35.3993 3.941C35.2793 3.923 35.1593 3.914 35.0393 3.914C34.7153 3.914 34.4453 3.977 34.2293 4.103C34.0133 4.223 33.8963 4.454 33.8783 4.796H33.1133C33.1253 4.508 33.1853 4.265 33.2933 4.067C33.4013 3.869 33.5453 3.71 33.7253 3.59C33.9053 3.464 34.1093 3.374 34.3373 3.32C34.5713 3.266 34.8203 3.239 35.0843 3.239C35.2943 3.239 35.5013 3.254 35.7053 3.284C35.9153 3.314 36.1043 3.377 36.2723 3.473C36.4403 3.563 36.5753 3.692 36.6773 3.86C36.7793 4.028 36.8303 4.247 36.8303 4.517V6.911C36.8303 7.091 36.8393 7.223 36.8573 7.307C36.8813 7.391 36.9533 7.433 37.0733 7.433C37.1393 7.433 37.2173 7.418 37.3073 7.388V7.982ZM36.0653 5.597C35.9693 5.669 35.8433 5.723 35.6873 5.759C35.5313 5.789 35.3663 5.816 35.1923 5.84C35.0243 5.858 34.8533 5.882 34.6793 5.912C34.5053 5.936 34.3493 5.978 34.2113 6.038C34.0733 6.098 33.9593 6.185 33.8693 6.299C33.7853 6.407 33.7433 6.557 33.7433 6.749C33.7433 6.875 33.7673 6.983 33.8153 7.073C33.8693 7.157 33.9353 7.226 34.0133 7.28C34.0973 7.334 34.1933 7.373 34.3013 7.397C34.4093 7.421 34.5233 7.433 34.6433 7.433C34.8953 7.433 35.1113 7.4 35.2913 7.334C35.4713 7.262 35.6183 7.175 35.7323 7.073C35.8463 6.965 35.9303 6.851 35.9843 6.731C36.0383 6.605 36.0653 6.488 36.0653 6.38V5.597ZM38.8472 5.714C38.8472 5.93 38.8742 6.143 38.9282 6.353C38.9882 6.557 39.0752 6.74 39.1892 6.902C39.3092 7.064 39.4592 7.193 39.6392 7.289C39.8252 7.385 40.0412 7.433 40.2872 7.433C40.5452 7.433 40.7642 7.382 40.9442 7.28C41.1242 7.178 41.2712 7.046 41.3852 6.884C41.4992 6.716 41.5802 6.527 41.6282 6.317C41.6822 6.107 41.7092 5.894 41.7092 5.678C41.7092 5.45 41.6822 5.231 41.6282 5.021C41.5742 4.805 41.4872 4.616 41.3672 4.454C41.2532 4.292 41.1032 4.163 40.9172 4.067C40.7312 3.965 40.5062 3.914 40.2422 3.914C39.9842 3.914 39.7652 3.965 39.5852 4.067C39.4052 4.169 39.2612 4.304 39.1532 4.472C39.0452 4.64 38.9672 4.832 38.9192 5.048C38.8712 5.264 38.8472 5.486 38.8472 5.714ZM42.4472 8H41.6822V7.37H41.6642C41.5382 7.628 41.3402 7.814 41.0702 7.928C40.8002 8.042 40.5032 8.099 40.1792 8.099C39.8192 8.099 39.5042 8.033 39.2342 7.901C38.9702 7.769 38.7482 7.592 38.5682 7.37C38.3942 7.148 38.2622 6.89 38.1722 6.596C38.0822 6.302 38.0372 5.99 38.0372 5.66C38.0372 5.33 38.0792 5.018 38.1632 4.724C38.2532 4.43 38.3852 4.175 38.5592 3.959C38.7392 3.737 38.9612 3.563 39.2252 3.437C39.4952 3.305 39.8072 3.239 40.1612 3.239C40.2812 3.239 40.4102 3.251 40.5482 3.275C40.6862 3.299 40.8242 3.341 40.9622 3.401C41.1002 3.455 41.2292 3.53 41.3492 3.626C41.4752 3.716 41.5802 3.83 41.6642 3.968H41.6822V1.574H42.4472V8ZM47.2271 5.678C47.2271 5.96 47.2631 6.212 47.3351 6.434C47.4131 6.65 47.5181 6.833 47.6501 6.983C47.7821 7.127 47.9351 7.238 48.1091 7.316C48.2891 7.394 48.4781 7.433 48.6761 7.433C48.8741 7.433 49.0601 7.394 49.2341 7.316C49.4141 7.238 49.5701 7.127 49.7021 6.983C49.8341 6.833 49.9361 6.65 50.0081 6.434C50.0861 6.212 50.1251 5.96 50.1251 5.678C50.1251 5.396 50.0861 5.147 50.0081 4.931C49.9361 4.709 49.8341 4.523 49.7021 4.373C49.5701 4.223 49.4141 4.109 49.2341 4.031C49.0601 3.953 48.8741 3.914 48.6761 3.914C48.4781 3.914 48.2891 3.953 48.1091 4.031C47.9351 4.109 47.7821 4.223 47.6501 4.373C47.5181 4.523 47.4131 4.709 47.3351 4.931C47.2631 5.147 47.2271 5.396 47.2271 5.678ZM46.4171 5.678C46.4171 5.336 46.4651 5.018 46.5611 4.724C46.6571 4.424 46.8011 4.166 46.9931 3.95C47.1851 3.728 47.4221 3.554 47.7041 3.428C47.9861 3.302 48.3101 3.239 48.6761 3.239C49.0481 3.239 49.3721 3.302 49.6481 3.428C49.9301 3.554 50.1671 3.728 50.3591 3.95C50.5511 4.166 50.6951 4.424 50.7911 4.724C50.8871 5.018 50.9351 5.336 50.9351 5.678C50.9351 6.02 50.8871 6.338 50.7911 6.632C50.6951 6.926 50.5511 7.184 50.3591 7.406C50.1671 7.622 49.9301 7.793 49.6481 7.919C49.3721 8.039 49.0481 8.099 48.6761 8.099C48.3101 8.099 47.9861 8.039 47.7041 7.919C47.4221 7.793 47.1851 7.622 46.9931 7.406C46.8011 7.184 46.6571 6.926 46.5611 6.632C46.4651 6.338 46.4171 6.02 46.4171 5.678ZM52.1071 3.347H52.8271V4.085H52.8451C53.1631 3.521 53.6671 3.239 54.3571 3.239C54.6631 3.239 54.9181 3.281 55.1221 3.365C55.3261 3.449 55.4911 3.566 55.6171 3.716C55.7431 3.866 55.8301 4.046 55.8781 4.256C55.9321 4.46 55.9591 4.688 55.9591 4.94V8H55.1941V4.85C55.1941 4.562 55.1101 4.334 54.9421 4.166C54.7741 3.998 54.5431 3.914 54.2491 3.914C54.0151 3.914 53.8111 3.95 53.6371 4.022C53.4691 4.094 53.3281 4.196 53.2141 4.328C53.1001 4.46 53.0131 4.616 52.9531 4.796C52.8991 4.97 52.8721 5.162 52.8721 5.372V8H52.1071V3.347ZM61.2149 3.347H62.1419V4.022H61.2149V6.911C61.2149 7.001 61.2209 7.073 61.2329 7.127C61.2509 7.181 61.2809 7.223 61.3229 7.253C61.3649 7.283 61.4219 7.304 61.4939 7.316C61.5719 7.322 61.6709 7.325 61.7909 7.325H62.1419V8H61.5569C61.3589 8 61.1879 7.988 61.0439 7.964C60.9059 7.934 60.7919 7.883 60.7019 7.811C60.6179 7.739 60.5549 7.637 60.5129 7.505C60.4709 7.373 60.4499 7.199 60.4499 6.983V4.022H59.6579V3.347H60.4499V1.952H61.2149V3.347ZM63.2618 1.574H64.0268V4.031H64.0448C64.1048 3.887 64.1888 3.767 64.2968 3.671C64.4048 3.569 64.5248 3.488 64.6568 3.428C64.7948 3.362 64.9358 3.314 65.0798 3.284C65.2298 3.254 65.3738 3.239 65.5118 3.239C65.8178 3.239 66.0728 3.281 66.2768 3.365C66.4808 3.449 66.6458 3.566 66.7718 3.716C66.8978 3.866 66.9848 4.046 67.0328 4.256C67.0868 4.46 67.1138 4.688 67.1138 4.94V8H66.3488V4.85C66.3488 4.562 66.2648 4.334 66.0968 4.166C65.9288 3.998 65.6978 3.914 65.4038 3.914C65.1698 3.914 64.9658 3.95 64.7918 4.022C64.6238 4.094 64.4828 4.196 64.3688 4.328C64.2548 4.46 64.1678 4.616 64.1078 4.796C64.0538 4.97 64.0268 5.162 64.0268 5.372V8H63.2618V1.574ZM71.7638 5.228C71.7518 5.048 71.7098 4.877 71.6378 4.715C71.5718 4.553 71.4788 4.415 71.3588 4.301C71.2448 4.181 71.1068 4.088 70.9448 4.022C70.7888 3.95 70.6148 3.914 70.4228 3.914C70.2248 3.914 70.0448 3.95 69.8828 4.022C69.7268 4.088 69.5918 4.181 69.4778 4.301C69.3638 4.421 69.2738 4.562 69.2078 4.724C69.1418 4.88 69.1028 5.048 69.0908 5.228H71.7638ZM72.5018 6.524C72.3998 7.046 72.1748 7.439 71.8268 7.703C71.4788 7.967 71.0408 8.099 70.5128 8.099C70.1408 8.099 69.8168 8.039 69.5408 7.919C69.2708 7.799 69.0428 7.631 68.8568 7.415C68.6708 7.199 68.5298 6.941 68.4338 6.641C68.3438 6.341 68.2928 6.014 68.2808 5.66C68.2808 5.306 68.3348 4.982 68.4428 4.688C68.5508 4.394 68.7008 4.139 68.8928 3.923C69.0908 3.707 69.3218 3.539 69.5858 3.419C69.8558 3.299 70.1498 3.239 70.4678 3.239C70.8818 3.239 71.2238 3.326 71.4938 3.5C71.7698 3.668 71.9888 3.884 72.1508 4.148C72.3188 4.412 72.4328 4.7 72.4928 5.012C72.5588 5.324 72.5858 5.621 72.5738 5.903H69.0908C69.0848 6.107 69.1088 6.302 69.1628 6.488C69.2168 6.668 69.3038 6.83 69.4238 6.974C69.5438 7.112 69.6968 7.223 69.8828 7.307C70.0688 7.391 70.2878 7.433 70.5398 7.433C70.8638 7.433 71.1278 7.358 71.3318 7.208C71.5418 7.058 71.6798 6.83 71.7458 6.524H72.5018Z" fill="black" fill-opacity="0.8"/>
<path d="M5.039 12.862H7.3L11.975 25H9.697L8.558 21.787H3.713L2.574 25H0.381L5.039 12.862ZM4.291 20.172H7.997L6.178 14.953H6.127L4.291 20.172ZM12.9099 16.211H14.7459V17.401H14.7799C15.0519 16.891 15.4315 16.5283 15.9189 16.313C16.4062 16.0863 16.9332 15.973 17.4999 15.973C18.1912 15.973 18.7919 16.0977 19.3019 16.347C19.8232 16.585 20.2539 16.9193 20.5939 17.35C20.9339 17.7693 21.1889 18.2623 21.3589 18.829C21.5289 19.3957 21.6139 20.002 21.6139 20.648C21.6139 21.2373 21.5345 21.8097 21.3759 22.365C21.2285 22.9203 20.9962 23.4133 20.6789 23.844C20.3729 24.2633 19.9819 24.6033 19.5059 24.864C19.0299 25.1133 18.4689 25.238 17.8229 25.238C17.5395 25.238 17.2562 25.2097 16.9729 25.153C16.6895 25.1077 16.4175 25.0283 16.1569 24.915C15.8962 24.8017 15.6525 24.66 15.4259 24.49C15.2105 24.3087 15.0292 24.099 14.8819 23.861H14.8479V28.247H12.9099V16.211ZM19.6759 20.614C19.6759 20.2173 19.6249 19.832 19.5229 19.458C19.4209 19.084 19.2679 18.7553 19.0639 18.472C18.8599 18.1773 18.6049 17.945 18.2989 17.775C17.9929 17.5937 17.6415 17.503 17.2449 17.503C16.4289 17.503 15.8112 17.7863 15.3919 18.353C14.9839 18.9197 14.7799 19.6733 14.7799 20.614C14.7799 21.056 14.8309 21.4697 14.9329 21.855C15.0462 22.229 15.2105 22.552 15.4259 22.824C15.6412 23.096 15.8962 23.3113 16.1909 23.47C16.4969 23.6287 16.8482 23.708 17.2449 23.708C17.6869 23.708 18.0609 23.6173 18.3669 23.436C18.6729 23.2547 18.9222 23.0223 19.1149 22.739C19.3189 22.4443 19.4605 22.1157 19.5399 21.753C19.6305 21.379 19.6759 20.9993 19.6759 20.614ZM23.3024 16.211H25.1384V17.401H25.1724C25.4444 16.891 25.8241 16.5283 26.3114 16.313C26.7988 16.0863 27.3258 15.973 27.8924 15.973C28.5838 15.973 29.1844 16.0977 29.6944 16.347C30.2158 16.585 30.6464 16.9193 30.9864 17.35C31.3264 17.7693 31.5814 18.2623 31.7514 18.829C31.9214 19.3957 32.0064 20.002 32.0064 20.648C32.0064 21.2373 31.9271 21.8097 31.7684 22.365C31.6211 22.9203 31.3888 23.4133 31.0714 23.844C30.7654 24.2633 30.3744 24.6033 29.8984 24.864C29.4224 25.1133 28.8614 25.238 28.2154 25.238C27.9321 25.238 27.6488 25.2097 27.3654 25.153C27.0821 25.1077 26.8101 25.0283 26.5494 24.915C26.2888 24.8017 26.0451 24.66 25.8184 24.49C25.6031 24.3087 25.4218 24.099 25.2744 23.861H25.2404V28.247H23.3024V16.211ZM30.0684 20.614C30.0684 20.2173 30.0174 19.832 29.9154 19.458C29.8134 19.084 29.6604 18.7553 29.4564 18.472C29.2524 18.1773 28.9974 17.945 28.6914 17.775C28.3854 17.5937 28.0341 17.503 27.6374 17.503C26.8214 17.503 26.2038 17.7863 25.7844 18.353C25.3764 18.9197 25.1724 19.6733 25.1724 20.614C25.1724 21.056 25.2234 21.4697 25.3254 21.855C25.4388 22.229 25.6031 22.552 25.8184 22.824C26.0338 23.096 26.2888 23.3113 26.5834 23.47C26.8894 23.6287 27.2408 23.708 27.6374 23.708C28.0794 23.708 28.4534 23.6173 28.7594 23.436C29.0654 23.2547 29.3148 23.0223 29.5074 22.739C29.7114 22.4443 29.8531 22.1157 29.9324 21.753C30.0231 21.379 30.0684 20.9993 30.0684 20.614ZM40.0415 20.954C40.0415 21.4187 40.1208 21.8153 40.2795 22.144C40.4381 22.4727 40.6591 22.7447 40.9425 22.96C41.2258 23.164 41.5488 23.317 41.9115 23.419C42.2855 23.5097 42.6878 23.555 43.1185 23.555C43.5831 23.555 43.9798 23.504 44.3085 23.402C44.6371 23.2887 44.9035 23.147 45.1075 22.977C45.3115 22.807 45.4588 22.6143 45.5495 22.399C45.6401 22.1723 45.6855 21.9457 45.6855 21.719C45.6855 21.2543 45.5778 20.9143 45.3625 20.699C45.1585 20.4723 44.9318 20.3137 44.6825 20.223C44.2518 20.0643 43.7475 19.917 43.1695 19.781C42.6028 19.6337 41.9001 19.4467 41.0615 19.22C40.5401 19.084 40.1038 18.9083 39.7525 18.693C39.4125 18.4663 39.1405 18.217 38.9365 17.945C38.7325 17.673 38.5851 17.384 38.4945 17.078C38.4151 16.772 38.3755 16.4603 38.3755 16.143C38.3755 15.531 38.5001 15.004 38.7495 14.562C39.0101 14.1087 39.3501 13.7347 39.7695 13.44C40.1888 13.1453 40.6648 12.93 41.1975 12.794C41.7301 12.6467 42.2685 12.573 42.8125 12.573C43.4471 12.573 44.0421 12.658 44.5975 12.828C45.1641 12.9867 45.6571 13.2303 46.0765 13.559C46.5071 13.8877 46.8471 14.2957 47.0965 14.783C47.3458 15.259 47.4705 15.8143 47.4705 16.449H45.3455C45.2888 15.667 45.0225 15.1173 44.5465 14.8C44.0705 14.4713 43.4641 14.307 42.7275 14.307C42.4781 14.307 42.2231 14.3353 41.9625 14.392C41.7018 14.4373 41.4638 14.5223 41.2485 14.647C41.0331 14.7603 40.8518 14.919 40.7045 15.123C40.5685 15.327 40.5005 15.582 40.5005 15.888C40.5005 16.3187 40.6308 16.6587 40.8915 16.908C41.1635 17.146 41.5148 17.3273 41.9455 17.452C41.9908 17.4633 42.1665 17.5143 42.4725 17.605C42.7898 17.6843 43.1411 17.775 43.5265 17.877C43.9118 17.979 44.2858 18.081 44.6485 18.183C45.0225 18.2737 45.2888 18.3417 45.4475 18.387C45.8441 18.5117 46.1898 18.6817 46.4845 18.897C46.7791 19.1123 47.0228 19.3617 47.2155 19.645C47.4195 19.917 47.5668 20.2117 47.6575 20.529C47.7595 20.8463 47.8105 21.1637 47.8105 21.481C47.8105 22.161 47.6688 22.7447 47.3855 23.232C47.1135 23.708 46.7508 24.099 46.2975 24.405C45.8441 24.711 45.3285 24.932 44.7505 25.068C44.1725 25.2153 43.5831 25.289 42.9825 25.289C42.2911 25.289 41.6395 25.204 41.0275 25.034C40.4155 24.864 39.8828 24.6033 39.4295 24.252C38.9761 23.9007 38.6135 23.453 38.3415 22.909C38.0695 22.3537 37.9278 21.702 37.9165 20.954H40.0415ZM48.5149 16.211H49.9769V13.576H51.9149V16.211H53.6659V17.656H51.9149V22.348C51.9149 22.552 51.9206 22.7277 51.9319 22.875C51.9546 23.0223 51.9942 23.147 52.0509 23.249C52.1189 23.351 52.2152 23.4303 52.3399 23.487C52.4646 23.5323 52.6346 23.555 52.8499 23.555C52.9859 23.555 53.1219 23.555 53.2579 23.555C53.3939 23.5437 53.5299 23.521 53.6659 23.487V24.983C53.4506 25.0057 53.2409 25.0283 53.0369 25.051C52.8329 25.0737 52.6232 25.085 52.4079 25.085C51.8979 25.085 51.4842 25.0397 51.1669 24.949C50.8609 24.847 50.6172 24.7053 50.4359 24.524C50.2659 24.3313 50.1469 24.0933 50.0789 23.81C50.0222 23.5267 49.9882 23.2037 49.9769 22.841V17.656H48.5149V16.211ZM59.089 25.238C58.3864 25.238 57.7574 25.1247 57.202 24.898C56.658 24.66 56.1934 24.337 55.808 23.929C55.434 23.521 55.145 23.0337 54.941 22.467C54.7484 21.9003 54.652 21.277 54.652 20.597C54.652 19.9283 54.7484 19.3107 54.941 18.744C55.145 18.1773 55.434 17.69 55.808 17.282C56.1934 16.874 56.658 16.5567 57.202 16.33C57.7574 16.092 58.3864 15.973 59.089 15.973C59.7917 15.973 60.415 16.092 60.959 16.33C61.5144 16.5567 61.979 16.874 62.353 17.282C62.7384 17.69 63.0274 18.1773 63.22 18.744C63.424 19.3107 63.526 19.9283 63.526 20.597C63.526 21.277 63.424 21.9003 63.22 22.467C63.0274 23.0337 62.7384 23.521 62.353 23.929C61.979 24.337 61.5144 24.66 60.959 24.898C60.415 25.1247 59.7917 25.238 59.089 25.238ZM59.089 23.708C59.5197 23.708 59.8937 23.6173 60.211 23.436C60.5284 23.2547 60.789 23.0167 60.993 22.722C61.197 22.4273 61.3444 22.0987 61.435 21.736C61.537 21.362 61.588 20.9823 61.588 20.597C61.588 20.223 61.537 19.849 61.435 19.475C61.3444 19.101 61.197 18.7723 60.993 18.489C60.789 18.1943 60.5284 17.9563 60.211 17.775C59.8937 17.5937 59.5197 17.503 59.089 17.503C58.6584 17.503 58.2844 17.5937 57.967 17.775C57.6497 17.9563 57.389 18.1943 57.185 18.489C56.981 18.7723 56.828 19.101 56.726 19.475C56.6354 19.849 56.59 20.223 56.59 20.597C56.59 20.9823 56.6354 21.362 56.726 21.736C56.828 22.0987 56.981 22.4273 57.185 22.722C57.389 23.0167 57.6497 23.2547 57.967 23.436C58.2844 23.6173 58.6584 23.708 59.089 23.708ZM65.1372 16.211H66.9562V17.911H66.9902C67.0469 17.673 67.1545 17.4407 67.3132 17.214C67.4832 16.9873 67.6815 16.7833 67.9082 16.602C68.1462 16.4093 68.4069 16.2563 68.6902 16.143C68.9735 16.0297 69.2625 15.973 69.5572 15.973C69.7839 15.973 69.9369 15.9787 70.0162 15.99C70.1069 16.0013 70.1975 16.0127 70.2882 16.024V17.894C70.1522 17.8713 70.0105 17.8543 69.8632 17.843C69.7272 17.8203 69.5912 17.809 69.4552 17.809C69.1265 17.809 68.8149 17.877 68.5202 18.013C68.2369 18.1377 67.9875 18.3303 67.7722 18.591C67.5569 18.8403 67.3869 19.152 67.2622 19.526C67.1375 19.9 67.0752 20.3307 67.0752 20.818V25H65.1372V16.211ZM76.8499 19.832C76.8273 19.526 76.7593 19.2313 76.6459 18.948C76.5439 18.6647 76.3966 18.421 76.2039 18.217C76.0226 18.0017 75.7959 17.8317 75.5239 17.707C75.2633 17.571 74.9686 17.503 74.6399 17.503C74.2999 17.503 73.9883 17.5653 73.7049 17.69C73.4329 17.8033 73.1949 17.9677 72.9909 18.183C72.7983 18.387 72.6396 18.6307 72.5149 18.914C72.4016 19.1973 72.3393 19.5033 72.3279 19.832H76.8499ZM72.3279 21.107C72.3279 21.447 72.3733 21.7757 72.4639 22.093C72.5659 22.4103 72.7133 22.688 72.9059 22.926C73.0986 23.164 73.3423 23.3567 73.6369 23.504C73.9316 23.64 74.2829 23.708 74.6909 23.708C75.2576 23.708 75.7109 23.589 76.0509 23.351C76.4023 23.1017 76.6629 22.7333 76.8329 22.246H78.6689C78.5669 22.722 78.3913 23.147 78.1419 23.521C77.8926 23.895 77.5923 24.2123 77.2409 24.473C76.8896 24.7223 76.4929 24.9093 76.0509 25.034C75.6203 25.17 75.1669 25.238 74.6909 25.238C73.9996 25.238 73.3876 25.1247 72.8549 24.898C72.3223 24.6713 71.8689 24.354 71.4949 23.946C71.1323 23.538 70.8546 23.0507 70.6619 22.484C70.4806 21.9173 70.3899 21.294 70.3899 20.614C70.3899 19.9907 70.4863 19.4013 70.6789 18.846C70.8829 18.2793 71.1663 17.7863 71.5289 17.367C71.9029 16.9363 72.3506 16.5963 72.8719 16.347C73.3933 16.0977 73.9826 15.973 74.6399 15.973C75.3313 15.973 75.9489 16.1203 76.4929 16.415C77.0483 16.6983 77.5073 17.078 77.8699 17.554C78.2326 18.03 78.4933 18.5797 78.6519 19.203C78.8219 19.815 78.8673 20.4497 78.7879 21.107H72.3279Z" fill="black" fill-opacity="0.8"/>
</svg>
