<svg width="160" height="32" viewBox="0 0 160 32" fill="none" xmlns="http://www.w3.org/2000/svg">
<path d="M123.237 15.4341C124.126 15.8751 125.602 15.4299 125.873 14.904C125.334 14.6897 124.782 14.7315 124.2 14.8595C124.386 14.5729 124.564 14.3391 124.7 14.0817C124.834 13.8271 124.947 13.5558 124.935 13.2205C123.972 13.6685 123.43 14.4115 123.237 15.4327M118.858 14.8386C118.287 14.7106 117.737 14.7036 117.191 14.9054C117.486 15.5078 119.172 15.8306 119.847 15.416C119.65 14.3976 119.106 13.6588 118.134 13.215C118.191 13.8661 118.513 14.3503 118.858 14.8386ZM115.593 12.9283C115.576 12.9464 115.561 12.9645 115.546 12.9826C115.7 13.1969 115.834 13.432 116.012 13.624C116.446 14.0887 117.005 14.3169 117.617 14.4184C117.654 14.424 117.73 14.3711 117.741 14.3322C117.778 14.2042 117.804 14.0706 117.815 13.937C117.864 13.3082 117.698 12.728 117.393 12.1882C117.304 12.031 117.171 11.8988 117.039 11.7318C116.872 12.344 116.923 12.9005 117.078 13.4654C116.608 13.1718 116.15 12.9033 115.593 12.9283ZM115.991 11.5287C115.695 11.0153 115.347 10.5798 114.746 10.3141C114.81 10.5923 114.861 10.8219 114.917 11.0501C115.083 11.7193 115.513 12.1854 116.053 12.5666C116.139 12.6278 116.209 12.6195 116.279 12.5235C116.491 12.2313 116.635 11.9099 116.723 11.5579C116.856 11.0195 116.824 10.4936 116.643 9.90504C116.268 10.4129 116.064 10.9304 115.991 11.5287ZM126.441 9.93704C126.397 10.0595 126.346 10.1513 126.332 10.2487C126.278 10.623 126.232 10.993 126.316 11.377C126.408 11.793 126.55 12.1743 126.8 12.5165C126.869 12.6125 126.939 12.6195 127.043 12.5527C127.552 12.2243 127.928 11.7861 128.117 11.2031C128.205 10.9346 128.301 10.6605 128.252 10.2974C128.006 10.4963 127.775 10.6452 127.591 10.8414C127.405 11.0417 127.265 11.288 127.068 11.5676C126.994 10.9485 126.849 10.4059 126.441 9.93704ZM126.12 8.07408C126.102 8.08382 126.083 8.09356 126.065 8.1033C126.093 8.28417 126.097 8.47339 126.153 8.64591C126.365 9.29843 126.726 9.84799 127.31 10.2167C127.537 10.3586 127.543 10.4226 127.708 10.1207C127.745 10.0539 127.789 9.98991 127.827 9.92312C128.109 9.43339 128.131 8.89356 128.09 8.35234C128.073 8.14086 127.989 7.93356 127.924 7.68591C127.494 8.15478 127.397 8.69878 127.289 9.24556C126.978 8.75025 126.621 8.33565 126.12 8.07547M126.001 13.4751C126.142 12.9075 126.184 12.3537 126.027 11.7958C125.701 12.12 125.494 12.5054 125.371 12.9311C125.308 13.1496 125.265 13.3819 125.263 13.6073C125.26 13.8466 125.31 14.0887 125.354 14.3266C125.361 14.367 125.46 14.4268 125.504 14.417C125.893 14.328 126.278 14.2292 126.619 13.9983C127.013 13.7311 127.316 13.3889 127.539 12.9353C126.934 12.8838 126.473 13.176 126.001 13.4737M115.228 7.70539C115.198 7.71095 115.167 7.71652 115.135 7.72208C115.098 7.90156 115.061 8.08104 115.023 8.26052C114.86 9.00626 115.068 9.66712 115.475 10.2807C115.495 10.3113 115.582 10.3308 115.612 10.3127C116.441 9.81043 116.917 9.0786 117.02 8.05321C116.45 8.32034 116.094 8.7586 115.79 9.30399C115.72 8.97426 115.69 8.70017 115.6 8.44834C115.506 8.18956 115.354 7.95165 115.228 7.70399M116.512 7.0946C116.561 6.80799 116.612 6.54365 116.652 6.27791C116.693 6.00521 116.652 5.74226 116.538 5.45147C116.434 5.59199 116.352 5.69773 116.275 5.80625C115.839 6.41426 115.683 7.08765 115.83 7.82643C115.841 7.88486 115.937 7.9753 115.983 7.96834C116.431 7.90434 116.865 7.78469 117.231 7.49808C117.568 7.23512 117.868 6.9346 118.042 6.50469C117.775 6.5506 117.51 6.5993 117.265 6.69947C117.012 6.80243 116.776 6.95269 116.512 7.0946ZM126.573 7.10713C126.108 6.76765 125.61 6.54921 125.005 6.51304C125.221 6.90678 125.473 7.21147 125.8 7.45634C126.169 7.73321 126.582 7.89182 127.037 7.96278C127.191 7.98643 127.238 7.94191 127.257 7.8153C127.32 7.3993 127.319 6.98469 127.198 6.57843C127.072 6.15408 126.845 5.79512 126.519 5.47234C126.357 6.0386 126.438 6.56591 126.573 7.10713ZM123.528 5.53912C124.069 6.10956 125.276 6.29739 126.002 5.94817C125.943 5.03826 125.11 4.16312 124.428 4.04208C124.513 4.57078 124.758 5.02573 125.112 5.43617C124.572 5.37912 124.052 5.33043 123.528 5.53912ZM118.689 4.01982C117.854 4.21739 117.065 5.25808 117.086 5.97182C117.979 6.26817 118.802 6.13739 119.582 5.5586C119.045 5.31512 118.502 5.39165 117.952 5.45843C118.124 5.2066 118.294 5.00347 118.412 4.77391C118.528 4.54712 118.591 4.29112 118.687 4.01982M119.227 16.1103C119.279 16.1534 119.328 16.2021 119.384 16.2383C119.727 16.465 120.105 16.415 120.467 16.3384C120.83 16.2633 121.179 16.1172 121.539 16.0268C122.158 15.871 122.76 15.8863 123.3 16.2925C123.428 16.3899 123.552 16.4943 123.721 16.632C123.683 16.4734 123.673 16.3635 123.632 16.2689C123.382 15.704 122.887 15.505 122.337 15.4243C121.776 15.3423 121.268 15.5621 120.754 15.7499C120.268 15.928 119.787 16.1562 119.226 16.1089M121.053 3.89599C120.143 3.76243 119.109 4.38712 118.82 4.91026C119.546 5.09391 120.815 4.54156 121.053 3.89599ZM124.257 4.90886C123.843 4.24939 122.704 3.74156 122.041 3.90852C122.15 4.46643 123.561 5.11339 124.257 4.90886Z" fill="#0E3A5A"/>
<path d="M5.51567 3.9165V15.6369H3.09375V3.9165H5.51567Z" fill="#0E3A5A"/>
<path d="M14.9881 3.9165V15.6369H12.6895L9.60454 9.2132V15.6369H7.18262V3.9165H9.46618L12.5511 10.3402V3.9165H14.9881Z" fill="#0E3A5A"/>
<path d="M25.0154 3.9165L21.8072 15.6369H19.1387L15.9141 3.9165H18.4442L20.4647 11.8609L22.4853 3.9165H25.0154Z" fill="#0E3A5A"/>
<path d="M32.0817 3.9165V6.1732H28.3789V8.55511H31.8502V10.7951H28.3789V13.3802H32.0968V15.6369H25.957V3.9165H32.0817Z" fill="#0E3A5A"/>
<path d="M37.1104 3.74414C38.0666 3.74414 38.9926 3.95284 39.8871 4.37023L39.6405 6.76745C38.8789 6.30831 38.0871 6.07736 37.2652 6.07736C36.8433 6.07736 36.5227 6.18727 36.3008 6.4071C36.0789 6.62692 35.9693 6.92884 35.9693 7.31562C35.9693 7.74414 36.2008 8.07249 36.6638 8.30205C36.735 8.34379 37.1159 8.49545 37.8049 8.75701C38.7104 9.07005 39.3789 9.4624 39.8104 9.93266C40.2529 10.3918 40.4734 11.1181 40.4734 12.1101C40.4734 13.2593 40.1186 14.1622 39.409 14.8203C38.6994 15.4784 37.7679 15.8081 36.6172 15.8081C35.383 15.8081 34.3076 15.5466 33.3926 15.0248L33.6392 12.5177C34.6063 13.1438 35.5419 13.4582 36.4474 13.4582C36.9405 13.4582 37.3213 13.3455 37.5885 13.1215C37.8556 12.8975 37.9898 12.5817 37.9898 12.1741C37.9898 11.8193 37.8871 11.5494 37.6816 11.3671C37.4761 11.1848 37.0652 10.9831 36.4474 10.7647C35.7679 10.5142 35.2282 10.2638 34.8282 10.012C33.9337 9.43736 33.4857 8.54971 33.4857 7.34901C33.4857 6.25266 33.8118 5.37753 34.4652 4.72501C35.1186 4.07249 36.0008 3.74553 37.1104 3.74553V3.74414Z" fill="#0E3A5A"/>
<path d="M49.2665 3.91643V6.17313H46.5199V15.6368H44.0829V6.17173H41.3213V3.91504H49.2665V3.91643Z" fill="#0E3A5A"/>
<path d="M58.4462 8.25614V11.2961C58.4462 12.6652 58.0654 13.7615 57.3051 14.5866C56.5544 15.4019 55.5407 15.8081 54.2654 15.8081C52.99 15.8081 51.9763 15.4005 51.2256 14.5866C50.475 13.7824 50.0996 12.6861 50.0996 11.2961V8.25614C50.0996 6.86762 50.475 5.76988 51.2256 4.96571C51.9763 4.1504 52.99 3.74414 54.2654 3.74414C55.5407 3.74414 56.553 4.15179 57.3051 4.96571C58.0654 5.79075 58.4462 6.88849 58.4462 8.25614ZM52.5681 8.33405V11.2321C52.5681 11.964 52.7202 12.533 53.0229 12.9407C53.3256 13.3483 53.7407 13.5514 54.2654 13.5514C54.79 13.5514 55.2037 13.3511 55.5078 12.949C55.8106 12.5469 55.9626 11.9751 55.9626 11.2335V8.33545C55.9626 7.59388 55.8106 7.01927 55.5078 6.61162C55.2037 6.20397 54.79 6.00084 54.2654 6.00084C53.7407 6.00084 53.327 6.20397 53.0229 6.61162C52.7202 7.01927 52.5681 7.59388 52.5681 8.33545V8.33405Z" fill="#0E3A5A"/>
<path d="M67.8549 15.6355H65.2632L63.381 11.3266H62.3467V15.6355H59.9248V3.9165H63.3645C64.5673 3.9165 65.5166 4.21981 66.2111 4.82503C66.9056 5.43163 67.2522 6.29842 67.2522 7.42677V7.81911C67.2522 9.1979 66.7481 10.1802 65.7399 10.7645L67.8536 15.6369L67.8549 15.6355ZM62.3467 6.17181V9.0699H63.2262C63.7193 9.0699 64.1029 8.9572 64.3755 8.7332C64.6481 8.5092 64.7837 8.18224 64.7837 7.75372V7.48798C64.7837 6.61007 64.2645 6.17181 63.2262 6.17181H62.3467Z" fill="#0E3A5A"/>
<path d="M72.4229 3.74414C73.3791 3.74414 74.3051 3.95284 75.1996 4.37023L74.953 6.76745C74.1914 6.30831 73.3996 6.07736 72.5777 6.07736C72.1558 6.07736 71.8352 6.18727 71.6133 6.4071C71.3914 6.62692 71.2818 6.92884 71.2818 7.31562C71.2818 7.74414 71.5133 8.07249 71.9763 8.30205C72.0475 8.34379 72.4284 8.49545 73.1174 8.75701C74.0229 9.07005 74.6914 9.4624 75.1229 9.93266C75.5654 10.3918 75.7859 11.1181 75.7859 12.1101C75.7859 13.2593 75.4311 14.1622 74.7215 14.8203C74.0119 15.4784 73.0804 15.8081 71.9297 15.8081C70.6955 15.8081 69.6201 15.5466 68.7051 15.0248L68.9517 12.5177C69.9188 13.1438 70.8544 13.4582 71.7599 13.4582C72.253 13.4582 72.6338 13.3455 72.901 13.1215C73.1681 12.8975 73.3023 12.5817 73.3023 12.1741C73.3023 11.8193 73.1996 11.5494 72.9941 11.3671C72.7886 11.1848 72.3777 10.9831 71.7599 10.7647C71.0804 10.5142 70.5407 10.2638 70.1393 10.012C69.2448 9.43736 68.7969 8.54971 68.7969 7.34901C68.7969 6.25266 69.1229 5.37753 69.7763 4.72501C70.4297 4.07249 71.3119 3.74553 72.4215 3.74553L72.4229 3.74414Z" fill="#0E3A5A"/>
<path d="M83.7266 3.9165V15.6369H81.3047V3.9165H83.7266Z" fill="#0E3A5A"/>
<path d="M93.199 3.9165V15.6369H90.9004L87.8155 9.2132V15.6369H85.3936V3.9165H87.6771L90.762 10.3402V3.9165H93.199Z" fill="#0E3A5A"/>
<path d="M98.7266 15.7384V4.01807H102.368C103.561 4.01807 104.505 4.32137 105.199 4.92659C105.894 5.5332 106.24 6.39998 106.24 7.52833V7.96659C106.24 9.10468 105.894 9.97702 105.199 10.5836C104.505 11.1888 103.561 11.4922 102.368 11.4922H101.148V15.7384H98.7266ZM102.213 6.27476H101.148V9.23546H102.213C102.706 9.23546 103.09 9.12276 103.362 8.89876C103.635 8.67476 103.77 8.34781 103.77 7.91928V7.58955C103.77 7.16102 103.633 6.83546 103.362 6.61007C103.09 6.38607 102.706 6.27337 102.213 6.27337V6.27476Z" fill="#0E3A5A"/>
<path d="M113.628 4.01807V6.27476H109.925V8.65668H113.396V10.8967H109.925V13.4817H113.643V15.7384H107.503V4.01807H113.628Z" fill="#0E3A5A"/>
<path d="M129.612 15.7389V4.01855H133.253C134.447 4.01855 135.39 4.32186 136.085 4.92708C136.779 5.53369 137.126 6.40047 137.126 7.52882V7.96708C137.126 9.10516 136.779 9.97751 136.085 10.5841C135.39 11.1893 134.447 11.4926 133.253 11.4926H132.034V15.7389H129.612ZM133.099 6.27525H132.034V9.23595H133.099C133.592 9.23595 133.975 9.12325 134.248 8.89925C134.521 8.67525 134.656 8.34829 134.656 7.91977V7.59003C134.656 7.16151 134.519 6.83595 134.248 6.61055C133.975 6.38655 133.592 6.27386 133.099 6.27386V6.27525Z" fill="#0E3A5A"/>
<path d="M140.811 4.01855V13.4822H144.312V15.7389H138.388V4.01855H140.81H140.811Z" fill="#0E3A5A"/>
<path d="M151.626 4.01807V6.27476H147.923V8.65668H151.394V10.8967H147.923V13.4817H151.641V15.7384H145.501V4.01807H151.626Z" fill="#0E3A5A"/>
<path d="M10.3195 27.2114H8.6757L7.31406 22.4795H7.28529L5.92365 27.2114H4.27022L2.31543 20.2173H4.10447L5.19351 24.8698H5.22228L6.44831 20.2173H8.17981L9.41543 24.8698H9.4442L10.5524 20.2173H12.2839L10.3195 27.2114Z" fill="#003764"/>
<path d="M17.3604 24.8111V25.0086C17.3604 25.074 17.3577 25.1366 17.3509 25.1965H13.8399C13.8522 25.3342 13.8933 25.4594 13.9618 25.5721C14.0303 25.6848 14.118 25.7808 14.2248 25.8629C14.3317 25.945 14.4522 26.009 14.5851 26.0549C14.718 26.1008 14.8563 26.1245 14.9988 26.1245C15.2522 26.1245 15.4659 26.0772 15.6413 25.9812C15.8166 25.8852 15.9591 25.7627 16.0687 25.6111L17.1769 26.322C16.9495 26.6573 16.6495 26.9161 16.2769 27.097C15.9043 27.2779 15.4714 27.3683 14.9783 27.3683C14.6152 27.3683 14.2714 27.3099 13.9467 27.1958C13.6221 27.0803 13.3385 26.9133 13.0961 26.6921C12.8536 26.4723 12.6618 26.1996 12.5221 25.8768C12.3824 25.554 12.3125 25.1853 12.3125 24.7707C12.3125 24.3561 12.381 24.0055 12.5166 23.6786C12.6522 23.353 12.8372 23.0761 13.0714 22.8493C13.3057 22.6226 13.581 22.4459 13.8974 22.3206C14.2152 22.1954 14.5591 22.1328 14.9289 22.1328C15.2988 22.1328 15.6125 22.194 15.9111 22.3151C16.2098 22.4375 16.4659 22.6128 16.6796 22.8438C16.8933 23.0747 17.0604 23.3544 17.181 23.6841C17.3015 24.0139 17.3604 24.3895 17.3604 24.8097V24.8111ZM15.892 24.1892C15.892 23.9318 15.8125 23.7119 15.6536 23.5269C15.4947 23.3432 15.2563 23.25 14.9385 23.25C14.7824 23.25 14.6399 23.2751 14.5111 23.3238C14.381 23.3725 14.2687 23.4406 14.1714 23.5269C14.0741 23.6132 13.9961 23.7133 13.9385 23.8288C13.881 23.9443 13.8481 24.0639 13.8413 24.1892H15.8933H15.892Z" fill="#003764"/>
<path d="M22.5153 20.7207C22.5153 20.8459 22.4906 20.9627 22.4427 21.0713C22.3947 21.1798 22.329 21.2744 22.2482 21.3523C22.1673 21.4316 22.0701 21.4942 21.9564 21.5401C21.8427 21.5861 21.7249 21.6097 21.6016 21.6097C21.3427 21.6097 21.1249 21.5221 20.9495 21.3481C20.7742 21.1742 20.6865 20.9641 20.6865 20.7207C20.6865 20.6024 20.7098 20.4883 20.755 20.3798C20.8002 20.2713 20.8646 20.1767 20.9495 20.0987C21.0331 20.0194 21.1304 19.9554 21.2413 19.9067C21.3509 19.8581 21.4715 19.833 21.6016 19.833C21.7317 19.833 21.8427 19.8567 21.9564 19.9026C22.0701 19.9485 22.1673 20.0111 22.2482 20.0904C22.329 20.1697 22.3934 20.2629 22.4427 20.3714C22.4906 20.48 22.5153 20.5968 22.5153 20.7221V20.7207ZM20.803 27.2111V22.2914H22.3975V27.2111H20.803Z" fill="#003764"/>
<path d="M26.8425 27.2112V24.5246C26.8425 24.3869 26.8316 24.2547 26.8083 24.1295C26.785 24.0042 26.748 23.8943 26.696 23.7983C26.6439 23.7023 26.5713 23.6272 26.4768 23.5715C26.3823 23.5159 26.2645 23.4881 26.122 23.4881C25.9795 23.4881 25.8549 23.5159 25.748 23.5715C25.6412 23.6272 25.5521 23.7051 25.4809 23.8039C25.4097 23.9027 25.3562 24.0168 25.3206 24.1448C25.285 24.2728 25.2672 24.4063 25.2672 24.5455V27.2126H23.6631V22.2929H25.2097V22.9747H25.2288C25.2877 22.8689 25.3631 22.766 25.4576 22.663C25.5521 22.5615 25.6617 22.4738 25.7877 22.4015C25.9138 22.3291 26.0521 22.2693 26.2014 22.2234C26.3508 22.1775 26.5097 22.1538 26.6782 22.1538C27.0028 22.1538 27.2782 22.2136 27.5042 22.3319C27.7316 22.4502 27.9138 22.6032 28.0535 22.791C28.1932 22.9789 28.2932 23.1945 28.3549 23.438C28.4165 23.6815 28.4466 23.9249 28.4466 24.1684V27.2112H26.8425Z" fill="#003764"/>
<path d="M32.6503 27.2112H30.9283L29.0215 22.2915H30.7818L31.8037 25.4818H31.8324L32.853 22.2915H34.5557L32.6489 27.2112H32.6503Z" fill="#003764"/>
<path d="M39.9727 24.8111V25.0086C39.9727 25.074 39.97 25.1366 39.9632 25.1965H36.4522C36.4645 25.3342 36.5056 25.4594 36.5741 25.5721C36.6426 25.6848 36.7303 25.7808 36.8371 25.8629C36.944 25.945 37.0645 26.009 37.1974 26.0549C37.3303 26.1008 37.4686 26.1245 37.6111 26.1245C37.8645 26.1245 38.0782 26.0772 38.2536 25.9812C38.4289 25.8852 38.5714 25.7627 38.681 25.6111L39.7892 26.322C39.5618 26.6573 39.2618 26.9161 38.8892 27.097C38.5166 27.2779 38.0837 27.3683 37.5906 27.3683C37.2275 27.3683 36.8837 27.3099 36.5591 27.1958C36.2344 27.0803 35.9508 26.9133 35.7084 26.6921C35.4659 26.4723 35.2741 26.1996 35.1344 25.8768C34.9947 25.554 34.9248 25.1853 34.9248 24.7707C34.9248 24.3561 34.9933 24.0055 35.1289 23.6786C35.2645 23.353 35.4495 23.0761 35.6837 22.8493C35.918 22.6226 36.1933 22.4459 36.5111 22.3206C36.8289 22.1954 37.1728 22.1328 37.5426 22.1328C37.9125 22.1328 38.2262 22.194 38.5248 22.3151C38.8234 22.4375 39.0796 22.6128 39.2933 22.8438C39.507 23.0747 39.6741 23.3544 39.7947 23.6841C39.9152 24.0139 39.9741 24.3895 39.9741 24.8097L39.9727 24.8111ZM38.5043 24.1892C38.5043 23.9318 38.4248 23.7119 38.2659 23.5269C38.107 23.3432 37.8686 23.25 37.5508 23.25C37.3947 23.25 37.2522 23.2751 37.1234 23.3238C36.9933 23.3725 36.8796 23.4406 36.7823 23.5269C36.6851 23.6132 36.607 23.7133 36.5495 23.8288C36.4919 23.9443 36.4591 24.0639 36.4522 24.1892H38.5043Z" fill="#003764"/>
<path d="M43.815 23.7442C43.6848 23.6189 43.5328 23.5132 43.3574 23.4283C43.1821 23.3435 42.9972 23.3003 42.8026 23.3003C42.6533 23.3003 42.5163 23.3296 42.3889 23.3894C42.2629 23.4492 42.1999 23.5508 42.1999 23.6955C42.1999 23.8402 42.2698 23.932 42.4095 23.9918C42.5492 24.0516 42.7739 24.117 43.0848 24.1894C43.2657 24.2283 43.4492 24.2854 43.6342 24.3577C43.8191 24.4301 43.9862 24.5261 44.1355 24.6443C44.2848 24.7626 44.404 24.9073 44.4958 25.0784C44.5862 25.2496 44.6314 25.4541 44.6314 25.6906C44.6314 25.9995 44.5698 26.2624 44.4465 26.4753C44.3232 26.6896 44.1629 26.8621 43.9657 26.9943C43.7684 27.1264 43.5451 27.221 43.2999 27.2809C43.0533 27.3407 42.8068 27.3699 42.5602 27.3699C42.1643 27.3699 41.7766 27.3059 41.3972 27.1779C41.0177 27.0499 40.7013 26.8607 40.4492 26.6102L41.3437 25.6516C41.4862 25.8102 41.6615 25.941 41.8684 26.0468C42.0752 26.1525 42.2958 26.2054 42.53 26.2054C42.6602 26.2054 42.7876 26.1748 42.9136 26.1122C43.0396 26.0496 43.1026 25.9396 43.1026 25.781C43.1026 25.6224 43.0246 25.5181 42.8698 25.4457C42.7136 25.3734 42.4711 25.2969 42.1396 25.2189C41.9711 25.18 41.8026 25.1271 41.6341 25.0603C41.4657 24.9949 41.315 24.9059 41.1821 24.7932C41.0492 24.6819 40.941 24.5428 40.8561 24.3786C40.7711 24.2144 40.73 24.0169 40.73 23.7859C40.73 23.4896 40.7917 23.2377 40.915 23.0304C41.0383 22.8231 41.1972 22.6534 41.3917 22.5212C41.5862 22.389 41.8013 22.293 42.0383 22.2304C42.2752 22.1678 42.5095 22.1372 42.7437 22.1372C43.1068 22.1372 43.4615 22.1956 43.8081 22.3097C44.1547 22.4252 44.4479 22.5977 44.6889 22.8287L43.8136 23.7469L43.815 23.7442Z" fill="#003764"/>
<path d="M47.287 23.4978V25.3816C47.287 25.6126 47.3308 25.7865 47.4185 25.902C47.5062 26.0175 47.6637 26.0759 47.8897 26.0759C47.9678 26.0759 48.05 26.0689 48.1377 26.0564C48.2253 26.0439 48.2979 26.023 48.3568 25.9966L48.376 27.182C48.2651 27.2209 48.1267 27.2557 47.9582 27.2863C47.7897 27.3155 47.6212 27.3309 47.4527 27.3309C47.1281 27.3309 46.8555 27.2891 46.6363 27.207C46.4157 27.1249 46.239 27.0053 46.1062 26.8509C45.9733 26.6964 45.8774 26.5114 45.8199 26.2957C45.7623 26.0801 45.7322 25.8422 45.7322 25.5778V23.4978H44.9541V22.2929H45.7226V20.999H47.2883V22.2929H48.4267V23.4978H47.2883H47.287Z" fill="#003764"/>
<path d="M53.3356 20.7207C53.3356 20.8459 53.3109 20.9627 53.263 21.0713C53.2151 21.1798 53.1493 21.2744 53.0685 21.3523C52.9877 21.4316 52.8904 21.4942 52.7767 21.5401C52.663 21.5861 52.5452 21.6097 52.4219 21.6097C52.163 21.6097 51.9452 21.5221 51.7699 21.3481C51.5945 21.1742 51.5068 20.9641 51.5068 20.7207C51.5068 20.6024 51.5301 20.4883 51.5753 20.3798C51.6205 20.2713 51.6849 20.1767 51.7699 20.0987C51.8534 20.0194 51.9507 19.9554 52.0616 19.9067C52.1712 19.8581 52.2918 19.833 52.4219 19.833C52.5452 19.833 52.663 19.8567 52.7767 19.9026C52.8904 19.9485 52.9877 20.0111 53.0685 20.0904C53.1493 20.1697 53.2151 20.2629 53.263 20.3714C53.3123 20.48 53.3356 20.5968 53.3356 20.7221V20.7207ZM51.6233 27.2111V22.2914H53.2178V27.2111H51.6233Z" fill="#003764"/>
<path d="M57.6648 27.2112V24.5246C57.6648 24.3869 57.6538 24.2547 57.6306 24.1295C57.6073 24.0042 57.5703 23.8943 57.5182 23.7983C57.4662 23.7023 57.3936 23.6272 57.2991 23.5715C57.2045 23.5159 57.0867 23.4881 56.9443 23.4881C56.8018 23.4881 56.6771 23.5159 56.5703 23.5715C56.4634 23.6272 56.3744 23.7051 56.3032 23.8039C56.2319 23.9027 56.1785 24.0168 56.1429 24.1448C56.1073 24.2728 56.0895 24.4063 56.0895 24.5455V27.2126H54.4854V22.2929H56.0319V22.9747H56.0511C56.11 22.8689 56.1854 22.766 56.2799 22.663C56.3744 22.5615 56.484 22.4738 56.61 22.4015C56.736 22.3291 56.8744 22.2693 57.0237 22.2234C57.173 22.1775 57.3319 22.1538 57.5004 22.1538C57.8251 22.1538 58.1004 22.2136 58.3278 22.3319C58.5552 22.4502 58.7374 22.6032 58.8771 22.791C59.0169 22.9789 59.1169 23.1945 59.1785 23.438C59.2401 23.6815 59.2703 23.9249 59.2703 24.1684V27.2112H57.6662H57.6648Z" fill="#003764"/>
<path d="M68.2949 24.7318C68.2949 25.0741 68.2428 25.4038 68.1387 25.7196C68.0346 26.0355 67.8839 26.3137 67.6867 26.5544C67.4894 26.7951 67.247 26.9871 66.962 27.1318C66.6771 27.2765 66.3524 27.3489 65.9894 27.3489C65.6908 27.3489 65.4086 27.2876 65.1428 27.1666C64.8771 27.0442 64.6689 26.8786 64.5209 26.6671H64.5017V29.5819H62.9072V22.2915H64.425V22.8939H64.4538C64.6031 22.6963 64.8086 22.5238 65.0716 22.375C65.3346 22.2275 65.6442 22.1523 66.0004 22.1523C66.3565 22.1523 66.6689 22.2219 66.9538 22.3596C67.2387 22.4974 67.4798 22.6852 67.6785 22.9231C67.8757 23.1596 68.0291 23.4351 68.136 23.7482C68.2428 24.0612 68.2963 24.3882 68.2963 24.7304L68.2949 24.7318ZM66.7483 24.7318C66.7483 24.5732 66.7237 24.4188 66.6757 24.2671C66.6264 24.1155 66.5552 23.9819 66.462 23.8664C66.3675 23.751 66.2497 23.6577 66.1072 23.5854C65.9648 23.513 65.799 23.4769 65.6113 23.4769C65.4237 23.4769 65.2675 23.513 65.125 23.5854C64.9826 23.6577 64.8607 23.7537 64.7607 23.872C64.6607 23.9903 64.5826 24.1252 64.5278 24.2769C64.473 24.4285 64.4456 24.583 64.4456 24.7416C64.4456 24.9002 64.473 25.0546 64.5278 25.2063C64.5826 25.3579 64.6607 25.4929 64.7607 25.6111C64.8607 25.7294 64.9826 25.8254 65.125 25.8977C65.2675 25.9701 65.4291 26.0063 65.6113 26.0063C65.7935 26.0063 65.9648 25.9701 66.1072 25.8977C66.2497 25.8254 66.3675 25.7294 66.462 25.6111C66.5565 25.4929 66.6278 25.3565 66.6757 25.2007C66.7237 25.0463 66.7483 24.889 66.7483 24.7318Z" fill="#003764"/>
<path d="M74.1017 24.8111V25.0086C74.1017 25.074 74.0989 25.1366 74.0921 25.1965H70.5811C70.5934 25.3342 70.6345 25.4594 70.703 25.5721C70.7715 25.6848 70.8592 25.7808 70.966 25.8629C71.0729 25.945 71.1934 26.009 71.3263 26.0549C71.4592 26.1008 71.5975 26.1245 71.74 26.1245C71.9934 26.1245 72.2071 26.0772 72.3825 25.9812C72.5578 25.8852 72.7003 25.7627 72.8099 25.6111L73.9181 26.322C73.6907 26.6573 73.3907 26.9161 73.0181 27.097C72.6455 27.2779 72.2126 27.3683 71.7195 27.3683C71.3564 27.3683 71.0126 27.3099 70.688 27.1958C70.3633 27.0803 70.0797 26.9133 69.8373 26.6921C69.5948 26.4723 69.403 26.1996 69.2633 25.8768C69.1236 25.554 69.0537 25.1853 69.0537 24.7707C69.0537 24.3561 69.1222 24.0055 69.2578 23.6786C69.3934 23.353 69.5784 23.0761 69.8126 22.8493C70.0469 22.6226 70.3222 22.4459 70.64 22.3206C70.9578 22.1954 71.3017 22.1328 71.6715 22.1328C72.0414 22.1328 72.3551 22.194 72.6537 22.3151C72.9523 22.4375 73.2085 22.6128 73.4222 22.8438C73.6359 23.0747 73.803 23.3544 73.9236 23.6841C74.0441 24.0139 74.103 24.3895 74.103 24.8097L74.1017 24.8111ZM72.6332 24.1892C72.6332 23.9318 72.5537 23.7119 72.3948 23.5269C72.2359 23.3432 71.9975 23.25 71.6797 23.25C71.5236 23.25 71.3811 23.2751 71.2523 23.3238C71.1222 23.3725 71.0085 23.4406 70.9112 23.5269C70.814 23.6132 70.7359 23.7133 70.6784 23.8288C70.6208 23.9443 70.588 24.0639 70.5811 24.1892H72.6332Z" fill="#003764"/>
<path d="M80.2296 24.7318C80.2296 25.1339 80.1584 25.4971 80.0159 25.824C79.8735 26.151 79.679 26.4265 79.4324 26.6532C79.1858 26.88 78.9009 27.0567 78.5762 27.1819C78.2516 27.3071 77.905 27.3698 77.5351 27.3698C77.1653 27.3698 76.8269 27.3071 76.4995 27.1819C76.1721 27.0567 75.8872 26.88 75.6433 26.6532C75.3995 26.4265 75.2077 26.1496 75.0653 25.824C74.9228 25.4985 74.8516 25.1339 74.8516 24.7318C74.8516 24.3298 74.9228 23.968 75.0653 23.6452C75.2077 23.3225 75.4009 23.0498 75.6433 22.8258C75.8858 22.6018 76.1721 22.4306 76.4995 22.3124C76.8269 22.1941 77.1721 22.1343 77.5351 22.1343C77.8981 22.1343 78.2516 22.1941 78.5762 22.3124C78.9009 22.4306 79.1858 22.6018 79.4324 22.8258C79.679 23.0498 79.8735 23.3238 80.0159 23.6452C80.1584 23.968 80.2296 24.3298 80.2296 24.7318ZM78.6927 24.7318C78.6927 24.5732 78.6666 24.4188 78.6146 24.2671C78.5625 24.1155 78.4886 23.9819 78.3913 23.8665C78.294 23.751 78.1735 23.6578 78.031 23.5854C77.8886 23.5131 77.7228 23.4769 77.5351 23.4769C77.3475 23.4769 77.1817 23.5131 77.0392 23.5854C76.8968 23.6578 76.7776 23.7524 76.6844 23.8665C76.5899 23.9819 76.5187 24.1155 76.4707 24.2671C76.4214 24.4188 76.3981 24.5732 76.3981 24.7318C76.3981 24.8905 76.4228 25.0449 76.4707 25.1965C76.5187 25.3482 76.5927 25.4845 76.6899 25.607C76.7872 25.7294 76.9064 25.8254 77.0502 25.8978C77.1927 25.9701 77.3584 26.0063 77.5461 26.0063C77.7338 26.0063 77.8995 25.9701 78.042 25.8978C78.1844 25.8254 78.305 25.728 78.4023 25.607C78.4995 25.4859 78.5721 25.3482 78.6214 25.1965C78.6707 25.0449 78.694 24.8905 78.694 24.7318H78.6927Z" fill="#003764"/>
<path d="M86.6279 24.7318C86.6279 25.0741 86.5759 25.4038 86.4717 25.7196C86.3676 26.0355 86.2169 26.3137 86.0197 26.5544C85.8224 26.7951 85.58 26.9871 85.295 27.1318C85.0101 27.2765 84.6854 27.3489 84.3224 27.3489C84.0238 27.3489 83.7416 27.2876 83.4759 27.1666C83.2101 27.0442 83.0019 26.8786 82.8539 26.6671H82.8348V29.5819H81.2402V22.2915H82.758V22.8939H82.7868C82.9361 22.6963 83.1416 22.5238 83.4046 22.375C83.6676 22.2275 83.9772 22.1523 84.3334 22.1523C84.6896 22.1523 85.0019 22.2219 85.2868 22.3596C85.5717 22.4974 85.8128 22.6852 86.0115 22.9231C86.2087 23.1596 86.3621 23.4351 86.469 23.7482C86.5758 24.0612 86.6293 24.3882 86.6293 24.7304L86.6279 24.7318ZM85.0813 24.7318C85.0813 24.5732 85.0567 24.4188 85.0087 24.2671C84.9594 24.1155 84.8882 23.9819 84.795 23.8664C84.7005 23.751 84.5827 23.6577 84.4402 23.5854C84.2978 23.513 84.132 23.4769 83.9443 23.4769C83.7567 23.4769 83.6005 23.513 83.458 23.5854C83.3156 23.6577 83.1937 23.7537 83.0937 23.872C82.9937 23.9903 82.9156 24.1252 82.8608 24.2769C82.806 24.4285 82.7786 24.583 82.7786 24.7416C82.7786 24.9002 82.806 25.0546 82.8608 25.2063C82.9156 25.3579 82.9937 25.4929 83.0937 25.6111C83.1937 25.7294 83.3156 25.8254 83.458 25.8977C83.6005 25.9701 83.7622 26.0063 83.9443 26.0063C84.1265 26.0063 84.2978 25.9701 84.4402 25.8977C84.5827 25.8254 84.7005 25.7294 84.795 25.6111C84.8896 25.4929 84.9608 25.3565 85.0087 25.2007C85.0567 25.0463 85.0813 24.889 85.0813 24.7318Z" fill="#003764"/>
<path d="M87.6494 27.2112V19.7427H89.2741V27.2112H87.6494Z" fill="#003764"/>
<path d="M95.3331 24.8111V25.0086C95.3331 25.074 95.3304 25.1366 95.3235 25.1965H91.8125C91.8249 25.3342 91.866 25.4594 91.9345 25.5721C92.003 25.6848 92.0906 25.7808 92.1975 25.8629C92.3043 25.945 92.4249 26.009 92.5578 26.0549C92.6906 26.1008 92.829 26.1245 92.9715 26.1245C93.2249 26.1245 93.4386 26.0772 93.6139 25.9812C93.7893 25.8852 93.9317 25.7627 94.0413 25.6111L95.1495 26.322C94.9221 26.6573 94.6221 26.9161 94.2495 27.097C93.8769 27.2779 93.4441 27.3683 92.9509 27.3683C92.5879 27.3683 92.2441 27.3099 91.9194 27.1958C91.5947 27.0803 91.3112 26.9133 91.0687 26.6921C90.8262 26.4723 90.6345 26.1996 90.4947 25.8768C90.355 25.554 90.2852 25.1853 90.2852 24.7707C90.2852 24.3561 90.3536 24.0055 90.4893 23.6786C90.6249 23.353 90.8098 23.0761 91.0441 22.8493C91.2783 22.6226 91.5536 22.4459 91.8715 22.3206C92.1893 22.1954 92.5331 22.1328 92.903 22.1328C93.2728 22.1328 93.5865 22.194 93.8852 22.3151C94.1838 22.4375 94.4399 22.6128 94.6536 22.8438C94.8673 23.0747 95.0345 23.3544 95.155 23.6841C95.2756 24.0139 95.3345 24.3895 95.3345 24.8097L95.3331 24.8111ZM93.8646 24.1892C93.8646 23.9318 93.7851 23.7119 93.6262 23.5269C93.4673 23.3432 93.229 23.25 92.9112 23.25C92.755 23.25 92.6126 23.2751 92.4838 23.3238C92.3536 23.3725 92.24 23.4406 92.1427 23.5269C92.0454 23.6132 91.9673 23.7133 91.9098 23.8288C91.8523 23.9443 91.8194 24.0639 91.8125 24.1892H93.8646Z" fill="#003764"/>
<path d="M101.48 20.2173H103.426C103.776 20.2173 104.094 20.2549 104.379 20.3314C104.664 20.4065 104.909 20.522 105.113 20.6764C105.317 20.8309 105.475 21.0256 105.585 21.2594C105.694 21.4931 105.75 21.7686 105.75 22.0844C105.75 22.4002 105.693 22.6757 105.58 22.9095C105.467 23.1432 105.308 23.338 105.104 23.4924C104.9 23.6469 104.653 23.7637 104.364 23.843C104.075 23.9223 103.756 23.9613 103.406 23.9613H102.18V27.2114H101.48V20.2173ZM102.18 23.3589H103.367C103.917 23.3589 104.337 23.2503 104.622 23.0333C104.906 22.8162 105.049 22.5004 105.049 22.0844C105.049 21.6684 104.901 21.3317 104.606 21.1314C104.311 20.931 103.898 20.8295 103.367 20.8295H102.18V23.3589Z" fill="#003764"/>
<path d="M107.762 27.2112H107.101V19.7427H107.762V27.2112Z" fill="#003764"/>
<path d="M112.402 24.2201C112.402 23.8208 112.298 23.5244 112.091 23.3282C111.883 23.1321 111.581 23.0347 111.187 23.0347C110.914 23.0347 110.662 23.0848 110.428 23.1835C110.194 23.2823 109.996 23.4145 109.835 23.5787L109.465 23.1335C109.653 22.9428 109.901 22.7842 110.209 22.659C110.517 22.5338 110.865 22.4712 111.254 22.4712C111.501 22.4712 111.731 22.506 111.944 22.5755C112.158 22.6451 112.346 22.7481 112.509 22.8872C112.67 23.0249 112.798 23.2002 112.888 23.4103C112.979 23.6218 113.024 23.8681 113.024 24.1519V26.1762C113.024 26.3543 113.031 26.538 113.043 26.73C113.055 26.9206 113.076 27.082 113.102 27.2141H112.509C112.49 27.1028 112.473 26.9804 112.46 26.8482C112.447 26.7161 112.44 26.5881 112.44 26.4628H112.421C112.214 26.7731 111.979 26.9943 111.716 27.1293C111.453 27.2642 111.138 27.3324 110.768 27.3324C110.592 27.3324 110.413 27.3074 110.228 27.2587C110.043 27.2086 109.875 27.1279 109.723 27.0152C109.57 26.9025 109.443 26.7578 109.343 26.5797C109.243 26.4016 109.192 26.1832 109.192 25.9258C109.192 25.5696 109.281 25.2872 109.46 25.0785C109.638 24.8698 109.876 24.7154 110.175 24.6124C110.473 24.5095 110.814 24.4441 111.201 24.4148C111.587 24.3856 111.987 24.3703 112.402 24.3703V24.2228V24.2201ZM112.207 24.9004C111.935 24.9004 111.661 24.9115 111.386 24.9352C111.11 24.9588 110.861 25.0048 110.636 25.0729C110.412 25.1411 110.229 25.2427 110.087 25.3748C109.944 25.507 109.873 25.6809 109.873 25.898C109.873 26.0621 109.903 26.2013 109.965 26.3126C110.027 26.4253 110.109 26.5157 110.213 26.5839C110.317 26.6535 110.432 26.7021 110.558 26.7328C110.684 26.762 110.813 26.7773 110.942 26.7773C111.175 26.7773 111.383 26.7369 111.564 26.6535C111.746 26.5714 111.898 26.4587 112.021 26.3181C112.144 26.1762 112.238 26.0135 112.303 25.8298C112.368 25.6461 112.401 25.4514 112.401 25.2468V24.9004H112.206H112.207Z" fill="#003764"/>
<path d="M116.681 23.1514H115.398V25.8477C115.398 26.0189 115.414 26.1608 115.446 26.2721C115.479 26.3848 115.525 26.471 115.587 26.5336C115.649 26.5963 115.721 26.6394 115.806 26.6616C115.89 26.6853 115.981 26.6964 116.079 26.6964C116.169 26.6964 116.265 26.6839 116.365 26.6575C116.465 26.631 116.561 26.5949 116.651 26.5489L116.68 27.1319C116.564 27.1778 116.442 27.2126 116.316 27.2363C116.19 27.2599 116.051 27.271 115.902 27.271C115.779 27.271 115.649 27.2543 115.513 27.2223C115.377 27.1889 115.25 27.1263 115.133 27.0345C115.017 26.9427 114.921 26.8175 114.847 26.6589C114.773 26.5003 114.735 26.2929 114.735 26.0369V23.1528H113.791V22.5893H114.735V21.2856H115.396V22.5893H116.68V23.1528L116.681 23.1514Z" fill="#003764"/>
<path d="M118.519 20.8099C118.519 20.9476 118.47 21.0617 118.373 21.1508C118.275 21.2398 118.169 21.2843 118.052 21.2843C117.936 21.2843 117.829 21.2398 117.732 21.1508C117.634 21.0617 117.585 20.9476 117.585 20.8099C117.585 20.6721 117.634 20.5581 117.732 20.469C117.829 20.38 117.936 20.3354 118.052 20.3354C118.169 20.3354 118.275 20.38 118.373 20.469C118.47 20.5581 118.519 20.6721 118.519 20.8099ZM118.384 27.2113H117.722V22.588H118.384V27.2113Z" fill="#003764"/>
<path d="M120.737 22.588C120.749 22.7132 120.76 22.8509 120.766 23.0026C120.772 23.1542 120.775 23.2795 120.775 23.3782H120.794C120.924 23.1083 121.134 22.8899 121.426 22.7216C121.718 22.5532 122.026 22.4697 122.35 22.4697C122.927 22.4697 123.36 22.6436 123.649 22.9929C123.938 23.3421 124.082 23.8026 124.082 24.3758V27.2113H123.42V24.6527C123.42 24.4092 123.401 24.188 123.361 23.9904C123.323 23.7929 123.256 23.6231 123.161 23.4812C123.067 23.3393 122.941 23.2294 122.782 23.1501C122.623 23.0708 122.423 23.0318 122.183 23.0318C122.008 23.0318 121.838 23.068 121.672 23.1403C121.507 23.2127 121.36 23.3226 121.23 23.4715C121.1 23.6189 120.997 23.8068 120.919 24.0349C120.841 24.2617 120.803 24.5302 120.803 24.8405V27.2113H120.141V23.605C120.141 23.4798 120.138 23.3184 120.131 23.1209C120.124 22.9233 120.115 22.7452 120.103 22.588H120.734H120.737Z" fill="#003764"/>
<path d="M129.102 27.2112C129.088 27.086 129.079 26.9482 129.073 26.7966C129.066 26.6449 129.064 26.5197 129.064 26.4209H129.045C128.914 26.6908 128.705 26.9093 128.413 27.0776C128.121 27.246 127.813 27.3295 127.488 27.3295C126.912 27.3295 126.479 27.1555 126.19 26.8063C125.901 26.4571 125.757 25.9966 125.757 25.4234V22.5879H126.418V25.1465C126.418 25.39 126.438 25.6112 126.477 25.8088C126.516 26.0063 126.583 26.1761 126.677 26.318C126.772 26.4599 126.898 26.5698 127.057 26.6491C127.216 26.7284 127.414 26.7674 127.655 26.7674C127.831 26.7674 128.001 26.7312 128.166 26.6588C128.332 26.5865 128.479 26.4766 128.609 26.3277C128.739 26.1788 128.842 25.9924 128.92 25.7642C128.998 25.5375 129.036 25.2689 129.036 24.9587V22.5879H129.698V26.1928C129.698 26.318 129.701 26.4794 129.708 26.6769C129.714 26.8745 129.724 27.0526 129.736 27.2098H129.105L129.102 27.2112Z" fill="#003764"/>
<path d="M132.695 22.7216C132.963 22.5532 133.263 22.4697 133.595 22.4697C133.718 22.4697 133.845 22.4836 133.978 22.5087C134.111 22.5351 134.241 22.5866 134.367 22.6617C134.493 22.7369 134.611 22.8384 134.718 22.9636C134.825 23.0889 134.918 23.2502 134.995 23.4478C135.151 23.132 135.363 22.8899 135.632 22.7216C135.9 22.5532 136.221 22.4697 136.589 22.4697C137.166 22.4697 137.599 22.6436 137.888 22.9929C138.177 23.3421 138.321 23.8026 138.321 24.3758V27.2113H137.659V24.6527C137.659 24.1657 137.57 23.7734 137.392 23.477C137.214 23.1807 136.911 23.0318 136.482 23.0318C136.243 23.0318 136.04 23.0819 135.874 23.1807C135.708 23.2795 135.576 23.4089 135.476 23.5702C135.376 23.7316 135.302 23.9139 135.256 24.1184C135.211 24.3229 135.188 24.533 135.188 24.7501V27.2099H134.526V24.5136C134.526 24.2896 134.51 24.085 134.477 23.9014C134.444 23.7177 134.388 23.5605 134.307 23.4325C134.226 23.3045 134.114 23.2057 133.971 23.1362C133.829 23.0666 133.647 23.0318 133.426 23.0318C133.27 23.0318 133.114 23.068 132.955 23.1403C132.796 23.2127 132.654 23.3226 132.528 23.4715C132.402 23.6189 132.299 23.8068 132.221 24.0349C132.143 24.2617 132.104 24.5302 132.104 24.8405V27.2113H131.443V23.605C131.443 23.4798 131.44 23.3184 131.433 23.1209C131.426 22.9233 131.417 22.7452 131.404 22.588H132.036C132.048 22.7132 132.059 22.8509 132.065 23.0026C132.071 23.1542 132.074 23.2795 132.074 23.3782H132.093C132.223 23.1083 132.422 22.8899 132.692 22.7216H132.695Z" fill="#003764"/>
<path d="M154.494 4.0166C154.929 4.0166 155.292 4.16269 155.584 4.45347C155.879 4.74843 156.027 5.10738 156.027 5.53034C156.027 5.9533 155.879 6.31225 155.584 6.60721C155.29 6.89382 154.927 7.03851 154.494 7.03851C154.061 7.03851 153.687 6.89521 153.392 6.60721C153.098 6.31225 152.951 5.9533 152.951 5.53034C152.951 5.10738 153.099 4.74008 153.392 4.45347C153.683 4.16269 154.05 4.0166 154.494 4.0166ZM153.539 6.47504C153.794 6.72269 154.11 6.84651 154.487 6.84651C154.863 6.84651 155.18 6.72269 155.435 6.47504C155.685 6.22321 155.811 5.90878 155.811 5.53034C155.811 5.15191 155.685 4.83608 155.435 4.58564C155.184 4.33382 154.868 4.2086 154.487 4.2086C154.106 4.2086 153.79 4.33382 153.539 4.58564C153.288 4.83608 153.162 5.15191 153.162 5.53034C153.162 5.90878 153.288 6.2246 153.539 6.47504ZM155.165 5.14078V5.2006C155.165 5.42738 155.069 5.58321 154.876 5.66669L155.247 6.44443H154.935L154.594 5.73208H154.146V6.44443H153.863V4.61347H154.535C154.727 4.61347 154.88 4.65938 154.994 4.75121C155.107 4.84304 155.165 4.97243 155.165 5.13938V5.14078ZM154.151 4.85417V5.49417H154.522C154.628 5.49417 154.713 5.46773 154.776 5.41625C154.839 5.36478 154.87 5.29104 154.87 5.19504V5.14773C154.87 5.05591 154.839 4.98495 154.776 4.93208C154.713 4.8806 154.628 4.85417 154.522 4.85417H154.151Z" fill="#0E3A5A"/>
</svg>
