<svg width="32" height="32" viewBox="0 0 32 32" fill="none" xmlns="http://www.w3.org/2000/svg">
<path d="M16 6.8125C21.3125 6.8125 25.6875 11.1875 25.6875 16.5C25.6875 21.8516 21.3125 26.1875 16 26.1875C10.6484 26.1875 6.3125 21.8516 6.3125 16.5C6.3125 11.1875 10.6484 6.8125 16 6.8125ZM20.4531 13.4141C20.4922 13.2969 20.4922 13.1797 20.4531 13.0234C20.4531 12.9453 20.375 12.8281 20.3359 12.7891C20.2188 12.6719 20.0234 12.6719 19.9453 12.6719C19.5938 12.6719 19.0078 12.8672 16.3125 14C15.375 14.3906 13.5 15.1719 10.6875 16.4219C10.2188 16.6172 9.98438 16.7734 9.94531 16.9688C9.90625 17.2812 10.4141 17.3984 11 17.5938C11.5078 17.75 12.1719 17.9453 12.5234 17.9453C12.8359 17.9453 13.1875 17.8281 13.5781 17.5547C16.1953 15.7578 17.5625 14.8594 17.6406 14.8594C17.7188 14.8594 17.7969 14.8203 17.8359 14.8594C17.9141 14.9375 17.9141 15.0156 17.875 15.0547C17.8359 15.25 15.375 17.5156 15.2188 17.6719C14.6719 18.2188 14.0469 18.5703 15.0234 19.1953C15.8438 19.7422 16.3125 20.0938 17.1719 20.6406C17.7188 20.9922 18.1484 21.4219 18.6953 21.3828C18.9688 21.3438 19.2422 21.1094 19.3594 20.3672C19.7109 18.6875 20.3359 14.9375 20.4531 13.4141Z" fill="black" fill-opacity="0.72"/>
</svg>
