<svg width="64" height="64" viewBox="0 0 64 64" fill="none" xmlns="http://www.w3.org/2000/svg">
<g clip-path="url(#clip0_17440_16835)">
<path d="M64 0H0V64H64V0Z" fill="white"/>
<path d="M6.47829 21.8539H7.80512H9.36609H10.6929C10.7237 21.8539 10.7541 21.86 10.7825 21.8717C10.8109 21.8835 10.8367 21.9007 10.8585 21.9225C10.8802 21.9442 10.8975 21.97 10.9092 21.9984C10.921 22.0268 10.9271 22.0573 10.9271 22.088V23.4149V24.7417C10.9271 24.7725 10.921 24.8029 10.9092 24.8313C10.8975 24.8597 10.8802 24.8855 10.8585 24.9073C10.8367 24.929 10.8109 24.9463 10.7825 24.958C10.7541 24.9698 10.7237 24.9758 10.6929 24.9758H9.60024C9.56949 24.9758 9.53904 24.9698 9.51063 24.958C9.48223 24.9463 9.45641 24.929 9.43467 24.9073C9.41293 24.8855 9.39568 24.8597 9.38391 24.8313C9.37215 24.8029 9.36609 24.7725 9.36609 24.7417V23.649C9.36609 23.5869 9.34142 23.5274 9.29751 23.4835C9.2536 23.4395 9.19404 23.4149 9.13195 23.4149H8.03926C7.97716 23.4149 7.91761 23.4395 7.8737 23.4835C7.82978 23.5274 7.80512 23.5869 7.80512 23.649V24.9758V26.3027C7.80512 26.3648 7.78045 26.4243 7.73654 26.4682C7.69263 26.5122 7.63307 26.5368 7.57097 26.5368H6.47829C6.41619 26.5368 6.35663 26.5122 6.31272 26.4682C6.26881 26.4243 6.24414 26.3648 6.24414 26.3027V24.9758V23.4149V22.088C6.24414 22.0259 6.26881 21.9664 6.31272 21.9225C6.35663 21.8786 6.41619 21.8539 6.47829 21.8539ZM6.47829 29.6588H7.57097C7.63307 29.6588 7.69263 29.6341 7.73654 29.5902C7.78045 29.5463 7.80512 29.4867 7.80512 29.4246V28.0978V26.771C7.80512 26.7089 7.82978 26.6493 7.8737 26.6054C7.91761 26.5615 7.97716 26.5368 8.03926 26.5368H9.13195C9.19404 26.5368 9.2536 26.5615 9.29751 26.6054C9.34142 26.6493 9.36609 26.7089 9.36609 26.771V28.0978V29.4246C9.36609 29.4554 9.37215 29.4858 9.38391 29.5142C9.39568 29.5426 9.41293 29.5685 9.43467 29.5902C9.45641 29.6119 9.48223 29.6292 9.51063 29.641C9.53904 29.6527 9.56949 29.6588 9.60024 29.6588H10.6929C10.7237 29.6588 10.7541 29.6648 10.7825 29.6766C10.8109 29.6884 10.8367 29.7056 10.8585 29.7274C10.8802 29.7491 10.8975 29.7749 10.9092 29.8033C10.921 29.8317 10.9271 29.8622 10.9271 29.8929V30.9856C10.9271 31.0164 10.921 31.0468 10.9092 31.0752C10.8975 31.1036 10.8802 31.1294 10.8585 31.1512C10.8367 31.1729 10.8109 31.1902 10.7825 31.2019C10.7541 31.2137 10.7237 31.2198 10.6929 31.2198H9.60024C9.56949 31.2198 9.53904 31.2258 9.51063 31.2376C9.48223 31.2493 9.45641 31.2666 9.43467 31.2883C9.41293 31.3101 9.39568 31.3359 9.38391 31.3643C9.37215 31.3927 9.36609 31.4231 9.36609 31.4539V32.5466C9.36609 32.6087 9.39076 32.6682 9.43467 32.7121C9.47858 32.7561 9.53814 32.7807 9.60024 32.7807H10.9271H12.2539C12.316 32.7807 12.3756 32.7561 12.4195 32.7121C12.4634 32.6682 12.488 32.6087 12.488 32.5466V31.2198V29.8929C12.488 29.8308 12.5127 29.7713 12.5566 29.7274C12.6005 29.6834 12.6601 29.6588 12.7222 29.6588H14.049H15.3758C15.4379 29.6588 15.4975 29.6834 15.5414 29.7274C15.5853 29.7713 15.61 29.8308 15.61 29.8929V30.9856C15.61 31.0477 15.6347 31.1073 15.6786 31.1512C15.7225 31.1951 15.782 31.2198 15.8441 31.2198H16.9368C16.9676 31.2198 16.998 31.2258 17.0264 31.2376C17.0548 31.2493 17.0806 31.2666 17.1024 31.2883C17.1241 31.3101 17.1414 31.3359 17.1531 31.3643C17.1649 31.3927 17.171 31.4231 17.171 31.4539V32.5466C17.171 32.6087 17.1463 32.6682 17.1024 32.7121C17.0585 32.7561 16.9989 32.7807 16.9368 32.7807H15.8441C15.782 32.7807 15.7225 32.8054 15.6786 32.8493C15.6347 32.8932 15.61 32.9528 15.61 33.0149V34.1076C15.61 34.1697 15.5853 34.2292 15.5414 34.2731C15.4975 34.317 15.4379 34.3417 15.3758 34.3417H14.049H12.7222C12.6601 34.3417 12.6005 34.3664 12.5566 34.4103C12.5127 34.4542 12.488 34.5137 12.488 34.5758V35.6685C12.488 35.7306 12.4634 35.7902 12.4195 35.8341C12.3756 35.878 12.316 35.9027 12.2539 35.9027H11.1612C11.0991 35.9027 11.0396 35.878 10.9956 35.8341C10.9517 35.7902 10.9271 35.7306 10.9271 35.6685V34.5758C10.9271 34.5137 10.9024 34.4542 10.8585 34.4103C10.8146 34.3664 10.755 34.3417 10.6929 34.3417H9.36609H8.03926C7.97716 34.3417 7.91761 34.3664 7.8737 34.4103C7.82978 34.4542 7.80512 34.5137 7.80512 34.5758V35.6685C7.80512 35.7306 7.78045 35.7902 7.73654 35.8341C7.69263 35.878 7.63307 35.9027 7.57097 35.9027H6.47829C6.41619 35.9027 6.35663 35.878 6.31272 35.8341C6.26881 35.7902 6.24414 35.7306 6.24414 35.6685V34.3417V33.0149C6.24414 32.9528 6.26881 32.8932 6.31272 32.8493C6.35663 32.8054 6.41619 32.7807 6.47829 32.7807H7.57097C7.63307 32.7807 7.69263 32.7561 7.73654 32.7121C7.78045 32.6682 7.80512 32.6087 7.80512 32.5466V31.4539C7.80512 31.3918 7.78045 31.3322 7.73654 31.2883C7.69263 31.2444 7.63307 31.2198 7.57097 31.2198H6.47829C6.41619 31.2198 6.35663 31.1951 6.31272 31.1512C6.26881 31.1073 6.24414 31.0477 6.24414 30.9856V29.8929C6.24414 29.8308 6.26881 29.7713 6.31272 29.7274C6.35663 29.6834 6.41619 29.6588 6.47829 29.6588ZM6.47829 37.4637H7.57097C7.63307 37.4637 7.69263 37.4883 7.73654 37.5322C7.78045 37.5761 7.80512 37.6357 7.80512 37.6978V39.0246V40.5856V42.1466V43.7076V45.0344C7.80512 45.0965 7.78045 45.156 7.73654 45.2C7.69263 45.2439 7.63307 45.2685 7.57097 45.2685H6.47829C6.41619 45.2685 6.35663 45.2439 6.31272 45.2C6.26881 45.156 6.24414 45.0965 6.24414 45.0344V43.7076V42.1466V40.5856V39.0246V37.6978C6.24414 37.6357 6.26881 37.5761 6.31272 37.5322C6.35663 37.4883 6.41619 37.4637 6.47829 37.4637ZM8.03926 35.9027H9.36609H10.6929C10.7237 35.9027 10.7541 35.9087 10.7825 35.9205C10.8109 35.9323 10.8367 35.9495 10.8585 35.9713C10.8802 35.993 10.8975 36.0188 10.9092 36.0472C10.921 36.0756 10.9271 36.1061 10.9271 36.1368V37.2295C10.9271 37.2916 10.9024 37.3512 10.8585 37.3951C10.8146 37.439 10.755 37.4637 10.6929 37.4637H9.36609H8.03926C7.97716 37.4637 7.91761 37.439 7.8737 37.3951C7.82978 37.3512 7.80512 37.2916 7.80512 37.2295V36.1368C7.80512 36.0747 7.82978 36.0152 7.8737 35.9713C7.91761 35.9273 7.97716 35.9027 8.03926 35.9027ZM9.60024 18.7319H10.9271H12.488H13.8149C13.877 18.7319 13.9365 18.7566 13.9804 18.8005C14.0244 18.8444 14.049 18.904 14.049 18.9661V20.0588C14.049 20.1209 14.0244 20.1804 13.9804 20.2243C13.9365 20.2683 13.877 20.2929 13.8149 20.2929H12.488H10.9271H9.60024C9.56949 20.2929 9.53904 20.2869 9.51063 20.2751C9.48223 20.2633 9.45641 20.2461 9.43467 20.2243C9.41293 20.2026 9.39568 20.1768 9.38391 20.1484C9.37215 20.12 9.36609 20.0895 9.36609 20.0588V18.9661C9.36609 18.9353 9.37215 18.9049 9.38391 18.8765C9.39568 18.8481 9.41293 18.8223 9.43467 18.8005C9.45641 18.7788 9.48223 18.7615 9.51063 18.7498C9.53904 18.738 9.56949 18.7319 9.60024 18.7319ZM9.60024 42.1466H10.6929C10.7237 42.1466 10.7541 42.1526 10.7825 42.1644C10.8109 42.1762 10.8367 42.1934 10.8585 42.2152C10.8802 42.2369 10.8975 42.2627 10.9092 42.2911C10.921 42.3195 10.9271 42.35 10.9271 42.3807V43.7076V45.0344C10.9271 45.0651 10.921 45.0956 10.9092 45.124C10.8975 45.1524 10.8802 45.1782 10.8585 45.2C10.8367 45.2217 10.8109 45.2389 10.7825 45.2507C10.7541 45.2625 10.7237 45.2685 10.6929 45.2685H9.60024C9.56949 45.2685 9.53904 45.2625 9.51063 45.2507C9.48223 45.2389 9.45641 45.2217 9.43467 45.2C9.41293 45.1782 9.39568 45.1524 9.38391 45.124C9.37215 45.0956 9.36609 45.0651 9.36609 45.0344V43.7076V42.3807C9.36609 42.35 9.37215 42.3195 9.38391 42.2911C9.39568 42.2627 9.41293 42.2369 9.43467 42.2152C9.45641 42.1934 9.48223 42.1762 9.51063 42.1644C9.53904 42.1526 9.56949 42.1466 9.60024 42.1466ZM11.1612 24.9758H12.2539C12.316 24.9758 12.3756 25.0005 12.4195 25.0444C12.4634 25.0883 12.488 25.1479 12.488 25.21V26.5368V27.8637C12.488 27.9258 12.4634 27.9853 12.4195 28.0292C12.3756 28.0731 12.316 28.0978 12.2539 28.0978H11.1612C11.0991 28.0978 11.0396 28.0731 10.9956 28.0292C10.9517 27.9853 10.9271 27.9258 10.9271 27.8637V26.5368V25.21C10.9271 25.1479 10.9517 25.0883 10.9956 25.0444C11.0396 25.0005 11.0991 24.9758 11.1612 24.9758ZM12.7222 35.9027H14.049H15.3758C15.4379 35.9027 15.4975 35.9273 15.5414 35.9713C15.5853 36.0152 15.61 36.0747 15.61 36.1368V37.2295C15.61 37.2916 15.6347 37.3512 15.6786 37.3951C15.7225 37.439 15.782 37.4637 15.8441 37.4637H16.9368C16.9676 37.4637 16.998 37.4697 17.0264 37.4815C17.0548 37.4932 17.0806 37.5105 17.1024 37.5322C17.1241 37.554 17.1414 37.5798 17.1531 37.6082C17.1649 37.6366 17.171 37.6671 17.171 37.6978V38.7905C17.171 38.8212 17.1649 38.8517 17.1531 38.8801C17.1414 38.9085 17.1241 38.9343 17.1024 38.9561C17.0806 38.9778 17.0548 38.995 17.0264 39.0068C16.998 39.0186 16.9676 39.0246 16.9368 39.0246H15.8441C15.782 39.0246 15.7225 39.0493 15.6786 39.0932C15.6347 39.1371 15.61 39.1967 15.61 39.2588V40.3515C15.61 40.4136 15.6347 40.4731 15.6786 40.517C15.7225 40.5609 15.782 40.5856 15.8441 40.5856H16.9368C16.9676 40.5856 16.998 40.5917 17.0264 40.6034C17.0548 40.6152 17.0806 40.6324 17.1024 40.6542C17.1241 40.6759 17.1414 40.7017 17.1531 40.7301C17.1649 40.7586 17.171 40.789 17.171 40.8198V41.9124C17.171 41.9745 17.1463 42.0341 17.1024 42.078C17.0585 42.1219 16.9989 42.1466 16.9368 42.1466H15.8441C15.782 42.1466 15.7225 42.1712 15.6786 42.2152C15.6347 42.2591 15.61 42.3186 15.61 42.3807V43.4734C15.61 43.5355 15.5853 43.5951 15.5414 43.639C15.4975 43.6829 15.4379 43.7076 15.3758 43.7076H14.049H12.7222C12.6601 43.7076 12.6005 43.6829 12.5566 43.639C12.5127 43.5951 12.488 43.5355 12.488 43.4734V42.3807C12.488 42.3186 12.5127 42.2591 12.5566 42.2152C12.6005 42.1712 12.6601 42.1466 12.7222 42.1466H13.8149C13.877 42.1466 13.9365 42.1219 13.9804 42.078C14.0244 42.0341 14.049 41.9745 14.049 41.9124V40.5856V39.0246V37.6978C14.049 37.6357 14.0244 37.5761 13.9804 37.5322C13.9365 37.4883 13.877 37.4637 13.8149 37.4637H12.7222C12.6601 37.4637 12.6005 37.439 12.5566 37.3951C12.5127 37.3512 12.488 37.2916 12.488 37.2295V36.1368C12.488 36.0747 12.5127 36.0152 12.5566 35.9713C12.6005 35.9273 12.6601 35.9027 12.7222 35.9027ZM14.2832 20.2929H15.3758C15.4379 20.2929 15.4975 20.3176 15.5414 20.3615C15.5853 20.4054 15.61 20.465 15.61 20.5271V21.6198C15.61 21.6505 15.6161 21.6809 15.6278 21.7094C15.6396 21.7378 15.6568 21.7636 15.6786 21.7853C15.7003 21.8071 15.7261 21.8243 15.7545 21.8361C15.7829 21.8478 15.8134 21.8539 15.8441 21.8539H16.9368C16.9676 21.8539 16.998 21.86 17.0264 21.8717C17.0548 21.8835 17.0806 21.9007 17.1024 21.9225C17.1241 21.9442 17.1414 21.97 17.1531 21.9984C17.1649 22.0268 17.171 22.0573 17.171 22.088V23.1807C17.171 23.2115 17.1649 23.2419 17.1531 23.2703C17.1414 23.2987 17.1241 23.3246 17.1024 23.3463C17.0806 23.368 17.0548 23.3853 17.0264 23.397C16.998 23.4088 16.9676 23.4149 16.9368 23.4149H15.8441C15.782 23.4149 15.7225 23.4395 15.6786 23.4835C15.6347 23.5274 15.61 23.5869 15.61 23.649V24.7417C15.61 24.8038 15.6347 24.8634 15.6786 24.9073C15.7225 24.9512 15.782 24.9758 15.8441 24.9758H16.9368C16.9676 24.9758 16.998 24.9819 17.0264 24.9937C17.0548 25.0054 17.0806 25.0227 17.1024 25.0444C17.1241 25.0662 17.1414 25.092 17.1531 25.1204C17.1649 25.1488 17.171 25.1792 17.171 25.21V26.3027C17.171 26.3334 17.1649 26.3639 17.1531 26.3923C17.1414 26.4207 17.1241 26.4465 17.1024 26.4682C17.0806 26.49 17.0548 26.5072 17.0264 26.519C16.998 26.5308 16.9676 26.5368 16.9368 26.5368H15.8441C15.782 26.5368 15.7225 26.5615 15.6786 26.6054C15.6347 26.6493 15.61 26.7089 15.61 26.771V27.8637C15.61 27.9258 15.5853 27.9853 15.5414 28.0292C15.4975 28.0731 15.4379 28.0978 15.3758 28.0978H14.2832C14.2211 28.0978 14.1615 28.0731 14.1176 28.0292C14.0737 27.9853 14.049 27.9258 14.049 27.8637V26.5368V24.9758V23.4149V21.8539V20.5271C14.049 20.4963 14.0551 20.4659 14.0668 20.4375C14.0786 20.4091 14.0959 20.3832 14.1176 20.3615C14.1393 20.3398 14.1652 20.3225 14.1936 20.3107C14.222 20.299 14.2524 20.2929 14.2832 20.2929ZM15.8441 18.7319H16.9368C16.9676 18.7319 16.998 18.738 17.0264 18.7498C17.0548 18.7615 17.0806 18.7788 17.1024 18.8005C17.1241 18.8223 17.1414 18.8481 17.1531 18.8765C17.1649 18.9049 17.171 18.9353 17.171 18.9661V20.0588C17.171 20.0895 17.1649 20.12 17.1531 20.1484C17.1414 20.1768 17.1241 20.2026 17.1024 20.2243C17.0806 20.2461 17.0548 20.2633 17.0264 20.2751C16.998 20.2869 16.9676 20.2929 16.9368 20.2929H15.8441C15.782 20.2929 15.7225 20.2683 15.6786 20.2243C15.6347 20.1804 15.61 20.1209 15.61 20.0588V18.9661C15.61 18.904 15.6347 18.8444 15.6786 18.8005C15.7225 18.7566 15.782 18.7319 15.8441 18.7319ZM15.8441 28.0978H17.171H18.7319H20.0588C20.1209 28.0978 20.1804 28.1225 20.2243 28.1664C20.2683 28.2103 20.2929 28.2698 20.2929 28.3319V29.4246C20.2929 29.4867 20.3176 29.5463 20.3615 29.5902C20.4054 29.6341 20.465 29.6588 20.5271 29.6588H21.8539H23.1807C23.2428 29.6588 23.3024 29.6834 23.3463 29.7274C23.3902 29.7713 23.4149 29.8308 23.4149 29.8929V30.9856C23.4149 31.0477 23.3902 31.1073 23.3463 31.1512C23.3024 31.1951 23.2428 31.2198 23.1807 31.2198H21.8539H20.2929H18.7319H17.4051C17.343 31.2198 17.2835 31.1951 17.2395 31.1512C17.1956 31.1073 17.171 31.0477 17.171 30.9856V29.8929C17.171 29.8622 17.1649 29.8317 17.1531 29.8033C17.1414 29.7749 17.1241 29.7491 17.1024 29.7274C17.0806 29.7056 17.0548 29.6884 17.0264 29.6766C16.998 29.6648 16.9676 29.6588 16.9368 29.6588H15.8441C15.782 29.6588 15.7225 29.6341 15.6786 29.5902C15.6347 29.5463 15.61 29.4867 15.61 29.4246V28.3319C15.61 28.2698 15.6347 28.2103 15.6786 28.1664C15.7225 28.1225 15.782 28.0978 15.8441 28.0978ZM15.8441 34.3417H16.9368C16.9989 34.3417 17.0585 34.3664 17.1024 34.4103C17.1463 34.4542 17.171 34.5137 17.171 34.5758V35.6685C17.171 35.6993 17.1649 35.7297 17.1531 35.7581C17.1414 35.7865 17.1241 35.8124 17.1024 35.8341C17.0806 35.8558 17.0548 35.8731 17.0264 35.8849C16.998 35.8966 16.9676 35.9027 16.9368 35.9027H15.8441C15.782 35.9027 15.7225 35.878 15.6786 35.8341C15.6347 35.7902 15.61 35.7306 15.61 35.6685V34.5758C15.61 34.5137 15.6347 34.4542 15.6786 34.4103C15.7225 34.3664 15.782 34.3417 15.8441 34.3417ZM15.8441 43.7076H16.9368C16.9989 43.7076 17.0585 43.7322 17.1024 43.7761C17.1463 43.82 17.171 43.8796 17.171 43.9417V45.0344C17.171 45.0651 17.1649 45.0956 17.1531 45.124C17.1414 45.1524 17.1241 45.1782 17.1024 45.2C17.0806 45.2217 17.0548 45.2389 17.0264 45.2507C16.998 45.2625 16.9676 45.2685 16.9368 45.2685H15.8441C15.782 45.2685 15.7225 45.2439 15.6786 45.2C15.6347 45.156 15.61 45.0965 15.61 45.0344V43.9417C15.61 43.8796 15.6347 43.82 15.6786 43.7761C15.7225 43.7322 15.782 43.7076 15.8441 43.7076ZM17.4051 23.4149H18.7319H20.0588C20.1209 23.4149 20.1804 23.4395 20.2243 23.4835C20.2683 23.5274 20.2929 23.5869 20.2929 23.649V24.7417C20.2929 24.8038 20.2683 24.8634 20.2243 24.9073C20.1804 24.9512 20.1209 24.9758 20.0588 24.9758H18.7319H17.4051C17.343 24.9758 17.2835 24.9512 17.2395 24.9073C17.1956 24.8634 17.171 24.8038 17.171 24.7417V23.649C17.171 23.5869 17.1956 23.5274 17.2395 23.4835C17.2835 23.4395 17.343 23.4149 17.4051 23.4149ZM18.9661 6.24414H20.2929H21.8539H23.1807C23.2428 6.24414 23.3024 6.26881 23.3463 6.31272C23.3902 6.35663 23.4149 6.41619 23.4149 6.47829V7.57097C23.4149 7.63307 23.3902 7.69263 23.3463 7.73654C23.3024 7.78045 23.2428 7.80512 23.1807 7.80512H22.088C22.0259 7.80512 21.9664 7.82978 21.9225 7.8737C21.8786 7.91761 21.8539 7.97716 21.8539 8.03926V9.13195C21.8539 9.16269 21.8478 9.19314 21.8361 9.22155C21.8243 9.24996 21.8071 9.27577 21.7853 9.29751C21.7636 9.31925 21.7378 9.3365 21.7094 9.34827C21.6809 9.36004 21.6505 9.36609 21.6198 9.36609H20.5271C20.4963 9.36609 20.4659 9.37215 20.4375 9.38391C20.4091 9.39568 20.3832 9.41293 20.3615 9.43467C20.3398 9.45641 20.3225 9.48223 20.3107 9.51063C20.299 9.53904 20.2929 9.56949 20.2929 9.60024V10.6929C20.2929 10.7237 20.2869 10.7541 20.2751 10.7825C20.2633 10.8109 20.2461 10.8367 20.2243 10.8585C20.2026 10.8802 20.1768 10.8975 20.1484 10.9092C20.12 10.921 20.0895 10.9271 20.0588 10.9271H18.9661C18.9353 10.9271 18.9049 10.921 18.8765 10.9092C18.8481 10.8975 18.8223 10.8802 18.8005 10.8585C18.7788 10.8367 18.7615 10.8109 18.7498 10.7825C18.738 10.7541 18.7319 10.7237 18.7319 10.6929V9.36609V7.80512V6.47829C18.7319 6.41619 18.7566 6.35663 18.8005 6.31272C18.8444 6.26881 18.904 6.24414 18.9661 6.24414ZM18.9661 14.049H20.0588C20.0895 14.049 20.12 14.0551 20.1484 14.0668C20.1768 14.0786 20.2026 14.0959 20.2243 14.1176C20.2461 14.1393 20.2633 14.1652 20.2751 14.1936C20.2869 14.222 20.2929 14.2524 20.2929 14.2832V15.61V16.9368C20.2929 16.9676 20.299 16.998 20.3107 17.0264C20.3225 17.0548 20.3398 17.0806 20.3615 17.1024C20.3832 17.1241 20.4091 17.1414 20.4375 17.1531C20.4659 17.1649 20.4963 17.171 20.5271 17.171H21.6198C21.6505 17.171 21.6809 17.1649 21.7094 17.1531C21.7378 17.1414 21.7636 17.1241 21.7853 17.1024C21.8071 17.0806 21.8243 17.0548 21.8361 17.0264C21.8478 16.998 21.8539 16.9676 21.8539 16.9368V15.8441C21.8539 15.782 21.8786 15.7225 21.9225 15.6786C21.9664 15.6347 22.0259 15.61 22.088 15.61H23.1807C23.2428 15.61 23.3024 15.6347 23.3463 15.6786C23.3902 15.7225 23.4149 15.782 23.4149 15.8441V16.9368C23.4149 16.9676 23.4209 16.998 23.4327 17.0264C23.4445 17.0548 23.4617 17.0806 23.4835 17.1024C23.5052 17.1241 23.531 17.1414 23.5594 17.1531C23.5878 17.1649 23.6183 17.171 23.649 17.171H24.7417C24.8038 17.171 24.8634 17.1956 24.9073 17.2395C24.9512 17.2835 24.9758 17.343 24.9758 17.4051V18.4978C24.9758 18.5599 24.9512 18.6195 24.9073 18.6634C24.8634 18.7073 24.8038 18.7319 24.7417 18.7319H23.649C23.5869 18.7319 23.5274 18.7566 23.4835 18.8005C23.4395 18.8444 23.4149 18.904 23.4149 18.9661V20.0588C23.4149 20.1209 23.3902 20.1804 23.3463 20.2243C23.3024 20.2683 23.2428 20.2929 23.1807 20.2929H22.088C22.0259 20.2929 21.9664 20.2683 21.9225 20.2243C21.8786 20.1804 21.8539 20.1209 21.8539 20.0588V18.9661C21.8539 18.9353 21.8478 18.9049 21.8361 18.8765C21.8243 18.8481 21.8071 18.8223 21.7853 18.8005C21.7636 18.7788 21.7378 18.7615 21.7094 18.7498C21.6809 18.738 21.6505 18.7319 21.6198 18.7319H20.5271C20.465 18.7319 20.4054 18.7566 20.3615 18.8005C20.3176 18.8444 20.2929 18.904 20.2929 18.9661V20.0588C20.2929 20.1209 20.2683 20.1804 20.2243 20.2243C20.1804 20.2683 20.1209 20.2929 20.0588 20.2929H18.9661C18.904 20.2929 18.8444 20.2683 18.8005 20.2243C18.7566 20.1804 18.7319 20.1209 18.7319 20.0588V18.7319V17.171V15.61V14.2832C18.7319 14.2524 18.738 14.222 18.7498 14.1936C18.7615 14.1652 18.7788 14.1393 18.8005 14.1176C18.8223 14.0959 18.8481 14.0786 18.8765 14.0668C18.9049 14.0551 18.9353 14.049 18.9661 14.049ZM18.9661 32.7807H20.0588C20.1209 32.7807 20.1804 32.8054 20.2243 32.8493C20.2683 32.8932 20.2929 32.9528 20.2929 33.0149V34.1076C20.2929 34.1697 20.2683 34.2292 20.2243 34.2731C20.1804 34.317 20.1209 34.3417 20.0588 34.3417H18.9661C18.904 34.3417 18.8444 34.317 18.8005 34.2731C18.7566 34.2292 18.7319 34.1697 18.7319 34.1076V33.0149C18.7319 32.9528 18.7566 32.8932 18.8005 32.8493C18.8444 32.8054 18.904 32.7807 18.9661 32.7807ZM18.9661 35.9027H20.0588C20.1209 35.9027 20.1804 35.9273 20.2243 35.9713C20.2683 36.0152 20.2929 36.0747 20.2929 36.1368V37.4637V38.7905C20.2929 38.8526 20.2683 38.9121 20.2243 38.9561C20.1804 39 20.1209 39.0246 20.0588 39.0246H18.9661C18.904 39.0246 18.8444 39 18.8005 38.9561C18.7566 38.9121 18.7319 38.8526 18.7319 38.7905V37.4637V36.1368C18.7319 36.0747 18.7566 36.0152 18.8005 35.9713C18.8444 35.9273 18.904 35.9027 18.9661 35.9027ZM18.9661 40.5856H20.2929H21.6198C21.6505 40.5856 21.6809 40.5917 21.7094 40.6034C21.7378 40.6152 21.7636 40.6324 21.7853 40.6542C21.8071 40.6759 21.8243 40.7017 21.8361 40.7301C21.8478 40.7586 21.8539 40.789 21.8539 40.8198V41.9124C21.8539 41.9745 21.8292 42.0341 21.7853 42.078C21.7414 42.1219 21.6819 42.1466 21.6198 42.1466H20.5271C20.465 42.1466 20.4054 42.1712 20.3615 42.2152C20.3176 42.2591 20.2929 42.3186 20.2929 42.3807V43.4734C20.2929 43.5355 20.2683 43.5951 20.2243 43.639C20.1804 43.6829 20.1209 43.7076 20.0588 43.7076H18.9661C18.904 43.7076 18.8444 43.6829 18.8005 43.639C18.7566 43.5951 18.7319 43.5355 18.7319 43.4734V42.1466V40.8198C18.7319 40.7577 18.7566 40.6981 18.8005 40.6542C18.8444 40.6103 18.904 40.5856 18.9661 40.5856ZM18.9661 45.2685H20.0588C20.1209 45.2685 20.1804 45.2932 20.2243 45.3371C20.2683 45.381 20.2929 45.4406 20.2929 45.5027V46.5954C20.2929 46.6575 20.2683 46.717 20.2243 46.7609C20.1804 46.8048 20.1209 46.8295 20.0588 46.8295H18.9661C18.904 46.8295 18.8444 46.8048 18.8005 46.7609C18.7566 46.717 18.7319 46.6575 18.7319 46.5954V45.5027C18.7319 45.4406 18.7566 45.381 18.8005 45.3371C18.8444 45.2932 18.904 45.2685 18.9661 45.2685ZM18.9661 49.9515H20.0588C20.1209 49.9515 20.1804 49.9761 20.2243 50.02C20.2683 50.0639 20.2929 50.1235 20.2929 50.1856V51.5124V53.0734V54.4002C20.2929 54.4623 20.2683 54.5219 20.2243 54.5658C20.1804 54.6097 20.1209 54.6344 20.0588 54.6344H18.9661C18.904 54.6344 18.8444 54.6097 18.8005 54.5658C18.7566 54.5219 18.7319 54.4623 18.7319 54.4002V53.0734V51.5124V50.1856C18.7319 50.1235 18.7566 50.0639 18.8005 50.02C18.8444 49.9761 18.904 49.9515 18.9661 49.9515ZM20.5271 10.9271H21.6198C21.6505 10.9271 21.6809 10.921 21.7094 10.9092C21.7378 10.8975 21.7636 10.8802 21.7853 10.8585C21.8071 10.8367 21.8243 10.8109 21.8361 10.7825C21.8478 10.7541 21.8539 10.7237 21.8539 10.6929V9.60024C21.8539 9.56949 21.86 9.53904 21.8717 9.51063C21.8835 9.48223 21.9007 9.45641 21.9225 9.43467C21.9442 9.41293 21.97 9.39568 21.9984 9.38391C22.0268 9.37215 22.0573 9.36609 22.088 9.36609H23.1807C23.2115 9.36609 23.2419 9.37215 23.2703 9.38391C23.2987 9.39568 23.3246 9.41293 23.3463 9.43467C23.368 9.45641 23.3853 9.48223 23.397 9.51063C23.4088 9.53904 23.4149 9.56949 23.4149 9.60024V10.9271V12.2539C23.4149 12.316 23.4395 12.3756 23.4835 12.4195C23.5274 12.4634 23.5869 12.488 23.649 12.488H24.7417C24.8038 12.488 24.8634 12.5127 24.9073 12.5566C24.9512 12.6005 24.9758 12.6601 24.9758 12.7222V13.8149C24.9758 13.877 25.0005 13.9365 25.0444 13.9804C25.0883 14.0244 25.1479 14.049 25.21 14.049H26.5368H27.8637C27.9258 14.049 27.9853 14.0737 28.0292 14.1176C28.0731 14.1615 28.0978 14.2211 28.0978 14.2832V15.3758C28.0978 15.4379 28.0731 15.4975 28.0292 15.5414C27.9853 15.5853 27.9258 15.61 27.8637 15.61H26.771C26.7089 15.61 26.6493 15.6347 26.6054 15.6786C26.5615 15.7225 26.5368 15.782 26.5368 15.8441V16.9368C26.5368 16.9676 26.5308 16.998 26.519 17.0264C26.5072 17.0548 26.49 17.0806 26.4682 17.1024C26.4465 17.1241 26.4207 17.1414 26.3923 17.1531C26.3639 17.1649 26.3334 17.171 26.3027 17.171H25.21C25.1792 17.171 25.1488 17.1649 25.1204 17.1531C25.092 17.1414 25.0662 17.1241 25.0444 17.1024C25.0227 17.0806 25.0054 17.0548 24.9937 17.0264C24.9819 16.998 24.9758 16.9676 24.9758 16.9368V15.8441C24.9758 15.782 24.9512 15.7225 24.9073 15.6786C24.8634 15.6347 24.8038 15.61 24.7417 15.61H23.649C23.5869 15.61 23.5274 15.5853 23.4835 15.5414C23.4395 15.4975 23.4149 15.4379 23.4149 15.3758V14.2832C23.4149 14.2524 23.4088 14.222 23.397 14.1936C23.3853 14.1652 23.368 14.1393 23.3463 14.1176C23.3246 14.0959 23.2987 14.0786 23.2703 14.0668C23.2419 14.0551 23.2115 14.049 23.1807 14.049H21.8539H20.5271C20.465 14.049 20.4054 14.0244 20.3615 13.9804C20.3176 13.9365 20.2929 13.877 20.2929 13.8149V12.488V11.1612C20.2929 11.0991 20.3176 11.0396 20.3615 10.9956C20.4054 10.9517 20.465 10.9271 20.5271 10.9271ZM20.5271 20.2929H21.6198C21.6505 20.2929 21.6809 20.299 21.7094 20.3107C21.7378 20.3225 21.7636 20.3398 21.7853 20.3615C21.8071 20.3832 21.8243 20.4091 21.8361 20.4375C21.8478 20.4659 21.8539 20.4963 21.8539 20.5271V21.8539V23.1807C21.8539 23.2115 21.8478 23.2419 21.8361 23.2703C21.8243 23.2987 21.8071 23.3246 21.7853 23.3463C21.7636 23.368 21.7378 23.3853 21.7094 23.397C21.6809 23.4088 21.6505 23.4149 21.6198 23.4149H20.5271C20.465 23.4149 20.4054 23.3902 20.3615 23.3463C20.3176 23.3024 20.2929 23.2428 20.2929 23.1807V21.8539V20.5271C20.2929 20.465 20.3176 20.4054 20.3615 20.3615C20.4054 20.3176 20.465 20.2929 20.5271 20.2929ZM20.5271 24.9758H21.6198C21.6505 24.9758 21.6809 24.9819 21.7094 24.9937C21.7378 25.0054 21.7636 25.0227 21.7853 25.0444C21.8071 25.0662 21.8243 25.092 21.8361 25.1204C21.8478 25.1488 21.8539 25.1792 21.8539 25.21V26.5368V27.8637C21.8539 27.8944 21.8478 27.9248 21.8361 27.9533C21.8243 27.9817 21.8071 28.0075 21.7853 28.0292C21.7636 28.051 21.7378 28.0682 21.7094 28.08C21.6809 28.0917 21.6505 28.0978 21.6198 28.0978H20.5271C20.465 28.0978 20.4054 28.0731 20.3615 28.0292C20.3176 27.9853 20.2929 27.9258 20.2929 27.8637V26.5368V25.21C20.2929 25.1479 20.3176 25.0883 20.3615 25.0444C20.4054 25.0005 20.465 24.9758 20.5271 24.9758ZM20.5271 46.8295H21.6198C21.6505 46.8295 21.6809 46.8356 21.7094 46.8473C21.7378 46.8591 21.7636 46.8763 21.7853 46.8981C21.8071 46.9198 21.8243 46.9456 21.8361 46.9741C21.8478 47.0025 21.8539 47.0329 21.8539 47.0637V48.3905V49.7173C21.8539 49.7481 21.8478 49.7785 21.8361 49.8069C21.8243 49.8353 21.8071 49.8611 21.7853 49.8829C21.7636 49.9046 21.7378 49.9219 21.7094 49.9336C21.6809 49.9454 21.6505 49.9515 21.6198 49.9515H20.5271C20.465 49.9515 20.4054 49.9268 20.3615 49.8829C20.3176 49.839 20.2929 49.7794 20.2929 49.7173V48.3905V47.0637C20.2929 47.0016 20.3176 46.942 20.3615 46.8981C20.4054 46.8542 20.465 46.8295 20.5271 46.8295ZM20.5271 54.6344H21.6198C21.6505 54.6344 21.6809 54.6404 21.7094 54.6522C21.7378 54.664 21.7636 54.6812 21.7853 54.703C21.8071 54.7247 21.8243 54.7505 21.8361 54.7789C21.8478 54.8073 21.8539 54.8378 21.8539 54.8685V55.9612C21.8539 56.0233 21.8292 56.0829 21.7853 56.1268C21.7414 56.1707 21.6819 56.1954 21.6198 56.1954H20.5271C20.465 56.1954 20.4054 56.1707 20.3615 56.1268C20.3176 56.0829 20.2929 56.0233 20.2929 55.9612V54.8685C20.2929 54.8064 20.3176 54.7469 20.3615 54.703C20.4054 54.6591 20.465 54.6344 20.5271 54.6344ZM22.088 23.4149H23.1807C23.2428 23.4149 23.3024 23.4395 23.3463 23.4835C23.3902 23.5274 23.4149 23.5869 23.4149 23.649V24.7417C23.4149 24.8038 23.3902 24.8634 23.3463 24.9073C23.3024 24.9512 23.2428 24.9758 23.1807 24.9758H22.088C22.0259 24.9758 21.9664 24.9512 21.9225 24.9073C21.8786 24.8634 21.8539 24.8038 21.8539 24.7417V23.649C21.8539 23.5869 21.8786 23.5274 21.9225 23.4835C21.9664 23.4395 22.0259 23.4149 22.088 23.4149ZM22.088 35.9027H23.1807C23.2428 35.9027 23.3024 35.878 23.3463 35.8341C23.3902 35.7902 23.4149 35.7306 23.4149 35.6685V34.5758C23.4149 34.5137 23.4395 34.4542 23.4835 34.4103C23.5274 34.3664 23.5869 34.3417 23.649 34.3417H24.7417C24.8038 34.3417 24.8634 34.317 24.9073 34.2731C24.9512 34.2292 24.9758 34.1697 24.9758 34.1076V33.0149C24.9758 32.9528 24.9512 32.8932 24.9073 32.8493C24.8634 32.8054 24.8038 32.7807 24.7417 32.7807H23.649C23.5869 32.7807 23.5274 32.7561 23.4835 32.7121C23.4395 32.6682 23.4149 32.6087 23.4149 32.5466V31.4539C23.4149 31.3918 23.4395 31.3322 23.4835 31.2883C23.5274 31.2444 23.5869 31.2198 23.649 31.2198H24.9758H26.3027C26.3648 31.2198 26.4243 31.2444 26.4682 31.2883C26.5122 31.3322 26.5368 31.3918 26.5368 31.4539V32.5466C26.5368 32.6087 26.5615 32.6682 26.6054 32.7121C26.6493 32.7561 26.7089 32.7807 26.771 32.7807H28.0978H29.4246C29.4867 32.7807 29.5463 32.8054 29.5902 32.8493C29.6341 32.8932 29.6588 32.9528 29.6588 33.0149V34.1076C29.6588 34.1697 29.6341 34.2292 29.5902 34.2731C29.5463 34.317 29.4867 34.3417 29.4246 34.3417H28.3319C28.2698 34.3417 28.2103 34.3664 28.1664 34.4103C28.1225 34.4542 28.0978 34.5137 28.0978 34.5758V35.6685C28.0978 35.7306 28.1225 35.7902 28.1664 35.8341C28.2103 35.878 28.2698 35.9027 28.3319 35.9027H29.4246C29.4867 35.9027 29.5463 35.878 29.5902 35.8341C29.6341 35.7902 29.6588 35.7306 29.6588 35.6685V34.5758C29.6588 34.5137 29.6834 34.4542 29.7274 34.4103C29.7713 34.3664 29.8308 34.3417 29.8929 34.3417H30.9856C31.0477 34.3417 31.1073 34.317 31.1512 34.2731C31.1951 34.2292 31.2198 34.1697 31.2198 34.1076V33.0149C31.2198 32.9528 31.2444 32.8932 31.2883 32.8493C31.3322 32.8054 31.3918 32.7807 31.4539 32.7807H32.7807H34.1076C34.1697 32.7807 34.2292 32.8054 34.2731 32.8493C34.317 32.8932 34.3417 32.9528 34.3417 33.0149V34.1076C34.3417 34.1697 34.3664 34.2292 34.4103 34.2731C34.4542 34.317 34.5137 34.3417 34.5758 34.3417H35.6685C35.7306 34.3417 35.7902 34.3664 35.8341 34.4103C35.878 34.4542 35.9027 34.5137 35.9027 34.5758V35.6685C35.9027 35.7306 35.9273 35.7902 35.9713 35.8341C36.0152 35.878 36.0747 35.9027 36.1368 35.9027H37.2295C37.2916 35.9027 37.3512 35.878 37.3951 35.8341C37.439 35.7902 37.4637 35.7306 37.4637 35.6685V34.5758C37.4637 34.5137 37.439 34.4542 37.3951 34.4103C37.3512 34.3664 37.2916 34.3417 37.2295 34.3417H36.1368C36.0747 34.3417 36.0152 34.317 35.9713 34.2731C35.9273 34.2292 35.9027 34.1697 35.9027 34.1076V33.0149C35.9027 32.9528 35.9273 32.8932 35.9713 32.8493C36.0152 32.8054 36.0747 32.7807 36.1368 32.7807H37.4637H38.7905C38.8526 32.7807 38.9121 32.8054 38.9561 32.8493C39 32.8932 39.0246 32.9528 39.0246 33.0149V34.1076C39.0246 34.1697 39.0493 34.2292 39.0932 34.2731C39.1371 34.317 39.1967 34.3417 39.2588 34.3417H40.3515C40.4136 34.3417 40.4731 34.3664 40.517 34.4103C40.5609 34.4542 40.5856 34.5137 40.5856 34.5758V35.6685C40.5856 35.7306 40.6103 35.7902 40.6542 35.8341C40.6981 35.878 40.7577 35.9027 40.8198 35.9027H42.1466H43.7076H45.2685H46.5954C46.6575 35.9027 46.717 35.9273 46.7609 35.9713C46.8048 36.0152 46.8295 36.0747 46.8295 36.1368V37.4637V38.7905C46.8295 38.8526 46.8542 38.9121 46.8981 38.9561C46.942 39 47.0016 39.0246 47.0637 39.0246H48.1563C48.2184 39.0246 48.278 39.0493 48.3219 39.0932C48.3658 39.1371 48.3905 39.1967 48.3905 39.2588V40.3515C48.3905 40.4136 48.3658 40.4731 48.3219 40.517C48.278 40.5609 48.2184 40.5856 48.1563 40.5856H46.8295H45.5027C45.4406 40.5856 45.381 40.6103 45.3371 40.6542C45.2932 40.6981 45.2685 40.7577 45.2685 40.8198V42.1466V43.4734C45.2685 43.5355 45.2932 43.5951 45.3371 43.639C45.381 43.6829 45.4406 43.7076 45.5027 43.7076H46.8295H48.1563C48.2184 43.7076 48.278 43.6829 48.3219 43.639C48.3658 43.5951 48.3905 43.5355 48.3905 43.4734V42.1466V40.8198C48.3905 40.7577 48.4152 40.6981 48.4591 40.6542C48.503 40.6103 48.5625 40.5856 48.6246 40.5856H49.9515H51.2783C51.3404 40.5856 51.3999 40.5609 51.4439 40.517C51.4878 40.4731 51.5124 40.4136 51.5124 40.3515V39.2588C51.5124 39.1967 51.4878 39.1371 51.4439 39.0932C51.3999 39.0493 51.3404 39.0246 51.2783 39.0246H49.9515H48.6246C48.5625 39.0246 48.503 39 48.4591 38.9561C48.4152 38.9121 48.3905 38.8526 48.3905 38.7905V37.6978C48.3905 37.6357 48.4152 37.5761 48.4591 37.5322C48.503 37.4883 48.5625 37.4637 48.6246 37.4637H49.9515H51.2783C51.3404 37.4637 51.3999 37.439 51.4439 37.3951C51.4878 37.3512 51.5124 37.2916 51.5124 37.2295V36.1368C51.5124 36.0747 51.5371 36.0152 51.581 35.9713C51.6249 35.9273 51.6845 35.9027 51.7466 35.9027H52.8393C52.9014 35.9027 52.9609 35.878 53.0048 35.8341C53.0487 35.7902 53.0734 35.7306 53.0734 35.6685V34.5758C53.0734 34.5137 53.0981 34.4542 53.142 34.4103C53.1859 34.3664 53.2455 34.3417 53.3076 34.3417H54.4002C54.4623 34.3417 54.5219 34.3664 54.5658 34.4103C54.6097 34.4542 54.6344 34.5137 54.6344 34.5758V35.6685C54.6344 35.7306 54.6591 35.7902 54.703 35.8341C54.7469 35.878 54.8064 35.9027 54.8685 35.9027H56.1954H57.5222C57.5843 35.9027 57.6438 35.9273 57.6878 35.9713C57.7317 36.0152 57.7563 36.0747 57.7563 36.1368V37.4637V39.0246V40.3515C57.7563 40.4136 57.7317 40.4731 57.6878 40.517C57.6438 40.5609 57.5843 40.5856 57.5222 40.5856H56.4295C56.3674 40.5856 56.3079 40.5609 56.2639 40.517C56.22 40.4731 56.1954 40.4136 56.1954 40.3515V39.2588C56.1954 39.1967 56.1707 39.1371 56.1268 39.0932C56.0829 39.0493 56.0233 39.0246 55.9612 39.0246H54.8685C54.8064 39.0246 54.7469 39 54.703 38.9561C54.6591 38.9121 54.6344 38.8526 54.6344 38.7905V37.6978C54.6344 37.6357 54.6097 37.5761 54.5658 37.5322C54.5219 37.4883 54.4623 37.4637 54.4002 37.4637H53.3076C53.2455 37.4637 53.1859 37.4883 53.142 37.5322C53.0981 37.5761 53.0734 37.6357 53.0734 37.6978V38.7905C53.0734 38.8526 53.0981 38.9121 53.142 38.9561C53.1859 39 53.2455 39.0246 53.3076 39.0246H54.4002C54.4623 39.0246 54.5219 39.0493 54.5658 39.0932C54.6097 39.1371 54.6344 39.1967 54.6344 39.2588V40.3515C54.6344 40.4136 54.6591 40.4731 54.703 40.517C54.7469 40.5609 54.8064 40.5856 54.8685 40.5856H55.9612C56.0233 40.5856 56.0829 40.6103 56.1268 40.6542C56.1707 40.6981 56.1954 40.7577 56.1954 40.8198V41.9124C56.1954 41.9745 56.1707 42.0341 56.1268 42.078C56.0829 42.1219 56.0233 42.1466 55.9612 42.1466H54.8685C54.8064 42.1466 54.7469 42.1712 54.703 42.2152C54.6591 42.2591 54.6344 42.3186 54.6344 42.3807V43.4734C54.6344 43.5355 54.6097 43.5951 54.5658 43.639C54.5219 43.6829 54.4623 43.7076 54.4002 43.7076H53.3076C53.2455 43.7076 53.1859 43.7322 53.142 43.7761C53.0981 43.82 53.0734 43.8796 53.0734 43.9417V45.2685V46.8295V48.1563C53.0734 48.2184 53.0981 48.278 53.142 48.3219C53.1859 48.3658 53.2455 48.3905 53.3076 48.3905H54.4002C54.4623 48.3905 54.5219 48.3658 54.5658 48.3219C54.6097 48.278 54.6344 48.2184 54.6344 48.1563V47.0637C54.6344 47.0016 54.6591 46.942 54.703 46.8981C54.7469 46.8542 54.8064 46.8295 54.8685 46.8295H55.9612C56.0233 46.8295 56.0829 46.8542 56.1268 46.8981C56.1707 46.942 56.1954 47.0016 56.1954 47.0637V48.1563C56.1954 48.2184 56.22 48.278 56.2639 48.3219C56.3079 48.3658 56.3674 48.3905 56.4295 48.3905H57.5222C57.5843 48.3905 57.6438 48.4152 57.6878 48.4591C57.7317 48.503 57.7563 48.5625 57.7563 48.6246V49.9515V51.2783C57.7563 51.3404 57.7317 51.3999 57.6878 51.4439C57.6438 51.4878 57.5843 51.5124 57.5222 51.5124H56.4295C56.3674 51.5124 56.3079 51.5371 56.2639 51.581C56.22 51.6249 56.1954 51.6845 56.1954 51.7466V52.8393C56.1954 52.9014 56.1707 52.9609 56.1268 53.0048C56.0829 53.0487 56.0233 53.0734 55.9612 53.0734H54.6344H53.3076C53.2455 53.0734 53.1859 53.0487 53.142 53.0048C53.0981 52.9609 53.0734 52.9014 53.0734 52.8393V51.7466C53.0734 51.6845 53.0981 51.6249 53.142 51.581C53.1859 51.5371 53.2455 51.5124 53.3076 51.5124H54.4002C54.4623 51.5124 54.5219 51.4878 54.5658 51.4439C54.6097 51.3999 54.6344 51.3404 54.6344 51.2783V50.1856C54.6344 50.1235 54.6097 50.0639 54.5658 50.02C54.5219 49.9761 54.4623 49.9515 54.4002 49.9515H53.0734H51.7466C51.6845 49.9515 51.6249 49.9761 51.581 50.02C51.5371 50.0639 51.5124 50.1235 51.5124 50.1856V51.5124V52.8393C51.5124 52.9014 51.4878 52.9609 51.4439 53.0048C51.3999 53.0487 51.3404 53.0734 51.2783 53.0734H50.1856C50.1235 53.0734 50.0639 53.0487 50.02 53.0048C49.9761 52.9609 49.9515 52.9014 49.9515 52.8393V51.7466C49.9515 51.6845 49.9268 51.6249 49.8829 51.581C49.839 51.5371 49.7794 51.5124 49.7173 51.5124H48.3905H47.0637C47.0016 51.5124 46.942 51.5371 46.8981 51.581C46.8542 51.6249 46.8295 51.6845 46.8295 51.7466V52.8393C46.8295 52.9014 46.8542 52.9609 46.8981 53.0048C46.942 53.0487 47.0016 53.0734 47.0637 53.0734H48.1563C48.2184 53.0734 48.278 53.0981 48.3219 53.142C48.3658 53.1859 48.3905 53.2455 48.3905 53.3076V54.4002C48.3905 54.4623 48.3658 54.5219 48.3219 54.5658C48.278 54.6097 48.2184 54.6344 48.1563 54.6344H47.0637C47.0016 54.6344 46.942 54.6591 46.8981 54.703C46.8542 54.7469 46.8295 54.8064 46.8295 54.8685V55.9612C46.8295 56.0233 46.8048 56.0829 46.7609 56.1268C46.717 56.1707 46.6575 56.1954 46.5954 56.1954H45.5027C45.4406 56.1954 45.381 56.1707 45.3371 56.1268C45.2932 56.0829 45.2685 56.0233 45.2685 55.9612V54.8685C45.2685 54.8064 45.2439 54.7469 45.2 54.703C45.156 54.6591 45.0965 54.6344 45.0344 54.6344H43.9417C43.8796 54.6344 43.82 54.6097 43.7761 54.5658C43.7322 54.5219 43.7076 54.4623 43.7076 54.4002V53.3076C43.7076 53.2455 43.7322 53.1859 43.7761 53.142C43.82 53.0981 43.8796 53.0734 43.9417 53.0734H45.0344C45.0965 53.0734 45.156 53.0487 45.2 53.0048C45.2439 52.9609 45.2685 52.9014 45.2685 52.8393V51.7466C45.2685 51.6845 45.2439 51.6249 45.2 51.581C45.156 51.5371 45.0965 51.5124 45.0344 51.5124H43.9417C43.8796 51.5124 43.82 51.4878 43.7761 51.4439C43.7322 51.3999 43.7076 51.3404 43.7076 51.2783V50.1856C43.7076 50.1235 43.6829 50.0639 43.639 50.02C43.5951 49.9761 43.5355 49.9515 43.4734 49.9515H42.3807C42.3186 49.9515 42.2591 49.9268 42.2152 49.8829C42.1712 49.839 42.1466 49.7794 42.1466 49.7173V48.6246C42.1466 48.5625 42.1219 48.503 42.078 48.4591C42.0341 48.4152 41.9745 48.3905 41.9124 48.3905H40.8198C40.7577 48.3905 40.6981 48.3658 40.6542 48.3219C40.6103 48.278 40.5856 48.2184 40.5856 48.1563V47.0637C40.5856 47.0016 40.6103 46.942 40.6542 46.8981C40.6981 46.8542 40.7577 46.8295 40.8198 46.8295H42.1466H43.4734C43.5355 46.8295 43.5951 46.8048 43.639 46.7609C43.6829 46.717 43.7076 46.6575 43.7076 46.5954V45.2685V43.9417C43.7076 43.8796 43.6829 43.82 43.639 43.7761C43.5951 43.7322 43.5355 43.7076 43.4734 43.7076H42.3807C42.3186 43.7076 42.2591 43.7322 42.2152 43.7761C42.1712 43.82 42.1466 43.8796 42.1466 43.9417V45.0344C42.1466 45.0965 42.1219 45.156 42.078 45.2C42.0341 45.2439 41.9745 45.2685 41.9124 45.2685H40.8198C40.7577 45.2685 40.6981 45.2439 40.6542 45.2C40.6103 45.156 40.5856 45.0965 40.5856 45.0344V43.9417C40.5856 43.8796 40.5609 43.82 40.517 43.7761C40.4731 43.7322 40.4136 43.7076 40.3515 43.7076H39.2588C39.1967 43.7076 39.1371 43.7322 39.0932 43.7761C39.0493 43.82 39.0246 43.8796 39.0246 43.9417V45.0344C39.0246 45.0965 39 45.156 38.9561 45.2C38.9121 45.2439 38.8526 45.2685 38.7905 45.2685H37.6978C37.6357 45.2685 37.5761 45.2932 37.5322 45.3371C37.4883 45.381 37.4637 45.4406 37.4637 45.5027V46.5954C37.4637 46.6575 37.439 46.717 37.3951 46.7609C37.3512 46.8048 37.2916 46.8295 37.2295 46.8295H36.1368C36.0747 46.8295 36.0152 46.8048 35.9713 46.7609C35.9273 46.717 35.9027 46.6575 35.9027 46.5954V45.5027C35.9027 45.4406 35.878 45.381 35.8341 45.3371C35.7902 45.2932 35.7306 45.2685 35.6685 45.2685H34.3417H33.0149C32.9528 45.2685 32.8932 45.2439 32.8493 45.2C32.8054 45.156 32.7807 45.0965 32.7807 45.0344V43.9417C32.7807 43.8796 32.8054 43.82 32.8493 43.7761C32.8932 43.7322 32.9528 43.7076 33.0149 43.7076H34.1076C34.1697 43.7076 34.2292 43.6829 34.2731 43.639C34.317 43.5951 34.3417 43.5355 34.3417 43.4734V42.3807C34.3417 42.3186 34.3664 42.2591 34.4103 42.2152C34.4542 42.1712 34.5137 42.1466 34.5758 42.1466H35.6685C35.7306 42.1466 35.7902 42.1219 35.8341 42.078C35.878 42.0341 35.9027 41.9745 35.9027 41.9124V40.8198C35.9027 40.7577 35.9273 40.6981 35.9713 40.6542C36.0152 40.6103 36.0747 40.5856 36.1368 40.5856H37.2295C37.2916 40.5856 37.3512 40.6103 37.3951 40.6542C37.439 40.6981 37.4637 40.7577 37.4637 40.8198V41.9124C37.4637 41.9745 37.4883 42.0341 37.5322 42.078C37.5761 42.1219 37.6357 42.1466 37.6978 42.1466H39.0246H40.3515C40.4136 42.1466 40.4731 42.1219 40.517 42.078C40.5609 42.0341 40.5856 41.9745 40.5856 41.9124V40.8198C40.5856 40.7577 40.6103 40.6981 40.6542 40.6542C40.6981 40.6103 40.7577 40.5856 40.8198 40.5856H41.9124C41.9745 40.5856 42.0341 40.6103 42.078 40.6542C42.1219 40.6981 42.1466 40.7577 42.1466 40.8198V41.9124C42.1466 41.9745 42.1712 42.0341 42.2152 42.078C42.2591 42.1219 42.3186 42.1466 42.3807 42.1466H43.4734C43.5355 42.1466 43.5951 42.1219 43.639 42.078C43.6829 42.0341 43.7076 41.9745 43.7076 41.9124V40.5856V39.0246V37.6978C43.7076 37.6357 43.6829 37.5761 43.639 37.5322C43.5951 37.4883 43.5355 37.4637 43.4734 37.4637H42.3807C42.3186 37.4637 42.2591 37.4883 42.2152 37.5322C42.1712 37.5761 42.1466 37.6357 42.1466 37.6978V38.7905C42.1466 38.8526 42.1219 38.9121 42.078 38.9561C42.0341 39 41.9745 39.0246 41.9124 39.0246H40.8198C40.7577 39.0246 40.6981 39 40.6542 38.9561C40.6103 38.9121 40.5856 38.8526 40.5856 38.7905V37.6978C40.5856 37.6357 40.5609 37.5761 40.517 37.5322C40.4731 37.4883 40.4136 37.4637 40.3515 37.4637H39.2588C39.1967 37.4637 39.1371 37.4883 39.0932 37.5322C39.0493 37.5761 39.0246 37.6357 39.0246 37.6978V38.7905C39.0246 38.8526 39 38.9121 38.9561 38.9561C38.9121 39 38.8526 39.0246 38.7905 39.0246H37.4637H36.1368C36.0747 39.0246 36.0152 39 35.9713 38.9561C35.9273 38.9121 35.9027 38.8526 35.9027 38.7905V37.6978C35.9027 37.6357 35.878 37.5761 35.8341 37.5322C35.7902 37.4883 35.7306 37.4637 35.6685 37.4637H34.5758C34.5137 37.4637 34.4542 37.439 34.4103 37.3951C34.3664 37.3512 34.3417 37.2916 34.3417 37.2295V36.1368C34.3417 36.0747 34.317 36.0152 34.2731 35.9713C34.2292 35.9273 34.1697 35.9027 34.1076 35.9027H32.7807H31.4539C31.3918 35.9027 31.3322 35.9273 31.2883 35.9713C31.2444 36.0152 31.2198 36.0747 31.2198 36.1368V37.4637V39.0246V40.3515C31.2198 40.4136 31.2444 40.4731 31.2883 40.517C31.3322 40.5609 31.3918 40.5856 31.4539 40.5856H32.7807H34.1076C34.1697 40.5856 34.2292 40.6103 34.2731 40.6542C34.317 40.6981 34.3417 40.7577 34.3417 40.8198V41.9124C34.3417 41.9745 34.317 42.0341 34.2731 42.078C34.2292 42.1219 34.1697 42.1466 34.1076 42.1466H33.0149C32.9528 42.1466 32.8932 42.1712 32.8493 42.2152C32.8054 42.2591 32.7807 42.3186 32.7807 42.3807V43.4734C32.7807 43.5355 32.7561 43.5951 32.7121 43.639C32.6682 43.6829 32.6087 43.7076 32.5466 43.7076H31.4539C31.3918 43.7076 31.3322 43.7322 31.2883 43.7761C31.2444 43.82 31.2198 43.8796 31.2198 43.9417V45.0344C31.2198 45.0965 31.1951 45.156 31.1512 45.2C31.1073 45.2439 31.0477 45.2685 30.9856 45.2685H29.8929C29.8308 45.2685 29.7713 45.2932 29.7274 45.3371C29.6834 45.381 29.6588 45.4406 29.6588 45.5027V46.5954C29.6588 46.6575 29.6341 46.717 29.5902 46.7609C29.5463 46.8048 29.4867 46.8295 29.4246 46.8295H28.0978H26.771C26.7089 46.8295 26.6493 46.8048 26.6054 46.7609C26.5615 46.717 26.5368 46.6575 26.5368 46.5954V45.5027C26.5368 45.4406 26.5615 45.381 26.6054 45.3371C26.6493 45.2932 26.7089 45.2685 26.771 45.2685H27.8637C27.9258 45.2685 27.9853 45.2439 28.0292 45.2C28.0731 45.156 28.0978 45.0965 28.0978 45.0344V43.7076V42.3807C28.0978 42.3186 28.0731 42.2591 28.0292 42.2152C27.9853 42.1712 27.9258 42.1466 27.8637 42.1466H26.771C26.7089 42.1466 26.6493 42.1219 26.6054 42.078C26.5615 42.0341 26.5368 41.9745 26.5368 41.9124V40.5856V39.2588C26.5368 39.1967 26.5615 39.1371 26.6054 39.0932C26.6493 39.0493 26.7089 39.0246 26.771 39.0246H27.8637C27.9258 39.0246 27.9853 39.0493 28.0292 39.0932C28.0731 39.1371 28.0978 39.1967 28.0978 39.2588V40.3515C28.0978 40.4136 28.1225 40.4731 28.1664 40.517C28.2103 40.5609 28.2698 40.5856 28.3319 40.5856H29.4246C29.4867 40.5856 29.5463 40.5609 29.5902 40.517C29.6341 40.4731 29.6588 40.4136 29.6588 40.3515V39.2588C29.6588 39.1967 29.6341 39.1371 29.5902 39.0932C29.5463 39.0493 29.4867 39.0246 29.4246 39.0246H28.3319C28.2698 39.0246 28.2103 39 28.1664 38.9561C28.1225 38.9121 28.0978 38.8526 28.0978 38.7905V37.6978C28.0978 37.6357 28.0731 37.5761 28.0292 37.5322C27.9853 37.4883 27.9258 37.4637 27.8637 37.4637H26.771C26.7089 37.4637 26.6493 37.4883 26.6054 37.5322C26.5615 37.5761 26.5368 37.6357 26.5368 37.6978V38.7905C26.5368 38.8526 26.5122 38.9121 26.4682 38.9561C26.4243 39 26.3648 39.0246 26.3027 39.0246H25.21C25.1479 39.0246 25.0883 39 25.0444 38.9561C25.0005 38.9121 24.9758 38.8526 24.9758 38.7905V37.6978C24.9758 37.6357 24.9512 37.5761 24.9073 37.5322C24.8634 37.4883 24.8038 37.4637 24.7417 37.4637H23.649C23.5869 37.4637 23.5274 37.4883 23.4835 37.5322C23.4395 37.5761 23.4149 37.6357 23.4149 37.6978V38.7905C23.4149 38.8526 23.4395 38.9121 23.4835 38.9561C23.5274 39 23.5869 39.0246 23.649 39.0246H24.7417C24.8038 39.0246 24.8634 39.0493 24.9073 39.0932C24.9512 39.1371 24.9758 39.1967 24.9758 39.2588V40.5856V41.9124C24.9758 41.9745 24.9512 42.0341 24.9073 42.078C24.8634 42.1219 24.8038 42.1466 24.7417 42.1466H23.649C23.5869 42.1466 23.5274 42.1219 23.4835 42.078C23.4395 42.0341 23.4149 41.9745 23.4149 41.9124V40.8198C23.4149 40.7577 23.3902 40.6981 23.3463 40.6542C23.3024 40.6103 23.2428 40.5856 23.1807 40.5856H22.088C22.0259 40.5856 21.9664 40.5609 21.9225 40.517C21.8786 40.4731 21.8539 40.4136 21.8539 40.3515V39.0246V37.4637V36.1368C21.8539 36.0747 21.8786 36.0152 21.9225 35.9713C21.9664 35.9273 22.0259 35.9027 22.088 35.9027ZM22.088 45.2685H23.4149H24.7417C24.8038 45.2685 24.8634 45.2932 24.9073 45.3371C24.9512 45.381 24.9758 45.4406 24.9758 45.5027V46.8295V48.3905V49.7173C24.9758 49.7794 25.0005 49.839 25.0444 49.8829C25.0883 49.9268 25.1479 49.9515 25.21 49.9515H26.5368H27.8637C27.9258 49.9515 27.9853 49.9761 28.0292 50.02C28.0731 50.0639 28.0978 50.1235 28.0978 50.1856V51.5124V52.8393C28.0978 52.9014 28.0731 52.9609 28.0292 53.0048C27.9853 53.0487 27.9258 53.0734 27.8637 53.0734H26.771C26.7089 53.0734 26.6493 53.0981 26.6054 53.142C26.5615 53.1859 26.5368 53.2455 26.5368 53.3076V54.4002C26.5368 54.4623 26.5615 54.5219 26.6054 54.5658C26.6493 54.6097 26.7089 54.6344 26.771 54.6344H27.8637C27.9258 54.6344 27.9853 54.6097 28.0292 54.5658C28.0731 54.5219 28.0978 54.4623 28.0978 54.4002V53.3076C28.0978 53.2455 28.1225 53.1859 28.1664 53.142C28.2103 53.0981 28.2698 53.0734 28.3319 53.0734H29.4246C29.4867 53.0734 29.5463 53.0487 29.5902 53.0048C29.6341 52.9609 29.6588 52.9014 29.6588 52.8393V51.7466C29.6588 51.6845 29.6834 51.6249 29.7274 51.581C29.7713 51.5371 29.8308 51.5124 29.8929 51.5124H30.9856C31.0477 51.5124 31.1073 51.5371 31.1512 51.581C31.1951 51.6249 31.2198 51.6845 31.2198 51.7466V53.0734V54.4002C31.2198 54.4623 31.1951 54.5219 31.1512 54.5658C31.1073 54.6097 31.0477 54.6344 30.9856 54.6344H29.8929C29.8308 54.6344 29.7713 54.6591 29.7274 54.703C29.6834 54.7469 29.6588 54.8064 29.6588 54.8685V55.9612C29.6588 56.0233 29.6834 56.0829 29.7274 56.1268C29.7713 56.1707 29.8308 56.1954 29.8929 56.1954H30.9856C31.0477 56.1954 31.1073 56.22 31.1512 56.2639C31.1951 56.3079 31.2198 56.3674 31.2198 56.4295V57.5222C31.2198 57.5843 31.1951 57.6438 31.1512 57.6878C31.1073 57.7317 31.0477 57.7563 30.9856 57.7563H29.6588H28.3319C28.2698 57.7563 28.2103 57.7317 28.1664 57.6878C28.1225 57.6438 28.0978 57.5843 28.0978 57.5222V56.4295C28.0978 56.3674 28.0731 56.3079 28.0292 56.2639C27.9853 56.22 27.9258 56.1954 27.8637 56.1954H26.771C26.7089 56.1954 26.6493 56.22 26.6054 56.2639C26.5615 56.3079 26.5368 56.3674 26.5368 56.4295V57.5222C26.5368 57.5843 26.5122 57.6438 26.4682 57.6878C26.4243 57.7317 26.3648 57.7563 26.3027 57.7563H25.21C25.1479 57.7563 25.0883 57.7317 25.0444 57.6878C25.0005 57.6438 24.9758 57.5843 24.9758 57.5222V56.4295C24.9758 56.3674 24.9512 56.3079 24.9073 56.2639C24.8634 56.22 24.8038 56.1954 24.7417 56.1954H23.649C23.5869 56.1954 23.5274 56.1707 23.4835 56.1268C23.4395 56.0829 23.4149 56.0233 23.4149 55.9612V54.8685C23.4149 54.8064 23.4395 54.7469 23.4835 54.703C23.5274 54.6591 23.5869 54.6344 23.649 54.6344H24.7417C24.8038 54.6344 24.8634 54.6097 24.9073 54.5658C24.9512 54.5219 24.9758 54.4623 24.9758 54.4002V53.0734V51.7466C24.9758 51.6845 24.9512 51.6249 24.9073 51.581C24.8634 51.5371 24.8038 51.5124 24.7417 51.5124H23.649C23.5869 51.5124 23.5274 51.4878 23.4835 51.4439C23.4395 51.3999 23.4149 51.3404 23.4149 51.2783V49.9515V48.3905V47.0637C23.4149 47.0016 23.3902 46.942 23.3463 46.8981C23.3024 46.8542 23.2428 46.8295 23.1807 46.8295H22.088C22.0259 46.8295 21.9664 46.8048 21.9225 46.7609C21.8786 46.717 21.8539 46.6575 21.8539 46.5954V45.5027C21.8539 45.4406 21.8786 45.381 21.9225 45.3371C21.9664 45.2932 22.0259 45.2685 22.088 45.2685ZM22.088 51.5124H23.1807C23.2428 51.5124 23.3024 51.5371 23.3463 51.581C23.3902 51.6249 23.4149 51.6845 23.4149 51.7466V53.0734V54.4002C23.4149 54.4623 23.3902 54.5219 23.3463 54.5658C23.3024 54.6097 23.2428 54.6344 23.1807 54.6344H22.088C22.0259 54.6344 21.9664 54.6097 21.9225 54.5658C21.8786 54.5219 21.8539 54.4623 21.8539 54.4002V53.0734V51.7466C21.8539 51.6845 21.8786 51.6249 21.9225 51.581C21.9664 51.5371 22.0259 51.5124 22.088 51.5124ZM22.088 56.1954H23.1807C23.2428 56.1954 23.3024 56.22 23.3463 56.2639C23.3902 56.3079 23.4149 56.3674 23.4149 56.4295V57.5222C23.4149 57.5843 23.3902 57.6438 23.3463 57.6878C23.3024 57.7317 23.2428 57.7563 23.1807 57.7563H22.088C22.0259 57.7563 21.9664 57.7317 21.9225 57.6878C21.8786 57.6438 21.8539 57.5843 21.8539 57.5222V56.4295C21.8539 56.3674 21.8786 56.3079 21.9225 56.2639C21.9664 56.22 22.0259 56.1954 22.088 56.1954ZM23.649 7.80512H24.9758H26.3027C26.3648 7.80512 26.4243 7.82978 26.4682 7.8737C26.5122 7.91761 26.5368 7.97716 26.5368 8.03926V9.13195C26.5368 9.19404 26.5122 9.2536 26.4682 9.29751C26.4243 9.34142 26.3648 9.36609 26.3027 9.36609H24.9758H23.649C23.5869 9.36609 23.5274 9.34142 23.4835 9.29751C23.4395 9.2536 23.4149 9.19404 23.4149 9.13195V8.03926C23.4149 7.97716 23.4395 7.91761 23.4835 7.8737C23.5274 7.82978 23.5869 7.80512 23.649 7.80512ZM23.649 21.8539H24.9758H26.5368H27.8637C27.9258 21.8539 27.9853 21.8786 28.0292 21.9225C28.0731 21.9664 28.0978 22.0259 28.0978 22.088V23.4149V24.7417C28.0978 24.8038 28.0731 24.8634 28.0292 24.9073C27.9853 24.9512 27.9258 24.9758 27.8637 24.9758H26.771C26.7089 24.9758 26.6493 25.0005 26.6054 25.0444C26.5615 25.0883 26.5368 25.1479 26.5368 25.21V26.3027C26.5368 26.3648 26.5122 26.4243 26.4682 26.4682C26.4243 26.5122 26.3648 26.5368 26.3027 26.5368H24.9758H23.649C23.5869 26.5368 23.5274 26.5122 23.4835 26.4682C23.4395 26.4243 23.4149 26.3648 23.4149 26.3027V25.21C23.4149 25.1479 23.4395 25.0883 23.4835 25.0444C23.5274 25.0005 23.5869 24.9758 23.649 24.9758H24.7417C24.8038 24.9758 24.8634 24.9512 24.9073 24.9073C24.9512 24.8634 24.9758 24.8038 24.9758 24.7417V23.649C24.9758 23.5869 24.9512 23.5274 24.9073 23.4835C24.8634 23.4395 24.8038 23.4149 24.7417 23.4149H23.649C23.5869 23.4149 23.5274 23.3902 23.4835 23.3463C23.4395 23.3024 23.4149 23.2428 23.4149 23.1807V22.088C23.4149 22.0259 23.4395 21.9664 23.4835 21.9225C23.5274 21.8786 23.5869 21.8539 23.649 21.8539ZM23.649 28.0978H24.7417C24.8038 28.0978 24.8634 28.1225 24.9073 28.1664C24.9512 28.2103 24.9758 28.2698 24.9758 28.3319V29.4246C24.9758 29.4867 24.9512 29.5463 24.9073 29.5902C24.8634 29.6341 24.8038 29.6588 24.7417 29.6588H23.649C23.5869 29.6588 23.5274 29.6341 23.4835 29.5902C23.4395 29.5463 23.4149 29.4867 23.4149 29.4246V28.3319C23.4149 28.2698 23.4395 28.2103 23.4835 28.1664C23.5274 28.1225 23.5869 28.0978 23.649 28.0978ZM25.21 10.9271H26.3027C26.3648 10.9271 26.4243 10.9517 26.4682 10.9956C26.5122 11.0396 26.5368 11.0991 26.5368 11.1612V12.2539C26.5368 12.316 26.5122 12.3756 26.4682 12.4195C26.4243 12.4634 26.3648 12.488 26.3027 12.488H25.21C25.1479 12.488 25.0883 12.4634 25.0444 12.4195C25.0005 12.3756 24.9758 12.316 24.9758 12.2539V11.1612C24.9758 11.0991 25.0005 11.0396 25.0444 10.9956C25.0883 10.9517 25.1479 10.9271 25.21 10.9271ZM25.21 18.7319H26.3027C26.3648 18.7319 26.4243 18.7566 26.4682 18.8005C26.5122 18.8444 26.5368 18.904 26.5368 18.9661V20.0588C26.5368 20.1209 26.5122 20.1804 26.4682 20.2243C26.4243 20.2683 26.3648 20.2929 26.3027 20.2929H25.21C25.1479 20.2929 25.0883 20.2683 25.0444 20.2243C25.0005 20.1804 24.9758 20.1209 24.9758 20.0588V18.9661C24.9758 18.904 25.0005 18.8444 25.0444 18.8005C25.0883 18.7566 25.1479 18.7319 25.21 18.7319ZM25.21 42.1466H26.3027C26.3648 42.1466 26.4243 42.1712 26.4682 42.2152C26.5122 42.2591 26.5368 42.3186 26.5368 42.3807V43.4734C26.5368 43.5355 26.5122 43.5951 26.4682 43.639C26.4243 43.6829 26.3648 43.7076 26.3027 43.7076H25.21C25.1479 43.7076 25.0883 43.6829 25.0444 43.639C25.0005 43.5951 24.9758 43.5355 24.9758 43.4734V42.3807C24.9758 42.3186 25.0005 42.2591 25.0444 42.2152C25.0883 42.1712 25.1479 42.1466 25.21 42.1466ZM26.771 26.5368H27.8637C27.9258 26.5368 27.9853 26.5615 28.0292 26.6054C28.0731 26.6493 28.0978 26.7089 28.0978 26.771V27.8637C28.0978 27.9258 28.1225 27.9853 28.1664 28.0292C28.2103 28.0731 28.2698 28.0978 28.3319 28.0978H29.4246C29.4867 28.0978 29.5463 28.0731 29.5902 28.0292C29.6341 27.9853 29.6588 27.9258 29.6588 27.8637V26.771C29.6588 26.7089 29.6834 26.6493 29.7274 26.6054C29.7713 26.5615 29.8308 26.5368 29.8929 26.5368H30.9856C31.0477 26.5368 31.1073 26.5122 31.1512 26.4682C31.1951 26.4243 31.2198 26.3648 31.2198 26.3027V25.21C31.2198 25.1479 31.2444 25.0883 31.2883 25.0444C31.3322 25.0005 31.3918 24.9758 31.4539 24.9758H32.5466C32.6087 24.9758 32.6682 25.0005 32.7121 25.0444C32.7561 25.0883 32.7807 25.1479 32.7807 25.21V26.5368V27.8637C32.7807 27.9258 32.7561 27.9853 32.7121 28.0292C32.6682 28.0731 32.6087 28.0978 32.5466 28.0978H31.4539C31.3918 28.0978 31.3322 28.1225 31.2883 28.1664C31.2444 28.2103 31.2198 28.2698 31.2198 28.3319V29.4246C31.2198 29.4867 31.1951 29.5463 31.1512 29.5902C31.1073 29.6341 31.0477 29.6588 30.9856 29.6588H29.8929C29.8308 29.6588 29.7713 29.6834 29.7274 29.7274C29.6834 29.7713 29.6588 29.8308 29.6588 29.8929V30.9856C29.6588 31.0477 29.6341 31.1073 29.5902 31.1512C29.5463 31.1951 29.4867 31.2198 29.4246 31.2198H28.0978H26.771C26.7089 31.2198 26.6493 31.1951 26.6054 31.1512C26.5615 31.1073 26.5368 31.0477 26.5368 30.9856V29.6588V28.0978V26.771C26.5368 26.7089 26.5615 26.6493 26.6054 26.6054C26.6493 26.5615 26.7089 26.5368 26.771 26.5368ZM28.3319 7.80512H29.4246C29.4867 7.80512 29.5463 7.82978 29.5902 7.8737C29.6341 7.91761 29.6588 7.97716 29.6588 8.03926V9.13195C29.6588 9.19404 29.6834 9.2536 29.7274 9.29751C29.7713 9.34142 29.8308 9.36609 29.8929 9.36609H31.2198H32.7807H34.1076C34.1697 9.36609 34.2292 9.34142 34.2731 9.29751C34.317 9.2536 34.3417 9.19404 34.3417 9.13195V8.03926C34.3417 7.97716 34.317 7.91761 34.2731 7.8737C34.2292 7.82978 34.1697 7.80512 34.1076 7.80512H33.0149C32.9528 7.80512 32.8932 7.78045 32.8493 7.73654C32.8054 7.69263 32.7807 7.63307 32.7807 7.57097V6.47829C32.7807 6.41619 32.8054 6.35663 32.8493 6.31272C32.8932 6.26881 32.9528 6.24414 33.0149 6.24414H34.3417H35.6685C35.7306 6.24414 35.7902 6.26881 35.8341 6.31272C35.878 6.35663 35.9027 6.41619 35.9027 6.47829V7.80512V9.36609V10.9271V12.2539C35.9027 12.316 35.9273 12.3756 35.9713 12.4195C36.0152 12.4634 36.0747 12.488 36.1368 12.488H37.4637H39.0246H40.3515C40.4136 12.488 40.4731 12.5127 40.517 12.5566C40.5609 12.6005 40.5856 12.6601 40.5856 12.7222V13.8149C40.5856 13.877 40.5609 13.9365 40.517 13.9804C40.4731 14.0244 40.4136 14.049 40.3515 14.049H39.2588C39.1967 14.049 39.1371 14.0737 39.0932 14.1176C39.0493 14.1615 39.0246 14.2211 39.0246 14.2832V15.61V16.9368C39.0246 16.9676 39.0186 16.998 39.0068 17.0264C38.995 17.0548 38.9778 17.0806 38.9561 17.1024C38.9343 17.1241 38.9085 17.1414 38.8801 17.1531C38.8517 17.1649 38.8212 17.171 38.7905 17.171H37.6978C37.6671 17.171 37.6366 17.1649 37.6082 17.1531C37.5798 17.1414 37.554 17.1241 37.5322 17.1024C37.5105 17.0806 37.4932 17.0548 37.4815 17.0264C37.4697 16.998 37.4637 16.9676 37.4637 16.9368V15.61V14.2832C37.4637 14.2211 37.439 14.1615 37.3951 14.1176C37.3512 14.0737 37.2916 14.049 37.2295 14.049H35.9027H34.5758C34.5137 14.049 34.4542 14.0244 34.4103 13.9804C34.3664 13.9365 34.3417 13.877 34.3417 13.8149V12.7222C34.3417 12.6601 34.317 12.6005 34.2731 12.5566C34.2292 12.5127 34.1697 12.488 34.1076 12.488H33.0149C32.9528 12.488 32.8932 12.4634 32.8493 12.4195C32.8054 12.3756 32.7807 12.316 32.7807 12.2539V11.1612C32.7807 11.0991 32.7561 11.0396 32.7121 10.9956C32.6682 10.9517 32.6087 10.9271 32.5466 10.9271H31.2198H29.8929C29.8308 10.9271 29.7713 10.9517 29.7274 10.9956C29.6834 11.0396 29.6588 11.0991 29.6588 11.1612V12.2539C29.6588 12.316 29.6834 12.3756 29.7274 12.4195C29.7713 12.4634 29.8308 12.488 29.8929 12.488H31.2198H32.5466C32.6087 12.488 32.6682 12.5127 32.7121 12.5566C32.7561 12.6005 32.7807 12.6601 32.7807 12.7222V13.8149C32.7807 13.877 32.7561 13.9365 32.7121 13.9804C32.6682 14.0244 32.6087 14.049 32.5466 14.049H31.4539C31.4231 14.049 31.3927 14.0551 31.3643 14.0668C31.3359 14.0786 31.3101 14.0959 31.2883 14.1176C31.2666 14.1393 31.2493 14.1652 31.2376 14.1936C31.2258 14.222 31.2198 14.2524 31.2198 14.2832V15.3758C31.2198 15.4379 31.1951 15.4975 31.1512 15.5414C31.1073 15.5853 31.0477 15.61 30.9856 15.61H29.8929C29.8308 15.61 29.7713 15.5853 29.7274 15.5414C29.6834 15.4975 29.6588 15.4379 29.6588 15.3758V14.2832C29.6588 14.2524 29.6527 14.222 29.641 14.1936C29.6292 14.1652 29.6119 14.1393 29.5902 14.1176C29.5685 14.0959 29.5426 14.0786 29.5142 14.0668C29.4858 14.0551 29.4554 14.049 29.4246 14.049H28.3319C28.2698 14.049 28.2103 14.0244 28.1664 13.9804C28.1225 13.9365 28.0978 13.877 28.0978 13.8149V12.488V10.9271V9.36609V8.03926C28.0978 7.97716 28.1225 7.91761 28.1664 7.8737C28.2103 7.82978 28.2698 7.80512 28.3319 7.80512ZM28.3319 15.61H29.4246C29.4867 15.61 29.5463 15.6347 29.5902 15.6786C29.6341 15.7225 29.6588 15.782 29.6588 15.8441V16.9368C29.6588 16.9676 29.6648 16.998 29.6766 17.0264C29.6884 17.0548 29.7056 17.0806 29.7274 17.1024C29.7491 17.1241 29.7749 17.1414 29.8033 17.1531C29.8317 17.1649 29.8622 17.171 29.8929 17.171H30.9856C31.0477 17.171 31.1073 17.1956 31.1512 17.2395C31.1951 17.2835 31.2198 17.343 31.2198 17.4051V18.4978C31.2198 18.5599 31.2444 18.6195 31.2883 18.6634C31.3322 18.7073 31.3918 18.7319 31.4539 18.7319H32.5466C32.6087 18.7319 32.6682 18.7073 32.7121 18.6634C32.7561 18.6195 32.7807 18.5599 32.7807 18.4978V17.4051C32.7807 17.343 32.8054 17.2835 32.8493 17.2395C32.8932 17.1956 32.9528 17.171 33.0149 17.171H34.1076C34.1383 17.171 34.1688 17.1649 34.1972 17.1531C34.2256 17.1414 34.2514 17.1241 34.2731 17.1024C34.2949 17.0806 34.3121 17.0548 34.3239 17.0264C34.3356 16.998 34.3417 16.9676 34.3417 16.9368V15.8441C34.3417 15.782 34.3664 15.7225 34.4103 15.6786C34.4542 15.6347 34.5137 15.61 34.5758 15.61H35.6685C35.7306 15.61 35.7902 15.6347 35.8341 15.6786C35.878 15.7225 35.9027 15.782 35.9027 15.8441V16.9368C35.9027 16.9676 35.9087 16.998 35.9205 17.0264C35.9323 17.0548 35.9495 17.0806 35.9713 17.1024C35.993 17.1241 36.0188 17.1414 36.0472 17.1531C36.0756 17.1649 36.1061 17.171 36.1368 17.171H37.2295C37.2916 17.171 37.3512 17.1956 37.3951 17.2395C37.439 17.2835 37.4637 17.343 37.4637 17.4051V18.4978C37.4637 18.5599 37.439 18.6195 37.3951 18.6634C37.3512 18.7073 37.2916 18.7319 37.2295 18.7319H36.1368C36.0747 18.7319 36.0152 18.7566 35.9713 18.8005C35.9273 18.8444 35.9027 18.904 35.9027 18.9661V20.0588C35.9027 20.1209 35.878 20.1804 35.8341 20.2243C35.7902 20.2683 35.7306 20.2929 35.6685 20.2929H34.5758C34.5137 20.2929 34.4542 20.3176 34.4103 20.3615C34.3664 20.4054 34.3417 20.465 34.3417 20.5271V21.8539V23.1807C34.3417 23.2428 34.317 23.3024 34.2731 23.3463C34.2292 23.3902 34.1697 23.4149 34.1076 23.4149H32.7807H31.2198H29.8929C29.8308 23.4149 29.7713 23.3902 29.7274 23.3463C29.6834 23.3024 29.6588 23.2428 29.6588 23.1807V21.8539V20.5271C29.6588 20.465 29.6341 20.4054 29.5902 20.3615C29.5463 20.3176 29.4867 20.2929 29.4246 20.2929H28.3319C28.2698 20.2929 28.2103 20.2683 28.1664 20.2243C28.1225 20.1804 28.0978 20.1209 28.0978 20.0588V18.7319V17.171V15.8441C28.0978 15.782 28.1225 15.7225 28.1664 15.6786C28.2103 15.6347 28.2698 15.61 28.3319 15.61ZM28.3319 24.9758H29.4246C29.4867 24.9758 29.5463 25.0005 29.5902 25.0444C29.6341 25.0883 29.6588 25.1479 29.6588 25.21V26.3027C29.6588 26.3648 29.6341 26.4243 29.5902 26.4682C29.5463 26.5122 29.4867 26.5368 29.4246 26.5368H28.3319C28.2698 26.5368 28.2103 26.5122 28.1664 26.4682C28.1225 26.4243 28.0978 26.3648 28.0978 26.3027V25.21C28.0978 25.1479 28.1225 25.0883 28.1664 25.0444C28.2103 25.0005 28.2698 24.9758 28.3319 24.9758ZM28.3319 48.3905H29.4246C29.4867 48.3905 29.5463 48.4152 29.5902 48.4591C29.6341 48.503 29.6588 48.5625 29.6588 48.6246V49.7173C29.6588 49.7794 29.6341 49.839 29.5902 49.8829C29.5463 49.9268 29.4867 49.9515 29.4246 49.9515H28.3319C28.2698 49.9515 28.2103 49.9268 28.1664 49.8829C28.1225 49.839 28.0978 49.7794 28.0978 49.7173V48.6246C28.0978 48.5625 28.1225 48.503 28.1664 48.4591C28.2103 48.4152 28.2698 48.3905 28.3319 48.3905ZM29.8929 6.24414H30.9856C31.0477 6.24414 31.1073 6.26881 31.1512 6.31272C31.1951 6.35663 31.2198 6.41619 31.2198 6.47829V7.57097C31.2198 7.63307 31.1951 7.69263 31.1512 7.73654C31.1073 7.78045 31.0477 7.80512 30.9856 7.80512H29.8929C29.8308 7.80512 29.7713 7.78045 29.7274 7.73654C29.6834 7.69263 29.6588 7.63307 29.6588 7.57097V6.47829C29.6588 6.41619 29.6834 6.35663 29.7274 6.31272C29.7713 6.26881 29.8308 6.24414 29.8929 6.24414ZM29.8929 31.2198H30.9856C31.0477 31.2198 31.1073 31.2444 31.1512 31.2883C31.1951 31.3322 31.2198 31.3918 31.2198 31.4539V32.5466C31.2198 32.6087 31.1951 32.6682 31.1512 32.7121C31.1073 32.7561 31.0477 32.7807 30.9856 32.7807H29.8929C29.8308 32.7807 29.7713 32.7561 29.7274 32.7121C29.6834 32.6682 29.6588 32.6087 29.6588 32.5466V31.4539C29.6588 31.3918 29.6834 31.3322 29.7274 31.2883C29.7713 31.2444 29.8308 31.2198 29.8929 31.2198ZM29.8929 46.8295H30.9856C31.0477 46.8295 31.1073 46.8048 31.1512 46.7609C31.1951 46.717 31.2198 46.6575 31.2198 46.5954V45.5027C31.2198 45.4406 31.2444 45.381 31.2883 45.3371C31.3322 45.2932 31.3918 45.2685 31.4539 45.2685H32.5466C32.6087 45.2685 32.6682 45.2932 32.7121 45.3371C32.7561 45.381 32.7807 45.4406 32.7807 45.5027V46.5954C32.7807 46.6575 32.8054 46.717 32.8493 46.7609C32.8932 46.8048 32.9528 46.8295 33.0149 46.8295H34.1076C34.1697 46.8295 34.2292 46.8542 34.2731 46.8981C34.317 46.942 34.3417 47.0016 34.3417 47.0637V48.1563C34.3417 48.2184 34.317 48.278 34.2731 48.3219C34.2292 48.3658 34.1697 48.3905 34.1076 48.3905H32.7807H31.2198H29.8929C29.8308 48.3905 29.7713 48.3658 29.7274 48.3219C29.6834 48.278 29.6588 48.2184 29.6588 48.1563V47.0637C29.6588 47.0016 29.6834 46.942 29.7274 46.8981C29.7713 46.8542 29.8308 46.8295 29.8929 46.8295ZM31.4539 15.61H32.5466C32.6087 15.61 32.6682 15.6347 32.7121 15.6786C32.7561 15.7225 32.7807 15.782 32.7807 15.8441V16.9368C32.7807 16.9989 32.7561 17.0585 32.7121 17.1024C32.6682 17.1463 32.6087 17.171 32.5466 17.171H31.4539C31.4231 17.171 31.3927 17.1649 31.3643 17.1531C31.3359 17.1414 31.3101 17.1241 31.2883 17.1024C31.2666 17.0806 31.2493 17.0548 31.2376 17.0264C31.2258 16.998 31.2198 16.9676 31.2198 16.9368V15.8441C31.2198 15.782 31.2444 15.7225 31.2883 15.6786C31.3322 15.6347 31.3918 15.61 31.4539 15.61ZM31.4539 29.6588H32.7807H34.1076C34.1697 29.6588 34.2292 29.6834 34.2731 29.7274C34.317 29.7713 34.3417 29.8308 34.3417 29.8929V30.9856C34.3417 31.0477 34.317 31.1073 34.2731 31.1512C34.2292 31.1951 34.1697 31.2198 34.1076 31.2198H32.7807H31.4539C31.3918 31.2198 31.3322 31.1951 31.2883 31.1512C31.2444 31.1073 31.2198 31.0477 31.2198 30.9856V29.8929C31.2198 29.8308 31.2444 29.7713 31.2883 29.7274C31.3322 29.6834 31.3918 29.6588 31.4539 29.6588ZM31.4539 49.9515H32.5466C32.6087 49.9515 32.6682 49.9761 32.7121 50.02C32.7561 50.0639 32.7807 50.1235 32.7807 50.1856V51.2783C32.7807 51.3404 32.7561 51.3999 32.7121 51.4439C32.6682 51.4878 32.6087 51.5124 32.5466 51.5124H31.4539C31.3918 51.5124 31.3322 51.4878 31.2883 51.4439C31.2444 51.3999 31.2198 51.3404 31.2198 51.2783V50.1856C31.2198 50.1235 31.2444 50.0639 31.2883 50.02C31.3322 49.9761 31.3918 49.9515 31.4539 49.9515ZM31.4539 54.6344H32.5466C32.6087 54.6344 32.6682 54.6097 32.7121 54.5658C32.7561 54.5219 32.7807 54.4623 32.7807 54.4002V53.3076C32.7807 53.2455 32.8054 53.1859 32.8493 53.142C32.8932 53.0981 32.9528 53.0734 33.0149 53.0734H34.1076C34.1697 53.0734 34.2292 53.0487 34.2731 53.0048C34.317 52.9609 34.3417 52.9014 34.3417 52.8393V51.7466C34.3417 51.6845 34.3664 51.6249 34.4103 51.581C34.4542 51.5371 34.5137 51.5124 34.5758 51.5124H35.6685C35.7306 51.5124 35.7902 51.5371 35.8341 51.581C35.878 51.6249 35.9027 51.6845 35.9027 51.7466V53.0734V54.6344V55.9612C35.9027 56.0233 35.878 56.0829 35.8341 56.1268C35.7902 56.1707 35.7306 56.1954 35.6685 56.1954H34.5758C34.5137 56.1954 34.4542 56.22 34.4103 56.2639C34.3664 56.3079 34.3417 56.3674 34.3417 56.4295V57.5222C34.3417 57.5843 34.317 57.6438 34.2731 57.6878C34.2292 57.7317 34.1697 57.7563 34.1076 57.7563H33.0149C32.9528 57.7563 32.8932 57.7317 32.8493 57.6878C32.8054 57.6438 32.7807 57.5843 32.7807 57.5222V56.4295C32.7807 56.3674 32.7561 56.3079 32.7121 56.2639C32.6682 56.22 32.6087 56.1954 32.5466 56.1954H31.4539C31.3918 56.1954 31.3322 56.1707 31.2883 56.1268C31.2444 56.0829 31.2198 56.0233 31.2198 55.9612V54.8685C31.2198 54.8064 31.2444 54.7469 31.2883 54.703C31.3322 54.6591 31.3918 54.6344 31.4539 54.6344ZM33.0149 37.4637H34.1076C34.1697 37.4637 34.2292 37.4883 34.2731 37.5322C34.317 37.5761 34.3417 37.6357 34.3417 37.6978V38.7905C34.3417 38.8526 34.317 38.9121 34.2731 38.9561C34.2292 39 34.1697 39.0246 34.1076 39.0246H33.0149C32.9528 39.0246 32.8932 39 32.8493 38.9561C32.8054 38.9121 32.7807 38.8526 32.7807 38.7905V37.6978C32.7807 37.6357 32.8054 37.5761 32.8493 37.5322C32.8932 37.4883 32.9528 37.4637 33.0149 37.4637ZM34.5758 24.9758H35.6685C35.7306 24.9758 35.7902 25.0005 35.8341 25.0444C35.878 25.0883 35.9027 25.1479 35.9027 25.21V26.3027C35.9027 26.3648 35.878 26.4243 35.8341 26.4682C35.7902 26.5122 35.7306 26.5368 35.6685 26.5368H34.5758C34.5137 26.5368 34.4542 26.5122 34.4103 26.4682C34.3664 26.4243 34.3417 26.3648 34.3417 26.3027V25.21C34.3417 25.1479 34.3664 25.0883 34.4103 25.0444C34.4542 25.0005 34.5137 24.9758 34.5758 24.9758ZM34.5758 28.0978H35.9027H37.4637H38.7905C38.8526 28.0978 38.9121 28.1225 38.9561 28.1664C39 28.2103 39.0246 28.2698 39.0246 28.3319V29.4246C39.0246 29.4867 39.0493 29.5463 39.0932 29.5902C39.1371 29.6341 39.1967 29.6588 39.2588 29.6588H40.3515C40.4136 29.6588 40.4731 29.6341 40.517 29.5902C40.5609 29.5463 40.5856 29.4867 40.5856 29.4246V28.0978V26.771C40.5856 26.7089 40.6103 26.6493 40.6542 26.6054C40.6981 26.5615 40.7577 26.5368 40.8198 26.5368H41.9124C41.9745 26.5368 42.0341 26.5122 42.078 26.4682C42.1219 26.4243 42.1466 26.3648 42.1466 26.3027V25.21C42.1466 25.1479 42.1712 25.0883 42.2152 25.0444C42.2591 25.0005 42.3186 24.9758 42.3807 24.9758H43.4734C43.5355 24.9758 43.5951 24.9512 43.639 24.9073C43.6829 24.8634 43.7076 24.8038 43.7076 24.7417V23.649C43.7076 23.5869 43.7322 23.5274 43.7761 23.4835C43.82 23.4395 43.8796 23.4149 43.9417 23.4149H45.2685H46.5954C46.6575 23.4149 46.717 23.4395 46.7609 23.4835C46.8048 23.5274 46.8295 23.5869 46.8295 23.649V24.9758V26.3027C46.8295 26.3648 46.8542 26.4243 46.8981 26.4682C46.942 26.5122 47.0016 26.5368 47.0637 26.5368H48.1563C48.2184 26.5368 48.278 26.5615 48.3219 26.6054C48.3658 26.6493 48.3905 26.7089 48.3905 26.771V27.8637C48.3905 27.9258 48.3658 27.9853 48.3219 28.0292C48.278 28.0731 48.2184 28.0978 48.1563 28.0978H47.0637C47.0016 28.0978 46.942 28.1225 46.8981 28.1664C46.8542 28.2103 46.8295 28.2698 46.8295 28.3319V29.6588V31.2198V32.5466C46.8295 32.6087 46.8542 32.6682 46.8981 32.7121C46.942 32.7561 47.0016 32.7807 47.0637 32.7807H48.1563C48.2184 32.7807 48.278 32.8054 48.3219 32.8493C48.3658 32.8932 48.3905 32.9528 48.3905 33.0149V34.1076C48.3905 34.1697 48.3658 34.2292 48.3219 34.2731C48.278 34.317 48.2184 34.3417 48.1563 34.3417H46.8295H45.2685H43.7076H42.3807C42.3186 34.3417 42.2591 34.317 42.2152 34.2731C42.1712 34.2292 42.1466 34.1697 42.1466 34.1076V32.7807V31.4539C42.1466 31.3918 42.1219 31.3322 42.078 31.2883C42.0341 31.2444 41.9745 31.2198 41.9124 31.2198H40.5856H39.0246H37.4637H36.1368C36.0747 31.2198 36.0152 31.1951 35.9713 31.1512C35.9273 31.1073 35.9027 31.0477 35.9027 30.9856V29.8929C35.9027 29.8308 35.878 29.7713 35.8341 29.7274C35.7902 29.6834 35.7306 29.6588 35.6685 29.6588H34.5758C34.5137 29.6588 34.4542 29.6341 34.4103 29.5902C34.3664 29.5463 34.3417 29.4867 34.3417 29.4246V28.3319C34.3417 28.2698 34.3664 28.2103 34.4103 28.1664C34.4542 28.1225 34.5137 28.0978 34.5758 28.0978ZM36.1368 20.2929H37.2295C37.2916 20.2929 37.3512 20.3176 37.3951 20.3615C37.439 20.4054 37.4637 20.465 37.4637 20.5271V21.8539V23.1807C37.4637 23.2428 37.439 23.3024 37.3951 23.3463C37.3512 23.3902 37.2916 23.4149 37.2295 23.4149H36.1368C36.0747 23.4149 36.0152 23.3902 35.9713 23.3463C35.9273 23.3024 35.9027 23.2428 35.9027 23.1807V21.8539V20.5271C35.9027 20.465 35.9273 20.4054 35.9713 20.3615C36.0152 20.3176 36.0747 20.2929 36.1368 20.2929ZM36.1368 48.3905H37.2295C37.2916 48.3905 37.3512 48.4152 37.3951 48.4591C37.439 48.503 37.4637 48.5625 37.4637 48.6246V49.7173C37.4637 49.7794 37.4883 49.839 37.5322 49.8829C37.5761 49.9268 37.6357 49.9515 37.6978 49.9515H39.0246H40.5856H41.9124C41.9745 49.9515 42.0341 49.9761 42.078 50.02C42.1219 50.0639 42.1466 50.1235 42.1466 50.1856V51.2783C42.1466 51.3404 42.1219 51.3999 42.078 51.4439C42.0341 51.4878 41.9745 51.5124 41.9124 51.5124H40.5856H39.2588C39.1967 51.5124 39.1371 51.5371 39.0932 51.581C39.0493 51.6249 39.0246 51.6845 39.0246 51.7466V52.8393C39.0246 52.9014 39.0493 52.9609 39.0932 53.0048C39.1371 53.0487 39.1967 53.0734 39.2588 53.0734H40.3515C40.4136 53.0734 40.4731 53.0981 40.517 53.142C40.5609 53.1859 40.5856 53.2455 40.5856 53.3076V54.4002C40.5856 54.4623 40.5609 54.5219 40.517 54.5658C40.4731 54.6097 40.4136 54.6344 40.3515 54.6344H39.2588C39.1967 54.6344 39.1371 54.6591 39.0932 54.703C39.0493 54.7469 39.0246 54.8064 39.0246 54.8685V56.1954V57.5222C39.0246 57.5843 39 57.6438 38.9561 57.6878C38.9121 57.7317 38.8526 57.7563 38.7905 57.7563H37.6978C37.6357 57.7563 37.5761 57.7317 37.5322 57.6878C37.4883 57.6438 37.4637 57.5843 37.4637 57.5222V56.1954V54.6344V53.0734V51.7466C37.4637 51.6845 37.439 51.6249 37.3951 51.581C37.3512 51.5371 37.2916 51.5124 37.2295 51.5124H36.1368C36.0747 51.5124 36.0152 51.4878 35.9713 51.4439C35.9273 51.3999 35.9027 51.3404 35.9027 51.2783V49.9515V48.6246C35.9027 48.5625 35.9273 48.503 35.9713 48.4591C36.0152 48.4152 36.0747 48.3905 36.1368 48.3905ZM37.6978 6.24414H38.7905C38.8526 6.24414 38.9121 6.26881 38.9561 6.31272C39 6.35663 39.0246 6.41619 39.0246 6.47829V7.57097C39.0246 7.63307 39 7.69263 38.9561 7.73654C38.9121 7.78045 38.8526 7.80512 38.7905 7.80512H37.6978C37.6357 7.80512 37.5761 7.78045 37.5322 7.73654C37.4883 7.69263 37.4637 7.63307 37.4637 7.57097V6.47829C37.4637 6.41619 37.4883 6.35663 37.5322 6.31272C37.5761 6.26881 37.6357 6.24414 37.6978 6.24414ZM37.6978 23.4149H38.7905C38.8526 23.4149 38.9121 23.3902 38.9561 23.3463C39 23.3024 39.0246 23.2428 39.0246 23.1807V21.8539V20.5271C39.0246 20.465 39.0493 20.4054 39.0932 20.3615C39.1371 20.3176 39.1967 20.2929 39.2588 20.2929H40.3515C40.4136 20.2929 40.4731 20.3176 40.517 20.3615C40.5609 20.4054 40.5856 20.465 40.5856 20.5271V21.8539V23.1807C40.5856 23.2428 40.6103 23.3024 40.6542 23.3463C40.6981 23.3902 40.7577 23.4149 40.8198 23.4149H41.9124C41.9745 23.4149 42.0341 23.4395 42.078 23.4835C42.1219 23.5274 42.1466 23.5869 42.1466 23.649V24.7417C42.1466 24.8038 42.1219 24.8634 42.078 24.9073C42.0341 24.9512 41.9745 24.9758 41.9124 24.9758H40.8198C40.7577 24.9758 40.6981 25.0005 40.6542 25.0444C40.6103 25.0883 40.5856 25.1479 40.5856 25.21V26.3027C40.5856 26.3648 40.5609 26.4243 40.517 26.4682C40.4731 26.5122 40.4136 26.5368 40.3515 26.5368H39.0246H37.6978C37.6357 26.5368 37.5761 26.5122 37.5322 26.4682C37.4883 26.4243 37.4637 26.3648 37.4637 26.3027V24.9758V23.649C37.4637 23.5869 37.4883 23.5274 37.5322 23.4835C37.5761 23.4395 37.6357 23.4149 37.6978 23.4149ZM37.6978 46.8295H38.7905C38.8526 46.8295 38.9121 46.8542 38.9561 46.8981C39 46.942 39.0246 47.0016 39.0246 47.0637V48.1563C39.0246 48.2184 39 48.278 38.9561 48.3219C38.9121 48.3658 38.8526 48.3905 38.7905 48.3905H37.6978C37.6357 48.3905 37.5761 48.3658 37.5322 48.3219C37.4883 48.278 37.4637 48.2184 37.4637 48.1563V47.0637C37.4637 47.0016 37.4883 46.942 37.5322 46.8981C37.5761 46.8542 37.6357 46.8295 37.6978 46.8295ZM39.2588 7.80512H40.5856H41.9124C41.9745 7.80512 42.0341 7.82978 42.078 7.8737C42.1219 7.91761 42.1466 7.97716 42.1466 8.03926V9.13195C42.1466 9.19404 42.1219 9.2536 42.078 9.29751C42.0341 9.34142 41.9745 9.36609 41.9124 9.36609H40.8198C40.789 9.36609 40.7586 9.37215 40.7301 9.38391C40.7017 9.39568 40.6759 9.41293 40.6542 9.43467C40.6324 9.45641 40.6152 9.48223 40.6034 9.51063C40.5917 9.53904 40.5856 9.56949 40.5856 9.60024V10.6929C40.5856 10.7237 40.5796 10.7541 40.5678 10.7825C40.556 10.8109 40.5388 10.8367 40.517 10.8585C40.4953 10.8802 40.4695 10.8975 40.4411 10.9092C40.4127 10.921 40.3822 10.9271 40.3515 10.9271H39.2588C39.1967 10.9271 39.1371 10.9024 39.0932 10.8585C39.0493 10.8146 39.0246 10.755 39.0246 10.6929V9.36609V8.03926C39.0246 7.97716 39.0493 7.91761 39.0932 7.8737C39.1371 7.82978 39.1967 7.80512 39.2588 7.80512ZM39.2588 17.171H40.3515C40.4136 17.171 40.4731 17.1956 40.517 17.2395C40.5609 17.2835 40.5856 17.343 40.5856 17.4051V18.4978C40.5856 18.5599 40.5609 18.6195 40.517 18.6634C40.4731 18.7073 40.4136 18.7319 40.3515 18.7319H39.2588C39.1967 18.7319 39.1371 18.7073 39.0932 18.6634C39.0493 18.6195 39.0246 18.5599 39.0246 18.4978V17.4051C39.0246 17.343 39.0493 17.2835 39.0932 17.2395C39.1371 17.1956 39.1967 17.171 39.2588 17.171ZM39.2588 39.0246H40.3515C40.4136 39.0246 40.4731 39.0493 40.517 39.0932C40.5609 39.1371 40.5856 39.1967 40.5856 39.2588V40.3515C40.5856 40.4136 40.5609 40.4731 40.517 40.517C40.4731 40.5609 40.4136 40.5856 40.3515 40.5856H39.2588C39.1967 40.5856 39.1371 40.5609 39.0932 40.517C39.0493 40.4731 39.0246 40.4136 39.0246 40.3515V39.2588C39.0246 39.1967 39.0493 39.1371 39.0932 39.0932C39.1371 39.0493 39.1967 39.0246 39.2588 39.0246ZM40.8198 10.9271H41.9124C41.9745 10.9271 42.0341 10.9024 42.078 10.8585C42.1219 10.8146 42.1466 10.755 42.1466 10.6929V9.60024C42.1466 9.56949 42.1526 9.53904 42.1644 9.51063C42.1762 9.48223 42.1934 9.45641 42.2152 9.43467C42.2369 9.41293 42.2627 9.39568 42.2911 9.38391C42.3195 9.37215 42.35 9.36609 42.3807 9.36609H43.4734C43.5355 9.36609 43.5951 9.34142 43.639 9.29751C43.6829 9.2536 43.7076 9.19404 43.7076 9.13195V8.03926C43.7076 7.97716 43.6829 7.91761 43.639 7.8737C43.5951 7.82978 43.5355 7.80512 43.4734 7.80512H42.3807C42.3186 7.80512 42.2591 7.78045 42.2152 7.73654C42.1712 7.69263 42.1466 7.63307 42.1466 7.57097V6.47829C42.1466 6.41619 42.1712 6.35663 42.2152 6.31272C42.2591 6.26881 42.3186 6.24414 42.3807 6.24414H43.7076H45.0344C45.0965 6.24414 45.156 6.26881 45.2 6.31272C45.2439 6.35663 45.2685 6.41619 45.2685 6.47829V7.80512V9.36609V10.9271V12.2539C45.2685 12.316 45.2439 12.3756 45.2 12.4195C45.156 12.4634 45.0965 12.488 45.0344 12.488H43.7076H42.1466H40.8198C40.7577 12.488 40.6981 12.4634 40.6542 12.4195C40.6103 12.3756 40.5856 12.316 40.5856 12.2539V11.1612C40.5856 11.0991 40.6103 11.0396 40.6542 10.9956C40.6981 10.9517 40.7577 10.9271 40.8198 10.9271ZM40.8198 14.049H42.1466H43.7076H45.0344C45.0651 14.049 45.0956 14.0551 45.124 14.0668C45.1524 14.0786 45.1782 14.0959 45.2 14.1176C45.2217 14.1393 45.2389 14.1652 45.2507 14.1936C45.2625 14.222 45.2685 14.2524 45.2685 14.2832V15.61V16.9368C45.2685 16.9676 45.2625 16.998 45.2507 17.0264C45.2389 17.0548 45.2217 17.0806 45.2 17.1024C45.1782 17.1241 45.1524 17.1414 45.124 17.1531C45.0956 17.1649 45.0651 17.171 45.0344 17.171H43.9417C43.8796 17.171 43.82 17.1463 43.7761 17.1024C43.7322 17.0585 43.7076 16.9989 43.7076 16.9368V15.8441C43.7076 15.782 43.6829 15.7225 43.639 15.6786C43.5951 15.6347 43.5355 15.61 43.4734 15.61H42.3807C42.3186 15.61 42.2591 15.6347 42.2152 15.6786C42.1712 15.7225 42.1466 15.782 42.1466 15.8441V16.9368C42.1466 16.9989 42.1219 17.0585 42.078 17.1024C42.0341 17.1463 41.9745 17.171 41.9124 17.171H40.8198C40.789 17.171 40.7586 17.1649 40.7301 17.1531C40.7017 17.1414 40.6759 17.1241 40.6542 17.1024C40.6324 17.0806 40.6152 17.0548 40.6034 17.0264C40.5917 16.998 40.5856 16.9676 40.5856 16.9368V15.61V14.2832C40.5856 14.2524 40.5917 14.222 40.6034 14.1936C40.6152 14.1652 40.6324 14.1393 40.6542 14.1176C40.6759 14.0959 40.7017 14.0786 40.7301 14.0668C40.7586 14.0551 40.789 14.049 40.8198 14.049ZM40.8198 18.7319H41.9124C41.9745 18.7319 42.0341 18.7073 42.078 18.6634C42.1219 18.6195 42.1466 18.5599 42.1466 18.4978V17.4051C42.1466 17.343 42.1712 17.2835 42.2152 17.2395C42.2591 17.1956 42.3186 17.171 42.3807 17.171H43.4734C43.5355 17.171 43.5951 17.1956 43.639 17.2395C43.6829 17.2835 43.7076 17.343 43.7076 17.4051V18.7319V20.2929V21.6198C43.7076 21.6505 43.7015 21.6809 43.6897 21.7094C43.678 21.7378 43.6607 21.7636 43.639 21.7853C43.6172 21.8071 43.5914 21.8243 43.563 21.8361C43.5346 21.8478 43.5042 21.8539 43.4734 21.8539H42.3807C42.35 21.8539 42.3195 21.8478 42.2911 21.8361C42.2627 21.8243 42.2369 21.8071 42.2152 21.7853C42.1934 21.7636 42.1762 21.7378 42.1644 21.7094C42.1526 21.6809 42.1466 21.6505 42.1466 21.6198V20.5271C42.1466 20.465 42.1219 20.4054 42.078 20.3615C42.0341 20.3176 41.9745 20.2929 41.9124 20.2929H40.8198C40.7577 20.2929 40.6981 20.2683 40.6542 20.2243C40.6103 20.1804 40.5856 20.1209 40.5856 20.0588V18.9661C40.5856 18.904 40.6103 18.8444 40.6542 18.8005C40.6981 18.7566 40.7577 18.7319 40.8198 18.7319ZM42.1466 28.3319V29.4246C42.1466 29.4867 42.1712 29.5463 42.2152 29.5902C42.2591 29.6341 42.3186 29.6588 42.3807 29.6588H43.4734C43.5355 29.6588 43.5951 29.6834 43.639 29.7274C43.6829 29.7713 43.7076 29.8308 43.7076 29.8929V31.2198V32.5466C43.7076 32.6087 43.7322 32.6682 43.7761 32.7121C43.82 32.7561 43.8796 32.7807 43.9417 32.7807H45.0344C45.0965 32.7807 45.156 32.7561 45.2 32.7121C45.2439 32.6682 45.2685 32.6087 45.2685 32.5466V31.2198V29.8929C45.2685 29.8308 45.2439 29.7713 45.2 29.7274C45.156 29.6834 45.0965 29.6588 45.0344 29.6588H43.9417C43.8796 29.6588 43.82 29.6341 43.7761 29.5902C43.7322 29.5463 43.7076 29.4867 43.7076 29.4246V28.3319C43.7076 28.2698 43.7322 28.2103 43.7761 28.1664C43.82 28.1225 43.8796 28.0978 43.9417 28.0978H45.0344C45.0965 28.0978 45.156 28.0731 45.2 28.0292C45.2439 27.9853 45.2685 27.9258 45.2685 27.8637V26.771C45.2685 26.7089 45.2439 26.6493 45.2 26.6054C45.156 26.5615 45.0965 26.5368 45.0344 26.5368H43.9417C43.8796 26.5368 43.82 26.5615 43.7761 26.6054C43.7322 26.6493 43.7076 26.7089 43.7076 26.771V27.8637C43.7076 27.9258 43.6829 27.9853 43.639 28.0292C43.5951 28.0731 43.5355 28.0978 43.4734 28.0978H42.3807C42.3186 28.0978 42.2591 28.1225 42.2152 28.1664C42.1712 28.2103 42.1466 28.2698 42.1466 28.3319ZM40.8198 54.6344H41.9124C41.9745 54.6344 42.0341 54.6591 42.078 54.703C42.1219 54.7469 42.1466 54.8064 42.1466 54.8685V55.9612C42.1466 56.0233 42.1219 56.0829 42.078 56.1268C42.0341 56.1707 41.9745 56.1954 41.9124 56.1954H40.8198C40.7577 56.1954 40.6981 56.1707 40.6542 56.1268C40.6103 56.0829 40.5856 56.0233 40.5856 55.9612V54.8685C40.5856 54.8064 40.6103 54.7469 40.6542 54.703C40.6981 54.6591 40.7577 54.6344 40.8198 54.6344ZM45.2685 45.5027V46.8295V48.3905V49.7173C45.2685 49.7794 45.2932 49.839 45.3371 49.8829C45.381 49.9268 45.4406 49.9515 45.5027 49.9515H46.8295H48.3905H49.7173C49.7794 49.9515 49.839 49.9268 49.8829 49.8829C49.9268 49.839 49.9515 49.7794 49.9515 49.7173V48.3905V46.8295V45.5027C49.9515 45.4406 49.9268 45.381 49.8829 45.3371C49.839 45.2932 49.7794 45.2685 49.7173 45.2685H48.3905H46.8295H45.5027C45.4406 45.2685 45.381 45.2932 45.3371 45.3371C45.2932 45.381 45.2685 45.4406 45.2685 45.5027ZM43.9417 56.1954H45.0344C45.0965 56.1954 45.156 56.22 45.2 56.2639C45.2439 56.3079 45.2685 56.3674 45.2685 56.4295V57.5222C45.2685 57.5843 45.2439 57.6438 45.2 57.6878C45.156 57.7317 45.0965 57.7563 45.0344 57.7563H43.9417C43.8796 57.7563 43.82 57.7317 43.7761 57.6878C43.7322 57.6438 43.7076 57.5843 43.7076 57.5222V56.4295C43.7076 56.3674 43.7322 56.3079 43.7761 56.2639C43.82 56.22 43.8796 56.1954 43.9417 56.1954ZM45.5027 18.7319H46.8295H48.3905H49.7173C49.7794 18.7319 49.839 18.7566 49.8829 18.8005C49.9268 18.8444 49.9515 18.904 49.9515 18.9661V20.0588C49.9515 20.1209 49.9268 20.1804 49.8829 20.2243C49.839 20.2683 49.7794 20.2929 49.7173 20.2929H48.6246C48.5625 20.2929 48.503 20.3176 48.4591 20.3615C48.4152 20.4054 48.3905 20.465 48.3905 20.5271V21.6198C48.3905 21.6819 48.4152 21.7414 48.4591 21.7853C48.503 21.8292 48.5625 21.8539 48.6246 21.8539H49.7173C49.7794 21.8539 49.839 21.8786 49.8829 21.9225C49.9268 21.9664 49.9515 22.0259 49.9515 22.088V23.1807C49.9515 23.2428 49.9268 23.3024 49.8829 23.3463C49.839 23.3902 49.7794 23.4149 49.7173 23.4149H48.3905H47.0637C47.0016 23.4149 46.942 23.3902 46.8981 23.3463C46.8542 23.3024 46.8295 23.2428 46.8295 23.1807V22.088C46.8295 22.0259 46.8048 21.9664 46.7609 21.9225C46.717 21.8786 46.6575 21.8539 46.5954 21.8539H45.5027C45.4719 21.8539 45.4415 21.8478 45.4131 21.8361C45.3847 21.8243 45.3589 21.8071 45.3371 21.7853C45.3154 21.7636 45.2981 21.7378 45.2864 21.7094C45.2746 21.6809 45.2685 21.6505 45.2685 21.6198V20.2929V18.9661C45.2685 18.904 45.2932 18.8444 45.3371 18.8005C45.381 18.7566 45.4406 18.7319 45.5027 18.7319ZM47.0637 46.8295H48.1563C48.2184 46.8295 48.278 46.8542 48.3219 46.8981C48.3658 46.942 48.3905 47.0016 48.3905 47.0637V48.1563C48.3905 48.2184 48.3658 48.278 48.3219 48.3219C48.278 48.3658 48.2184 48.3905 48.1563 48.3905H47.0637C47.0016 48.3905 46.942 48.3658 46.8981 48.3219C46.8542 48.278 46.8295 48.2184 46.8295 48.1563V47.0637C46.8295 47.0016 46.8542 46.942 46.8981 46.8981C46.942 46.8542 47.0016 46.8295 47.0637 46.8295ZM47.0637 56.1954H48.1563C48.2184 56.1954 48.278 56.22 48.3219 56.2639C48.3658 56.3079 48.3905 56.3674 48.3905 56.4295V57.5222C48.3905 57.5843 48.3658 57.6438 48.3219 57.6878C48.278 57.7317 48.2184 57.7563 48.1563 57.7563H47.0637C47.0016 57.7563 46.942 57.7317 46.8981 57.6878C46.8542 57.6438 46.8295 57.5843 46.8295 57.5222V56.4295C46.8295 56.3674 46.8542 56.3079 46.8981 56.2639C46.942 56.22 47.0016 56.1954 47.0637 56.1954ZM48.6246 31.2198H49.7173C49.7794 31.2198 49.839 31.1951 49.8829 31.1512C49.9268 31.1073 49.9515 31.0477 49.9515 30.9856V29.8929C49.9515 29.8308 49.9761 29.7713 50.02 29.7274C50.0639 29.6834 50.1235 29.6588 50.1856 29.6588H51.2783C51.3404 29.6588 51.3999 29.6341 51.4439 29.5902C51.4878 29.5463 51.5124 29.4867 51.5124 29.4246V28.0978V26.771C51.5124 26.7089 51.5371 26.6493 51.581 26.6054C51.6249 26.5615 51.6845 26.5368 51.7466 26.5368H52.8393C52.9014 26.5368 52.9609 26.5615 53.0048 26.6054C53.0487 26.6493 53.0734 26.7089 53.0734 26.771V28.0978V29.4246C53.0734 29.4867 53.0981 29.5463 53.142 29.5902C53.1859 29.6341 53.2455 29.6588 53.3076 29.6588H54.4002C54.4623 29.6588 54.5219 29.6341 54.5658 29.5902C54.6097 29.5463 54.6344 29.4867 54.6344 29.4246V28.3319C54.6344 28.2698 54.6591 28.2103 54.703 28.1664C54.7469 28.1225 54.8064 28.0978 54.8685 28.0978H55.9612C56.0233 28.0978 56.0829 28.1225 56.1268 28.1664C56.1707 28.2103 56.1954 28.2698 56.1954 28.3319V29.4246C56.1954 29.4867 56.22 29.5463 56.2639 29.5902C56.3079 29.6341 56.3674 29.6588 56.4295 29.6588H57.5222C57.5843 29.6588 57.6438 29.6834 57.6878 29.7274C57.7317 29.7713 57.7563 29.8308 57.7563 29.8929V31.2198V32.7807V34.1076C57.7563 34.1697 57.7317 34.2292 57.6878 34.2731C57.6438 34.317 57.5843 34.3417 57.5222 34.3417H56.1954H54.8685C54.8064 34.3417 54.7469 34.317 54.703 34.2731C54.6591 34.2292 54.6344 34.1697 54.6344 34.1076V32.7807V31.4539C54.6344 31.3918 54.6097 31.3322 54.5658 31.2883C54.5219 31.2444 54.4623 31.2198 54.4002 31.2198H53.3076C53.2455 31.2198 53.1859 31.2444 53.142 31.2883C53.0981 31.3322 53.0734 31.3918 53.0734 31.4539V32.5466C53.0734 32.6087 53.0487 32.6682 53.0048 32.7121C52.9609 32.7561 52.9014 32.7807 52.8393 32.7807H51.5124H49.9515H48.6246C48.5625 32.7807 48.503 32.7561 48.4591 32.7121C48.4152 32.6682 48.3905 32.6087 48.3905 32.5466V31.4539C48.3905 31.3918 48.4152 31.3322 48.4591 31.2883C48.503 31.2444 48.5625 31.2198 48.6246 31.2198ZM48.6246 34.3417H49.7173C49.7794 34.3417 49.839 34.3664 49.8829 34.4103C49.9268 34.4542 49.9515 34.5137 49.9515 34.5758V35.6685C49.9515 35.7306 49.9268 35.7902 49.8829 35.8341C49.839 35.878 49.7794 35.9027 49.7173 35.9027H48.6246C48.5625 35.9027 48.503 35.878 48.4591 35.8341C48.4152 35.7902 48.3905 35.7306 48.3905 35.6685V34.5758C48.3905 34.5137 48.4152 34.4542 48.4591 34.4103C48.503 34.3664 48.5625 34.3417 48.6246 34.3417ZM49.9515 42.3807V43.4734C49.9515 43.5355 49.9761 43.5951 50.02 43.639C50.0639 43.6829 50.1235 43.7076 50.1856 43.7076H51.2783C51.3404 43.7076 51.3999 43.6829 51.4439 43.639C51.4878 43.5951 51.5124 43.5355 51.5124 43.4734V42.3807C51.5124 42.3186 51.4878 42.2591 51.4439 42.2152C51.3999 42.1712 51.3404 42.1466 51.2783 42.1466H50.1856C50.1235 42.1466 50.0639 42.1712 50.02 42.2152C49.9761 42.2591 49.9515 42.3186 49.9515 42.3807ZM48.6246 54.6344H49.7173C49.7794 54.6344 49.839 54.6591 49.8829 54.703C49.9268 54.7469 49.9515 54.8064 49.9515 54.8685V55.9612C49.9515 56.0233 49.9268 56.0829 49.8829 56.1268C49.839 56.1707 49.7794 56.1954 49.7173 56.1954H48.6246C48.5625 56.1954 48.503 56.1707 48.4591 56.1268C48.4152 56.0829 48.3905 56.0233 48.3905 55.9612V54.8685C48.3905 54.8064 48.4152 54.7469 48.4591 54.703C48.503 54.6591 48.5625 54.6344 48.6246 54.6344ZM50.1856 24.9758H51.2783C51.3404 24.9758 51.3999 25.0005 51.4439 25.0444C51.4878 25.0883 51.5124 25.1479 51.5124 25.21V26.3027C51.5124 26.3648 51.4878 26.4243 51.4439 26.4682C51.3999 26.5122 51.3404 26.5368 51.2783 26.5368H50.1856C50.1235 26.5368 50.0639 26.5122 50.02 26.4682C49.9761 26.4243 49.9515 26.3648 49.9515 26.3027V25.21C49.9515 25.1479 49.9761 25.0883 50.02 25.0444C50.0639 25.0005 50.1235 24.9758 50.1856 24.9758ZM51.7466 21.8539H52.8393C52.9014 21.8539 52.9609 21.8786 53.0048 21.9225C53.0487 21.9664 53.0734 22.0259 53.0734 22.088V23.1807C53.0734 23.2428 53.0487 23.3024 53.0048 23.3463C52.9609 23.3902 52.9014 23.4149 52.8393 23.4149H51.7466C51.6845 23.4149 51.6249 23.3902 51.581 23.3463C51.5371 23.3024 51.5124 23.2428 51.5124 23.1807V22.088C51.5124 22.0259 51.5371 21.9664 51.581 21.9225C51.6249 21.8786 51.6845 21.8539 51.7466 21.8539ZM51.7466 56.1954H52.8393C52.9014 56.1954 52.9609 56.22 53.0048 56.2639C53.0487 56.3079 53.0734 56.3674 53.0734 56.4295V57.5222C53.0734 57.5843 53.0487 57.6438 53.0048 57.6878C52.9609 57.7317 52.9014 57.7563 52.8393 57.7563H51.7466C51.6845 57.7563 51.6249 57.7317 51.581 57.6878C51.5371 57.6438 51.5124 57.5843 51.5124 57.5222V56.4295C51.5124 56.3674 51.5371 56.3079 51.581 56.2639C51.6249 56.22 51.6845 56.1954 51.7466 56.1954ZM53.3076 18.7319H54.6344H56.1954H57.5222C57.5843 18.7319 57.6438 18.7566 57.6878 18.8005C57.7317 18.8444 57.7563 18.904 57.7563 18.9661V20.2929V21.6198C57.7563 21.6505 57.7503 21.6809 57.7385 21.7094C57.7267 21.7378 57.7095 21.7636 57.6878 21.7853C57.666 21.8071 57.6402 21.8243 57.6118 21.8361C57.5834 21.8478 57.5529 21.8539 57.5222 21.8539H56.4295C56.3988 21.8539 56.3683 21.8478 56.3399 21.8361C56.3115 21.8243 56.2857 21.8071 56.2639 21.7853C56.2422 21.7636 56.225 21.7378 56.2132 21.7094C56.2014 21.6809 56.1954 21.6505 56.1954 21.6198V20.5271C56.1954 20.465 56.1707 20.4054 56.1268 20.3615C56.0829 20.3176 56.0233 20.2929 55.9612 20.2929H54.6344H53.3076C53.2455 20.2929 53.1859 20.2683 53.142 20.2243C53.0981 20.1804 53.0734 20.1209 53.0734 20.0588V18.9661C53.0734 18.904 53.0981 18.8444 53.142 18.8005C53.1859 18.7566 53.2455 18.7319 53.3076 18.7319ZM53.3076 23.4149H54.4002C54.4623 23.4149 54.5219 23.4395 54.5658 23.4835C54.6097 23.5274 54.6344 23.5869 54.6344 23.649V24.7417C54.6344 24.8038 54.6097 24.8634 54.5658 24.9073C54.5219 24.9512 54.4623 24.9758 54.4002 24.9758H53.3076C53.2455 24.9758 53.1859 24.9512 53.142 24.9073C53.0981 24.8634 53.0734 24.8038 53.0734 24.7417V23.649C53.0734 23.5869 53.0981 23.5274 53.142 23.4835C53.1859 23.4395 53.2455 23.4149 53.3076 23.4149ZM53.3076 54.6344H54.4002C54.4623 54.6344 54.5219 54.6591 54.5658 54.703C54.6097 54.7469 54.6344 54.8064 54.6344 54.8685V55.9612C54.6344 56.0233 54.6097 56.0829 54.5658 56.1268C54.5219 56.1707 54.4623 56.1954 54.4002 56.1954H53.3076C53.2455 56.1954 53.1859 56.1707 53.142 56.1268C53.0981 56.0829 53.0734 56.0233 53.0734 55.9612V54.8685C53.0734 54.8064 53.0981 54.7469 53.142 54.703C53.1859 54.6591 53.2455 54.6344 53.3076 54.6344ZM54.8685 21.8539H55.9612C56.0233 21.8539 56.0829 21.8786 56.1268 21.9225C56.1707 21.9664 56.1954 22.0259 56.1954 22.088V23.1807C56.1954 23.2428 56.1707 23.3024 56.1268 23.3463C56.0829 23.3902 56.0233 23.4149 55.9612 23.4149H54.8685C54.8064 23.4149 54.7469 23.3902 54.703 23.3463C54.6591 23.3024 54.6344 23.2428 54.6344 23.1807V22.088C54.6344 22.0259 54.6591 21.9664 54.703 21.9225C54.7469 21.8786 54.8064 21.8539 54.8685 21.8539ZM54.8685 24.9758H55.9612C56.0233 24.9758 56.0829 25.0005 56.1268 25.0444C56.1707 25.0883 56.1954 25.1479 56.1954 25.21V26.3027C56.1954 26.3648 56.1707 26.4243 56.1268 26.4682C56.0829 26.5122 56.0233 26.5368 55.9612 26.5368H54.8685C54.8064 26.5368 54.7469 26.5122 54.703 26.4682C54.6591 26.4243 54.6344 26.3648 54.6344 26.3027V25.21C54.6344 25.1479 54.6591 25.0883 54.703 25.0444C54.7469 25.0005 54.8064 24.9758 54.8685 24.9758ZM54.8685 43.7076H55.9612C56.0233 43.7076 56.0829 43.6829 56.1268 43.639C56.1707 43.5951 56.1954 43.5355 56.1954 43.4734V42.3807C56.1954 42.3186 56.22 42.2591 56.2639 42.2152C56.3079 42.1712 56.3674 42.1466 56.4295 42.1466H57.5222C57.5843 42.1466 57.6438 42.1712 57.6878 42.2152C57.7317 42.2591 57.7563 42.3186 57.7563 42.3807V43.7076V45.2685V46.5954C57.7563 46.6575 57.7317 46.717 57.6878 46.7609C57.6438 46.8048 57.5843 46.8295 57.5222 46.8295H56.4295C56.3674 46.8295 56.3079 46.8048 56.2639 46.7609C56.22 46.717 56.1954 46.6575 56.1954 46.5954V45.5027C56.1954 45.4406 56.1707 45.381 56.1268 45.3371C56.0829 45.2932 56.0233 45.2685 55.9612 45.2685H54.8685C54.8064 45.2685 54.7469 45.2439 54.703 45.2C54.6591 45.156 54.6344 45.0965 54.6344 45.0344V43.9417C54.6344 43.8796 54.6591 43.82 54.703 43.7761C54.7469 43.7322 54.8064 43.7076 54.8685 43.7076ZM54.8685 56.1954H55.9612C56.0233 56.1954 56.0829 56.22 56.1268 56.2639C56.1707 56.3079 56.1954 56.3674 56.1954 56.4295V57.5222C56.1954 57.5843 56.1707 57.6438 56.1268 57.6878C56.0829 57.7317 56.0233 57.7563 55.9612 57.7563H54.8685C54.8064 57.7563 54.7469 57.7317 54.703 57.6878C54.6591 57.6438 54.6344 57.5843 54.6344 57.5222V56.4295C54.6344 56.3674 54.6591 56.3079 54.703 56.2639C54.7469 56.22 54.8064 56.1954 54.8685 56.1954ZM56.4295 26.5368H57.5222C57.5843 26.5368 57.6438 26.5615 57.6878 26.6054C57.7317 26.6493 57.7563 26.7089 57.7563 26.771V27.8637C57.7563 27.9258 57.7317 27.9853 57.6878 28.0292C57.6438 28.0731 57.5843 28.0978 57.5222 28.0978H56.4295C56.3674 28.0978 56.3079 28.0731 56.2639 28.0292C56.22 27.9853 56.1954 27.9258 56.1954 27.8637V26.771C56.1954 26.7089 56.22 26.6493 56.2639 26.6054C56.3079 26.5615 56.3674 26.5368 56.4295 26.5368Z" fill="black"/>
<path d="M6.24414 6.24414H7.80512H9.36609H10.9271H12.488H14.049H15.61H17.171V7.80512V9.36609V10.9271V12.488V14.049V15.61V17.171H15.61H14.049H12.488H10.9271H9.36609H7.80512H6.24414V15.61V14.049V12.488V10.9271V9.36609V7.80512V6.24414ZM7.80512 7.80512V9.36609V10.9271V12.488V14.049V15.61H9.36609H10.9271H12.488H14.049H15.61V14.049V12.488V10.9271V9.36609V7.80512H14.049H12.488H10.9271H9.36609H7.80512Z" fill="black"/>
<path d="M9.36621 9.36572H10.9272H12.4882H14.0491V10.9267V12.4877V14.0486H12.4882H10.9272H9.36621V12.4877V10.9267V9.36572Z" fill="black"/>
<path d="M46.8291 6.24414H48.3901H49.9511H51.512H53.073H54.634H56.195H57.7559V7.80512V9.36609V10.9271V12.488V14.049V15.61V17.171H56.195H54.634H53.073H51.512H49.9511H48.3901H46.8291V15.61V14.049V12.488V10.9271V9.36609V7.80512V6.24414ZM48.3901 7.80512V9.36609V10.9271V12.488V14.049V15.61H49.9511H51.512H53.073H54.634H56.195V14.049V12.488V10.9271V9.36609V7.80512H54.634H53.073H51.512H49.9511H48.3901Z" fill="black"/>
<path d="M49.9512 9.36572H51.5121H53.0731H54.6341V10.9267V12.4877V14.0486H53.0731H51.5121H49.9512V12.4877V10.9267V9.36572Z" fill="black"/>
<path d="M6.24414 46.8291H7.80512H9.36609H10.9271H12.488H14.049H15.61H17.171V48.3901V49.9511V51.512V53.073V54.634V56.195V57.7559H15.61H14.049H12.488H10.9271H9.36609H7.80512H6.24414V56.195V54.634V53.073V51.512V49.9511V48.3901V46.8291ZM7.80512 48.3901V49.9511V51.512V53.073V54.634V56.195H9.36609H10.9271H12.488H14.049H15.61V54.634V53.073V51.512V49.9511V48.3901H14.049H12.488H10.9271H9.36609H7.80512Z" fill="black"/>
<path d="M9.36621 49.9512H10.9272H12.4882H14.0491V51.5121V53.0731V54.6341H12.4882H10.9272H9.36621V53.0731V51.5121V49.9512Z" fill="black"/>
</g>
<defs>
<clipPath id="clip0_17440_16835">
<rect width="64" height="64" fill="white"/>
</clipPath>
</defs>
</svg>
