<svg width="48" height="48" viewBox="0 0 48 48" fill="none" xmlns="http://www.w3.org/2000/svg">
<path d="M0 9C0 4.02944 4.02944 0 9 0H39C43.9706 0 48 4.02944 48 9V39C48 43.9706 43.9706 48 39 48H9C4.02944 48 0 43.9706 0 39V9Z" fill="#FF444F"/>
<path d="M9 0C4.02944 0 0 4.02944 0 9V9.26143L44.8717 2.17896C43.2955 0.820999 41.2436 0 39 0H9Z" fill="#E12E3A"/>
<path d="M45.7979 3.10162L37.5666 47.9999L39 48C43.9706 48 48 43.9706 48 39V9C48 6.74364 47.1697 4.68122 45.7979 3.10162Z" fill="#E12E3A"/>
<path d="M14.9088 28.5989C15.0628 28.6129 15.2378 28.6269 15.4338 28.6409C15.6438 28.6409 15.8888 28.6409 16.1688 28.6409C17.8068 28.6409 19.0178 28.2279 19.8018 27.4019C20.5998 26.5759 20.9988 25.4349 20.9988 23.9789C20.9988 22.4529 20.6208 21.2979 19.8648 20.5139C19.1088 19.7299 17.9118 19.3379 16.2738 19.3379C16.0498 19.3379 15.8188 19.3449 15.5808 19.3589C15.3428 19.3589 15.1188 19.3729 14.9088 19.4009V28.5989ZM24.3798 23.9789C24.3798 25.2389 24.1838 26.3379 23.7918 27.2759C23.3998 28.2139 22.8398 28.9909 22.1118 29.6069C21.3978 30.2229 20.5228 30.6849 19.4868 30.9929C18.4508 31.3009 17.2888 31.4549 16.0008 31.4549C15.4128 31.4549 14.7268 31.4269 13.9428 31.3709C13.1588 31.3289 12.3888 31.2309 11.6328 31.0769V16.9019C12.3888 16.7619 13.1728 16.6709 13.9848 16.6289C14.8108 16.5729 15.5178 16.5449 16.1058 16.5449C17.3518 16.5449 18.4788 16.6849 19.4868 16.9649C20.5088 17.2449 21.3838 17.6859 22.1118 18.2879C22.8398 18.8899 23.3998 19.6599 23.7918 20.5979C24.1838 21.5359 24.3798 22.6629 24.3798 23.9789Z" fill="white"/>
<path d="M36.368 16.7129V19.5059H31.979V31.2659H28.703V19.5059H24.314V16.7129H36.368Z" fill="white"/>
</svg>
