<svg fill="none" height="80" viewBox="0 0 128 80" width="128" xmlns="http://www.w3.org/2000/svg"><g fill="#4d4d4d"><path d="m28.659 47.6735c-.7527 0-1.5085-.0218-2.2518-.0718-.7839-.0531-1.5647-.1624-2.333-.3248v-13.3359c.6309-.1218 1.3336-.203 2.0894-.2654.7527-.0625 1.4554-.0906 2.1081-.0906.8776 0 1.6803.0625 2.4142.1936.734.1218 1.3648.3373 1.8958.6403.5309.3061.9463.7027 1.243 1.2024s.4497 1.1118.4497 1.8333c0 1.0993-.5309 1.9645-1.5897 2.5985.8776.3248 1.4679.7839 1.7834 1.346.3154.5716.4778 1.2118.4778 1.9239 0 1.446-.5309 2.5266-1.5803 3.2512-1.0681.7433-2.6235 1.0993-4.7066 1.0993zm-1.5678-8.5262h1.5085c.9588 0 1.6302-.1218 2.0487-.3654.4061-.2436.6122-.6402.6122-1.1805 0-.5591-.2124-.9463-.6309-1.1712-.4279-.2249-1.0494-.3373-1.8645-.3373-.2655 0-.5497 0-.8558.0094-.306.0093-.5715.0218-.8151.0499-.0031 0-.0031 2.9951-.0031 2.9951zm0 2.3643v3.5541c.2248.0312.4685.05.7339.0625.2655.0125.5591.0218.8776.0218.9276 0 1.6709-.1311 2.2424-.3966.5716-.2655.8558-.7527.8558-1.4679 0-.6309-.2342-1.09-.7121-1.3554-.4778-.2749-1.1618-.406-2.0488-.406h-1.9457v-.0125z"/><path d="m39.3558 34.0441c0 .5403-.1718.9682-.5309 1.2836-.3467.3155-.7652.4685-1.2431.4685-.4591.0062-.9025-.1593-1.243-.4685-.3466-.3154-.5309-.7339-.5309-1.2836 0-.5403.1718-.9682.5309-1.2836.3405-.3061.7839-.4747 1.243-.4685.4591-.0062.9026.1593 1.2431.4685.356.3154.5309.7433.5309 1.2836zm-.2842 13.4577h-2.9545v-10.4439h2.9545z"/><path d="m40.6613 34.4595 2.9545-.4779v3.0763h3.5541v2.4642h-3.5541v3.6666c0 .6215.1124 1.1212.3248 1.4866.2123.3654.6621.559 1.3242.559.3279-.0031.6559-.0312.9775-.0905.3155-.0562.6247-.1374.9276-.2436l.4185 2.3017c-.3873.1562-.787.2842-1.193.3779-.4373.1031-.9682.1624-1.6085.1624-.8057 0-1.4772-.1124-2.0081-.3248-.531-.2123-.9588-.5184-1.2743-.9182-.3154-.3872-.5403-.8651-.6621-1.4148-.1312-.6059-.1967-1.2242-.1936-1.8426v-8.7823z"/><path d="m47.5915 42.283c-.0062-.7246.1187-1.446.3654-2.13.2311-.6465.5903-1.2399 1.0588-1.7427.4591-.4997 1.0275-.887 1.6896-1.1806.6621-.2967 1.4148-.4372 2.2612-.4372.559 0 1.0681.0499 1.5272.153.4622.1.9119.2436 1.3461.4279l-.6122 2.3642c-.2998-.1093-.6059-.203-.9182-.2748-.3654-.0844-.737-.125-1.1118-.1218-.8776 0-1.5272.2748-1.9551.8151s-.6403 1.2524-.6403 2.1394c0 .9369.203 1.6708.5997 2.1799.406.5185 1.1118.7746 2.1081.7746.3873 0 .7714-.0344 1.1525-.1031.3872-.0593.7682-.1655 1.1305-.3154l.4185 2.4235c-.4185.1687-.8495.2936-1.293.3779-.5652.1093-1.1368.1656-1.7114.1624-.9588 0-1.774-.1436-2.4642-.4278-.6933-.2842-1.2524-.6715-1.7021-1.1619-.4498-.4903-.7652-1.0681-.9682-1.7333-.1874-.7152-.2811-1.4491-.2811-2.1893z"/><path d="m66.1899 42.2642c0 .8245-.1218 1.5679-.3561 2.2518-.2342.684-.5809 1.2618-1.0275 1.7427-.456.4841-1.0088.8652-1.6209 1.1213-.634.2654-1.3336.3966-2.1081.3966-.7652 0-1.4679-.1312-2.0988-.3966-.6152-.253-1.1649-.6372-1.6209-1.1213-.4497-.4778-.8058-1.0681-1.0494-1.7427-.2561-.6839-.3779-1.4366-.3779-2.2518 0-.8245.1312-1.5678.3873-2.2424.2561-.6715.6121-1.2524 1.0681-1.7208.4622-.4779 1.015-.8589 1.6303-1.1119.6309-.2655 1.3148-.3966 2.0582-.3966.7526 0 1.446.1311 2.0768.3966.6309.2655 1.1712.6309 1.621 1.1119.4622.4965.8213 1.0806 1.0493 1.7208.2374.6746.3686 1.4179.3686 2.2424zm-3.0139 0c0-.9182-.1842-1.6302-.5496-2.1487-.3654-.5184-.887-.7839-1.5585-.7839s-1.2024.2655-1.5678.7839c-.3654.5185-.5591 1.243-.5591 2.1487 0 .9182.1843 1.6397.5591 2.1706.3654.5403.8963.8058 1.5678.8058s1.193-.2655 1.5585-.8058c.3654-.5403.5496-1.2649.5496-2.1706z"/><path d="m70.6154 34.0441c0 .5403-.1718.9682-.5309 1.2836-.3467.3155-.7652.4685-1.2431.4685-.4591.0062-.9025-.1593-1.243-.4685-.3466-.3154-.5309-.7339-.5309-1.2836 0-.5403.1718-.9682.5309-1.2836.3405-.3061.7839-.4747 1.243-.4685.4591-.0062.9026.1593 1.2431.4685.356.3154.5309.7433.5309 1.2836zm-.2748 13.4577h-2.9545v-10.4439h2.9545z"/><path d="m72.0208 37.414c.4997-.1437 1.1524-.2842 1.9457-.406.8245-.1281 1.6584-.1937 2.4954-.1937.887 0 1.6209.1125 2.2112.3467s1.0588.5591 1.3961.9776c.3466.4278.5902.9275.7339 1.5084s.2124 1.2337.2124 1.9458v5.8996h-2.9545v-5.5436c0-.9588-.1218-1.6303-.3779-2.0269-.2561-.3967-.7246-.5903-1.4054-.5903-.2124 0-.4373.0094-.6715.0312-.2343.0219-.4498.0406-.6309.0719v8.0577h-2.9545z"/></g><path d="m89.0951 47.7766c-2.2425 0-3.9415-.6215-5.1126-1.8645-1.1712-1.243-1.7521-3.0045-1.7521-5.2969 0-1.1399.1842-2.1487.5403-3.0451.356-.8963.8464-1.649 1.4679-2.2611.6308-.6184 1.3898-1.0962 2.2205-1.3961.8558-.3154 1.7927-.4778 2.8015-.4778.5809 0 1.1118.0406 1.5897.1312.4247.0687.8432.1686 1.2524.2967.306.0937.6058.2092.8963.3466.2342.1218.406.2124.5184.2749l-.8963 2.4954c-.4716-.2436-.965-.4342-1.4772-.5716-.5591-.1624-1.2025-.2342-1.9145-.2342-.4748 0-.9464.0812-1.3961.2342-.456.1624-.8682.4248-1.2118.7652-.3466.3467-.6308.8058-.8463 1.3554-.2124.5591-.3155 1.2337-.3155 2.027-.0031.5965.0656 1.193.203 1.7739.1437.5497.3654 1.0182.6715 1.4148.3248.4091.7433.7339 1.2211.9463.4997.2343 1.1119.3467 1.824.3467.406 0 .8088-.025 1.2117-.0812.3248-.0437.6434-.1062.9589-.1937.2498-.0624.4965-.1436.7339-.2436.2124-.0905.406-.1842.5715-.2561l.8558 2.4861c-.4373.2654-1.0494.4997-1.8427.712-.8089.2124-1.7333.3155-2.7733.3155z" fill="#0ac18e"/><path d="m98.3458 36.7831c.8776 0 1.5991.1031 2.1802.2967.581.1936 1.049.4779 1.396.8558.356.381.609.8432.743 1.346.144.531.213 1.1212.213 1.7615v6.1526c-.428.0906-1.009.203-1.762.3248s-1.6708.1936-2.7389.1936c-.6715 0-1.2837-.0624-1.8333-.1842-.5497-.1218-1.0182-.3155-1.4148-.5809-.3935-.2686-.709-.6309-.9182-1.0588-.2124-.4372-.3155-.9682-.3155-1.6084 0-.6121.1218-1.1212.3654-1.5491.2312-.4154.5685-.762.9776-1.0088.406-.2561.8776-.4372 1.4054-.5496.5434-.1156 1.0962-.1718 1.649-.1718.3873 0 .7246.0218 1.0182.05.2967.0312.5403.0718.7241.1311v-.2748c0-.4997-.1526-.9057-.4586-1.2118-.3061-.3061-.8339-.4591-1.5897-.4591-.4966 0-.9932.0375-1.4866.1124-.4904.0719-.9183.1718-1.2743.3061l-.3779-2.383c.1718-.0499.3873-.1124.6402-.1717.2561-.0625.5404-.1125.8464-.1624.3061-.05.6215-.0812.9588-.1218.3592-.0125.7058-.0344 1.0525-.0344zm.2343 8.648c.2967 0 .5715-.0094.8338-.0219.2124-.0031.4217-.0249.6311-.0624v-2.2424c-.122-.0313-.2969-.05-.5405-.0812-.2155-.0281-.4341-.0406-.6527-.0406-.2624.0031-.5247.0187-.7839.0499-.2437.0313-.4591.0906-.6403.1937-.178.0843-.3279.2155-.4372.3779-.1093.178-.1656.381-.1624.5902 0 .4591.153.784.4684.9589.3155.1967.7433.2779 1.2837.2779z" fill="#0ac18e"/><path d="m107.472 45.3811c.54 0 .927-.0499 1.152-.1624.225-.103.337-.3154.337-.6121 0-.2342-.143-.4497-.437-.6215-.297-.1843-.734-.3779-1.333-.5997-.46-.1717-.887-.3466-1.262-.5403-.378-.1842-.703-.406-.959-.6621-.269-.2623-.475-.5777-.612-.9275-.144-.3561-.212-.784-.212-1.293 0-.9776.365-1.7521 1.089-2.3236.725-.5716 1.721-.8558 2.996-.8558.612 0 1.221.0594 1.824.1718.58.1124 1.049.2342 1.386.3654l-.518 2.3018c-.369-.1281-.74-.2343-1.121-.3155-.447-.0968-.9-.1468-1.356-.1436-.927 0-1.387.256-1.387.7745-.003.1093.019.2155.063.3154.053.1062.134.1999.234.2655.156.1062.319.1968.49.2748.253.125.516.2311.784.3248.653.2436 1.181.4779 1.609.7121.428.2343.752.4904.999.7527.234.2592.412.5622.519.8963.103.3248.153.7121.153 1.1525 0 1.0275-.388 1.8145-1.162 2.333-.775.5309-1.865.7933-3.279.7933-.928 0-1.703-.0812-2.312-.2343-.612-.1624-1.04-.2967-1.283-.3966l.5-2.4048c.502.1967 1.021.3529 1.549.4684.506.1281 1.027.1905 1.549.1905z" fill="#0ac18e"/><path d="m113.006 47.5018v-14.9256l2.954-.4778v5.0033c.25-.0781.506-.1437.766-.1937.296-.0593.602-.0905.905-.0905.847 0 1.549.1124 2.108.3466.559.2343 1.009.5591 1.346.9776.338.4279.572.9276.713 1.5085.143.5809.203 1.2336.203 1.9457v5.8996h-2.955v-5.5467c0-.9588-.122-1.6303-.365-2.0269-.244-.3967-.703-.5903-1.356-.5903-.25-.0031-.5.0219-.743.0718-.234.05-.437.0906-.622.1531v7.9359h-2.954z" fill="#0ac18e"/><path d="m13.7923 47.9017c4.3035 0 7.7922-3.4888 7.7922-7.7923s-3.4887-7.7923-7.7922-7.7923c-4.30359 0-7.7923 3.4888-7.7923 7.7923s3.48871 7.7923 7.7923 7.7923z" fill="#0ac18e"/><path d="m16.2157 37.5013c-.3904-.887-1.2867-1.0713-2.386-.8901l-.353-1.3649-.8338.2155.3466 1.3649c-.2186.0562-.4435.103-.6652.1655l-.3498-1.3555-.8339.2155.3529 1.368c-.178.0499-1.67709.4372-1.67709.4372l.23109.8901s.6122-.1718.6059-.1562c.3373-.0874.4966.0813.5747.2405l.9681 3.7478c.0125.1093-.0062.2967-.2404.356.0125.0063-.6059.1562-.6059.1562l.0905 1.0369s1.4835-.381 1.6803-.4279l.3592 1.3836.8307-.2155-.356-1.3929c.2311-.0531.4497-.1094.6683-.1656l.3561 1.3867.8339-.2155-.3561-1.3804c1.2805-.3123 2.1862-1.1181 1.9988-2.3549-.1187-.7433-.9307-1.3554-1.6084-1.4241.4154-.3779.6278-.9151.3685-1.6209zm-.3997 3.2605c.1655 1.2243-1.5335 1.3742-2.0988 1.521l-.4903-1.8302c.5684-.1468 2.3111-.7683 2.5891.3092zm-1.0244-2.4891c.1749 1.0868-1.2774 1.2149-1.749 1.3367l-.4466-1.6615c.4716-.1218 1.8395-.684 2.1956.3248z" fill="#fff"/></svg>