<svg width="21" height="68" viewBox="0 0 21 68" fill="none" xmlns="http://www.w3.org/2000/svg">
<path d="M5.27049 61.5776L5.27034 61.5784C4.84526 63.617 3.90947 65.1628 3.08138 66.1934C2.72361 66.6387 2.38706 66.9864 2.12271 67.2346C2.06426 65.767 2.01609 62.4484 2.61452 59.5871C3.01642 57.7242 3.66987 56.2736 4.22292 55.2855C4.44386 54.8908 4.6487 54.57 4.81495 54.3264C4.94466 54.7467 5.10842 55.3463 5.24654 56.0711C5.52855 57.551 5.7004 59.5361 5.27049 61.5776Z" stroke="white" stroke-opacity="0.88" stroke-width="0.75"/>
<path d="M15.1613 56.2693C15.7496 56.0811 16.2513 55.9529 16.6101 55.8711C16.6027 55.894 16.5949 55.9175 16.5869 55.9415C16.4472 56.3593 16.226 56.9455 15.9061 57.6034C15.264 58.9242 14.2379 60.5064 12.7035 61.6075L12.7029 61.608C11.1831 62.7035 9.55145 63.0195 8.29366 63.0591C7.66539 63.0788 7.13443 63.0294 6.76416 62.9754C6.74057 62.972 6.71765 62.9685 6.69541 62.965C7.27407 62.0212 8.76713 59.8189 10.9654 58.279C12.3997 57.2881 13.956 56.6549 15.1613 56.2693Z" stroke="white" stroke-opacity="0.88" stroke-width="0.75"/>
<path d="M11.1875 50.6929L11.1876 50.6935C11.2469 52.7208 10.7409 54.434 10.2203 55.6359C10.009 56.1238 9.79584 56.5259 9.61864 56.8285C9.4944 56.3853 9.33198 55.7728 9.1665 55.0528C8.82018 53.5458 8.4637 51.5815 8.4105 49.7145C8.36832 47.8579 8.64694 46.2951 8.93569 45.1933C9.04721 44.7678 9.16014 44.4114 9.25648 44.1338C9.45779 44.4835 9.71556 44.9688 9.97689 45.5623C10.5486 46.8608 11.1316 48.6643 11.1875 50.6929Z" stroke="white" stroke-opacity="0.88" stroke-width="0.75"/>
<path d="M15.6854 45.8999L15.8899 45.6381C17.4363 43.7716 19.288 42.4965 20.2051 41.928C20.1685 42.3655 20.0937 42.9865 19.945 43.7048C19.6463 45.1472 19.0548 46.9547 17.8982 48.4588L17.8978 48.4593C16.75 49.9565 15.3403 50.7502 14.2167 51.1693C13.6618 51.3763 13.1788 51.4911 12.8354 51.5537C13.1696 50.4655 14.0428 48.0027 15.6854 45.8999Z" stroke="white" stroke-opacity="0.88" stroke-width="0.75"/>
<path d="M11.0362 34.178C11.0457 33.7346 11.0713 33.3564 11.0989 33.0588C11.3479 33.3261 11.6646 33.691 12.0045 34.1452C12.7967 35.2038 13.7084 36.7382 14.1905 38.6437L14.3009 39.0801C14.6678 40.8173 14.5744 42.4192 14.3761 43.6142C14.2909 44.1282 14.1865 44.565 14.0921 44.9024C13.435 43.6972 12.1756 41.2015 11.528 38.6535C11.0945 36.9054 11.0115 35.3254 11.0362 34.178Z" stroke="white" stroke-opacity="0.88" stroke-width="0.75"/>
<path d="M17.3025 32.7312C18.2811 30.3721 19.7221 28.4762 20.4735 27.5769C20.5327 28.001 20.594 28.5822 20.6156 29.2628C20.6625 30.7363 20.5231 32.6528 19.7962 34.4496L19.7959 34.4505C19.0786 36.2376 17.9668 37.4327 17.0368 38.1799C16.615 38.5187 16.2315 38.7646 15.9411 38.9308C15.9663 38.5487 16.0129 38.0125 16.1006 37.3763C16.2789 36.0819 16.6255 34.3843 17.2998 32.7307L17.3025 32.7312Z" stroke="white" stroke-opacity="0.88" stroke-width="0.75"/>
<path d="M11.3504 22.5062C12.2352 23.2324 13.3063 24.3242 14.1422 25.8319L14.315 26.1704C15.1757 27.8568 15.4815 29.5894 15.5694 30.9012C15.6043 31.4209 15.6048 31.8721 15.5926 32.2251C15.338 31.9408 15.014 31.5668 14.6547 31.123C13.8009 30.0683 12.7569 28.6308 11.9693 27.076C11.1943 25.5246 10.7651 24.0177 10.5281 22.8927C10.4339 22.4454 10.3703 22.0594 10.3274 21.7562C10.6061 21.9368 10.9595 22.1853 11.3504 22.5062Z" stroke="white" stroke-opacity="0.88" stroke-width="0.75"/>
<path d="M15.8142 19.5437L15.8655 19.1241C16.2224 16.7553 16.9724 14.6953 17.4096 13.6322C17.5599 14.0182 17.7413 14.5338 17.9116 15.1438C18.306 16.5568 18.6353 18.4566 18.3946 20.418L18.3945 20.4186C18.1578 22.3725 17.4253 23.8734 16.7542 24.8839C16.4719 25.3087 16.2011 25.6461 15.9836 25.893C15.7923 24.7117 15.489 22.2 15.8142 19.5437Z" stroke="white" stroke-opacity="0.88" stroke-width="0.75"/>
<path d="M7.94689 11.3488C8.96673 11.817 10.2688 12.6129 11.4291 13.9305V13.9363L11.5195 14.0416C12.705 15.4242 13.3918 17.0142 13.7792 18.2619C13.9349 18.7636 14.0414 19.2072 14.1123 19.5556C13.824 19.3613 13.4611 19.1069 13.0541 18.7999C12.0428 18.0371 10.7687 16.9568 9.69007 15.674C8.62308 14.3922 7.85978 13.0422 7.35916 12.0063C7.15608 11.586 6.99675 11.2185 6.87826 10.9295C7.16799 11.0237 7.53378 11.1592 7.94689 11.3488Z" stroke="white" stroke-opacity="0.88" stroke-width="0.75"/>
<path d="M11.23 7.16113L11.1817 6.84228H11.1787C10.8589 4.40289 10.9576 2.17355 11.0549 0.958896C11.2907 1.28416 11.58 1.71226 11.8821 2.22481C12.6256 3.48646 13.4365 5.24371 13.7264 7.22856L13.7266 7.22994C14.0233 9.20963 13.7423 10.8967 13.3891 12.0859C13.2499 12.5546 13.0997 12.9451 12.9699 13.2446C12.8296 12.9098 12.6541 12.469 12.4662 11.9453C12.0216 10.7066 11.5101 9.0109 11.23 7.16113Z" stroke="white" stroke-opacity="0.88" stroke-width="0.75"/>
<path d="M5.81446 3.00448L5.81515 3.00495C7.27646 4.01698 8.32754 5.37133 9.01194 6.47896C9.2926 6.93317 9.50983 7.34304 9.66698 7.66626C9.36357 7.56233 8.98407 7.42394 8.55418 7.24951C7.44464 6.79933 6.00972 6.1133 4.68236 5.16724C3.36502 4.21343 2.27755 3.10078 1.51403 2.22031C1.19611 1.8537 0.93535 1.52851 0.738529 1.27346C1.02614 1.28542 1.39038 1.31603 1.80974 1.38419C2.90119 1.56158 4.35964 1.99213 5.81446 3.00448Z" stroke="white" stroke-opacity="0.88" stroke-width="0.75"/>
</svg>
