<svg fill="none" height="80" viewBox="0 0 128 80" width="128" xmlns="http://www.w3.org/2000/svg"><g fill="#303992"><path d="m16.7233 45.4985-10.7233.6717c.31515 3.6823 1.66697 6.7177 4.0555 9.1062 2.3884 2.3885 6.6844 3.5827 12.8878 3.5827 3.533 0 6.4606-.5059 8.7827-1.5177 2.3222-1.0284 4.1301-2.5295 5.4239-4.5033s1.9406-4.1301 1.9406-6.4688c0-1.9904-.4893-3.7901-1.4679-5.399-.962-1.6089-2.5129-2.9524-4.6526-4.0306-2.1231-1.0947-5.6478-2.1728-10.574-3.2344-1.9904-.4146-3.251-.8625-3.7818-1.3435-.5474-.4644-.821-.9869-.821-1.5675 0-.7961.3317-1.4679.9952-2.0152.6634-.564 1.6504-.846 2.9607-.846 1.5923 0 2.8363.3732 3.732 1.1196.9123.7464 1.5094 1.9407 1.7914 3.5828l10.6238-.622c-.4644-3.7818-1.9241-6.5352-4.3789-8.2602-2.4383-1.7416-5.9878-2.6124-10.6487-2.6124-3.7984 0-6.7923.481-8.9817 1.443-2.1729.9455-3.8067 2.2558-4.90139 3.9311-1.07814 1.6586-1.6172 3.4251-1.6172 5.2994 0 2.853 1.06155 5.2 3.18469 7.0411 2.1065 1.8411 5.6312 3.3173 10.574 4.4287 3.0188.6634 4.9429 1.3684 5.7722 2.1148s1.244 1.5923 1.244 2.5377c0 .9952-.4396 1.8743-1.3187 2.6373-.8625.7464-2.0982 1.1196-3.7071 1.1196-2.1563 0-3.8149-.7381-4.976-2.2143-.7132-.9123-1.186-2.2392-1.4182-3.9808z"/><path clip-rule="evenodd" d="m60.6759 21.7629h-18.7348v36.4742h11.3205v-13.5348h6.1703c4.5447 0 7.9201-1.0366 10.1262-3.11 2.2226-2.0733 3.3339-4.9511 3.3339-8.6334 0-3.5827-1.0201-6.3444-3.0603-8.2851-2.0236-1.9406-5.0755-2.9109-9.1558-2.9109zm-4.6526 15.55h-2.7617v-8.1358h3.2095c2.1065 0 3.5413.3981 4.3043 1.1943.763.7961 1.1445 1.7665 1.1445 2.911 0 1.1776-.4396 2.1479-1.3187 2.9109-.8791.7464-2.4051 1.1196-4.5779 1.1196z" fill-rule="evenodd"/><path d="m122 21.7629h-11.296v10.997h4.777v-7.9617l6.519 7.5215z"/><path d="m122 41.1617-6.519 7.5214v-7.9616h-4.777v17.5156h11.296z"/></g><path d="m75.7012 21.7627h30.2048v8.8364h-18.9093v4.7481h17.5403v7.0895h-17.5403v8.2393h19.4563v7.5609h-30.7518z" fill="#f6861e"/></svg>