<svg width="84" height="28" viewBox="0 0 84 28" fill="none" xmlns="http://www.w3.org/2000/svg">
<path d="M3.33926 5.92027V4.89967H1.22942V3.39668H3.19252V2.38405H1.22942V1.10432H3.33926V0.0916943H0V5.92027H3.33926ZM5.1358 5.92027L6.48419 3.71561L7.83258 5.92027H9.2365L7.27736 2.98206L9.09769 0.0916943H7.77309L6.54764 2.1887L5.2984 0.0916943H3.94207L5.74257 2.91429L3.81913 5.92027H5.1358ZM11.1956 5.92027V3.84718H11.7231C12.4422 3.84718 12.9968 3.68106 13.3868 3.34884C13.7768 3.01661 13.9717 2.53688 13.9717 1.90963C13.9717 1.30631 13.7886 0.852492 13.4225 0.548173C13.0563 0.243854 12.5216 0.0916943 11.8183 0.0916943H9.96622V5.92027H11.1956ZM11.6001 2.83455H11.1956V1.10432H11.7548C12.0906 1.10432 12.3371 1.17342 12.4945 1.31163C12.6518 1.44983 12.7304 1.66379 12.7304 1.95349C12.7304 2.24053 12.6366 2.45914 12.4488 2.6093C12.2611 2.75947 11.9782 2.83455 11.6001 2.83455ZM18.6475 5.92027V4.89967H16.2957V0.0916943H15.0663V5.92027H18.6475ZM22.1573 6C23.0456 6 23.7278 5.74086 24.2037 5.22259C24.6796 4.70432 24.9175 3.96279 24.9175 2.99801C24.9175 2.03056 24.6816 1.28904 24.2096 0.773422C23.7377 0.257807 23.0562 0 22.1652 0C21.2742 0 20.5901 0.255814 20.1129 0.767442C19.6357 1.27907 19.397 2.01993 19.397 2.99003C19.397 3.96013 19.635 4.70432 20.1109 5.22259C20.5868 5.74086 21.2689 6 22.1573 6ZM22.1573 4.96346C21.6682 4.96346 21.3007 4.79867 21.0548 4.4691C20.8089 4.13954 20.6859 3.64917 20.6859 2.99801C20.6859 2.34684 20.8102 1.85581 21.0587 1.52492C21.3073 1.19402 21.6761 1.02857 22.1652 1.02857C23.1408 1.02857 23.6286 1.68505 23.6286 2.99801C23.6286 4.30831 23.1382 4.96346 22.1573 4.96346ZM27.3486 5.92027V3.68372H28.003L29.387 5.92027H30.7513C30.4869 5.53754 29.9185 4.69103 29.046 3.38073C29.3897 3.22924 29.6554 3.01993 29.8431 2.75282C30.0308 2.48571 30.1247 2.18073 30.1247 1.83787C30.1247 1.2505 29.9357 0.812624 29.5576 0.524252C29.1795 0.23588 28.5965 0.0916943 27.8086 0.0916943H26.1192V5.92027H27.3486ZM27.7452 2.67907H27.3486V1.10432H27.7214C28.118 1.10432 28.4108 1.16279 28.5998 1.27973C28.7889 1.39668 28.8834 1.59336 28.8834 1.86977C28.8834 2.14884 28.7908 2.35349 28.6058 2.48372C28.4207 2.61395 28.1338 2.67907 27.7452 2.67907ZM34.8203 5.92027V4.89967H32.7104V3.39668H34.6735V2.38405H32.7104V1.10432H34.8203V0.0916943H31.481V5.92027H34.8203ZM39.3691 5.92027V0.0916943H38.1397V5.92027H39.3691ZM43.0653 5.92027V1.12027H44.6398V0.0916943H40.2614V1.12027H41.8359V5.92027H43.0653ZM50.1444 6C51.0327 6 51.7149 5.74086 52.1908 5.22259C52.6667 4.70432 52.9046 3.96279 52.9046 2.99801C52.9046 2.03056 52.6686 1.28904 52.1967 0.773422C51.7248 0.257807 51.0433 0 50.1523 0C49.2613 0 48.5772 0.255814 48.1 0.767442C47.6227 1.27907 47.3841 2.01993 47.3841 2.99003C47.3841 3.96013 47.6221 4.70432 48.098 5.22259C48.5739 5.74086 49.256 6 50.1444 6ZM50.1444 4.96346C49.6553 4.96346 49.2878 4.79867 49.0419 4.4691C48.796 4.13954 48.673 3.64917 48.673 2.99801C48.673 2.34684 48.7973 1.85581 49.0458 1.52492C49.2944 1.19402 49.6632 1.02857 50.1523 1.02857C51.1279 1.02857 51.6157 1.68505 51.6157 2.99801C51.6157 4.30831 51.1253 4.96346 50.1444 4.96346ZM55.2048 5.92027V3.17741C55.2048 2.84518 55.1797 2.2897 55.1295 1.51096H55.1652L57.6874 5.92027H59.25V0.0916943H58.1435L58.1437 2.89681C58.1455 3.21563 58.1652 3.73574 58.203 4.45714H58.1753L55.6569 0.0916943H54.1063V5.92027H55.2048Z" fill="black" fill-opacity="0.8"/>
<path d="M2.30951 24.401L3.34209 21.4723H7.70888L8.75723 24.401H11.2086L6.68418 12.8379H4.42985L0 24.401H2.30951ZM7.07042 19.6848H3.97267L5.06043 16.6204C5.23384 16.1097 5.38361 15.6203 5.50972 15.1521C5.66211 15.716 5.81713 16.2081 5.97478 16.6284L7.07042 19.6848ZM12.1219 28L14.392 27.8324V24.3132C14.9595 24.4888 15.4877 24.5766 15.9764 24.5766C16.7803 24.5766 17.495 24.393 18.1203 24.0259C18.7457 23.6589 19.2357 23.1135 19.5904 22.39C19.9451 21.6665 20.1224 20.7914 20.1224 19.7646C20.1224 18.8123 19.974 18.0249 19.6771 17.4025C19.3802 16.78 18.9913 16.3239 18.5105 16.0339C18.0297 15.744 17.5029 15.599 16.9301 15.599C16.4099 15.599 15.9369 15.7147 15.5113 15.9461C15.0857 16.1776 14.7047 16.4901 14.3684 16.8838C14.3421 16.4529 14.2922 16.0805 14.2186 15.7666H12.0589C12.1009 16.5327 12.1219 17.2429 12.1219 17.8973V28ZM15.6847 22.8928C15.4535 22.8928 15.221 22.8675 14.9871 22.817C14.7533 22.7664 14.5549 22.7012 14.392 22.6214V18.3202C14.6758 18.0329 14.9609 17.8081 15.2472 17.6459C15.5336 17.4836 15.845 17.4025 16.1813 17.4025C16.6753 17.4025 17.0707 17.5993 17.3676 17.993C17.6645 18.3867 17.8129 19.0251 17.8129 19.9082C17.8129 20.8871 17.6277 21.6293 17.2572 22.1347C16.8868 22.6401 16.3626 22.8928 15.6847 22.8928ZM21.6742 28L23.9443 27.8324V24.3132C24.5118 24.4888 25.0399 24.5766 25.5286 24.5766C26.3326 24.5766 27.0473 24.393 27.6726 24.0259C28.298 23.6589 28.788 23.1135 29.1427 22.39C29.4974 21.6665 29.6747 20.7914 29.6747 19.7646C29.6747 18.8123 29.5263 18.0249 29.2294 17.4025C28.9325 16.78 28.5436 16.3239 28.0628 16.0339C27.582 15.744 27.0552 15.599 26.4824 15.599C25.9622 15.599 25.4892 15.7147 25.0636 15.9461C24.6379 16.1776 24.257 16.4901 23.9207 16.8838C23.8944 16.4529 23.8445 16.0805 23.7709 15.7666H21.6111C21.6532 16.5327 21.6742 17.2429 21.6742 17.8973V28ZM25.237 22.8928C25.0058 22.8928 24.7733 22.8675 24.5394 22.817C24.3056 22.7664 24.1072 22.7012 23.9443 22.6214V18.3202C24.2281 18.0329 24.5131 17.8081 24.7995 17.6459C25.0859 17.4836 25.3973 17.4025 25.7336 17.4025C26.2275 17.4025 26.623 17.5993 26.9199 17.993C27.2168 18.3867 27.3652 19.0251 27.3652 19.9082C27.3652 20.8871 27.18 21.6293 26.8095 22.1347C26.439 22.6401 25.9149 22.8928 25.237 22.8928ZM36.413 24.5606C37.1382 24.5606 37.8647 24.4781 38.5925 24.3132C39.3203 24.1483 40.0152 23.9116 40.6774 23.603V18.5835H35.9795V20.3072H38.4861V22.4379C37.866 22.656 37.2091 22.7651 36.5155 22.7651C35.7273 22.7651 35.0783 22.5895 34.5686 22.2384C34.0589 21.8873 33.6845 21.4071 33.4454 20.798C33.2063 20.1889 33.0867 19.4906 33.0867 18.7032C33.0867 17.8042 33.2417 17.0394 33.5518 16.409C33.8618 15.7786 34.2993 15.3011 34.8642 14.9766C35.4291 14.652 36.0925 14.4898 36.8544 14.4898C37.7951 14.4898 38.7725 14.7345 39.7867 15.2239L40.3069 13.4843C39.1824 12.9523 37.9921 12.6863 36.7362 12.6863C35.6117 12.6863 34.5962 12.9111 33.6897 13.3606C32.7832 13.8101 32.0633 14.4871 31.53 15.3915C30.9966 16.2959 30.7299 17.4052 30.7299 18.7192C30.7299 19.9268 30.9624 20.9696 31.4275 21.8474C31.8925 22.7252 32.552 23.3968 33.4059 23.8623C34.2599 24.3278 35.2622 24.5606 36.413 24.5606ZM44.7593 24.5606C45.3479 24.5606 45.8734 24.4382 46.3358 24.1935C46.7982 23.9488 47.1766 23.6509 47.4708 23.2998C47.4866 23.6881 47.5339 24.0552 47.6127 24.401H49.7567C49.7147 23.6775 49.6936 23.1375 49.6936 22.781V19.3257C49.6936 17.9638 49.3731 17.0022 48.732 16.4409C48.0909 15.8796 47.1818 15.599 46.0047 15.599C45.3531 15.599 44.7344 15.6642 44.1485 15.7945C43.5625 15.9249 43.0883 16.0725 42.7257 16.2374L43.0568 17.8813C43.4246 17.7111 43.8489 17.5648 44.3297 17.4424C44.8106 17.32 45.2585 17.2589 45.6737 17.2589C46.2412 17.2589 46.6774 17.3998 46.9821 17.6818C47.2869 17.9638 47.4393 18.4426 47.4393 19.1182V19.2618C46.9559 19.1927 46.4619 19.1581 45.9574 19.1581C43.3615 19.1581 42.0636 20.0731 42.0636 21.9032C42.0636 22.4831 42.1858 22.9726 42.4301 23.3716C42.6745 23.7706 43.0003 24.0685 43.4075 24.2653C43.8148 24.4622 44.2654 24.5606 44.7593 24.5606ZM45.4766 22.8848C45.1298 22.8848 44.8565 22.793 44.6569 22.6095C44.4572 22.4259 44.3573 22.1453 44.3573 21.7676C44.3573 21.3739 44.494 21.06 44.7672 20.8259C45.0405 20.5919 45.5344 20.4748 46.2491 20.4748C46.5591 20.4748 46.9559 20.5014 47.4393 20.5546V21.983C47.1976 22.2437 46.8954 22.4592 46.5328 22.6294C46.1703 22.7997 45.8182 22.8848 45.4766 22.8848ZM53.8229 24.5606C54.1067 24.5606 54.4049 24.534 54.7176 24.4808C55.0302 24.4276 55.2917 24.3558 55.5018 24.2653L55.2417 22.6534C55.0315 22.7225 54.845 22.7571 54.6821 22.7571C54.4351 22.7571 54.2472 22.6866 54.1185 22.5456C53.9898 22.4047 53.9254 22.1613 53.9254 21.8155V12L51.6632 12.1596V22.2304C51.6632 23.0337 51.8458 23.6229 52.211 23.998C52.5762 24.3731 53.1135 24.5606 53.8229 24.5606ZM58.6931 24.5606C58.9769 24.5606 59.2751 24.534 59.5878 24.4808C59.9004 24.4276 60.1619 24.3558 60.372 24.2653L60.1119 22.6534C59.9017 22.7225 59.7152 22.7571 59.5523 22.7571C59.3053 22.7571 59.1175 22.6866 58.9887 22.5456C58.86 22.4047 58.7956 22.1613 58.7956 21.8155V12L56.5334 12.1596V22.2304C56.5334 23.0337 56.716 23.6229 57.0812 23.998C57.4464 24.3731 57.9837 24.5606 58.6931 24.5606ZM65.195 24.5606C66.4193 24.5606 67.5307 24.3212 68.5292 23.8424L68.0405 22.2943C67.6463 22.4592 67.2378 22.5895 66.8148 22.6853C66.3918 22.781 65.9806 22.8289 65.5812 22.8289C64.8718 22.8289 64.3135 22.6427 63.9062 22.2703C63.499 21.8979 63.2612 21.2968 63.1929 20.4668H68.6947V19.9561C68.6947 19.1528 68.5594 18.4213 68.2888 17.7616C68.0181 17.1019 67.603 16.5766 67.0434 16.1855C66.4837 15.7945 65.7861 15.599 64.9506 15.599C64.1519 15.599 63.4464 15.7812 62.8342 16.1456C62.222 16.5101 61.7451 17.0394 61.4036 17.7337C61.062 18.4279 60.8912 19.2539 60.8912 20.2115C60.8912 21.5947 61.2551 22.6653 61.9829 23.4234C62.7107 24.1815 63.7814 24.5606 65.195 24.5606ZM66.5034 19.0703H63.2323C63.3269 18.4479 63.5213 17.9824 63.8156 17.6738C64.1098 17.3653 64.4829 17.211 64.9348 17.211C65.3973 17.211 65.7664 17.3666 66.0423 17.6778C66.3182 17.989 66.4719 18.4532 66.5034 19.0703ZM72.5008 24.401V18.9905C72.8739 18.4851 73.2273 18.1247 73.561 17.9092C73.8946 17.6938 74.2848 17.586 74.7315 17.586C74.9574 17.586 75.1676 17.6126 75.3621 17.6658L75.6458 15.7027C75.4146 15.6336 75.1571 15.599 74.8734 15.599C74.5003 15.599 74.1705 15.6801 73.8841 15.8424C73.5977 16.0047 73.3468 16.2148 73.1314 16.4728C72.9159 16.7308 72.6952 17.0514 72.4693 17.4344C72.4588 17.2269 72.439 16.9556 72.4101 16.6204C72.3812 16.2853 72.351 16.0007 72.3195 15.7666H70.1755C70.2176 16.7242 70.2386 17.4424 70.2386 17.9212V24.401H72.5008ZM76.8981 28C77.5864 28 78.1789 27.8763 78.6755 27.6289C79.1721 27.3815 79.6017 26.9985 79.9643 26.4798C80.3269 25.9611 80.6553 25.2761 80.9496 24.4249L84 15.7666H81.7457L80.2638 20.4349C80.0956 20.9829 79.9354 21.5973 79.783 22.2783C79.7094 21.7942 79.5623 21.1744 79.3416 20.419L77.907 15.7666H75.4635L78.577 24.5287L78.4745 24.784C78.2906 25.2628 78.0423 25.6286 77.7296 25.8813C77.417 26.134 77.0478 26.2603 76.6222 26.2603C76.4435 26.2603 76.2478 26.2417 76.035 26.2045C75.8221 26.1672 75.6605 26.1327 75.5502 26.1007L75.1482 27.7446C75.3321 27.8085 75.5804 27.867 75.8931 27.9202C76.2057 27.9734 76.5407 28 76.8981 28Z" fill="black" fill-opacity="0.8"/>
</svg>
