<svg fill="none" height="80" viewBox="0 0 128 80" width="128" xmlns="http://www.w3.org/2000/svg"><g fill="#050505"><path d="m37.8341 51.6704h4.4953v-23.2876h-4.4936z"/><path d="m65.5605 35.4025c0-3.6078-2.0478-7.0203-8.4597-7.0203h-12.03v23.2886h4.4936v-9.1504h6.081l5.6204 9.1504h5.0884l-6.0475-9.7406c3.8342-.9851 5.2538-3.8052 5.2538-6.5277zm-9.3182 3.8696h-6.6756v-7.544h6.7069c3.4049 0 4.5608 1.673 4.5608 3.7054 0 2.068-1.1559 3.8386-4.5921 3.8386zm10.673-7.2799h8.5603v19.6808h4.4937v-19.6808h8.5626v-3.61h-21.6166zm-31.1337 19.6786-4.5607-9.3368 4.4423-2.6492-2.2782-3.6278-4.051 2.4163-4.4378-9.0905c-.2644-.5485-.6798-1.0116-1.1983-1.3357-.5134-.3188-1.1101-.4807-1.7155-.4653-.6055.0154-1.193.2073-1.6894.5519-.4836.3373-.8655.7991-1.1044 1.3357l-8.8956 18.2364-.0202.0488c-.28914.6673-.3504 1.4102-.1744 2.1153.176.705.5796 1.3336 1.1492 1.7898.5535.4529 1.2388.7175 1.9551.7551.7163.0375 1.4259-.154 2.0244-.5465l12.2893-7.3243 3.4787 7.1268zm-20.1991-4.9968 6.4834-13.2884 3.5614 7.2976zm74.986-18.2918h6.6444l6.3451 16.2372c.331 1.0162.53 1.5754.661 2.3608h.068c.129-.7877.328-1.3756.693-2.3608l6.311-16.2372h6.709v23.2886h-4.196v-16.8585c0-.9519.067-1.9681.165-2.8224h-.134c-.216.9278-.503 1.8379-.859 2.7225l-6.675 16.9584h-4.23l-6.6757-16.9562c-.3212-.8902-.5863-1.7995-.7936-2.7224h-.1342c.1006.8209.1677 1.7728.1677 2.8223v16.8563h-4.0667z"/></g></svg>