<svg width="128" height="80" viewBox="0 0 128 80" fill="none" xmlns="http://www.w3.org/2000/svg">
<path d="M25.7336 35.7427C27.379 35.7427 28.2189 36.6626 28.2498 38.4516V43.9656C28.2335 44.5928 27.9644 45.1873 27.5026 45.6109C27.0554 46.0764 26.4409 46.3454 25.7936 46.3563H22.2557V50.3251H19.6377V38.5552C19.6068 37.8243 19.8231 37.1026 20.2522 36.5099C20.4813 36.2808 20.7521 36.0972 21.0485 35.9681C21.3467 35.8227 21.6703 35.7463 22.0012 35.7427H25.7336ZM43.6907 35.7427V42.8203C43.6907 43.3911 43.9161 43.6675 44.387 43.6675H46.2378C46.445 43.6711 46.6468 43.5947 46.8014 43.4529C46.9468 43.3493 47.0323 43.1821 47.0359 43.0039V35.7427H49.623V47.4326C49.6412 48.1689 49.4048 48.8907 48.9576 49.4761C48.5231 50.0087 47.8668 50.3087 47.1777 50.2851H41.0436V47.6453H46.2705C46.4687 47.6344 46.6559 47.5544 46.8014 47.4217C46.9359 47.3181 47.0141 47.1599 47.0159 46.9926V46.3563H43.6725C43.3234 46.3691 42.9762 46.3091 42.6489 46.1836C42.3362 46.0618 42.0544 45.8746 41.8217 45.6309C41.5744 45.3764 41.3835 45.0746 41.2581 44.7419C41.1308 44.4147 41.069 44.0693 41.0763 43.7184V35.7445H43.6943L43.6907 35.7427ZM96.0418 35.7536V36.3772H92.093C91.5167 36.3445 90.944 36.4954 90.4567 36.8062C90.015 37.2135 89.7913 37.8043 89.855 38.4007V43.4129C89.855 43.7584 89.9059 44.1038 90.0077 44.4347C90.1277 44.7601 90.3277 45.0473 90.5895 45.2746C90.8313 45.4782 91.1203 45.62 91.4294 45.6818C91.7348 45.7455 92.0476 45.7764 92.3603 45.7746H96.0928V46.4091H92.2984V46.3581C91.9348 46.3581 91.5712 46.3218 91.2149 46.2545C90.8367 46.1818 90.4858 46.0109 90.1913 45.7637C89.8586 45.4928 89.6023 45.1419 89.4459 44.7419C89.2968 44.3238 89.2241 43.8856 89.2296 43.4439V38.4316C89.2205 38.0861 89.2605 37.7407 89.3532 37.4098C89.4623 37.0662 89.6513 36.7553 89.9059 36.5008C90.1859 36.2063 90.5386 35.9918 90.9276 35.8754C91.2931 35.79 91.6676 35.7482 92.0421 35.7536H96.0418ZM36.2966 35.7427C38.0292 35.7427 38.9092 36.5808 38.9364 38.2588V43.8729C38.9382 44.5183 38.7055 45.1455 38.2819 45.6309C37.8456 46.1109 37.222 46.3763 36.5729 46.3581H32.995C31.246 46.3581 30.3661 45.54 30.3352 43.9638V41.7985C30.2515 41.1041 30.4915 40.4096 30.986 39.9169C31.4824 39.4224 32.1769 39.186 32.8714 39.2733H36.3893V39.017L36.3384 39.0479C36.3384 38.6388 36.1239 38.4552 35.6421 38.4661H30.377V35.7409H36.2966V35.7427ZM59.6769 35.7227V38.4134H55.0608C54.5191 38.4134 54.2536 38.577 54.2536 38.9042V39.137C54.2536 39.486 54.53 39.6496 55.0808 39.6496H57.3825C57.9825 39.6624 58.5533 39.9223 58.957 40.3641C59.3897 40.8041 59.6333 41.3949 59.6333 42.0112V43.9656C59.6024 44.6019 59.3351 45.2019 58.8861 45.6528C58.6861 45.8891 58.4388 46.08 58.1588 46.2145C57.8298 46.32 57.4843 46.3672 57.1371 46.3581H51.6556V43.6675H56.3099C56.7389 43.6675 56.9535 43.4857 56.9734 43.1584V42.9221C56.9716 42.8403 56.9498 42.7585 56.9116 42.6857C56.7989 42.4821 56.6771 42.3803 56.5244 42.3803H54.2118C53.5573 42.3803 52.9264 42.1276 52.4537 41.6731C52.0065 41.2968 51.7411 40.7459 51.7265 40.1605V38.1152C51.7265 36.5481 52.5756 35.75 54.2736 35.7227H59.6733H59.6769ZM67.4582 35.7427C69.1854 35.7427 70.0653 36.6117 70.0853 38.2588V43.8729C70.0981 44.5183 69.8672 45.1455 69.4417 45.6309C69.0054 46.1109 68.3818 46.3763 67.7328 46.3581H64.1439C62.4058 46.3581 61.5168 45.54 61.495 43.9638V41.7985C61.4132 41.1095 61.6495 40.4223 62.1386 39.9296C62.6258 39.4387 63.313 39.1951 64.0021 39.2733H67.4782V39.017L67.4982 39.0479C67.4982 38.6388 67.2837 38.4552 66.7928 38.4661H61.5368V35.7409H67.4582V35.7427ZM76.6831 31.7958V34.3937H75.6595C75.1068 34.3937 74.8305 34.6682 74.8214 35.1809V35.7427H76.6813V38.4334H74.8305V46.3581H72.1834V34.2283C72.1779 33.5556 72.4743 32.9139 72.9906 32.4812C73.5669 32.0121 74.2942 31.7685 75.0359 31.7958H76.6831ZM80.7919 35.7427H84.3117C85.0026 35.6772 85.6898 35.9318 86.1716 36.4335C86.6534 36.9353 86.8806 37.6298 86.7861 38.3188V40.4368L80.8755 42.7585V42.9221C80.861 43.1093 80.9246 43.293 81.0483 43.4329C81.1028 43.5729 81.2373 43.6657 81.3864 43.6693H86.7552V46.3581H81.0483C80.6374 46.3727 80.2265 46.3218 79.832 46.2036C79.5175 46.1036 79.232 45.9327 78.9938 45.7037C78.732 45.4637 78.5321 45.1655 78.4121 44.8346C78.2884 44.4347 78.2321 44.0165 78.2484 43.5966V38.2279C78.1757 37.5371 78.423 36.8535 78.9211 36.3699C79.4156 35.8863 80.1065 35.6554 80.7937 35.7427H80.7919ZM103.792 35.6809C104.241 35.6754 104.69 35.71 105.132 35.7827C105.338 35.8227 105.532 35.9027 105.705 36.019C105.907 36.1463 106.081 36.3136 106.218 36.5099C106.694 37.1208 106.945 37.8807 106.923 38.657V43.4639C106.923 43.8056 106.894 44.1474 106.841 44.4856C106.756 44.8655 106.576 45.2164 106.319 45.5091C105.796 46.08 105.047 46.3909 104.274 46.3581H101.203C100.472 46.3872 99.7598 46.1254 99.2198 45.6309C98.7489 45.1764 98.4726 44.5619 98.4417 43.9165V42.0312C98.3453 41.2786 98.598 40.5205 99.1271 39.9751C99.6562 39.4297 100.407 39.1551 101.163 39.2297H106.358V38.5243C106.37 37.9716 106.194 37.4298 105.858 36.9899C105.672 36.7281 105.412 36.5281 105.11 36.4172C104.776 36.3372 104.432 36.299 104.087 36.3045H98.4126V35.6809H103.79H103.792ZM113.592 35.6809V36.3045H112.792C111.341 36.3045 110.625 37.1226 110.655 38.6879V46.3581H110.021V38.6879C110.021 36.6426 110.952 35.6809 112.893 35.6809H113.59H113.592ZM123.971 32.2139V43.3929H124C123.94 45.4382 122.876 46.3981 120.789 46.3563H118.468C118.026 46.3618 117.584 46.32 117.15 46.2345C116.708 46.1036 116.311 45.8527 116.004 45.5073C115.75 45.2164 115.571 44.8637 115.482 44.4856C115.377 44.1038 115.337 43.7056 115.359 43.3111V38.737C115.359 36.6917 116.382 35.67 118.428 35.67H123.346V32.2139H123.971ZM123.376 36.3045H118.428C118.082 36.2972 117.737 36.339 117.404 36.4281C117.07 36.5154 116.768 36.7044 116.546 36.9699C116.311 37.1898 116.142 37.4698 116.055 37.7771C115.951 38.1079 115.91 38.4552 115.931 38.8006V43.6893C115.855 44.3292 116.128 44.9619 116.648 45.3437C116.888 45.4891 117.15 45.5946 117.424 45.6528C117.742 45.7382 118.068 45.78 118.397 45.7746H120.555C121.258 45.8018 121.955 45.6055 122.538 45.211C123.084 44.7674 123.378 44.0838 123.326 43.382L123.376 36.3045ZM106.298 39.8533H101.052C100.503 39.8423 99.9725 40.0532 99.5798 40.435C99.2489 40.8023 99.0544 41.2677 99.0271 41.7567V43.6057C99.0235 43.8911 99.058 44.1765 99.1289 44.4529C99.2053 44.7401 99.378 44.9892 99.6198 45.1601C100.038 45.5237 100.571 45.7237 101.123 45.7218H104.305C105.632 45.7218 106.35 45.0055 106.35 43.6147L106.298 39.8514V39.8533ZM25.0282 38.4316H22.9829C22.7757 38.4261 22.5757 38.5079 22.4357 38.6588C22.3302 38.7715 22.2648 38.9152 22.2466 39.066V42.8803C22.2248 43.1002 22.3066 43.3166 22.4648 43.4711C22.6248 43.6238 22.8466 43.6966 23.0647 43.6675H24.9355C25.1228 43.6711 25.3009 43.5929 25.4264 43.4529C25.5537 43.3475 25.6264 43.1893 25.6209 43.0239V39.077C25.6209 38.6588 25.4064 38.4425 25.0282 38.4316ZM33.0641 41.8985C32.955 42.0694 32.9095 42.2712 32.9332 42.4712L32.9532 43.1366C32.9532 43.2857 33.0295 43.4275 33.1586 43.5038C33.2859 43.6184 33.4568 43.6766 33.6277 43.6675H35.673C36.1239 43.6675 36.3584 43.4948 36.3693 43.1366V42.3912C36.3693 41.9803 36.133 41.7767 35.653 41.7767H33.6077C33.4186 41.7585 33.2295 41.8022 33.0659 41.8985H33.0641ZM64.2257 41.8985C64.113 42.0676 64.0621 42.2694 64.0839 42.4712L64.1021 43.1366C64.1021 43.2893 64.1857 43.4293 64.3184 43.5038C64.4475 43.6184 64.6166 43.6766 64.7893 43.6675H66.8346C67.2837 43.6675 67.52 43.4948 67.5291 43.1366V42.3912C67.5291 41.9803 67.2928 41.7767 66.8128 41.7767H64.7693C64.5802 41.7585 64.3912 41.8022 64.2275 41.8985H64.2257ZM83.4954 38.4316H81.6737C81.4682 38.4206 81.2664 38.4916 81.1119 38.6261C80.9392 38.7297 80.8337 38.917 80.8355 39.117V40.1605L84.1081 38.9642V38.9024C84.1135 38.7679 84.0535 38.637 83.9444 38.5552C83.8099 38.4697 83.6535 38.4279 83.4954 38.4316Z" fill="#008AC9"/>
<path d="M12.736 35.741C14.3814 35.761 15.2504 36.6609 15.2504 38.4499V43.564C15.2195 45.353 14.3814 46.2729 12.7342 46.2729H6.3546C6.02735 46.2693 5.70374 46.1966 5.40376 46.0602C5.11287 45.9348 4.84743 45.7621 4.61653 45.5475C4.19111 44.953 3.97658 44.2331 4.00203 43.5022V38.5135C3.97839 37.7845 4.19474 37.0663 4.61472 36.4682C4.84743 36.2573 5.11287 36.0882 5.40194 35.9682C5.69828 35.8228 6.02372 35.7464 6.35279 35.7428L12.736 35.741ZM9.53622 30.0014C12.3324 29.9378 14.6995 32.0413 14.9668 34.8192C14.994 35.161 14.994 35.5028 14.9668 35.8428C14.5595 35.4737 14.0559 35.2283 13.5123 35.1374C13.1342 33.2957 11.5106 31.9722 9.62712 31.9722C7.74542 31.9722 6.12189 33.2939 5.74192 35.1374C5.53102 35.1828 5.32376 35.2519 5.12741 35.3428L5.17832 35.3119C4.87652 35.4446 4.5929 35.621 4.34201 35.8337V35.0665C4.47473 32.2758 6.74367 30.0669 9.53622 30.0014Z" fill="#E3001B"/>
</svg>
