<svg width="25" height="24" viewBox="0 0 25 24" fill="none" xmlns="http://www.w3.org/2000/svg">
<path d="M12.6558 6.91643C13.5976 6.91643 15.3895 5.61471 17.2377 5.80898C18.9945 5.86402 20.6225 6.74532 21.6307 8.18703C20.0399 9.16634 19.0609 10.8934 19.0369 12.7631C19.0392 14.8785 20.3043 16.7876 22.25 17.6116C21.8758 18.8288 21.3117 19.9792 20.5787 21.02C20.5564 21.0535 20.534 21.087 20.5115 21.1204L20.3765 21.3207C19.4507 22.6844 18.4505 23.9369 16.924 23.9617C15.3322 23.9985 14.7972 23.0237 12.9715 23.0237C11.1286 23.0237 10.5584 23.9351 9.03174 23.9985C7.4716 24.0564 6.27928 22.4247 5.25907 20.964C3.21997 17.981 1.63216 12.5573 3.76084 8.86691C4.76044 7.06826 6.62944 5.9269 8.68403 5.86044C10.2456 5.82826 11.6957 6.91643 12.6558 6.91643ZM17.257 0C17.3636 1.39335 16.9235 2.77342 16.0303 3.84713C15.1637 4.9264 13.8506 5.54807 12.4677 5.53381C12.3797 4.18057 12.8326 2.84782 13.7265 1.82911C14.6318 0.796599 15.8924 0.14352 17.257 0Z" fill="black" fill-opacity="0.8"/>
</svg>
