<svg width="24" height="24" viewBox="0 0 24 24" fill="none" xmlns="http://www.w3.org/2000/svg">
<g clip-path="url(#clip0_17440_16830)">
<path d="M0 4.5C0 2.01472 2.01472 0 4.5 0H19.5C21.9853 0 24 2.01472 24 4.5V19.5C24 21.9853 21.9853 24 19.5 24H4.5C2.01472 24 0 21.9853 0 19.5V4.5Z" fill="#FF444F"/>
<path d="M4.5 0C2.01472 0 0 2.01472 0 4.5V4.63071L22.4358 1.08948C21.6478 0.4105 20.6218 0 19.5 0H4.5Z" fill="#E12E3A"/>
<path d="M22.899 1.55081L18.7833 24L19.5 24C21.9853 24 24 21.9853 24 19.5V4.5C24 3.37182 23.5848 2.34061 22.899 1.55081Z" fill="#E12E3A"/>
<path d="M8.81769 9.63227C8.05469 9.63227 7.5017 9.84576 7.1587 10.2728C6.8227 10.6928 6.6547 11.2703 6.6547 12.0053C6.6547 12.3623 6.69669 12.6878 6.78069 12.9818C6.86469 13.2688 6.9907 13.5173 7.1587 13.7273C7.3267 13.9373 7.5367 14.1018 7.7887 14.2208C8.0407 14.3328 8.33469 14.3888 8.6707 14.3888C8.8527 14.3888 9.0067 14.3853 9.1327 14.3783C9.2657 14.3713 9.3812 14.3573 9.47919 14.3363V11.8058H11.1172V15.4073C10.9212 15.4843 10.6062 15.5648 10.1722 15.6488C9.7382 15.7398 9.2027 15.7853 8.5657 15.7853C8.0197 15.7853 7.52269 15.7013 7.07469 15.5333C6.63369 15.3653 6.25569 15.1203 5.94069 14.7983C5.62569 14.4763 5.38069 14.0808 5.20569 13.6118C5.03769 13.1428 4.95369 12.6073 4.95369 12.0053C4.95369 11.3963 5.04819 10.8573 5.2372 10.3883C5.42619 9.91926 5.68519 9.52376 6.01419 9.20177C6.34319 8.87276 6.72819 8.62426 7.16919 8.45626C7.61719 8.28827 8.09319 8.20426 8.59719 8.20426C8.9402 8.20426 9.24819 8.22876 9.52119 8.27777C9.8012 8.31977 10.0392 8.37226 10.2352 8.43526C10.4382 8.49127 10.6027 8.55077 10.7287 8.61376C10.8617 8.67676 10.9562 8.72576 11.0122 8.76077L10.5397 10.0733C10.3157 9.95426 10.0567 9.85277 9.7627 9.76877C9.4757 9.67776 9.16069 9.63227 8.81769 9.63227Z" fill="white"/>
<path d="M13.4918 12.0053C13.4918 12.3623 13.5338 12.6843 13.6178 12.9713C13.7088 13.2583 13.8348 13.5068 13.9958 13.7168C14.1638 13.9198 14.3668 14.0773 14.6048 14.1893C14.8428 14.3013 15.1158 14.3573 15.4238 14.3573C15.7248 14.3573 15.9943 14.3013 16.2323 14.1893C16.4773 14.0773 16.6803 13.9198 16.8413 13.7168C17.0093 13.5068 17.1353 13.2583 17.2193 12.9713C17.3103 12.6843 17.3558 12.3623 17.3558 12.0053C17.3558 11.6483 17.3103 11.3263 17.2193 11.0393C17.1353 10.7453 17.0093 10.4968 16.8413 10.2938C16.6803 10.0838 16.4773 9.92276 16.2323 9.81076C15.9943 9.69876 15.7248 9.64277 15.4238 9.64277C15.1158 9.64277 14.8428 9.70226 14.6048 9.82127C14.3668 9.93326 14.1638 10.0943 13.9958 10.3043C13.8348 10.5073 13.7088 10.7558 13.6178 11.0498C13.5338 11.3368 13.4918 11.6553 13.4918 12.0053ZM19.0463 12.0053C19.0463 12.6283 18.9518 13.1778 18.7628 13.6538C18.5808 14.1228 18.3288 14.5183 18.0068 14.8403C17.6848 15.1553 17.2998 15.3933 16.8518 15.5543C16.4108 15.7153 15.9348 15.7958 15.4238 15.7958C14.9268 15.7958 14.4578 15.7153 14.0168 15.5543C13.5758 15.3933 13.1908 15.1553 12.8618 14.8403C12.5328 14.5183 12.2738 14.1228 12.0848 13.6538C11.8958 13.1778 11.8013 12.6283 11.8013 12.0053C11.8013 11.3823 11.8993 10.8363 12.0953 10.3673C12.2913 9.89126 12.5538 9.49226 12.8828 9.17027C13.2188 8.84826 13.6038 8.60676 14.0378 8.44576C14.4788 8.28477 14.9408 8.20426 15.4238 8.20426C15.9208 8.20426 16.3898 8.28477 16.8308 8.44576C17.2718 8.60676 17.6568 8.84826 17.9858 9.17027C18.3148 9.49226 18.5738 9.89126 18.7628 10.3673C18.9518 10.8363 19.0463 11.3823 19.0463 12.0053Z" fill="white"/>
</g>
<defs>
<clipPath id="clip0_17440_16830">
<rect width="24" height="24" fill="white"/>
</clipPath>
</defs>
</svg>
