<svg width="128" height="80" viewBox="0 0 128 80" fill="none" xmlns="http://www.w3.org/2000/svg">
<path d="M80.3094 31.4603C80.6925 31.4603 81.0739 31.5023 81.4479 31.5844C81.8329 31.6683 82.2142 31.7741 82.5864 31.9018H86.9799V33.2557H84.0351V33.3396C84.3562 33.7081 84.6098 34.1333 84.7832 34.5912C84.9328 35.0474 85.0076 35.5254 85.0094 36.0071C85.0386 37.1802 84.5514 38.306 83.6757 39.0869C82.851 39.886 81.7453 40.3312 80.5958 40.3276C80.5958 40.3276 79.1599 40.3276 79.0577 40.583C79.0577 40.583 77.713 41.7544 79.0577 42.3711C79.6343 42.621 80.2473 42.7816 80.8732 42.8418L81.0775 42.8546C81.3676 42.8746 81.7252 42.9148 82.1357 42.9148H82.4021C83.0498 42.9969 83.5005 42.9969 83.7778 42.9969C84.1847 43.0206 84.5806 43.1246 84.9474 43.3034C85.3305 43.4986 85.6772 43.7541 85.9746 44.0643C86.3085 44.4109 86.5803 44.8123 86.7756 45.2539C86.9872 45.772 87.093 46.3267 87.0821 46.8868C87.0857 47.5218 86.9525 48.1512 86.6916 48.7333C86.4106 49.3317 85.9874 49.8517 85.4619 50.2513C84.8415 50.7129 84.1482 51.0596 83.4093 51.2785C82.4605 51.5376 81.4771 51.658 80.4937 51.6379C79.0231 51.7346 77.5561 51.419 76.2552 50.7257C75.3357 50.1673 74.7956 49.1511 74.8503 48.0764C74.8193 47.2171 75.2007 46.3942 75.8757 45.8596C76.6183 45.2922 77.5251 44.9783 78.4611 44.9656V44.7831C78.2057 44.6901 77.9484 44.5861 77.682 44.4638C77.4302 44.3544 77.1949 44.2084 76.9832 44.0332C76.7606 43.8417 76.58 43.6081 76.4505 43.3454C76.2972 43.0261 76.226 42.6721 76.2443 42.3182C76.2498 41.831 76.4158 41.3585 76.7169 40.9753C77.1091 40.5246 77.6018 40.1725 78.1546 39.9481V39.7419C77.4065 39.3697 76.7625 38.8205 76.2753 38.1418C75.8192 37.4776 75.582 36.6894 75.5984 35.883C75.5619 34.6824 76.0436 33.522 76.923 32.7028C77.8426 31.8581 79.0596 31.4129 80.3094 31.4621V31.4603ZM80.9863 45.6553C79.7036 45.5823 78.4812 46.199 78.4812 47.7079C78.4848 47.9396 78.5359 48.1695 78.6271 48.3829C78.7311 48.6274 78.8935 48.8427 79.0979 49.0106C79.3442 49.2131 79.6306 49.3645 79.939 49.4521C80.3586 49.5798 80.7965 49.6382 81.2326 49.6255C81.9624 49.6601 82.6849 49.4503 83.2852 49.0307C83.7833 48.5891 84.0771 47.9615 84.0953 47.2973C84.1354 46.8193 83.9402 46.3522 83.5717 46.0439C83.2068 45.8341 82.7926 45.7319 82.3711 45.7465C81.9095 45.6553 81.4479 45.6553 80.9863 45.6553ZM55.9353 27.3131V30.9257L50.4325 42.9221H56.0375V45.991H45.7744V44.6572L52.476 30.9768H45.9587V27.3131H55.9335H55.9353ZM61.7738 32.1773V45.991H58.0591V32.1792H61.7738V32.1773ZM70.6831 31.4585C71.9493 31.3691 73.1718 31.9347 73.9253 32.9564C73.96 33.0166 73.991 33.0787 74.0165 33.1425C74.4033 34.0402 74.5584 35.0218 74.469 35.9943V45.9928H70.4879V36.569C70.497 35.9432 70.5061 34.9269 69.831 34.6204C69.5847 34.5146 69.3165 34.4744 69.0501 34.5073C68.8221 34.5201 68.6013 34.5857 68.4042 34.7025C67.7784 35.1021 67.7784 36.1986 67.7784 36.8682V45.991H63.7954V31.6665H67.7784V32.4875C68.5922 31.807 69.6212 31.4439 70.6831 31.4603V31.4585ZM80.2163 32.9564C79.9645 32.951 79.7182 33.0221 79.5084 33.1626C79.2986 33.3122 79.1325 33.5129 79.0267 33.7465C78.9027 34.0147 78.8206 34.2975 78.7804 34.5894C78.7293 34.9215 78.7074 35.259 78.7074 35.5947C78.6819 36.257 78.8278 36.9139 79.1271 37.5032C79.3278 37.9393 79.7492 38.2275 80.2273 38.2513C80.7254 38.2567 81.1797 37.9685 81.3859 37.5141C81.6814 36.9412 81.8237 36.3008 81.7964 35.6568C81.8292 34.9762 81.6869 34.2975 81.3859 33.6862C81.1687 33.2374 80.7144 32.9546 80.2181 32.9564H80.2163ZM59.9456 26.4611C60.4328 26.4629 60.8962 26.6727 61.2192 27.0358L61.3651 27.2091C61.637 27.5722 61.7811 28.0156 61.7738 28.4717C61.7848 29.0136 61.5823 29.5372 61.2082 29.9295C60.8798 30.2999 60.4018 30.5061 59.9055 30.4951C59.4202 30.4915 58.9567 30.2835 58.6338 29.9186C57.904 29.092 57.904 27.8514 58.6338 27.0248L58.8163 26.8606C59.1374 26.607 59.5333 26.4665 59.9475 26.4592L59.9456 26.4611Z" fill="#474747"/>
<path d="M124 31.879L118.773 47.2708L118.413 48.298L118.269 48.6538C118.081 49.11 117.911 49.4968 117.747 49.8161C117.503 50.2758 117.214 50.7083 116.884 51.1097L116.64 51.3724C116.295 51.7045 115.886 51.9635 115.437 52.135C114.822 52.3722 114.167 52.4872 113.509 52.4744C113.038 52.4744 112.567 52.4416 112.102 52.3722H111.732V49.7558L112.246 49.838C112.555 49.8854 112.867 49.9073 113.18 49.8982C113.72 49.9383 114.257 49.7777 114.687 49.4475C115.103 49.0333 115.392 48.5097 115.519 47.9386L115.704 47.2909L110.358 31.9592H114.525L117.235 42.4376L119.944 31.9592H123.392L123.996 31.8771L124 31.879ZM105.012 31.7348C106.331 31.6801 107.623 32.118 108.635 32.9664C109.659 33.9571 110.19 35.3529 110.082 36.7742V46.8311H107.331V45.8057C107.07 46.0794 106.769 46.3166 106.439 46.5027C105.709 46.9114 104.882 47.1157 104.049 47.0993C103.417 47.0993 102.793 46.9789 102.209 46.7399C101.655 46.5082 101.158 46.1578 100.753 45.7127C100.345 45.2839 100.027 44.7785 99.8193 44.2257L99.6952 43.8498C99.5492 43.3462 99.4763 42.8226 99.4799 42.2953C99.4653 41.4852 99.6551 40.6824 100.035 39.9653C100.429 39.2866 101.02 38.7429 101.728 38.4054C102.54 38.004 103.439 37.8106 104.344 37.8398H107.3V36.8144C107.366 36.1758 107.152 35.5408 106.716 35.0701C106.223 34.6705 105.594 34.4716 104.961 34.5154C104.435 34.4899 103.914 34.6121 103.452 34.8657C103.087 35.1011 102.832 35.4678 102.733 35.8911L102.642 36.2104H99.9707V35.7361C100.014 34.5647 100.578 33.4736 101.511 32.762C102.532 32.045 103.762 31.6856 105.01 31.7348H105.012ZM92.9645 28.2664C94.5901 28.1314 96.2067 28.6149 97.4911 29.6202L97.7429 29.9176C98.6224 31.036 99.0493 32.4537 98.9289 33.8805C98.9709 35.0336 98.7282 36.1794 98.2191 37.2158C97.7393 38.1134 96.9584 38.8159 96.0133 39.1954L95.4294 39.3669C94.4533 39.6242 93.4443 39.7464 92.4317 39.73V46.6067H88.5107V28.2664H92.9645ZM107.026 40.52L104.746 40.551C104.271 40.5018 103.8 40.6952 103.496 41.0637C103.222 41.4815 103.091 41.9723 103.114 42.4686C103.071 43.0415 103.242 43.609 103.598 44.0614L103.742 44.2056C104.045 44.4756 104.439 44.6252 104.85 44.6252C105.474 44.6252 106.056 44.3169 106.41 43.8042C106.842 43.2094 107.059 42.485 107.026 41.7516V40.52ZM92.6889 31.2696L92.4317 31.2842V36.672C93.0922 36.7195 93.7508 36.5553 94.311 36.1977C94.7872 35.6284 95.0043 34.884 94.9039 34.1469C94.9751 33.3587 94.7598 32.5723 94.3 31.9301C93.8037 31.4484 93.1195 31.2112 92.4317 31.2842L92.6889 31.2696Z" fill="#72C579"/>
<path d="M23.6157 50.6111C23.6339 50.6603 23.6522 50.7078 23.6777 50.7534C23.7744 50.9796 23.9021 51.1913 24.0572 51.3792C24.1886 51.5616 24.3364 51.7295 24.4988 51.8828C24.8272 52.1893 25.1976 52.4484 25.5971 52.6527C25.8234 52.7604 26.0569 52.8534 26.2941 52.9301C26.8944 52.6691 27.5403 52.5323 28.1935 52.5287C28.5912 52.5323 28.9871 52.5834 29.3739 52.6837C30.8573 51.8755 31.713 50.2589 31.5488 48.5785C31.651 46.6445 30.3537 44.9167 28.4708 44.4733C28.1971 44.5098 27.9234 44.528 27.6498 44.5335C25.8325 44.5335 23.4004 43.8055 22.5173 42.0193C21.9736 40.8698 22.5173 39.5872 22.2418 38.3976C21.9754 37.3886 21.366 36.5073 20.5176 35.9034C19.7659 35.356 18.8591 35.0641 17.9304 35.0714C16.2847 35.0076 14.763 35.949 14.0879 37.4506C13.411 38.954 13.7121 40.7166 14.8506 41.9062C15.6169 42.7454 16.6751 43.2563 17.8063 43.333H18.3519C20.1144 43.3749 21.7601 44.2288 22.8074 45.6501C23.8547 47.0678 24.1886 48.8923 23.7087 50.5892L23.6175 50.6092L23.6157 50.6111Z" fill="#A8E2C1"/>
<path d="M12.8 49.9933C12.7562 49.7342 12.727 49.4751 12.7179 49.2124V49.0281C12.7124 47.0303 13.767 45.1783 15.4876 44.1639H15.5387C16.3725 43.695 17.3121 43.4469 18.27 43.445C18.7517 43.445 18.7937 43.1586 19.2443 43.2717C20.9411 42.7262 22.1508 41.2264 22.3241 39.4529C22.3533 38.2852 21.8863 37.1595 21.0342 36.3585C20.184 35.5557 19.0327 35.1543 17.8686 35.2547C15.4602 35.355 13.5901 37.3839 13.6813 39.7923C13.8364 41.6114 12.9971 43.3739 11.4845 44.3993C9.93549 45.2313 8.14014 44.6255 6.64219 45.6527C5.03112 46.6581 4.25751 48.5902 4.72824 50.4294C5.19898 52.2685 6.80275 53.5931 8.69845 53.7044C10.5942 53.8139 12.3421 52.6882 13.0244 50.9165C12.9259 50.6155 12.8493 50.3071 12.8 49.9933Z" fill="#93D9E5"/>
<path d="M37.5023 54.0051C36.4075 54.089 35.3128 53.8537 34.3513 53.3282C33.5795 52.9487 32.9318 52.3576 32.483 51.6241C31.8973 50.7319 31.5853 49.6864 31.5889 48.6172C31.5908 47.9987 31.6966 47.3857 31.8991 46.8018C30.9467 45.0503 28.916 44.1854 26.9966 44.7109C25.0753 45.2382 23.7671 47.0171 23.8419 49.0077C23.8127 50.6589 24.7743 52.1678 26.285 52.8356C26.7776 52.6513 27.2976 52.5437 27.8231 52.5181C30.3993 52.3466 32.6545 54.2241 32.9555 56.7875C33.1927 58.0282 32.9555 59.3419 33.6543 60.5224C34.4389 61.878 35.8839 62.7137 37.4494 62.7191C39.7811 62.606 41.6093 60.6848 41.6093 58.3512C41.6093 56.0194 39.7811 54.0982 37.4494 53.985L37.5023 54.0051Z" fill="#A8E2C1"/>
<path d="M17.9301 34.7722C16.7679 34.8927 15.5947 34.6865 14.5437 34.1774C13.8139 33.7487 13.2118 33.132 12.7976 32.3912C12.628 32.0409 12.5148 31.6669 12.4601 31.2837C12.2448 30.335 12.2448 29.3497 12.4601 28.3991C11.6847 26.3137 9.46603 25.1478 7.3076 25.6897C5.15099 26.2316 3.74791 28.3097 4.05079 30.5119C4.35366 32.716 6.26578 34.3398 8.48808 34.2796C9.54449 34.2139 10.5954 34.4675 11.5059 35.0094C12.1445 35.3853 12.6772 35.9181 13.0567 36.5585C13.9581 38.0966 13.3012 39.7095 14.2244 41.2384C15.2334 42.917 17.2313 43.7289 19.1252 43.2235C21.0172 42.7181 22.3473 41.0213 22.3838 39.0636C22.3619 37.9032 21.8821 36.7993 21.0464 35.9947C20.2108 35.1901 19.0905 34.7504 17.9301 34.7722Z" fill="#93D9E5"/>
<path d="M17.6017 16.0031C15.6202 16.0542 13.9289 17.4445 13.4965 19.3785C13.3213 20.3035 13.3432 21.2578 13.179 22.181C13.0549 22.9637 12.7484 23.7045 12.285 24.3467C11.8161 24.989 11.1246 25.4305 10.3455 25.5874C9.6631 25.6422 8.97707 25.6422 8.29286 25.5874C6.1618 25.6239 4.36827 27.193 4.04898 29.3004C3.73151 31.4077 4.98497 33.4366 7.01021 34.0971C9.01721 34.7138 11.1829 33.8617 12.2339 32.0445C12.3251 31.8803 12.389 31.7051 12.4182 31.5208C12.4546 31.2782 12.4546 31.0337 12.4182 30.791C12.2375 29.7091 12.3634 28.5961 12.7776 27.5798C13.2064 26.5581 14.0055 25.737 15.0145 25.2809C16.3391 24.7153 17.879 24.9525 19.2438 24.469C20.8676 23.8395 21.9623 22.3087 22.0353 20.5699C22.0992 19.3621 21.6558 18.1816 20.8129 17.3149C19.9663 16.4483 18.7986 15.9721 17.5889 16.0013H17.5999L17.6017 16.0031Z" fill="#93D9E5"/>
<path d="M37.2358 34.8887C34.8237 34.9508 32.9189 36.9523 32.9755 39.3625C33.0448 40.4189 32.793 41.4698 32.2584 42.3803C31.8716 43.0134 31.3407 43.5444 30.7075 43.9312C29.1567 44.8343 27.3613 44.2286 25.8324 45.1518C24.4913 46.0367 23.7305 47.5748 23.8418 49.1767C23.9513 50.7787 24.9183 52.1982 26.367 52.8897C26.9472 52.6525 27.5675 52.5321 28.1933 52.5302C28.7772 52.5302 29.3537 52.6397 29.8974 52.8495C30.7805 52.4299 31.503 51.7293 31.9501 50.8571C31.6709 50.1729 31.5286 49.4413 31.5304 48.7042C31.4611 46.4144 32.8733 44.3435 35.0281 43.5717C35.4167 43.4349 35.8272 43.3692 36.2396 43.3765H36.4038C37.4675 43.5553 38.5586 43.4312 39.5548 43.0171C40.9268 42.2106 41.757 40.7291 41.7296 39.1381C41.6986 37.9777 41.206 36.8775 40.363 36.082C39.5201 35.2846 38.3943 34.8559 37.2358 34.8887Z" fill="#A8E2C1"/>
<path d="M31.6107 48.5972C31.6107 47.9203 31.7366 47.247 31.9811 46.6157C31.1527 45.3075 29.7004 44.5285 28.1513 44.5631C27.8831 44.5741 27.6168 44.6051 27.3522 44.6543C27.0931 44.7109 26.8395 44.7857 26.5932 44.8824C26.3542 44.9828 26.1243 45.1032 25.9053 45.24C25.6864 45.3732 25.4857 45.5283 25.2996 45.7035C25.1062 45.8731 24.931 46.0629 24.7759 46.2672C24.619 46.4698 24.484 46.6869 24.3654 46.9131C24.2414 47.1394 24.1392 47.3766 24.0571 47.6211C23.9823 47.8765 23.9275 48.1374 23.8929 48.402C23.8929 48.7723 23.8929 49.15 23.8308 49.5204C23.8254 49.6956 23.8071 49.8707 23.7797 50.0441C23.756 50.2101 23.7214 50.3743 23.6776 50.5367C23.5736 50.8614 23.4422 51.1771 23.2871 51.4818C23.1849 51.6843 23.0718 51.8832 22.9496 52.0766C21.9899 53.7242 20.1945 54.7039 18.2897 54.6218C18.0105 54.6127 17.7332 54.589 17.4577 54.5488C17.1566 54.6346 16.8684 54.755 16.5965 54.9083C15.2427 55.7293 14.4308 57.2072 14.4618 58.7891C14.5202 61.2303 16.5491 63.1625 18.9921 63.1041C21.437 63.0439 23.3674 61.015 23.3072 58.572C23.2451 57.7327 23.3491 56.8879 23.6174 56.0906C24.1702 53.9851 26.0805 52.5236 28.2553 52.5382C28.914 52.5382 29.5672 52.6714 30.1748 52.9287C31.0232 52.5127 31.7165 51.8358 32.1544 50.9983C31.7931 50.2502 31.607 49.4292 31.6107 48.5972Z" fill="#81D9B9"/>
<path d="M27.712 52.5281C29.8543 52.5281 31.591 50.7408 31.591 48.536C31.591 46.3313 29.8543 44.5439 27.712 44.5439C25.5697 44.5439 23.833 46.3313 23.833 48.536C23.833 50.7408 25.5697 52.5281 27.712 52.5281Z" fill="#81D9B9"/>
<path d="M19.9824 54.417C19.4807 54.5575 18.9625 54.6304 18.4425 54.6323H18.2382C15.151 54.6104 12.6642 52.0962 12.6751 49.009V48.9269V48.7627V48.3102C12.6861 48.1643 12.7061 48.022 12.7372 47.8796C12.7664 47.6972 12.8083 47.5147 12.8594 47.3359C12.0511 45.8872 10.5057 45.0042 8.84541 45.0479C7.24163 45.0206 5.75098 45.8745 4.96278 47.2739C4.17458 48.6733 4.21836 50.3902 5.07225 51.7495C5.92979 53.107 7.46058 53.8879 9.06253 53.7802C10.139 53.7091 11.21 53.959 12.1405 54.4991C12.8193 54.8512 13.3976 55.3657 13.8246 55.9989C14.7478 57.5479 14.1329 59.3432 15.0762 60.8722C15.9338 62.1968 17.4208 62.9759 18.9972 62.9248C21.1939 62.9248 23.0458 61.2827 23.3067 59.1006C23.5695 56.9184 22.1573 54.8859 20.0226 54.3659L19.9824 54.417Z" fill="#93D9E5"/>
<path d="M23.3072 58.5095C23.2451 56.5518 21.8859 54.8732 19.9829 54.4043H19.8588C19.7256 54.4043 19.5833 54.4663 19.4483 54.4973H18.2386C17.974 54.4937 17.7095 54.4718 17.4486 54.4353C17.1493 54.5156 16.8647 54.6324 16.5965 54.7856C15.2427 55.6067 14.4308 57.0845 14.4618 58.6646C14.4873 60.075 15.219 61.3777 16.4122 62.1331L16.5856 62.2462C16.7936 62.3739 17.0125 62.4816 17.2424 62.5637H17.3446C17.5617 62.6366 17.777 62.6877 17.9923 62.7388H18.1875C18.4466 62.7644 18.7075 62.7644 18.9666 62.7388C21.3075 62.7078 23.216 60.8504 23.309 58.5113L23.3072 58.5095Z" fill="#81D9B9"/>
<path d="M18.0012 43.3517C20.4105 43.3517 22.3636 41.4312 22.3636 39.0622C22.3636 36.6932 20.4105 34.7727 18.0012 34.7727C15.5918 34.7727 13.6387 36.6932 13.6387 39.0622C13.6387 41.4312 15.5918 43.3517 18.0012 43.3517Z" fill="#81D9B9"/>
</svg>
