<svg width="48" height="48" viewBox="0 0 48 48" fill="none" xmlns="http://www.w3.org/2000/svg">
<path d="M0 9C0 4.02944 4.02944 0 9 0H39C43.9706 0 48 4.02944 48 9V39C48 43.9706 43.9706 48 39 48H9C4.02944 48 0 43.9706 0 39V9Z" fill="#FF444F"/>
<path d="M9 0C4.02944 0 0 4.02944 0 9V9.26143L44.8717 2.17896C43.2955 0.820999 41.2436 0 39 0H9Z" fill="#E12E3A"/>
<path d="M45.7979 3.10162L37.5666 47.9999L39 48C43.9706 48 48 43.9706 48 39V9C48 6.74364 47.1697 4.68122 45.7979 3.10162Z" fill="#E12E3A"/>
<path d="M17.6354 19.2645C16.1094 19.2645 15.0034 19.6915 14.3174 20.5455C13.6454 21.3855 13.3094 22.5405 13.3094 24.0105C13.3094 24.7245 13.3934 25.3755 13.5614 25.9635C13.7294 26.5375 13.9814 27.0345 14.3174 27.4545C14.6534 27.8745 15.0734 28.2035 15.5774 28.4415C16.0814 28.6655 16.6694 28.7775 17.3414 28.7775C17.7054 28.7775 18.0134 28.7705 18.2654 28.7565C18.5314 28.7425 18.7624 28.7145 18.9584 28.6725V23.6115H22.2344V30.8145C21.8424 30.9685 21.2124 31.1295 20.3444 31.2975C19.4764 31.4795 18.4054 31.5705 17.1314 31.5705C16.0394 31.5705 15.0454 31.4025 14.1494 31.0665C13.2674 30.7305 12.5114 30.2405 11.8814 29.5965C11.2514 28.9525 10.7614 28.1615 10.4114 27.2235C10.0754 26.2855 9.90739 25.2145 9.90739 24.0105C9.90739 22.7925 10.0964 21.7145 10.4744 20.7765C10.8524 19.8385 11.3704 19.0475 12.0284 18.4035C12.6864 17.7455 13.4564 17.2485 14.3384 16.9125C15.2344 16.5765 16.1864 16.4085 17.1944 16.4085C17.8804 16.4085 18.4964 16.4575 19.0424 16.5555C19.6024 16.6395 20.0784 16.7445 20.4704 16.8705C20.8764 16.9825 21.2054 17.1015 21.4574 17.2275C21.7234 17.3535 21.9124 17.4515 22.0244 17.5215L21.0794 20.1465C20.6314 19.9085 20.1134 19.7055 19.5254 19.5375C18.9514 19.3555 18.3214 19.2645 17.6354 19.2645Z" fill="white"/>
<path d="M26.9835 24.0105C26.9835 24.7245 27.0675 25.3685 27.2355 25.9425C27.4175 26.5165 27.6695 27.0135 27.9915 27.4335C28.3275 27.8395 28.7335 28.1545 29.2095 28.3785C29.6855 28.6025 30.2315 28.7145 30.8475 28.7145C31.4495 28.7145 31.9885 28.6025 32.4645 28.3785C32.9545 28.1545 33.3605 27.8395 33.6825 27.4335C34.0185 27.0135 34.2705 26.5165 34.4385 25.9425C34.6205 25.3685 34.7115 24.7245 34.7115 24.0105C34.7115 23.2965 34.6205 22.6525 34.4385 22.0785C34.2705 21.4905 34.0185 20.9935 33.6825 20.5875C33.3605 20.1675 32.9545 19.8455 32.4645 19.6215C31.9885 19.3975 31.4495 19.2855 30.8475 19.2855C30.2315 19.2855 29.6855 19.4045 29.2095 19.6425C28.7335 19.8665 28.3275 20.1885 27.9915 20.6085C27.6695 21.0145 27.4175 21.5115 27.2355 22.0995C27.0675 22.6735 26.9835 23.3105 26.9835 24.0105ZM38.0925 24.0105C38.0925 25.2565 37.9035 26.3555 37.5255 27.3075C37.1615 28.2455 36.6575 29.0365 36.0135 29.6805C35.3695 30.3105 34.5995 30.7865 33.7035 31.1085C32.8215 31.4305 31.8695 31.5915 30.8475 31.5915C29.8535 31.5915 28.9155 31.4305 28.0335 31.1085C27.1515 30.7865 26.3815 30.3105 25.7235 29.6805C25.0655 29.0365 24.5475 28.2455 24.1695 27.3075C23.7915 26.3555 23.6025 25.2565 23.6025 24.0105C23.6025 22.7645 23.7985 21.6725 24.1905 20.7345C24.5825 19.7825 25.1075 18.9845 25.7655 18.3405C26.4375 17.6965 27.2075 17.2135 28.0755 16.8915C28.9575 16.5695 29.8815 16.4085 30.8475 16.4085C31.8415 16.4085 32.7795 16.5695 33.6615 16.8915C34.5435 17.2135 35.3135 17.6965 35.9715 18.3405C36.6295 18.9845 37.1475 19.7825 37.5255 20.7345C37.9035 21.6725 38.0925 22.7645 38.0925 24.0105Z" fill="white"/>
</svg>
