<svg width="32" height="32" viewBox="0 0 32 32" fill="none" xmlns="http://www.w3.org/2000/svg">
<path d="M23.5 7.75C24.1641 7.75 24.75 8.33594 24.75 9.03906V24C24.75 24.7031 24.1641 25.25 23.5 25.25H8.46094C7.79688 25.25 7.25 24.7031 7.25 24V9.03906C7.25 8.33594 7.79688 7.75 8.46094 7.75H23.5ZM12.5234 22.75V14.4297H9.94531V22.75H12.5234ZM11.2344 13.2578C12.0547 13.2578 12.7188 12.5938 12.7188 11.7734C12.7188 10.9531 12.0547 10.25 11.2344 10.25C10.375 10.25 9.71094 10.9531 9.71094 11.7734C9.71094 12.5938 10.375 13.2578 11.2344 13.2578ZM22.25 22.75V18.1797C22.25 15.9531 21.7422 14.1953 19.125 14.1953C17.875 14.1953 17.0156 14.8984 16.6641 15.5625H16.625V14.4297H14.1641V22.75H16.7422V18.6484C16.7422 17.5547 16.9375 16.5 18.3047 16.5C19.6328 16.5 19.6328 17.75 19.6328 18.6875V22.75H22.25Z" fill="black" fill-opacity="0.72"/>
</svg>
