<svg width="25" height="24" viewBox="0 0 25 24" fill="none" xmlns="http://www.w3.org/2000/svg">
<g clip-path="url(#clip0_17440_16856)">
<path d="M5.83804 0.383958C4.91313 -0.135192 3.82718 -0.123189 2.90818 0.391461L13.6791 10.4819L17.2974 6.80732L5.83804 0.383958Z" fill="black" fill-opacity="0.72"/>
<path d="M1.82874 1.4174C1.56574 1.85403 1.41504 2.35367 1.41504 2.88333V21.1076C1.41504 21.6208 1.55245 22.1099 1.80066 22.5375L12.6321 11.5378L1.82874 1.4174Z" fill="black" fill-opacity="0.72"/>
<path d="M22.0966 9.49535L18.6451 7.56127L14.7667 11.4985L19.5198 15.9503L22.098 14.5054C23.0259 13.9832 23.5814 13.0469 23.5814 11.9996C23.58 10.9523 23.0259 10.016 22.0966 9.49535Z" fill="black" fill-opacity="0.72"/>
<path d="M13.7259 12.5528L2.8649 23.5825C3.33622 23.8556 3.85334 23.9996 4.37342 23.9996C4.87576 23.9996 5.38106 23.8706 5.84352 23.611L18.1614 16.7075L13.7259 12.5528Z" fill="black" fill-opacity="0.72"/>
</g>
<defs>
<clipPath id="clip0_17440_16856">
<rect width="24" height="23.9996" fill="white" transform="translate(0.5)"/>
</clipPath>
</defs>
</svg>
