<svg width="48" height="48" viewBox="0 0 48 48" fill="none" xmlns="http://www.w3.org/2000/svg">
<path d="M0 9C0 4.02944 4.02944 0 9 0H39C43.9706 0 48 4.02944 48 9V39C48 43.9706 43.9706 48 39 48H9C4.02944 48 0 43.9706 0 39V9Z" fill="#FF444F"/>
<path d="M9 0C4.02944 0 0 4.02944 0 9V9.26143L44.8717 2.17896C43.2955 0.820999 41.2436 0 39 0H9Z" fill="#E12E3A"/>
<path d="M45.7979 3.10162L37.5666 47.9999L39 48C43.9706 48 48 43.9706 48 39V9C48 6.74364 47.1697 4.68122 45.7979 3.10162Z" fill="#E12E3A"/>
<path d="M14.4199 28.5732C14.5739 28.5872 14.7489 28.6012 14.9449 28.6152C15.1549 28.6152 15.3999 28.6152 15.6799 28.6152C17.3179 28.6152 18.5289 28.2022 19.3129 27.3762C20.1109 26.5502 20.5099 25.4092 20.5099 23.9532C20.5099 22.4272 20.1319 21.2722 19.3759 20.4882C18.6199 19.7042 17.4229 19.3122 15.7849 19.3122C15.5609 19.3122 15.3299 19.3192 15.0919 19.3332C14.8539 19.3332 14.6299 19.3472 14.4199 19.3752V28.5732ZM23.8909 23.9532C23.8909 25.2132 23.6949 26.3122 23.3029 27.2502C22.9109 28.1882 22.3509 28.9652 21.6229 29.5812C20.9089 30.1972 20.0339 30.6592 18.9979 30.9672C17.9619 31.2752 16.7999 31.4292 15.5119 31.4292C14.9239 31.4292 14.2379 31.4012 13.4539 31.3452C12.6699 31.3032 11.8999 31.2052 11.1439 31.0512V16.8762C11.8999 16.7362 12.6839 16.6452 13.4959 16.6032C14.3219 16.5472 15.0289 16.5192 15.6169 16.5192C16.8629 16.5192 17.9899 16.6592 18.9979 16.9392C20.0199 17.2192 20.8949 17.6602 21.6229 18.2622C22.3509 18.8642 22.9109 19.6342 23.3029 20.5722C23.6949 21.5102 23.8909 22.6372 23.8909 23.9532Z" fill="white"/>
<path d="M30.4283 31.4292C29.6303 31.4292 28.8323 31.4012 28.0343 31.3452C27.2503 31.3032 26.4313 31.1912 25.5773 31.0092V16.8972C26.2493 16.7712 26.9843 16.6802 27.7823 16.6242C28.5803 16.5542 29.3223 16.5192 30.0083 16.5192C30.9323 16.5192 31.7793 16.5892 32.5493 16.7292C33.3333 16.8552 34.0053 17.0792 34.5653 17.4012C35.1253 17.7232 35.5593 18.1502 35.8673 18.6822C36.1893 19.2002 36.3503 19.8442 36.3503 20.6142C36.3503 21.7762 35.7903 22.6932 34.6703 23.3652C35.5943 23.7152 36.2243 24.1912 36.5603 24.7932C36.8963 25.3952 37.0643 26.0742 37.0643 26.8302C37.0643 28.3562 36.5043 29.5042 35.3843 30.2742C34.2783 31.0442 32.6263 31.4292 30.4283 31.4292ZM28.7693 24.8982V28.6572C29.0073 28.6852 29.2663 28.7062 29.5463 28.7202C29.8263 28.7342 30.1343 28.7412 30.4703 28.7412C31.4503 28.7412 32.2413 28.6012 32.8433 28.3212C33.4453 28.0412 33.7463 27.5232 33.7463 26.7672C33.7463 26.0952 33.4943 25.6192 32.9903 25.3392C32.4863 25.0452 31.7653 24.8982 30.8273 24.8982H28.7693ZM28.7693 22.3992H30.3653C31.3733 22.3992 32.0943 22.2732 32.5283 22.0212C32.9623 21.7552 33.1793 21.3352 33.1793 20.7612C33.1793 20.1732 32.9553 19.7602 32.5073 19.5222C32.0593 19.2842 31.4013 19.1652 30.5333 19.1652C30.2533 19.1652 29.9523 19.1722 29.6303 19.1862C29.3083 19.1862 29.0213 19.2002 28.7693 19.2282V22.3992Z" fill="white"/>
</svg>
