<svg width="21" height="68" viewBox="0 0 21 68" fill="none" xmlns="http://www.w3.org/2000/svg">
<path d="M15.7276 61.5776L15.7277 61.5784C16.1528 63.617 17.0886 65.1628 17.9167 66.1934C18.2744 66.6387 18.611 66.9864 18.8753 67.2346C18.9338 65.767 18.982 62.4484 18.3835 59.5871C17.9816 57.7242 17.3282 56.2736 16.7751 55.2855C16.5542 54.8908 16.3493 54.57 16.1831 54.3264C16.0534 54.7467 15.8896 55.3463 15.7515 56.0711C15.4695 57.551 15.2976 59.5361 15.7276 61.5776Z" stroke="white" stroke-opacity="0.88" stroke-width="0.75"/>
<path d="M5.83574 56.2693C5.24748 56.0811 4.74576 55.9529 4.38692 55.8711C4.39441 55.894 4.40216 55.9175 4.41019 55.9415C4.54982 56.3593 4.77111 56.9455 5.09092 57.6034C5.73305 58.9242 6.75913 60.5064 8.29353 61.6075L8.29418 61.608C9.81398 62.7035 11.4456 63.0195 12.7034 63.0591C13.3317 63.0788 13.8626 63.0294 14.2329 62.9754C14.2565 62.972 14.2794 62.9685 14.3017 62.965C13.723 62.0212 12.2299 59.8189 10.0316 58.279C8.5974 57.2881 7.0411 56.6549 5.83574 56.2693Z" stroke="white" stroke-opacity="0.88" stroke-width="0.75"/>
<path d="M9.8105 50.6929L9.81048 50.6935C9.75118 52.7208 10.2571 54.434 10.7777 55.6359C10.9891 56.1238 11.2022 56.5259 11.3794 56.8285C11.5037 56.3853 11.6661 55.7728 11.8316 55.0528C12.1779 53.5458 12.5344 51.5815 12.5875 49.7145C12.6297 47.8579 12.3511 46.2951 12.0624 45.1933C11.9508 44.7678 11.8379 44.4114 11.7416 44.1338C11.5403 44.4835 11.2825 44.9688 11.0212 45.5623C10.4494 46.8608 9.86644 48.6643 9.8105 50.6929Z" stroke="white" stroke-opacity="0.88" stroke-width="0.75"/>
<path d="M5.31166 45.8999L5.10715 45.6381C3.5608 43.7716 1.70909 42.4965 0.791956 41.928C0.828581 42.3655 0.903321 42.9865 1.05204 43.7048C1.35072 45.1472 1.94231 46.9547 3.0989 48.4588L3.09923 48.4593C4.24706 49.9565 5.65678 50.7502 6.78041 51.1693C7.33522 51.3763 7.81827 51.4911 8.16167 51.5537C7.82748 50.4655 6.9543 48.0027 5.31166 45.8999Z" stroke="white" stroke-opacity="0.88" stroke-width="0.75"/>
<path d="M9.96188 34.178C9.95233 33.7346 9.9267 33.3564 9.89915 33.0588C9.65014 33.3261 9.33346 33.691 8.99354 34.1452C8.20133 35.2038 7.28965 36.7382 6.80754 38.6437L6.69714 39.0801C6.33023 40.8173 6.42363 42.4192 6.62191 43.6142C6.70718 44.1282 6.81155 44.565 6.90594 44.9024C7.56305 43.6972 8.82242 41.2015 9.47003 38.6535C9.90354 36.9054 9.98659 35.3254 9.96188 34.178Z" stroke="white" stroke-opacity="0.88" stroke-width="0.75"/>
<path d="M3.69461 32.7312C2.71596 30.3721 1.27496 28.4762 0.523584 27.5769C0.464344 28.001 0.403115 28.5822 0.381462 29.2628C0.334588 30.7363 0.473987 32.6528 1.20082 34.4496L1.2012 34.4505C1.91852 36.2376 3.03024 37.4327 3.96031 38.1799C4.38209 38.5187 4.76557 38.7646 5.05599 38.9308C5.0308 38.5487 4.98414 38.0125 4.89648 37.3763C4.71813 36.0819 4.37153 34.3843 3.69731 32.7307L3.69461 32.7312Z" stroke="white" stroke-opacity="0.88" stroke-width="0.75"/>
<path d="M9.64764 22.5062C8.76284 23.2324 7.69172 24.3242 6.85585 25.8319L6.68305 26.1704C5.82238 27.8568 5.51655 29.5894 5.4286 30.9012C5.39376 31.4209 5.39326 31.8721 5.40543 32.2251C5.66005 31.9408 5.98406 31.5668 6.34336 31.123C7.19715 30.0683 8.24117 28.6308 9.02875 27.076C9.80375 25.5246 10.2329 24.0177 10.4699 22.8927C10.5641 22.4454 10.6277 22.0594 10.6706 21.7562C10.3919 21.9368 10.0386 22.1853 9.64764 22.5062Z" stroke="white" stroke-opacity="0.88" stroke-width="0.75"/>
<path d="M5.18483 19.5434L5.13348 19.1239C4.7766 16.755 4.02663 14.6951 3.5894 13.632C3.43914 14.018 3.25773 14.5336 3.08744 15.1436C2.693 16.5565 2.36374 18.4564 2.60442 20.4178L2.60449 20.4183C2.8412 22.3723 3.57372 23.8732 4.24487 24.8836C4.52708 25.3085 4.79795 25.6459 5.01545 25.8927C5.20675 24.7115 5.50997 22.1998 5.18483 19.5434Z" stroke="white" stroke-opacity="0.88" stroke-width="0.75"/>
<path d="M13.0512 11.3488C12.0313 11.817 10.7292 12.6129 9.56892 13.9305V13.9363L9.47859 14.0416C8.29301 15.4242 7.60626 17.0142 7.21889 18.2619C7.0631 18.7636 6.9566 19.2072 6.88579 19.5556C7.17405 19.3613 7.53695 19.1069 7.94396 18.7999C8.95525 18.0371 10.2293 16.9568 11.308 15.674C12.375 14.3922 13.1383 13.0422 13.6389 12.0063C13.842 11.586 14.0013 11.2185 14.1198 10.9295C13.8301 11.0237 13.4643 11.1592 13.0512 11.3488Z" stroke="white" stroke-opacity="0.88" stroke-width="0.75"/>
<path d="M9.7681 7.16113L9.81638 6.84228H9.81935C10.1391 4.40289 10.0405 2.17355 9.94317 0.958896C9.70738 1.28416 9.41801 1.71226 9.11596 2.22481C8.37245 3.48646 7.56155 5.24371 7.27164 7.22856L7.27144 7.22994C6.97479 9.20963 7.25573 10.8967 7.60895 12.0859C7.74813 12.5546 7.8983 12.9451 8.02816 13.2446C8.16841 12.9098 8.34395 12.469 8.53188 11.9453C8.97647 10.7066 9.48796 9.0109 9.7681 7.16113Z" stroke="white" stroke-opacity="0.88" stroke-width="0.75"/>
<path d="M15.1836 3.00448L15.1829 3.00495C13.7216 4.01698 12.6705 5.37133 11.9861 6.47896C11.7055 6.93317 11.4882 7.34304 11.3311 7.66626C11.6345 7.56233 12.014 7.42394 12.4439 7.24951C13.5534 6.79933 14.9883 6.1133 16.3157 5.16724C17.633 4.21343 18.7205 3.10078 19.484 2.22031C19.8019 1.8537 20.0627 1.52851 20.2595 1.27346C19.9719 1.28542 19.6077 1.31603 19.1883 1.38419C18.0969 1.56158 16.6384 1.99213 15.1836 3.00448Z" stroke="white" stroke-opacity="0.88" stroke-width="0.75"/>
</svg>
