<svg width="128" height="80" viewBox="0 0 128 80" fill="none" xmlns="http://www.w3.org/2000/svg">
<path d="M28.0751 26C25.2907 26 22.5689 26.8257 20.2538 28.3726C17.9386 29.9195 16.1342 32.1182 15.0687 34.6906C14.0032 37.263 13.7244 40.0936 14.2676 42.8245C14.8108 45.5553 16.1516 48.0638 18.1204 50.0326C20.0893 52.0015 22.5977 53.3423 25.3286 53.8855C28.0594 54.4287 30.8901 54.1499 33.4625 53.0843C36.0349 52.0188 38.2336 50.2144 39.7805 47.8993C41.3274 45.5842 42.153 42.8623 42.153 40.078C42.153 38.2292 41.7889 36.3986 41.0814 34.6906C40.3739 32.9826 39.337 31.4306 38.0297 30.1233C36.7224 28.8161 35.1705 27.7791 33.4625 27.0716C31.7544 26.3641 29.9238 26 28.0751 26V26ZM28.3032 40.5411L26.8389 45.4824H34.6713C34.7336 45.4825 34.795 45.4972 34.8507 45.5251C34.9064 45.5531 34.9548 45.5936 34.9921 45.6435C35.0294 45.6933 35.0546 45.7512 35.0657 45.8125C35.0769 45.8738 35.0736 45.9368 35.0562 45.9966L34.3751 48.3429C34.3426 48.455 34.2745 48.5535 34.1811 48.6235C34.0878 48.6936 33.9742 48.7313 33.8575 48.7311H21.8942L23.917 41.8999L21.6797 42.581L22.1735 40.9838L24.4142 40.3027L27.2544 30.7063C27.2856 30.5938 27.3527 30.4947 27.4456 30.424C27.5384 30.3533 27.6519 30.3149 27.7686 30.3147H30.7994C30.8616 30.3144 30.923 30.3287 30.9787 30.3562C31.0345 30.3837 31.0831 30.4238 31.1208 30.4734C31.1584 30.5229 31.184 30.5804 31.1956 30.6415C31.2072 30.7026 31.2045 30.7656 31.1876 30.8255L28.8038 38.9406L31.0412 38.2595L30.561 39.8839L28.3032 40.5411Z" fill="#A5A8A9"/>
<path d="M54.8319 30.1593C55.0433 30.1383 55.2561 30.1806 55.4434 30.2807C55.6935 30.4144 55.8805 30.6418 55.9635 30.913C56.0464 31.1842 56.0186 31.4773 55.8861 31.728C55.7868 31.9158 55.6341 32.0699 55.4472 32.1707C55.2603 32.2716 55.0477 32.3147 54.8363 32.2947C54.6248 32.2746 54.4241 32.1922 54.2596 32.0579C54.095 31.9237 53.974 31.7436 53.9119 31.5405C53.8498 31.3374 53.8493 31.1205 53.9106 30.9172C53.9719 30.7138 54.0922 30.5333 54.2562 30.3983C54.4202 30.2634 54.6206 30.1802 54.8319 30.1593Z" fill="#4D4D4E"/>
<path d="M49.4159 30.2739H50.2945C50.4648 30.2739 50.5669 30.3488 50.5397 30.5463L48.2546 48.4759C48.255 48.5137 48.2472 48.5511 48.2318 48.5857C48.2163 48.6202 48.1936 48.651 48.1651 48.6759C48.1366 48.7008 48.1031 48.7192 48.0668 48.73C48.0306 48.7407 47.9924 48.7435 47.955 48.7381H47.0832C46.9027 48.7381 46.8448 48.6461 46.8652 48.4759L49.1196 30.5395C49.1214 30.5025 49.1304 30.4663 49.1463 30.4328C49.1622 30.3994 49.1846 30.3694 49.2121 30.3447C49.2397 30.32 49.2719 30.301 49.3069 30.2888C49.3419 30.2767 49.3789 30.2716 49.4159 30.2739Z" fill="#4D4D4E"/>
<path d="M53.9962 35.4433H54.8646C55.0553 35.4433 55.1132 35.5353 55.1064 35.7124L53.5024 48.4759C53.5015 48.5148 53.4922 48.5531 53.4752 48.5882C53.4582 48.6233 53.4338 48.6543 53.4038 48.6791C53.3738 48.704 53.3388 48.7221 53.3012 48.7323C53.2636 48.7424 53.2242 48.7444 53.1857 48.7381H52.3139C52.1505 48.7381 52.0483 48.6495 52.0688 48.4759L53.6965 35.7055C53.6978 35.6682 53.7066 35.6315 53.7226 35.5978C53.7386 35.5641 53.7613 35.5339 53.7894 35.5094C53.8175 35.4848 53.8504 35.4662 53.886 35.4549C53.9215 35.4435 53.9591 35.4396 53.9962 35.4433Z" fill="#4D4D4E"/>
<path fill-rule="evenodd" clip-rule="evenodd" d="M93.1244 35.2322C91.9968 35.2064 90.894 35.5658 89.9981 36.2511C89.1023 36.9365 88.4669 37.9068 88.1968 39.002C87.9542 40.0185 87.7734 41.0489 87.6553 42.0873C87.5156 43.1103 87.4337 44.1404 87.4102 45.1726C87.3987 45.6764 87.4889 46.1774 87.6756 46.6455C87.8623 47.1136 88.1415 47.5393 88.4965 47.8969C89.2048 48.578 90.1753 48.9186 91.4081 48.9186C92.5372 48.9441 93.6412 48.5837 94.5377 47.8969C95.4216 47.2176 96.0465 46.2562 96.3085 45.1726C96.5544 44.1567 96.7353 43.1262 96.85 42.0873C96.9884 41.0551 97.0691 40.016 97.0917 38.9747C97.1147 38.4707 97.031 37.9676 96.8461 37.4981C96.6613 37.0287 96.3794 36.6035 96.019 36.2504C95.2265 35.5421 94.1859 35.1761 93.1244 35.2322ZM95.5866 40.8477C95.5048 41.4982 95.4537 41.9136 95.4367 42.0873C95.2733 43.4052 95.1268 44.3485 95.0008 44.9104C94.8312 45.7148 94.3899 46.4363 93.751 46.9536C93.1276 47.4587 92.3466 47.7287 91.5443 47.7164C91.1792 47.7407 90.8131 47.6871 90.4703 47.5591C90.1274 47.4311 89.8158 47.2316 89.5559 46.974C89.296 46.7164 89.0939 46.4065 88.9629 46.0648C88.8319 45.7231 88.7751 45.3574 88.7962 44.9921C88.8039 44.4453 88.8448 43.8994 88.9188 43.3575C89.0005 42.7071 89.0516 42.295 89.0686 42.1179C89.232 40.8545 89.3785 39.9112 89.5045 39.2983C89.6754 38.4944 90.1164 37.7733 90.7543 37.255C91.3785 36.7515 92.159 36.4817 92.961 36.4922C93.3261 36.4679 93.6922 36.5216 94.035 36.6496C94.3779 36.7776 94.6895 36.977 94.9494 37.2346C95.2093 37.4923 95.4114 37.8022 95.5424 38.1439C95.6734 38.4856 95.7302 38.8512 95.7091 39.2165C95.7013 39.7622 95.6603 40.307 95.5866 40.8477Z" fill="#4D4D4E"/>
<path d="M101.216 35.4433H102.084C102.254 35.4433 102.326 35.5353 102.302 35.7055L100.698 48.4759C100.696 48.513 100.687 48.5494 100.671 48.583C100.655 48.6165 100.632 48.6464 100.604 48.6709C100.576 48.6954 100.544 48.714 100.508 48.7255C100.473 48.737 100.435 48.7413 100.398 48.7381H99.5266C99.3632 48.7381 99.2576 48.6597 99.2814 48.4759L100.916 35.7055C100.921 35.6311 100.956 35.5618 101.012 35.5127C101.068 35.4636 101.141 35.4387 101.216 35.4433Z" fill="#4D4D4E"/>
<path d="M113.097 36.1959C112.498 35.5693 111.657 35.2594 110.567 35.2594C109.892 35.2523 109.224 35.3917 108.609 35.6681C108.006 35.9435 107.482 36.3649 107.083 36.894C107.012 36.9621 106.974 36.9451 106.974 36.8396L107.11 35.7055C107.131 35.5455 107.059 35.4433 106.892 35.4433H106.024C105.987 35.4401 105.95 35.4444 105.914 35.4559C105.879 35.4674 105.846 35.486 105.818 35.5105C105.79 35.535 105.767 35.5649 105.751 35.5984C105.735 35.632 105.726 35.6684 105.724 35.7055L104.12 48.4759C104.1 48.6427 104.158 48.7381 104.338 48.7381H105.21C105.247 48.7408 105.284 48.7362 105.319 48.7245C105.355 48.7128 105.387 48.6942 105.415 48.6698C105.443 48.6454 105.466 48.6156 105.482 48.5823C105.498 48.5491 105.508 48.5129 105.51 48.4759L106.678 39.3255C106.844 38.5321 107.265 37.8146 107.877 37.2823C108.474 36.7636 109.241 36.4846 110.032 36.499C110.374 36.4844 110.715 36.5427 111.033 36.6701C111.351 36.7975 111.637 36.9911 111.874 37.238C112.352 37.7763 112.596 38.4814 112.556 39.1995C112.559 39.394 112.55 39.5885 112.528 39.7818L111.415 48.4759C111.407 48.5076 111.406 48.5407 111.414 48.5726C111.421 48.6045 111.435 48.6343 111.456 48.6597C111.482 48.6871 111.514 48.7084 111.549 48.7219C111.584 48.7354 111.622 48.741 111.66 48.7381H112.528C112.565 48.7413 112.603 48.737 112.638 48.7255C112.673 48.714 112.706 48.6954 112.734 48.6709C112.762 48.6464 112.785 48.6165 112.801 48.583C112.817 48.5494 112.826 48.513 112.828 48.4759L113.945 39.5639C113.982 39.2233 113.999 38.9475 113.999 38.7738C114.027 38.3058 113.961 37.8371 113.806 37.3947C113.651 36.9522 113.41 36.5448 113.097 36.1959Z" fill="#4D4D4E"/>
<path d="M102.707 30.2807C102.519 30.1823 102.306 30.1418 102.095 30.1644C101.884 30.187 101.685 30.2716 101.522 30.4077C101.359 30.5437 101.24 30.7249 101.18 30.9285C101.12 31.1321 101.122 31.3489 101.186 31.5514C101.249 31.7539 101.371 31.933 101.536 32.0662C101.701 32.1993 101.902 32.2805 102.114 32.2994C102.325 32.3183 102.537 32.2741 102.724 32.1724C102.91 32.0707 103.062 31.9161 103.16 31.728C103.292 31.476 103.318 31.182 103.233 30.9106C103.148 30.6392 102.959 30.4127 102.707 30.2807Z" fill="#4D4D4E"/>
<path d="M78.5899 36.2743C79.4916 35.5752 80.6061 35.2073 81.7467 35.2322C82.8075 35.1707 83.8495 35.5319 84.6447 36.2368C85.0062 36.5892 85.2891 37.0141 85.4745 37.4837C85.66 37.9533 85.7439 38.4568 85.7208 38.9611V39.271C85.7208 39.2919 85.7167 39.3125 85.7086 39.3318C85.7005 39.351 85.6886 39.3684 85.6737 39.383C85.6588 39.3976 85.6412 39.4091 85.6218 39.4167C85.6024 39.4244 85.5816 39.4281 85.5608 39.4277H84.5391C84.5122 39.4277 84.4855 39.4223 84.4606 39.4117C84.4358 39.4012 84.4134 39.3858 84.3946 39.3664C84.3759 39.347 84.3612 39.3241 84.3515 39.2989C84.3418 39.2737 84.3373 39.2469 84.3382 39.2199V39.1995C84.3594 38.8339 84.3024 38.4679 84.1713 38.126C84.0401 37.784 83.8376 37.4739 83.5774 37.2162C83.3171 36.9586 83.005 36.7592 82.6618 36.6314C82.3185 36.5037 81.952 36.4504 81.5866 36.4752C80.7857 36.4646 80.0063 36.7344 79.3833 37.238C78.7469 37.7609 78.3103 38.4874 78.1472 39.2949C78.0178 39.9078 77.8747 40.8511 77.7113 42.1145C77.6908 42.2916 77.6296 42.8126 77.5614 43.3541C77.4875 43.896 77.4466 44.4419 77.4388 44.9887C77.4178 45.354 77.4746 45.7197 77.6056 46.0614C77.7366 46.403 77.9387 46.713 78.1986 46.9706C78.4585 47.2282 78.7701 47.4277 79.113 47.5557C79.4558 47.6837 79.8219 47.7373 80.187 47.713C80.9883 47.7259 81.7685 47.4558 82.3903 46.9502C83.0301 46.4331 83.4725 45.7116 83.6435 44.907C83.6421 44.89 83.6421 44.8729 83.6435 44.8559C83.6528 44.819 83.6744 44.7864 83.7048 44.7635C83.7351 44.7406 83.7724 44.7287 83.8104 44.7299H84.8831C84.9015 44.7299 84.9196 44.7341 84.9362 44.7421C84.9527 44.7502 84.9672 44.7618 84.9787 44.7762C84.9901 44.7906 84.9982 44.8073 85.0023 44.8253C85.0064 44.8432 85.0064 44.8618 85.0023 44.8797C84.9784 44.9819 84.9546 45.0772 84.9308 45.1692C84.6722 46.2534 84.0481 47.2155 83.1634 47.8935C82.2666 48.5798 81.1628 48.9402 80.0338 48.9152C78.801 48.9152 77.8305 48.5746 77.1221 47.8935C76.7652 47.5371 76.4846 47.1117 76.2972 46.6434C76.1099 46.175 76.0198 45.6735 76.0324 45.1692C76.0586 44.1371 76.1404 43.1072 76.2776 42.0839C76.4024 41.0462 76.5843 40.0162 76.8225 38.9986C77.0864 37.9166 77.7094 36.9562 78.5899 36.2743Z" fill="#4D4D4E"/>
<path fill-rule="evenodd" clip-rule="evenodd" d="M72.9609 36.2606C72.168 35.5503 71.126 35.1829 70.0629 35.239C68.9353 35.2132 67.8325 35.5726 66.9366 36.258C66.0408 36.9433 65.4054 37.9137 65.1353 39.0088C64.8936 40.0256 64.7128 41.0558 64.5938 42.0941C64.4355 43.115 64.3535 44.1463 64.3486 45.1794C64.3371 45.6832 64.4274 46.1842 64.6141 46.6523C64.8007 47.1204 65.0799 47.5461 65.435 47.9037C66.1433 48.5848 67.1138 48.9254 68.3466 48.9254C69.4756 48.9509 70.5796 48.5905 71.4762 47.9037C72.3607 47.225 72.9858 46.2634 73.247 45.1794C73.2708 45.0875 73.2947 44.9921 73.3185 44.89C73.3226 44.872 73.3226 44.8534 73.3185 44.8355C73.3144 44.8176 73.3064 44.8008 73.2949 44.7864C73.2835 44.772 73.2689 44.7604 73.2524 44.7524C73.2358 44.7444 73.2177 44.7402 73.1993 44.7401H72.1164C72.0785 44.7396 72.0415 44.7517 72.0113 44.7745C71.9811 44.7973 71.9594 44.8295 71.9495 44.8661V44.9172C71.7799 45.7216 71.3386 46.4431 70.6997 46.9604C70.0717 47.4597 69.2883 47.7225 68.4862 47.7028C68.1211 47.7271 67.755 47.6734 67.4121 47.5454C67.0693 47.4174 66.7576 47.218 66.4978 46.9604C66.2379 46.7028 66.0358 46.3928 65.9048 46.0511C65.7738 45.7095 65.717 45.3438 65.738 44.9785C65.7443 44.5014 65.7772 44.025 65.8368 43.5516L73.6999 41.1168C73.772 41.1011 73.8364 41.061 73.8823 41.0033C73.9282 40.9456 73.9528 40.8738 73.9519 40.8C73.9996 40.3914 74.0302 39.7001 74.037 38.9918C74.0508 38.4875 73.9626 37.9857 73.7776 37.5164C73.5927 37.0471 73.3149 36.62 72.9609 36.2606ZM72.651 39.9351C72.6497 39.973 72.6365 40.0095 72.6133 40.0394C72.59 40.0694 72.558 40.0912 72.5216 40.1019L66.0037 42.1145V42.0873C66.1671 40.8239 66.3136 39.8806 66.4396 39.2676C66.6104 38.4637 67.0515 37.7426 67.6893 37.2244C68.3136 36.7208 69.0941 36.451 69.896 36.4616C70.2642 36.4469 70.6314 36.5082 70.9747 36.6418C71.3181 36.7754 71.6302 36.9784 71.8916 37.238C72.6953 38.0246 72.6987 38.8658 72.651 39.9351Z" fill="#4D4D4E"/>
<path d="M61.4859 47.298C61.4474 47.2967 61.4092 47.306 61.3756 47.3248C60.8171 47.587 59.7512 47.839 59.1859 47.3623C58.7803 46.9697 58.8649 46.2691 58.9597 45.4839C58.9636 45.4518 58.9675 45.4195 58.9714 45.3871L59.9249 37.7147H62.6492C62.7268 37.7198 62.8037 37.6981 62.8672 37.6534C62.9203 37.5988 62.9496 37.5253 62.9489 37.4491L63.0238 36.843C63.0341 36.6761 62.9625 36.5807 62.8059 36.5807H60.0816L60.5992 32.358C60.623 32.2082 60.5822 32.0958 60.3812 32.0958H59.5401C59.5029 32.0921 59.4654 32.096 59.4299 32.1073C59.3943 32.1187 59.3614 32.1372 59.3333 32.1618C59.3052 32.1864 59.2825 32.2165 59.2665 32.2503C59.2505 32.284 59.2416 32.3207 59.2404 32.358L58.859 35.3378L58.6956 36.6829L57.5445 46.0342C57.4015 47.2635 57.6569 48.2477 58.6547 48.704C59.5364 49.0274 60.5065 49.014 61.379 48.6666C61.4323 48.6458 61.479 48.6112 61.5143 48.5662C61.5496 48.5213 61.5723 48.4678 61.5799 48.4111L61.6889 47.5291C61.6926 47.4908 61.6857 47.4522 61.669 47.4175C61.6523 47.3827 61.6264 47.3533 61.5941 47.3322C61.5618 47.3112 61.5244 47.2994 61.4859 47.298Z" fill="#4D4D4E"/>
</svg>
