<svg width="128" height="80" viewBox="0 0 128 80" fill="none" xmlns="http://www.w3.org/2000/svg">
<path fill-rule="evenodd" clip-rule="evenodd" d="M7.46191 10H120.539V70H7.46191V10Z" fill="#FFCE00"/>
<path fill-rule="evenodd" clip-rule="evenodd" d="M46.9703 43.9779C45.0166 45.711 42.9279 47.2848 40.7241 48.6844C36.1752 51.6104 31.1001 54.0885 26.0647 56.0505C24.3957 56.7026 22.4211 57.0768 20.7577 56.2092C19.697 55.6297 18.9079 54.6533 18.5625 53.4931C18.2796 52.6368 18.1608 51.6274 17.9967 50.7372C16.7124 43.5186 17.2668 35.0978 18.7152 27.8962C19.0773 26.11 19.926 23.6944 21.8214 23.0536C22.7266 22.7474 23.7563 22.7644 24.6899 22.9629C24.9848 23.0294 25.2742 23.1185 25.5555 23.2294C31.7564 25.5373 37.3011 28.4293 42.5176 32.5291C43.9943 33.6859 45.6124 34.8937 46.9703 36.1866C47.8529 37.0315 48.6733 37.9898 48.8939 39.2316C48.9519 39.5705 48.9671 39.9153 48.9392 40.258C48.8829 40.9802 48.679 41.6831 48.3403 42.323C48.0016 42.9629 47.5353 43.5262 46.9703 43.9779Z" fill="#FEFEFE"/>
<path fill-rule="evenodd" clip-rule="evenodd" d="M19.7676 53.0904C20.2203 54.457 21.5725 56.4304 25.6008 54.8653C31.417 52.5971 40.1131 48.4463 46.1669 42.9799C46.1669 42.9799 47.5191 42.0386 47.6662 40.1616C47.8077 38.2903 46.3536 37.1619 41.7312 33.5327C37.1823 29.9546 32.0847 27.023 25.1086 24.4259C24.1922 24.0481 23.1753 23.9921 22.2231 24.2671C21.0406 24.664 20.3108 26.4162 19.96 28.1457C19.6262 29.7959 17.4706 40.5529 19.2471 50.5103C19.3716 51.2135 19.5526 52.444 19.7676 53.0904Z" fill="#FFB700"/>
<path fill-rule="evenodd" clip-rule="evenodd" d="M20.5484 26.1894C20.3447 26.8869 20.1749 27.7885 20.0788 28.9567L20.0844 28.9283C21.2669 28.5257 22.9473 28.3669 25.3349 28.6618C32.9503 29.6031 40.7693 33.907 45.007 36.4928L46.1555 37.1789C45.8133 36.8518 45.4604 36.536 45.0975 36.232L45.0183 36.1582L44.9731 36.1242C44.8885 36.054 44.8036 35.984 44.7185 35.9144L44.6732 35.8747L44.5883 35.801L44.5431 35.767L44.4978 35.7273L44.4016 35.6536L44.3564 35.6139L44.2658 35.5402L44.2149 35.5005L44.1187 35.4211L44.0735 35.3814L43.717 35.1035L43.6152 35.0185L43.5643 34.9788L43.5077 34.9334L43.4568 34.8937L43.4002 34.8484L43.2927 34.7633L43.1795 34.6726L43.1343 34.6385L43.1286 34.6329L42.9589 34.4968L42.9476 34.4911L42.8967 34.4514L42.7269 34.3153L42.6647 34.2643L42.6081 34.2189L42.5572 34.1849L42.5459 34.1736L42.4836 34.1225L42.4271 34.0772L42.3648 34.0318L42.3592 34.0261L42.3026 33.9808L42.2404 33.9297L42.1781 33.8844L42.1555 33.8617L42.1159 33.8333L42.0536 33.7823L41.9858 33.7369L41.9461 33.6972L41.9235 33.6859L41.8613 33.6349L41.7934 33.5838L41.7312 33.5327C37.1823 29.9546 32.0847 27.023 25.1086 24.4259C24.1925 24.0468 23.1751 23.9908 22.2231 24.2671L22.1778 24.2841H22.1665L22.1156 24.3068H22.1099L22.0646 24.3295H22.059C22.0438 24.3369 22.0287 24.3444 22.0137 24.3522L22.0024 24.3579C21.9872 24.3652 21.9721 24.3727 21.9572 24.3805L21.9515 24.3862L21.9119 24.4089L21.9006 24.4146L21.861 24.4372L21.8497 24.4486L21.8044 24.4713L21.7987 24.4769L21.7591 24.5053L21.7478 24.511L21.7082 24.5393L21.6969 24.5507L21.6573 24.5847H21.6516L21.612 24.6187L21.6064 24.6244L21.5611 24.6584L21.5554 24.6697L21.5158 24.7038L21.5102 24.7094L21.4706 24.7434L21.4649 24.7548C21.4516 24.7679 21.4384 24.7811 21.4253 24.7945L21.3348 24.8852L21.3291 24.8966L21.2895 24.9419L21.2839 24.9476L21.2499 24.9873L21.2443 24.9986L21.2103 25.0383L21.199 25.0497C21.1876 25.0647 21.1763 25.0798 21.1651 25.095V25.1007L21.1594 25.1064L21.1255 25.1461L21.1198 25.1631L21.0858 25.2084L21.0745 25.2198L21.0406 25.2708L20.5484 26.1894ZM20.6219 26.1214L20.6163 26.1271L20.5823 26.1838L20.5766 26.1894L20.5427 26.2405V26.2461L20.5088 26.3028L20.5031 26.3142L20.4692 26.3709L20.4635 26.3766L20.4409 26.4276L20.4295 26.4389L20.3673 26.5637L20.3617 26.5694V26.575L20.3334 26.6261L20.2994 26.6941L20.2938 26.7111L20.2655 26.7678L20.2598 26.7735L20.2315 26.8359L20.2259 26.8472L20.1976 26.9096L20.1919 26.9209L20.6219 26.1214Z" fill="#FFDF77"/>
<path fill-rule="evenodd" clip-rule="evenodd" d="M20.0844 28.9283C21.2669 28.5257 22.9473 28.3669 25.3349 28.6618C32.9503 29.6031 40.7693 33.907 45.007 36.4928C41.4596 46.7735 25.895 54.1282 25.895 54.1282C24.0336 52.2626 22.24 50.5274 20.5087 37.6609C19.9826 33.7483 19.9203 30.9413 20.0844 28.9283Z" fill="#FFCE00"/>
<path d="M56.317 24.9646C57.9917 24.7491 59.6834 24.7548 61.3694 24.7718C62.4953 24.8001 63.6552 25.0837 64.5661 25.7585C65.3355 26.3482 65.3695 27.4143 65.3242 28.2989C65.2507 29.7959 64.9565 31.4063 63.8475 32.5064C62.9003 33.4384 61.6525 34.0014 60.3284 34.0942C59.0837 34.2643 57.8163 34.3096 56.566 34.1339C56.2604 35.3473 55.9436 36.5552 55.706 37.7857C55.6437 38.1429 55.4966 38.5682 55.0949 38.6589C54.6253 38.744 54.1388 38.6419 53.6635 38.676C53.375 38.676 53.0694 38.7383 52.7979 38.6136C52.5433 38.4661 52.7017 38.1316 52.7073 37.8991L53.7653 32.7559C53.8615 32.2569 53.9464 31.7522 54.1218 31.2759C55.4797 31.2532 56.8375 31.2646 58.1897 31.2646C58.4104 31.2419 58.5971 31.3496 58.7838 31.4403C58.6989 31.8283 58.6478 32.223 58.631 32.6198C59.327 32.2342 59.921 31.6955 60.5377 31.2022C61.2336 30.6068 61.9352 30.017 62.5576 29.3479C61.6467 28.2025 60.7131 27.0797 59.7852 25.9456C59.5193 26.3255 59.6721 26.9549 59.2195 27.1874C58.5745 27.3292 57.9012 27.2271 57.2449 27.2328C56.4641 27.1874 55.6777 27.3462 54.9082 27.1534C54.9365 26.5467 54.9705 25.9002 55.2873 25.3729C55.5023 25.0326 55.9606 25.027 56.317 24.9646ZM67.2705 28.9793C68.5718 28.6561 69.9976 28.5257 71.2762 29.0304C71.605 29.1536 71.8984 29.3562 72.1304 29.6203C72.3623 29.8845 72.5256 30.2019 72.6058 30.5444C72.9113 31.7466 72.47 32.9544 72.3003 34.1509C72.1192 35.387 71.8873 36.6119 71.6779 37.8481C71.6157 38.2677 71.4233 38.7497 70.9594 38.8574C69.6807 39.192 68.3398 39.2884 67.0272 39.2033C66.0993 39.1126 65.047 38.9141 64.4756 38.1032C63.8985 37.3037 64.0399 36.249 64.2549 35.3473C64.3423 34.9036 64.5393 34.4889 64.8279 34.1412C65.1165 33.7935 65.4875 33.5238 65.907 33.357C66.9706 32.9771 68.1192 33.0168 69.2281 32.9487C69.5053 32.909 69.8391 32.9714 70.0768 32.7729C70.2578 32.3193 70.3201 31.7919 70.173 31.3213C69.9636 30.7939 69.313 30.7259 68.8207 30.7542C67.791 30.7485 66.8066 31.0604 65.8391 31.378C65.7259 30.8506 65.5618 30.2439 65.8787 29.7505C66.1786 29.2685 66.7613 29.1211 67.2705 28.9793ZM66.6142 35.5401C66.5124 35.9484 66.3653 36.4134 66.5633 36.816C67.0329 37.4001 67.8646 37.5078 68.5605 37.3887C68.9056 37.3377 69.4205 37.2583 69.4431 36.816C69.494 36.0902 69.7939 35.3814 69.6637 34.6499C68.8999 34.6102 68.1192 34.5818 67.3667 34.7463C66.9876 34.8313 66.7217 35.1772 66.6142 35.5401ZM76.5493 29.0701C78.2127 28.4576 80.0345 28.7071 81.7318 29.019C82.0487 29.1041 82.4277 29.1041 82.6767 29.3479C82.8521 29.5804 82.7672 29.8866 82.7276 30.1475C82.1449 33.3456 81.63 36.5608 80.9963 39.7477C80.7983 40.689 80.357 41.687 79.4744 42.1633C78.422 42.7474 77.1773 42.6737 76.0175 42.6964C74.9481 42.7134 73.7883 42.4752 73.0132 41.6984C72.8095 41.2164 73.1263 40.7344 73.2904 40.2977C73.5393 40.3091 73.7939 40.3261 74.0372 40.3941C75.2634 40.7355 76.5484 40.809 77.8053 40.6096C78.4729 40.4452 78.6031 39.6796 78.6596 39.0956C77.4772 39.26 76.2098 39.3394 75.1066 38.795C74.658 38.5763 74.274 38.2443 73.9922 37.8316C73.7105 37.419 73.5408 36.94 73.4997 36.4418C73.3696 34.6555 73.726 32.8523 74.3767 31.1908C74.5672 30.7027 74.8596 30.2609 75.2343 29.8951C75.609 29.5294 76.0573 29.2481 76.5493 29.0701ZM78.3372 30.6521C78.0027 30.7185 77.6847 30.8503 77.4012 31.04C77.1177 31.2298 76.8743 31.4737 76.6851 31.7579C76.3739 32.2456 76.2834 32.8296 76.1532 33.3853C75.9609 34.3777 75.7572 35.4041 75.9382 36.4191C76.0005 36.8557 76.4305 37.0825 76.8209 37.1733C77.5111 37.3264 78.2353 37.2356 78.9142 37.0598C79.1406 37.0145 79.1462 36.748 79.1971 36.5665C79.497 34.905 79.7629 33.2322 80.0628 31.5708C80.0854 31.3496 80.159 31.1058 80.0458 30.896C79.5366 30.6011 78.9086 30.5444 78.3372 30.6521ZM87.4971 28.7355C88.5268 28.5654 89.6358 28.6674 90.5637 29.1778C91.0165 29.4472 91.3957 29.8249 91.6672 30.2771C91.9387 30.7294 92.0941 31.242 92.1195 31.7692C92.1818 32.9771 91.9385 34.1792 91.6443 35.3473C91.384 36.3227 90.971 37.3037 90.2129 38.0012C88.9116 39.2657 86.8691 39.5322 85.1887 38.9708C84.7361 38.802 84.3325 38.5228 84.0144 38.1585C83.6963 37.7942 83.4738 37.3562 83.3669 36.8841C82.9256 35.268 83.2934 33.5611 83.7969 32.0074C84.0607 31.1776 84.5442 30.435 85.1958 29.8588C85.8474 29.2827 86.6428 28.8944 87.4971 28.7355ZM87.5198 30.9357C87.1945 31.0389 86.8987 31.219 86.6575 31.4607C86.4162 31.7025 86.2366 31.9989 86.1336 32.3249C85.7772 33.3797 85.5678 34.4968 85.5622 35.6082C85.5791 36.0335 85.647 36.5268 86.0091 36.8047C86.4844 37.1789 87.1407 37.1336 87.7065 37.0315C88.2553 36.9408 88.6796 36.5155 88.9116 36.0278C89.466 34.9107 89.6527 33.6519 89.6924 32.4213C89.7206 31.9337 89.5962 31.378 89.1662 31.0944C88.6909 30.7542 88.0573 30.7826 87.5198 30.9357ZM25.1143 34.7009L26.0591 31.8316H33.567C34.8287 31.8316 36.147 32.1605 37.1314 32.9827C37.8814 33.6135 38.3812 34.4926 38.5402 35.4608C38.9306 37.4965 38.3478 39.725 36.9051 41.2334C35.6038 42.634 33.7254 43.3712 31.847 43.564C30.2459 43.7114 28.6391 43.5923 27.0379 43.5243C26.574 45.3955 26.2006 47.2895 25.7706 49.1665C24.5598 49.1097 23.349 49.0417 22.1383 49.019C22.7267 46.0647 23.4113 43.1273 24.0053 40.173C26.0025 40.1503 28.0054 40.1673 30.0026 40.1616L30.0083 42.0159C31.6886 40.5869 33.3237 39.1069 34.9871 37.6666C33.7481 36.1015 32.492 34.5591 31.2643 32.9827C31.0963 33.5455 30.9434 34.1128 30.806 34.6839C28.9106 34.7122 27.0096 34.6839 25.1143 34.7009ZM63.2704 40.5813C64.3511 40.0312 65.6411 40.0426 66.7896 40.3601C66.8179 40.8648 66.8745 41.4602 66.5293 41.8685C65.9579 42.152 65.2394 41.9365 64.6792 42.2711C64.2436 42.6567 64.3341 43.3201 64.2549 43.8418C64.8603 43.9155 65.477 43.8475 66.0824 43.9836C66.1786 44.5109 66.2068 45.1517 65.8334 45.577C65.3016 45.9116 64.6283 45.7471 64.0342 45.8152C63.8815 46.042 63.7514 46.2858 63.7231 46.5637C63.2648 49.0984 62.8404 51.6331 62.3878 54.1679C62.1955 55.0355 61.9861 56.0051 61.2506 56.5779C60.4981 57.1676 59.4797 57.2016 58.5632 57.1733C58.1897 57.1279 57.7145 57.1676 57.4769 56.8103C57.3807 56.334 57.5447 55.8577 57.7088 55.4154C58.2237 55.3133 58.7668 55.4154 59.2704 55.2566C59.8079 55.0752 59.9154 54.4457 60.0116 53.9637C60.3623 51.7862 60.7527 49.6088 61.1374 47.4369C61.2167 46.9323 61.3638 46.4276 61.3355 45.9172C60.8376 45.7301 60.2039 45.8889 59.8192 45.4522C59.508 45.078 59.6495 44.5109 59.8644 44.1197C60.2944 43.6717 60.9734 44.0573 61.4995 43.8872C61.873 43.6717 61.8843 43.184 61.9635 42.8098C62.0993 41.9479 62.4614 41.0122 63.2704 40.5813ZM90.756 41.4942C90.8579 41.0746 90.8635 40.4962 91.3161 40.2921C91.9668 40.224 92.6287 40.258 93.285 40.2524C93.5566 41.0065 93.2511 41.7834 93.0644 42.5149C92.4029 42.665 91.7184 42.6824 91.0502 42.5659C90.575 42.4469 90.7051 41.8515 90.756 41.4942ZM54.0595 40.7173C55.689 40.4282 57.358 40.5189 58.9931 40.706C59.1968 40.7344 59.4005 40.7967 59.5985 40.8534C59.6947 41.3581 59.6891 41.9025 59.4571 42.3731C59.2987 42.702 58.897 42.7417 58.5745 42.7531C57.4882 42.7758 56.3962 42.7304 55.3099 42.7701C54.8177 42.7928 54.2236 42.9345 54.0256 43.4506C53.6578 44.3181 53.6182 45.2765 53.4711 46.2008L57.9182 46.1951C58.1614 46.1838 58.5688 46.2405 58.5349 46.5693C58.5349 46.9946 58.45 47.4143 58.3255 47.8169C58.2124 48.1458 57.8446 48.2762 57.5221 48.2592C56.2321 48.2648 54.9422 48.2478 53.6465 48.2648C53.3071 48.2251 52.9902 48.4746 52.9732 48.8262C52.8714 49.7108 52.5998 50.5954 52.6904 51.4914C52.73 51.9677 53.2448 52.1095 53.6409 52.1265C54.8969 52.1548 56.1529 52.1038 57.4033 52.1548C57.6862 52.1605 57.6409 52.5064 57.6918 52.7049C57.7597 53.2436 57.6183 54.0091 56.9733 54.0942C55.1402 54.2926 53.1882 54.6045 51.423 53.8843C50.58 53.5498 50.2009 52.6198 50.0991 51.7749C49.9803 51.0604 50.1726 50.3516 50.2915 49.6541C50.6083 47.8169 50.9308 45.9853 51.2703 44.1594C51.4287 43.3258 51.6833 42.4752 52.2377 41.8061C52.7073 41.2674 53.3467 40.8534 54.0595 40.7173ZM85.4377 42.2767C86.1393 41.8628 86.9879 41.8174 87.7857 41.8515C87.8083 42.5206 87.565 43.1614 87.599 43.8248C88.1195 43.8985 88.6626 43.8532 89.1605 44.0403C89.4774 44.182 89.4208 44.5903 89.3642 44.8682C89.268 45.2424 89.1266 45.7811 88.64 45.7698C88.1421 45.8832 87.2878 45.5827 87.1294 46.2688C86.8295 47.7375 86.6032 49.2288 86.3429 50.7088C86.2524 51.2249 86.1619 51.7466 86.1562 52.2682C86.6881 52.4497 87.2482 52.3987 87.7913 52.359C88.2609 53.0735 87.8196 54.2132 86.92 54.2473C86.0431 54.2416 85.0586 54.4117 84.3061 53.856C83.7403 53.442 83.6272 52.6708 83.7234 52.0187C83.9836 49.9773 84.4532 47.9643 84.6965 45.9172C84.1307 45.7698 83.4292 45.9002 82.9935 45.4352C82.7729 45.027 82.8012 44.4372 83.1237 44.0856C83.6725 43.7227 84.3797 44.0289 84.9624 43.8021C85.3472 43.3882 85.1039 42.719 85.4377 42.2767ZM69.5902 43.8815C70.569 43.7681 71.6553 43.6547 72.5266 44.2161C73.6695 44.9192 74.1334 46.3482 74.1051 47.6354C74.0712 48.3556 74.1391 49.1041 73.9128 49.8072C72.8944 50.0114 71.8477 49.8866 70.8123 49.9206C69.8222 49.9433 68.8264 49.8809 67.8363 49.9433C67.5534 50.6351 67.6779 51.5651 68.3511 51.9904C68.866 52.2399 69.4601 52.2002 70.0202 52.2002C71.0612 52.1889 72.0513 51.8373 73.0641 51.6445C73.0584 52.2853 73.2338 53.1415 72.6002 53.5498C71.9212 53.924 71.1574 54.1112 70.4106 54.3096C69.2901 54.6108 68.097 54.4687 67.0781 53.9127C66.6291 53.6896 66.241 53.3603 65.9472 52.9533C65.6535 52.5463 65.463 52.0737 65.3921 51.5764C65.1812 49.5937 65.5675 47.593 66.501 45.8322C67.1121 44.6981 68.3455 44.0346 69.5902 43.8815ZM69.0018 46.3369C68.47 46.7848 68.255 47.4766 68.1588 48.1458C69.3695 48.1571 70.5916 48.2081 71.8024 48.1117C71.9891 47.5674 71.9212 46.9493 71.5648 46.4956C70.9764 45.6961 69.7034 45.6961 69.0018 46.3369ZM76.2664 45.4749C77.0924 44.2841 78.5918 43.7397 80.0005 43.7965C80.7926 43.8305 81.6074 43.9836 82.3033 44.3862C82.8351 44.7207 82.456 45.4126 82.3825 45.8946C82.3485 46.3539 81.7771 46.2064 81.4659 46.2064C80.7361 46.2405 80.0741 45.6507 79.3442 45.8946C79.0407 45.9685 78.7589 46.1135 78.5219 46.3175C78.285 46.5215 78.0995 46.7788 77.9807 47.0684C77.4545 48.3329 77.2282 49.7222 77.2678 51.0888C77.2622 51.5141 77.4885 51.962 77.9241 52.0868C79.0104 52.4384 80.1194 51.9904 81.1887 51.7862C81.2283 52.376 81.3018 53.0168 80.9737 53.5441C80.6851 53.924 80.1816 54.0318 79.7346 54.0885C79.1575 54.1395 78.5804 54.2246 78.0033 54.2813C77.3182 54.2888 76.6495 54.0703 76.1005 53.6594C75.5515 53.2485 75.1525 52.668 74.9651 52.0074C74.7671 50.9357 74.8746 49.8299 75.0387 48.7638C75.265 47.6127 75.5988 46.4503 76.2664 45.4749ZM106.015 43.8758C106.966 43.7454 107.978 43.7454 108.884 44.114C109.399 44.3621 109.839 44.7436 110.158 45.2191C110.478 45.6946 110.665 46.2468 110.7 46.8188C110.819 48.2308 110.451 49.6144 110.066 50.9527C109.819 51.8786 109.289 52.7036 108.55 53.3116C107.904 53.7932 107.155 54.1173 106.363 54.2581C105.57 54.3988 104.756 54.3524 103.984 54.1225C103.09 53.9014 102.428 53.1472 102.026 52.3476C101.466 51.1455 101.783 49.7959 102.004 48.554C102.241 47.1874 102.756 45.7868 103.831 44.8568C104.451 44.3311 105.206 43.991 106.009 43.8758H106.015ZM106.264 45.9626C105.913 46.0484 105.588 46.221 105.32 46.4646C105.053 46.7083 104.85 47.0153 104.731 47.3576C104.357 48.3839 104.182 49.4727 104.108 50.5557C104.086 50.981 104.148 51.463 104.487 51.7522C105.116 52.2739 106.043 52.2456 106.739 51.894C107.277 51.6161 107.594 51.0547 107.724 50.482C107.967 49.416 108.357 48.3499 108.256 47.2328C108.239 46.8415 108.086 46.4333 107.752 46.2008C107.316 45.9172 106.762 45.8605 106.258 45.9626H106.264ZM90.4392 44.0403C91.0898 43.8248 91.8084 43.8191 92.4816 43.9382C92.8551 43.9949 92.708 44.4542 92.7023 44.7151C92.2553 47.4766 91.7235 50.2212 91.2596 52.9771C91.1917 53.408 91.1747 54.0658 90.6202 54.1452C90.0422 54.2481 89.4485 54.219 88.8833 54.0601C88.7305 53.7993 88.7928 53.4817 88.8267 53.2039C89.2341 50.8052 89.6414 48.4066 90.0375 46.0023C90.1506 45.3445 90.2355 44.6811 90.4392 44.0403ZM93.749 44.0686C93.9074 43.9042 94.1507 43.9155 94.36 43.8928C94.8466 43.8815 95.3388 43.8475 95.8141 43.9722C96.0687 44.0176 96.0178 44.3578 96.0687 44.5506C96.1705 46.2008 96.2271 47.8566 96.3063 49.5124C96.3572 50.465 96.3629 51.4347 96.5892 52.3646C97.2512 51.7295 97.4662 50.8052 97.8169 49.9887C98.6204 47.9983 99.3785 45.9853 100.25 44.0233C100.951 43.8418 101.704 43.8418 102.417 43.9496C102.779 44.0403 102.592 44.4656 102.496 44.7037C101.24 47.4539 100.035 50.2268 98.7618 52.9714C98.2187 54.2076 96.6175 54.5648 95.4294 54.1565C94.8183 53.9581 94.5581 53.2889 94.5015 52.6992C94.2129 50.1248 93.964 47.5447 93.715 44.9646C93.6981 44.6697 93.6641 44.3578 93.749 44.0686Z" fill="black"/>
</svg>
