<svg width="24" height="24" viewBox="0 0 24 24" fill="none" xmlns="http://www.w3.org/2000/svg">
<g clip-path="url(#clip0_17440_16869)">
<path d="M18.3817 0H5.61596C2.51381 0 -0.000976562 2.51479 -0.000976562 5.61694V18.3827C-0.000976562 21.4848 2.51381 23.9996 5.61596 23.9996H18.3817C21.4839 23.9996 23.9987 21.4848 23.9987 18.3827V5.61694C23.9987 2.51479 21.4839 0 18.3817 0Z" fill="black" fill-opacity="0.8"/>
<path d="M14.3355 12L13.6231 14.2471L12.9296 12.0017H12.2527L13.3456 15.268H13.8726L14.5865 13.1223L15.2997 15.268H15.831L16.9216 12.0017H16.2616L15.5669 14.2471L14.8546 12H14.3355ZM10.5517 12.0008L9.16953 15.2663H9.81931L10.0861 14.6342L10.105 14.5864H11.5411L11.8225 15.2663H12.49L11.1204 12.0199L11.1082 12.0008H10.5517ZM20.5616 12.0012V15.2643H21.1898V12.0012H20.5616ZM2.55176 12.0016V15.2692H3.18854V13.9422H4.62584V15.2692H5.26263V12.0016H4.62584V13.32H3.18854V12.0016H2.55176ZM8.20924 12.0025V13.8728C8.20924 14.4041 7.95607 14.6877 7.4961 14.6877C7.03354 14.6877 6.77863 14.3962 6.77863 13.8504V12.0046H6.14224V13.8728C6.14224 14.7922 6.63295 15.3191 7.48784 15.3191C8.35084 15.3191 8.84563 14.782 8.84563 13.8458V12.0025L8.20924 12.0025ZM17.4348 12.0037V15.2667H19.804V14.6719H18.0625V13.8628H19.2204V13.2677H18.0625V12.599H19.7434V12.0038L17.4348 12.0037ZM10.8213 12.8277L11.2755 13.9218L11.3062 13.997H10.3435L10.3738 13.9218L10.8213 12.8277Z" fill="#F6F7F8"/>
<path fill-rule="evenodd" clip-rule="evenodd" d="M11.8798 7.95883C9.53347 7.95883 7.61328 6.11972 7.61328 3.8291H8.21327C8.21327 5.76868 9.84482 7.35883 11.8798 7.35883C13.9147 7.35883 15.5463 5.76868 15.5463 3.8291H16.1463C16.1463 6.11972 14.2261 7.95883 11.8798 7.95883Z" fill="#F6F7F8"/>
</g>
<defs>
<clipPath id="clip0_17440_16869">
<rect width="23.9996" height="23.9996" fill="white"/>
</clipPath>
</defs>
</svg>
