<svg width="128" height="80" viewBox="0 0 128 80" fill="none" xmlns="http://www.w3.org/2000/svg">
<path d="M14.2572 31.9769V43.4551C14.2572 45.0537 13.7909 46.2969 12.8807 47.185C11.9704 48.0509 10.7493 48.4949 9.19519 48.4949C7.64107 48.4949 6.37558 48.0509 5.42091 47.1406C4.46623 46.2303 4 44.9648 4 43.3441H7.26364C7.26364 44.0546 7.44126 44.5874 7.75208 44.9871C8.08511 45.3867 8.55134 45.5643 9.15079 45.5643C9.75023 45.5643 10.1943 45.3867 10.5051 45.0093C10.8159 44.6318 10.9713 44.1212 10.9713 43.4551V31.9769H14.2572Z" fill="#0E183E" style="fill:#0E183E;fill:color(display-p3 0.0549 0.0941 0.2431);fill-opacity:1;"/>
<path d="M29.2433 41.568C29.2433 42.0342 29.2211 42.4561 29.1545 42.8335H19.7188C19.7854 43.766 20.1184 44.4986 20.6957 45.0315C21.2729 45.5643 21.9833 45.8307 22.8048 45.8307C24.0259 45.8307 24.8696 45.2979 25.3802 44.2544H28.8881C28.5106 45.4977 27.8002 46.5412 26.7567 47.3404C25.691 48.1397 24.4033 48.5393 22.8714 48.5393C21.6281 48.5393 20.518 48.2729 19.519 47.7179C18.5421 47.1628 17.765 46.3636 17.21 45.3423C16.6772 44.321 16.3885 43.1443 16.3885 41.8344C16.3885 40.5245 16.6549 39.3034 17.21 38.3043C17.7428 37.2831 18.5199 36.506 19.4968 35.951C20.4736 35.3959 21.6059 35.1295 22.8714 35.1295C24.1369 35.1295 25.2026 35.3959 26.1573 35.9288C27.1341 36.4616 27.889 37.2165 28.4218 38.1933C28.9547 39.1702 29.2433 40.2803 29.2433 41.5458M25.8686 40.6355C25.8686 39.7919 25.5578 39.1258 24.9584 38.6152C24.3589 38.1045 23.6485 37.8381 22.8048 37.8381C22.0056 37.8381 21.3173 38.0823 20.7623 38.593C20.2294 39.0814 19.8742 39.7475 19.7632 40.6355H25.8908H25.8686Z" fill="#0E183E" style="fill:#0E183E;fill:color(display-p3 0.0549 0.0941 0.2431);fill-opacity:1;"/>
<path d="M34.5939 38.0379V44.321C34.5939 44.765 34.7049 45.0759 34.9047 45.2757C35.1267 45.4533 35.482 45.5643 35.9704 45.5643H37.4801V48.3395H35.4376C32.6846 48.3395 31.308 46.9852 31.308 44.2988V38.0379H29.7761V35.3515H31.308V32.1323H34.5939V35.3515H37.4801V38.0379H34.5939Z" fill="#0E183E" style="fill:#0E183E;fill:color(display-p3 0.0549 0.0941 0.2431);fill-opacity:1;"/>
<path d="M44.7401 48.5393C43.4968 48.5393 42.3867 48.2729 41.3876 47.7179C40.3885 47.1628 39.6115 46.3636 39.0342 45.3423C38.4792 44.321 38.1906 43.1443 38.1906 41.8344C38.1906 40.5245 38.4792 39.3256 39.0564 38.3265C39.6559 37.3053 40.4551 36.5282 41.4542 35.9732C42.4533 35.4181 43.5856 35.1295 44.8289 35.1295C46.0722 35.1295 47.2044 35.4181 48.2035 35.9732C49.2026 36.5282 50.0019 37.3053 50.5791 38.3265C51.1785 39.3478 51.4672 40.5245 51.4672 41.8344C51.4672 43.1443 51.1563 44.3432 50.5569 45.3423C49.9574 46.3636 49.1582 47.1406 48.1369 47.7179C47.1378 48.2729 46.0055 48.5393 44.7401 48.5393ZM44.7401 45.6975C45.3395 45.6975 45.8723 45.5643 46.383 45.2757C46.9158 44.987 47.3377 44.543 47.6485 43.9658C47.9593 43.3885 48.1147 42.6781 48.1147 41.8566C48.1147 40.6133 47.7817 39.6809 47.1378 39.0148C46.494 38.3488 45.7169 38.0157 44.7845 38.0157C43.852 38.0157 43.0749 38.3488 42.4311 39.0148C41.8094 39.6809 41.4986 40.6133 41.4986 41.8566C41.4986 43.0999 41.8094 44.0546 42.4089 44.7206C43.0305 45.3867 43.8076 45.6975 44.7401 45.6975Z" fill="#0E183E" style="fill:#0E183E;fill:color(display-p3 0.0549 0.0941 0.2431);fill-opacity:1;"/>
<path d="M60.1924 35.1739C61.7243 35.1739 62.9676 35.6623 63.9223 36.6614C64.877 37.6383 65.3432 38.9926 65.3432 40.7465V48.3617H62.0796V41.1906C62.0796 40.1693 61.8131 39.37 61.3025 38.815C60.7919 38.2599 60.0814 37.9713 59.2155 37.9713C58.3497 37.9713 57.5948 38.2599 57.0842 38.815C56.5736 39.37 56.3071 40.1471 56.3071 41.1906V48.3617H53.0435V35.3737H56.3071V36.9944C56.7512 36.4394 57.284 35.9954 57.9501 35.6846C58.6383 35.3515 59.371 35.1961 60.1924 35.1961" fill="#0E183E" style="fill:#0E183E;fill:color(display-p3 0.0549 0.0941 0.2431);fill-opacity:1;"/>
<path d="M70.8936 37.2387C71.3154 36.617 71.8927 36.1064 72.6253 35.7068C73.3802 35.3071 74.2239 35.1295 75.1563 35.1295C76.2664 35.1295 77.2433 35.3959 78.1314 35.951C79.0416 36.506 79.7299 37.2831 80.2405 38.3043C80.7734 39.3034 81.0398 40.4579 81.0398 41.79C81.0398 43.1221 80.7734 44.2988 80.2405 45.3201C79.7299 46.3413 79.0194 47.1184 78.1314 47.6957C77.2433 48.2507 76.2442 48.5393 75.1563 48.5393C74.2017 48.5393 73.358 48.3617 72.6253 47.9843C71.9149 47.5846 71.3376 47.0962 70.8936 46.4746V48.3173H67.63V31H70.8936V37.2609V37.2387ZM77.7095 41.79C77.7095 41.0129 77.5541 40.3469 77.2211 39.7697C76.9103 39.1924 76.4884 38.7484 75.9556 38.4598C75.445 38.1711 74.8899 38.0157 74.2905 38.0157C73.691 38.0157 73.136 38.1711 72.6031 38.482C72.0925 38.7706 71.6707 39.2146 71.3376 39.7919C71.0268 40.3691 70.8714 41.0574 70.8714 41.8344C70.8714 42.6115 71.0268 43.2997 71.3376 43.877C71.6707 44.4542 72.0925 44.8982 72.6031 45.2091C73.136 45.4977 73.691 45.6531 74.2905 45.6531C74.8899 45.6531 75.445 45.4977 75.9556 45.1869C76.4884 44.876 76.9103 44.432 77.2211 43.8548C77.5541 43.2775 77.7095 42.5893 77.7095 41.79Z" fill="#0E183E" style="fill:#0E183E;fill:color(display-p3 0.0549 0.0941 0.2431);fill-opacity:1;"/>
<path d="M81.7502 41.79C81.7502 40.4801 82.0167 39.3034 82.5273 38.3043C83.0601 37.2831 83.7706 36.506 84.6365 35.951C85.5467 35.3959 86.5458 35.1295 87.6337 35.1295C88.5883 35.1295 89.432 35.3293 90.1425 35.7068C90.8751 36.1064 91.4524 36.5948 91.8964 37.1943V35.3515H95.1822V48.3395H91.8964V46.4302C91.4746 47.0296 90.8973 47.5402 90.1425 47.9621C89.4098 48.3617 88.5661 48.5393 87.6115 48.5393C86.5236 48.5393 85.5245 48.2507 84.6365 47.6956C83.7484 47.1406 83.0379 46.3413 82.5273 45.3201C82.0167 44.2988 81.7502 43.0999 81.7502 41.79ZM91.8964 41.8344C91.8964 41.0352 91.741 40.3469 91.4302 39.7919C91.1193 39.2146 90.6975 38.7706 90.1647 38.482C89.6318 38.1711 89.0768 38.0157 88.4551 38.0157C87.8335 38.0157 87.3007 38.1711 86.7678 38.4598C86.2572 38.7484 85.8353 39.1924 85.5023 39.7697C85.1915 40.3247 85.0361 41.0129 85.0361 41.79C85.0361 42.5671 85.1915 43.2553 85.5023 43.8548C85.8353 44.432 86.2572 44.876 86.7678 45.1869C87.3007 45.4977 87.8557 45.6531 88.4551 45.6531C89.0546 45.6531 89.6318 45.4977 90.1647 45.2091C90.6975 44.8982 91.1193 44.4542 91.4302 43.8992C91.741 43.3219 91.8964 42.6337 91.8964 41.8344Z" fill="#0E183E" style="fill:#0E183E;fill:color(display-p3 0.0549 0.0941 0.2431);fill-opacity:1;"/>
<path d="M104.707 35.1739C106.239 35.1739 107.482 35.6623 108.437 36.6614C109.391 37.6383 109.858 38.9926 109.858 40.7465V48.3617H106.594V41.1906C106.594 40.1693 106.327 39.37 105.817 38.815C105.306 38.2599 104.596 37.9713 103.73 37.9713C102.864 37.9713 102.109 38.2599 101.599 38.815C101.088 39.37 100.821 40.1471 100.821 41.1906V48.3617H97.5578V35.3737H100.821V36.9944C101.266 36.4394 101.798 35.9954 102.464 35.6846C103.153 35.3515 103.885 35.1961 104.707 35.1961" fill="#0E183E" style="fill:#0E183E;fill:color(display-p3 0.0549 0.0941 0.2431);fill-opacity:1;"/>
<path d="M119.759 48.3395L115.386 42.8113V48.3395H112.122V31H115.386V40.8575L119.715 35.3515H123.956L118.272 41.8788L124 48.3395H119.759Z" fill="#0E183E" style="fill:#0E183E;fill:color(display-p3 0.0549 0.0941 0.2431);fill-opacity:1;"/>
</svg>
