<svg width="128" height="80" viewBox="0 0 128 80" fill="none" xmlns="http://www.w3.org/2000/svg">
<g clip-path="url(#clip0_23624_31332)">
<path d="M114.332 47.3715L109.733 46.4869C109.635 47.6053 109.355 48.5717 108.897 49.1421C108.438 49.7125 107.607 50.0073 106.787 50.0073C106.085 50.0273 105.403 49.7597 104.891 49.2627C104.381 48.7723 104.127 48.0347 104.127 47.0498V39.7885H112.747V33.9212H104.127V28.5884H97.8706V46.9441C97.8706 49.5561 98.6091 51.6504 100.086 53.2268C101.563 54.8035 103.762 55.5931 106.684 55.5962C109.178 55.5962 111.317 54.8843 112.811 53.4592C113.413 52.885 113.926 52.219 114.332 51.4845C114.973 50.2865 115.385 48.9718 115.544 47.6127L114.332 47.3715Z" fill="#0B0F14" style="fill:#0B0F14;fill:color(display-p3 0.0431 0.0588 0.0784);fill-opacity:1;"/>
<path d="M53.7253 36.555C52.7012 34.6823 51.2022 33.1336 49.3898 32.0755C47.5843 30.9835 45.4817 30.4404 43.0825 30.4463C40.7187 30.4463 38.6167 30.9894 36.7767 32.0755C34.9643 33.1336 33.4653 34.6823 32.4412 36.555C31.3908 38.4552 30.8653 40.61 30.8643 43.0195C30.8632 45.429 31.387 47.5859 32.4354 49.49C33.4612 51.3584 34.96 52.9027 36.7708 53.9577C38.6101 55.0496 40.7121 55.5956 43.0767 55.5956C45.4789 55.5956 47.5815 55.0526 49.384 53.9665C51.1982 52.9101 52.6992 51.3625 53.7253 49.49C54.7764 47.5898 55.302 45.435 55.302 43.0255C55.302 40.616 54.7764 38.4591 53.7253 36.555ZM48.3491 46.6606C47.8544 47.6744 47.1083 48.5346 46.187 49.1535C45.245 49.7211 44.1739 50.0202 43.0832 50.0202C41.9926 50.0202 40.9215 49.7211 39.9792 49.1535C39.0579 48.5346 38.3121 47.6744 37.8174 46.6606C37.2908 45.5765 37.0281 44.3121 37.0288 42.8676C37.0298 41.4231 37.2926 40.1588 37.8174 39.0747C38.2926 38.0473 39.0427 37.1822 39.9792 36.5818C40.9215 36.0141 41.9926 35.715 43.0832 35.715C44.1739 35.715 45.245 36.0141 46.187 36.5818C47.1235 37.1822 47.8739 38.0473 48.3491 39.0747C48.8757 40.1568 49.1384 41.4211 49.1374 42.8676C49.1367 44.3141 48.8739 45.5784 48.3491 46.6606Z" fill="#0B0F14" style="fill:#0B0F14;fill:color(display-p3 0.0431 0.0588 0.0784);fill-opacity:1;"/>
<path d="M88.813 45.9159C88.4816 47.1748 87.8737 48.1775 86.9897 48.9241C86.1059 49.6707 84.8907 50.044 83.3446 50.044C82.3299 50.0445 81.3251 49.8369 80.3884 49.4334C79.4821 49.0035 78.7006 48.3361 78.1213 47.4975C77.5631 46.6139 77.2512 45.5278 77.1859 44.2391H93.0995C93.1659 43.7646 93.214 43.2895 93.2436 42.814C93.3087 42.3079 93.3413 41.798 93.3418 41.2876C93.3418 39.0478 92.8818 37.1303 91.9623 35.5348C91.0968 33.9273 89.794 32.6173 88.215 31.7672C86.6092 30.8866 84.7211 30.4463 82.5504 30.4463C80.2183 30.4463 78.1818 31.0062 76.4406 32.1261C74.7208 33.2227 73.3107 34.7676 72.3517 36.6056C71.3993 38.472 70.9233 40.5569 70.9233 42.8601C70.9233 45.4414 71.4489 47.6985 72.5 49.6315C73.5264 51.5068 75.0469 53.0425 76.8846 54.0602C78.7613 55.084 80.8983 55.5956 83.2957 55.5956C86.1198 55.5956 88.435 54.9171 90.2413 53.5599C92.0816 52.2017 93.3788 50.369 94.133 48.0619L88.813 45.9159ZM79.1461 36.7575C80.1261 36.0445 81.2988 35.6693 82.4973 35.6853C83.3426 35.6636 84.1826 35.8297 84.9603 36.1722C85.6345 36.4271 86.2183 36.8865 86.6352 37.4901C87.0785 38.0753 87.3216 38.7961 87.3256 39.5393C87.3223 39.623 87.3051 39.7056 87.2752 39.7835H77.2694C77.598 38.4537 78.1616 37.4455 79.1461 36.7619V36.7575Z" fill="#0B0F14" style="fill:#0B0F14;fill:color(display-p3 0.0431 0.0588 0.0784);fill-opacity:1;"/>
<path d="M56.7827 55.0839L64.1422 25.2168H70.7926L63.4346 55.0839H56.7827Z" fill="#0B0F14" style="fill:#0B0F14;fill:color(display-p3 0.0431 0.0588 0.0784);fill-opacity:1;"/>
<path d="M10.6517 30.9541L17.0066 48.9166L23.7001 30.9541H30.3519L20.8506 55.0788H13.2115L4 30.9541H10.6517Z" fill="#0B0F14" style="fill:#0B0F14;fill:color(display-p3 0.0431 0.0588 0.0784);fill-opacity:1;"/>
<path d="M121.102 55.5957C120.617 55.6028 120.14 55.4719 119.722 55.2175C119.317 54.9684 118.981 54.615 118.748 54.1917C118.515 53.7684 118.393 53.2897 118.393 52.8028C118.393 52.3157 118.515 51.8373 118.748 51.414C118.981 50.9907 119.317 50.637 119.722 50.3881C120.143 50.1401 120.62 50.0098 121.105 50.0098C121.591 50.0098 122.067 50.1401 122.489 50.3881C122.891 50.6327 123.225 50.9811 123.458 51.3993C123.69 51.8279 123.812 52.3107 123.812 52.8021C123.812 53.2932 123.69 53.7762 123.458 54.2049C123.227 54.6226 122.895 54.9717 122.495 55.2175C122.074 55.4747 121.592 55.6056 121.102 55.5957ZM121.102 54.9375C121.472 54.9443 121.836 54.8449 122.153 54.6502C122.462 54.4595 122.718 54.1887 122.895 53.8646C123.072 53.5406 123.164 53.1742 123.162 52.8021C123.168 52.4266 123.076 52.0562 122.897 51.7299C122.719 51.4122 122.465 51.1476 122.159 50.9613C121.84 50.7704 121.478 50.6692 121.109 50.6679C120.74 50.6666 120.378 50.7654 120.057 50.954C119.755 51.1421 119.503 51.4064 119.325 51.7223C119.05 52.2107 118.973 52.7917 119.11 53.3388C119.247 53.8861 119.587 54.3552 120.057 54.6441C120.373 54.8383 120.735 54.9388 121.102 54.9345V54.9375ZM121.123 54.1588C120.89 54.1537 120.662 54.0861 120.462 53.9626C120.263 53.8393 120.097 53.6643 119.983 53.4547C119.868 53.2454 119.808 53.0089 119.809 52.7681C119.81 52.5276 119.871 52.2914 119.987 52.0828C120.099 51.8851 120.262 51.7228 120.457 51.6137C120.651 51.5018 120.87 51.4438 121.092 51.4454C121.37 51.436 121.644 51.5168 121.875 51.6762C122.1 51.8504 122.251 52.1084 122.294 52.3955L121.75 52.5623C121.728 52.399 121.651 52.2492 121.532 52.1393C121.412 52.0324 121.258 51.9752 121.1 51.9785C120.919 51.9811 120.746 52.0532 120.615 52.1811C120.497 52.2907 120.414 52.4347 120.376 52.594C120.338 52.7535 120.348 52.9208 120.403 53.0745C120.459 53.2281 120.558 53.3611 120.687 53.456C120.817 53.5507 120.971 53.6031 121.13 53.6061C121.227 53.6137 121.325 53.5993 121.417 53.5641C121.508 53.5289 121.591 53.4737 121.66 53.4021C121.78 53.2633 121.856 53.0904 121.878 52.9064L122.402 53.1059C122.335 53.4122 122.172 53.6869 121.938 53.8876C121.705 54.0725 121.417 54.1674 121.123 54.1557V54.1588Z" fill="#0B0F14" style="fill:#0B0F14;fill:color(display-p3 0.0431 0.0588 0.0784);fill-opacity:1;"/>
</g>
<defs>
<clipPath id="clip0_23624_31332">
<rect width="120" height="30.6329" fill="white" style="fill:white;fill-opacity:1;" transform="translate(4 25)"/>
</clipPath>
</defs>
</svg>
